<svg width="20" height="20" viewBox="0 0 20 20" fill="none" xmlns="http://www.w3.org/2000/svg">
    <mask id="om40xq4u4a" style="mask-type:alpha" maskUnits="userSpaceOnUse" x="0" y="0" width="20" height="20">
        <path fill="#D9D9D9" d="M0 0h20v20H0z"/>
    </mask>
    <g mask="url(#om40xq4u4a)">
        <path d="M10 19.125a.806.806 0 0 1-.594-.24.806.806 0 0 1-.24-.593v-.834c-1.735-.194-3.225-.913-4.468-2.156-1.243-1.243-1.962-2.733-2.156-4.469h-.834a.806.806 0 0 1-.593-.24.807.807 0 0 1-.24-.593c0-.236.08-.434.24-.594.16-.16.357-.24.593-.24h.834c.194-1.735.913-3.225 2.156-4.468C5.94 3.455 7.43 2.736 9.167 2.542v-.834c0-.236.08-.434.24-.593.159-.16.357-.24.593-.24s.434.08.594.24c.16.16.24.357.24.593v.834c1.735.194 3.225.913 4.468 2.156 1.243 1.243 1.962 2.733 2.156 4.469h.834c.236 0 .434.08.593.24.16.159.24.357.24.593s-.08.434-.24.594a.806.806 0 0 1-.593.24h-.834c-.194 1.735-.913 3.225-2.156 4.468-1.243 1.243-2.733 1.962-4.469 2.156v.834c0 .236-.08.434-.24.593a.807.807 0 0 1-.593.24zm0-3.292c1.611 0 2.986-.57 4.125-1.708 1.139-1.139 1.708-2.514 1.708-4.125 0-1.611-.57-2.986-1.708-4.125C12.986 4.736 11.611 4.167 10 4.167c-1.611 0-2.986.57-4.125 1.708C4.736 7.014 4.167 8.389 4.167 10c0 1.611.57 2.986 1.708 4.125 1.139 1.139 2.514 1.708 4.125 1.708z" fill="#fff"/>
    </g>
</svg>
