<svg width="1266" height="532" viewBox="0 0 1266 532" fill="none" xmlns="http://www.w3.org/2000/svg">
    <path d="M1246 0H20C8.954 0 0 8.954 0 20v492c0 11.046 8.954 20 20 20h1226c11.05 0 20-8.954 20-20V20c0-11.046-8.95-20-20-20z" fill="#184D93"/>
    <path d="M1246 .5H20C9.23.5.5 9.23.5 20v492c0 10.77 8.73 19.5 19.5 19.5h1226c10.77 0 19.5-8.73 19.5-19.5V20c0-10.77-8.73-19.5-19.5-19.5z" stroke="#fff"/>
    <path d="M119.438 387.147v-8.787h5.5v-7.9H88L93.3 315h69.317L168 370.455h-36.454v7.9h5.5v8.787l-17.608.005zm22.628-20.247h22.042l-1.174-12.226-21.035-.2.167 12.426zm-22.813 0h19.129l-.164-12.465-18.8-.179-.165 12.644zm-27.443 0h23.76l.171-12.68-22.694-.215L91.81 366.9zm49.85-30.214.19 14.113 20.732.194-1.391-14.493-19.531.186zm-22.011.206-.181 13.7 18.7.175-.183-14.047-18.336.172zm-24.981.234-1.268 13.22 22.391.209.183-13.628-21.306.199zm.352-3.667 21-.2.2-14.688H96.448l-1.428 14.888zm24.68-.235 18.241-.174-.194-14.479h-17.858l-.189 14.653zm21.914-.209 19.228-.184-1.372-14.26h-18.053l.197 14.444zM1149.92 119.571h-49.84c-2.89.204-7.08-1.66-7.08-6.071V84.3l-4.05 4.443c-.19.243-.43.44-.7.575-.28.135-.58.206-.88.206-.31 0-.61-.07-.89-.206a2.07 2.07 0 0 1-.7-.575 2.702 2.702 0 0 1-.57-.865c-.14-.324-.21-.671-.21-1.021 0-.35.07-.698.21-1.021.13-.324.33-.618.57-.865l35.45-35.41c1-1 2.36-1.561 3.77-1.561 1.41 0 2.77.561 3.77 1.56L1141 61.778v-6.888c0-.35.07-.697.2-1.02.14-.323.33-.617.58-.864.25-.248.54-.444.87-.578.32-.134.67-.203 1.02-.202h5.33c.35 0 .7.068 1.02.202.32.134.62.33.87.578.24.247.44.54.57.864.14.323.21.67.21 1.02v17.545l12.55 12.537c.25.247.44.541.58.865.13.323.2.67.2 1.02 0 .351-.07.698-.2 1.022a2.73 2.73 0 0 1-.58.865c-1.04 1.04-2.73.04-3.78-1L1157 84.3v29.2c0 4.017-4.43 6.136-6.53 6.135-.19.002-.37-.019-.55-.064zm0-3.409c1.47 0 3.67-1.192 3.67-2.664V81.125l-28.42-28.9-28.75 28.9V113.5c0 1.471 2.19 2.664 3.66 2.664h13.88V88.478h22.08v27.683l13.88.001zm-32.28-.111h14.72v-23.9h-14.72v23.9zM406.052 308a3.216 3.216 0 0 1-3.052-3.259v-73.482a3.233 3.233 0 0 1 3.147-3.259h57.883a3.22 3.22 0 0 1 3.051 3.259V270.5a1.234 1.234 0 0 1-.757 1.177 1.234 1.234 0 0 1-1.372-.278 1.23 1.23 0 0 1-.35-.899v-39.241a.77.77 0 0 0-.465-.729.764.764 0 0 0-.298-.061h-57.692a.77.77 0 0 0-.763.79v60.075h59.123v-16.667a1.283 1.283 0 0 1 1.239-1.284 1.089 1.089 0 0 1 1.054 1.284v30.074a3.157 3.157 0 0 1-3.056 3.259h-57.692zm-.668-3.259a.77.77 0 0 0 .465.729.76.76 0 0 0 .298.061h57.6a.77.77 0 0 0 .763-.79V294.25h-59.126v10.491zm3.616-3.407a1.459 1.459 0 0 1 0-2.917h51.8a1.459 1.459 0 0 1 0 2.917H409zm13.275-30.417a1.462 1.462 0 0 1-1.347-.9 1.466 1.466 0 0 1 0-1.116 1.454 1.454 0 0 1 1.347-.9h25.647a1.46 1.46 0 0 1 1.458 1.458 1.459 1.459 0 0 1-1.458 1.458h-25.647zm-6.314-5.417a1.999 1.999 0 0 1-2-2v-25.584a2 2 0 0 1 2-2h38.275a2 2 0 0 1 2 2V263.5a2 2 0 0 1-2 2h-38.275zm.414-26.5v23.416a.997.997 0 0 0 1 1h35.447a1 1 0 0 0 1-1V239a1.002 1.002 0 0 0-1-1h-35.447a.997.997 0 0 0-1 1zm26.569 19.833a1.207 1.207 0 1 1 1.874 1.049 1.21 1.21 0 0 1-.667.201 1.22 1.22 0 0 1-.863-.375 1.227 1.227 0 0 1-.344-.875zm-6.035 0a1.207 1.207 0 1 1 1.874 1.049 1.21 1.21 0 0 1-.667.201 1.22 1.22 0 0 1-.863-.375 1.227 1.227 0 0 1-.344-.875zm-6.035 0a1.207 1.207 0 1 1 1.874 1.049 1.21 1.21 0 0 1-.667.201 1.223 1.223 0 0 1-1.207-1.25zm-6.035 0a1.207 1.207 0 1 1 1.874 1.049 1.21 1.21 0 0 1-.667.201 1.223 1.223 0 0 1-1.207-1.25zm-1.414-5.416a.997.997 0 0 1-1-1v-10.5a.997.997 0 0 1 1-1h23.346a1 1 0 0 1 1 1v10.5a1.002 1.002 0 0 1-1 1h-23.346zm1.414-2.5h20.519v-7.5H424.84l-.001 7.5zM815.345 320.81h-68.676a5.68 5.68 0 0 1-4.007-1.662 5.68 5.68 0 0 1-1.662-4.007v-46.472a5.68 5.68 0 0 1 1.662-4.007 5.68 5.68 0 0 1 4.007-1.662h68.662a5.68 5.68 0 0 1 4.007 1.662 5.68 5.68 0 0 1 1.662 4.007v46.472a5.636 5.636 0 0 1-.427 2.168 5.645 5.645 0 0 1-5.228 3.501zm-68.676-54.265a2.124 2.124 0 0 0-1.503.621 2.112 2.112 0 0 0-.621 1.503v46.472a2.124 2.124 0 0 0 .621 1.503 2.112 2.112 0 0 0 1.503.621h68.662a2.124 2.124 0 0 0 1.503-.621 2.112 2.112 0 0 0 .621-1.503v-46.472a2.124 2.124 0 0 0-.621-1.503 2.112 2.112 0 0 0-1.503-.621h-68.662z" fill="#fff"/>
    <path d="M760.623 289.395h-6.983a1.772 1.772 0 0 1-1.763-1.763v-8.759a1.772 1.772 0 0 1 1.763-1.763h6.983a1.772 1.772 0 0 1 1.763 1.763v8.759a1.772 1.772 0 0 1-1.763 1.763zm-5.22-3.525h3.458v-5.234h-3.458v5.234zm20.659 3.525h-6.984a1.772 1.772 0 0 1-1.763-1.763v-8.759a1.77 1.77 0 0 1 1.763-1.762h6.983a1.772 1.772 0 0 1 1.763 1.763v8.759a1.76 1.76 0 0 1-1.762 1.762zm-5.22-3.525h3.458v-5.234h-3.458v5.234zM792.552 289.484h-7.037c-.469 0-.919-.185-1.252-.515a1.779 1.779 0 0 1-.524-1.248v-8.759c.003-.469.192-.917.524-1.248.333-.33.783-.515 1.252-.515h7.037c.469 0 .919.185 1.252.515.332.331.521.779.524 1.248v8.759a1.779 1.779 0 0 1-.524 1.248c-.333.33-.783.515-1.252.515zm-5.261-3.525h3.485v-5.234h-3.485v5.234zm20.819 3.525h-7.037c-.469 0-.919-.185-1.252-.515a1.779 1.779 0 0 1-.524-1.248v-8.759c.003-.469.192-.917.524-1.248.333-.33.783-.515 1.252-.515h7.037c.469 0 .919.185 1.251.516.333.33.522.778.525 1.247v8.759a1.765 1.765 0 0 1-1.098 1.631 1.772 1.772 0 0 1-.678.132zm-5.261-3.525h3.484v-5.234h-3.483l-.001 5.234zm5.261 24.806h-54.354c-.469 0-.919-.185-1.252-.515a1.779 1.779 0 0 1-.524-1.248v-9.452a1.771 1.771 0 0 1 1.776-1.762h54.354a1.776 1.776 0 0 1 1.776 1.762V309a1.754 1.754 0 0 1-.521 1.251 1.761 1.761 0 0 1-1.255.514zm-52.579-3.525h50.8v-5.927h-50.8v5.927zM1149.43 279.552c.35 0 .68-.137.92-.381.25-.244.38-.574.38-.919v-5.545c0-.047 0-.095-.01-.142v-.019a.44.44 0 0 0-.03-.159v-.031a15.77 15.77 0 0 0-.06-.168l-.01-.015a.898.898 0 0 0-.08-.145l-.02-.028a.937.937 0 0 0-.1-.139l-.02-.026a1.006 1.006 0 0 0-.13-.121v-.005l-16.52-13.765-4.07-5.424a1.313 1.313 0 0 0-1.04-.52h-5.55a1.302 1.302 0 0 0-1.04.52l-4.07 5.424-16.51 13.756v.005c-.05.038-.09.078-.13.121l-.02.026a.937.937 0 0 0-.1.139l-.02.027c-.02.047-.05.095-.07.145l-.01.015-.06.168c0 .01 0 .021-.01.031l-.03.159v.019c0 .047-.01.095-.01.143v5.545c0 .345.14.675.38.919.25.244.58.381.92.381.35 0 .68-.137.92-.381.25-.244.38-.574.38-.919v-4.236h14.04v11.954l-16.18 13.468v.005c-.05.038-.09.078-.13.121l-.02.026a.937.937 0 0 0-.1.139l-.02.027c-.02.047-.05.095-.07.145l-.01.015-.06.168c0 .01 0 .021-.01.031l-.03.159v.019c0 .047-.01.095-.01.143v5.545c0 .345.14.675.39.919a1.286 1.286 0 0 0 1.83 0c.25-.244.38-.574.38-.919v-4.24h13.48l-10.14 27.9h-1.88c-.34 0-.67.137-.92.381-.24.244-.38.574-.38.919 0 .345.14.675.38.919.25.244.58.381.92.381h6.93a1.303 1.303 0 0 0 1.3-1.3 1.303 1.303 0 0 0-1.3-1.3h-1.41l15.28-18.674 15.27 18.674h-.03c-.34 0-.67.137-.91.381-.25.244-.39.574-.39.919 0 .345.14.675.39.919.24.244.57.381.91.381h6.94c.34 0 .67-.137.91-.381.25-.244.39-.574.39-.919 0-.345-.14-.675-.39-.919a1.28 1.28 0 0 0-.91-.381h-3.25l-10.15-27.9h13.48v4.245c0 .345.14.675.39.919a1.286 1.286 0 0 0 1.83 0c.25-.244.38-.574.38-.919v-5.705l-.03-.159-.01-.031a15.77 15.77 0 0 0-.06-.168l-.01-.015a.898.898 0 0 0-.08-.145l-.01-.027a.937.937 0 0 0-.1-.139l-.03-.026c-.03-.043-.08-.083-.12-.121v-.005l-16.18-13.475v-11.954h14.04v4.245c0 .344.13.674.38.918.24.244.57.381.91.382zm-25.4-13.776-3.79 3.794v-7.588l3.79 3.794zm-1.95-5.632h7.58l-3.79 3.794-3.79-3.794zm0 11.263 3.79-3.794 3.79 3.794h-7.58zm7.58 2.6-3.79 3.793-3.8-3.794 7.59.001zm-5.63 5.632-3.79 3.794v-7.588l3.79 3.794zm-1.95 5.632 3.79-3.794 3.79 3.794h-7.58zm7.58 2.6-3.79 3.794-3.8-3.794h7.59zm-5.63 5.629-3.8 3.8v-7.592l3.8 3.792zm1.84 1.838 3.79 3.794h-7.59l3.8-3.794zm4.18 6.393-4.18 5.12-4.19-5.12h8.37zm-2.35-8.231 3.79-3.794v7.594l-3.79-3.8zm0-13.863 3.79-3.794v7.587l-3.79-3.793zm0-13.863 3.8-3.792v7.588l-3.8-3.796zm-3.96-11.174h4.25l2.21 2.945h-8.66l2.2-2.945zm-6.11 7.02v9.788h-11.74l11.74-9.788zm0 27.725v9.788h-11.74l11.74-9.788zm-5.95 34.849 7.7-21.17 4.81 5.881-12.51 15.289zm15.86-15.294 4.82-5.881 7.7 21.17-12.52-15.289zm6.56-9.771v-9.784l11.74 9.788-11.74-.004zm0-27.725v-9.785l11.74 9.788-11.74-.003zM404 468.786a3.995 3.995 0 0 1-2.828-1.172 3.995 3.995 0 0 1-1.172-2.828v-36.3h-3a2 2 0 0 1-2-2v-7.241a2 2 0 0 1 2-2h7.411v-4.623a.997.997 0 0 1 1-1h1.825V407a.997.997 0 0 1 1-1h8.353a.997.997 0 0 1 1 1v4.622h1.825a.997.997 0 0 1 1 1v4.623h30.115v-4.623a.997.997 0 0 1 1-1h1.825V407a.997.997 0 0 1 1-1h8.353a.997.997 0 0 1 1 1v4.622h1.825a.997.997 0 0 1 1 1v4.623H473a2 2 0 0 1 2 2v7.246a2 2 0 0 1-2 2h-1.47v36.3a3.995 3.995 0 0 1-1.172 2.828 3.995 3.995 0 0 1-2.828 1.172l-63.53-.005zm-1-4.749a2 2 0 0 0 2 2h62a2 2 0 0 0 2-2v-35.546h-66v35.546zm-5.176-42.98v3.623a.997.997 0 0 0 1 1h73.294a.997.997 0 0 0 1-1v-3.623a.997.997 0 0 0-1-1h-73.294a.997.997 0 0 0-1 1zm65.976-3.811c.133 0 .26-.053.354-.146a.504.504 0 0 0 .146-.354V414a.504.504 0 0 0-.146-.354.504.504 0 0 0-.354-.146h-10.844a.504.504 0 0 0-.354.146.504.504 0 0 0-.146.354v2.749c0 .133.053.26.146.354a.504.504 0 0 0 .354.146l10.844-.003zm-46.118 0c.133 0 .26-.053.354-.146a.504.504 0 0 0 .146-.354V414a.504.504 0 0 0-.146-.354.504.504 0 0 0-.354-.146h-10.844a.504.504 0 0 0-.354.146.504.504 0 0 0-.146.354v2.749c0 .133.053.26.146.354a.504.504 0 0 0 .354.146l10.844-.003zm37.549-9.5v3.721h6.729v-3.717a.504.504 0 0 0-.146-.354.504.504 0 0 0-.354-.146h-5.725a.504.504 0 0 0-.354.146.504.504 0 0 0-.146.354l-.004-.004zm-46.118 0v3.721h6.725v-3.717a.504.504 0 0 0-.146-.354.504.504 0 0 0-.354-.146h-5.721a.504.504 0 0 0-.354.146.504.504 0 0 0-.146.354l-.004-.004zm23.92 52.997.911-9.011-6.319-1.149 10.451-11.783-.723 8.033 6.251 2.3-10.571 11.61zm-1.794-11.143 4.628.623-.734 4.99 5.234-5.613-4.5-1.474.575-4.831-5.203 6.305zm-18.357-7.528V438.8h-2.36a1.403 1.403 0 0 1-1.406-1.406 1.403 1.403 0 0 1 1.406-1.406h2.36v-2.337a1.418 1.418 0 0 1 1.412-1.45 1.404 1.404 0 0 1 1.011.427 1.418 1.418 0 0 1 .4 1.023v2.336h3.3a1.403 1.403 0 0 1 1.406 1.406 1.403 1.403 0 0 1-1.406 1.406h-3.3v3.273a1.418 1.418 0 0 1-1.411 1.45 1.405 1.405 0 0 1-1.012-.427 1.418 1.418 0 0 1-.4-1.023zm39.053-3.272a1.403 1.403 0 0 1-1.406-1.406 1.403 1.403 0 0 1 1.406-1.406h8.483a1.403 1.403 0 0 1 1.406 1.406 1.403 1.403 0 0 1-1.406 1.406h-8.483zM119.771 216.957V208.5h5.449v-7.61H88.641l5.248-53.39h68.637l5.331 53.388h-36.1v7.612h5.449v8.46l-17.435-.003zm22.406-19.491h21.825l-1.161-11.772-20.829-.194.165 11.966zm-22.589 0h18.941l-.162-12-18.615-.173-.164 12.173zm-27.175 0h23.528l.169-12.207-22.469-.208-1.228 12.415zm49.361-29.088.188 13.587 20.529.187-1.377-13.952-19.34.178zm-21.8.2-.179 13.187 18.519.169-.173-13.523-18.167.167zm-24.733.222-1.255 12.728 22.171.2.184-13.118-21.1.19zm.35-3.53 20.799-.193.2-14.14H97.006L95.59 165.27zm24.435-.227 18.062-.168-.188-13.937h-17.682l-.192 14.105zm21.7-.2 19.039-.177-1.355-13.728h-17.876l.192 13.905zM812.88 85.117a1.308 1.308 0 0 0-1.28 1.283v34.214a.776.776 0 0 1-.228.561.77.77 0 0 1-.561.228h-59.557a.786.786 0 0 1-.562-.228.779.779 0 0 1-.227-.561v-73.36a.783.783 0 0 1 .485-.732.775.775 0 0 1 .304-.057h59.654a.774.774 0 0 1 .731.485c.04.097.059.2.058.304v35a1.283 1.283 0 0 0 2.188.906c.24-.24.376-.566.376-.906v-35A3.266 3.266 0 0 0 811.106 44h-59.852A3.284 3.284 0 0 0 748 47.254v73.36a3.266 3.266 0 0 0 3.155 3.254h59.655a3.2 3.2 0 0 0 3.155-3.254V86.4a1.103 1.103 0 0 0-.242-.896 1.096 1.096 0 0 0-.843-.387z" fill="#fff"/>
    <path d="M769.2 117.36h37.173a1.308 1.308 0 0 0 1.282-1.282v-6.8a3.393 3.393 0 0 0 2.071-3.155v-6.515a3.497 3.497 0 0 0-2.071-3.155V71.408a3.393 3.393 0 0 0 2.071-3.155v-6.504a3.497 3.497 0 0 0-2.071-3.155v-6.8a1.307 1.307 0 0 0-1.282-1.286H755.79a1.303 1.303 0 0 0-1.282 1.282v64.289a1.304 1.304 0 0 0 1.282 1.282h9.367a1.281 1.281 0 1 0 0-2.564h-8.184V53.072h48.217v5.522h-.1c-.1 0-.1.1-.2.1h-.1c-.1 0-.1.1-.2.1h-.1c-.1.1-.2.1-.2.2-.1 0-.1.1-.2.2l-.1.1a.342.342 0 0 0-.1.2v.1c-.1.1-.1.2-.2.2 0 .1-.1.1-.1.2v.1c0 .1-.1.1-.1.2v.1c0 .1-.1.2-.1.3a.369.369 0 0 1-.1.3v7.854a.354.354 0 0 0 .1.3c0 .1.1.2.1.3v.1c0 .1.1.1.1.2v.1c0 .1.1.1.1.2.1.1.1.2.2.2v.1c0 .1.1.1.1.2l.1.1c.1 0 .1.1.2.2s.2.1.2.2h.1c.1 0 .1.1.2.1h.1c.1 0 .1.1.2.1h.1V96.26h-.1c-.1 0-.1.1-.2.1h-.1c-.1 0-.1.1-.2.1h-.1c-.1.1-.2.1-.2.2-.1 0-.1.1-.2.2l-.1.1a.342.342 0 0 0-.1.2v.1c-.1.1-.1.2-.2.2 0 .1-.1.1-.1.2v.1c0 .1-.1.1-.1.2v.1c0 .1-.1.2-.1.3a.369.369 0 0 1-.1.3v7.888a.351.351 0 0 0 .1.3c0 .1.1.2.1.3v.1c0 .1.1.1.1.2v.1c0 .1.1.1.1.2.1.1.1.2.2.2v.1c0 .1.1.1.1.2l.1.1c.1 0 .1.1.2.2s.2.1.2.2h.1c.1 0 .1.1.2.1h.1c.1 0 .1.1.2.1h.1v5.62H769.2a1.304 1.304 0 0 0-1.282 1.282c0 .623.59 1.51 1.282 1.51zm36.384-55.611a.785.785 0 0 1 .197-.618.785.785 0 0 1 .592-.265.794.794 0 0 1 .789.883v6.508a.802.802 0 0 1-.197.618.8.8 0 0 1-.592.265.796.796 0 0 1-.789-.883v-6.508zm0 37.863a.785.785 0 0 1 .197-.618.785.785 0 0 1 .592-.265.794.794 0 0 1 .789.883v6.508a.801.801 0 0 1-.465.814.806.806 0 0 1-.649 0 .797.797 0 0 1-.464-.814v-6.508z" fill="#fff"/>
    <path d="M792.469 96.259h-22.777a1.28 1.28 0 0 0-1.282 1.282 1.28 1.28 0 0 0 1.282 1.282h22.777a1.284 1.284 0 0 0 1.282-1.282 1.283 1.283 0 0 0-1.282-1.282zM792.469 101.584h-22.777a1.281 1.281 0 1 0 0 2.564h22.777a1.282 1.282 0 0 0 0-2.564zM792.469 106.908h-22.777a1.281 1.281 0 1 0 0 2.564h22.777a1.282 1.282 0 0 0 0-2.564zM796.413 88.371a1.303 1.303 0 0 0 1.282-1.282 1.413 1.413 0 0 0-.2-.69l-15.379-26.918a1.134 1.134 0 0 0-1.085-.592 1.363 1.363 0 0 0-1.085.592l-15.281 27.017a1.467 1.467 0 0 0 0 1.282 1.134 1.134 0 0 0 1.085.592l30.663-.001zm-28.595-2.465 13.213-23.27 13.311 23.27h-26.524z" fill="#fff"/>
    <path d="m779.553 72.102-1.971 5.226a1.263 1.263 0 0 0 .1 1.183 1.302 1.302 0 0 0 .986.592h1.873l-1.085 2.465a1.298 1.298 0 0 0 .592 1.676c.151.08.322.115.493.1a1.157 1.157 0 0 0 1.085-.789l1.775-4.24a1.252 1.252 0 0 0-.1-1.183 1.338 1.338 0 0 0-1.085-.592h-1.973l1.282-3.451a1.408 1.408 0 0 0-.691-1.676c-.295-.3-.986 0-1.281.689zM762.79 99.02a3.85 3.85 0 0 0-3.625 2.305 3.842 3.842 0 0 0 .769 4.226 3.844 3.844 0 0 0 4.205.878 3.843 3.843 0 0 0 2.398-3.564 3.835 3.835 0 0 0-3.747-3.845zm0 5.226a1.384 1.384 0 1 1 1.282-1.38 1.33 1.33 0 0 1-1.282 1.38zM111.656 247.516h-4.192l-.672 1.984h-2.864l4.064-11.232h3.168l4.064 11.232h-2.896l-.672-1.984zm-.704-2.112-1.392-4.112-1.376 4.112h2.768zm5.045-1.536c0-1.109.24-2.096.72-2.96a5.086 5.086 0 0 1 2-2.032c.864-.491 1.84-.736 2.928-.736 1.333 0 2.474.352 3.424 1.056.949.704 1.584 1.664 1.904 2.88h-3.008a2.414 2.414 0 0 0-.96-1.072 2.641 2.641 0 0 0-1.392-.368c-.843 0-1.526.293-2.048.88-.523.587-.784 1.371-.784 2.352 0 .981.261 1.765.784 2.352.522.587 1.205.88 2.048.88.522 0 .986-.123 1.392-.368.416-.245.736-.603.96-1.072h3.008c-.32 1.216-.955 2.176-1.904 2.88-.95.693-2.091 1.04-3.424 1.04-1.088 0-2.064-.24-2.928-.72a5.23 5.23 0 0 1-2-2.032c-.48-.864-.72-1.851-.72-2.96zm24.602-1.984c0 .651-.149 1.248-.448 1.792-.299.533-.757.965-1.376 1.296-.619.331-1.387.496-2.304.496h-1.696v4.032h-2.736v-11.232h4.432c.896 0 1.653.155 2.272.464.619.309 1.083.736 1.392 1.28.309.544.464 1.168.464 1.872zm-4.336 1.408c.523 0 .912-.123 1.168-.368.256-.245.384-.592.384-1.04 0-.448-.128-.795-.384-1.04s-.645-.368-1.168-.368h-1.488v2.816h1.488zm16.304-5.024-3.984 11.232h-3.424l-3.984-11.232h2.912l2.784 8.48 2.8-8.48h2.896zM108.864 405.768c1.184 0 2.219.235 3.104.704a4.965 4.965 0 0 1 2.048 1.984c.491.843.736 1.819.736 2.928 0 1.099-.245 2.075-.736 2.928a4.94 4.94 0 0 1-2.064 1.984c-.885.469-1.915.704-3.088.704h-4.208v-11.232h4.208zm-.176 8.864c1.035 0 1.84-.283 2.416-.848.576-.565.864-1.365.864-2.4s-.288-1.84-.864-2.416c-.576-.576-1.381-.864-2.416-.864h-1.296v6.528h1.296zm7.129-3.264c0-1.109.24-2.096.72-2.96a5.093 5.093 0 0 1 2-2.032c.864-.491 1.84-.736 2.928-.736 1.333 0 2.475.352 3.424 1.056.949.704 1.584 1.664 1.904 2.88h-3.008a2.414 2.414 0 0 0-.96-1.072 2.636 2.636 0 0 0-1.392-.368c-.843 0-1.525.293-2.048.88-.523.587-.784 1.371-.784 2.352 0 .981.261 1.765.784 2.352s1.205.88 2.048.88c.523 0 .987-.123 1.392-.368.416-.245.736-.603.96-1.072h3.008c-.32 1.216-.955 2.176-1.904 2.88-.949.693-2.091 1.04-3.424 1.04-1.088 0-2.064-.24-2.928-.72a5.236 5.236 0 0 1-2-2.032c-.48-.864-.72-1.851-.72-2.96zm24.602-1.984c0 .651-.149 1.248-.448 1.792-.298.533-.757.965-1.376 1.296-.618.331-1.386.496-2.304.496h-1.696V417h-2.736v-11.232h4.432c.896 0 1.654.155 2.272.464.619.309 1.083.736 1.392 1.28.31.544.464 1.168.464 1.872zm-4.336 1.408c.523 0 .912-.123 1.168-.368.256-.245.384-.592.384-1.04 0-.448-.128-.795-.384-1.04s-.645-.368-1.168-.368h-1.488v2.816h1.488zm16.305-5.024L148.404 417h-3.424l-3.984-11.232h2.912l2.784 8.48 2.8-8.48h2.896zM418.84 186.768V198h-2.736v-4.624h-4.256V198h-2.736v-11.232h2.736v4.4h4.256v-4.4h2.736zm11.095 2.304-5.6 13.168h-2.944l2.048-4.544-3.632-8.624h3.056l2.064 5.584 2.048-5.584h2.96zm3.726 1.264c.256-.416.624-.752 1.104-1.008.48-.256 1.029-.384 1.648-.384.736 0 1.402.187 2 .56.597.373 1.066.907 1.408 1.6.352.693.528 1.499.528 2.416 0 .917-.176 1.728-.528 2.432-.342.693-.811 1.232-1.408 1.616a3.701 3.701 0 0 1-2 .56c-.63 0-1.179-.123-1.648-.368a2.96 2.96 0 0 1-1.104-1.008V198h-2.736v-11.84h2.736v4.176zm3.904 3.184c0-.683-.192-1.216-.576-1.6a1.839 1.839 0 0 0-1.392-.592 1.87 1.87 0 0 0-1.392.592c-.374.395-.56.933-.56 1.616s.186 1.221.56 1.616a1.87 1.87 0 0 0 1.392.592 1.87 1.87 0 0 0 1.392-.592c.384-.405.576-.949.576-1.632zm6.955-2.96c.32-.491.72-.875 1.2-1.152a3.05 3.05 0 0 1 1.6-.432v2.896h-.752c-.683 0-1.195.149-1.536.448-.341.288-.512.8-.512 1.536V198h-2.736v-8.928h2.736v1.488zm5.484-2.416c-.48 0-.875-.139-1.184-.416a1.41 1.41 0 0 1-.448-1.056c0-.427.149-.779.448-1.056.309-.288.704-.432 1.184-.432.469 0 .853.144 1.152.432.309.277.464.629.464 1.056 0 .416-.155.768-.464 1.056-.299.277-.683.416-1.152.416zm1.36.928V198h-2.736v-8.928h2.736zm1.438 4.448c0-.917.171-1.723.512-2.416.352-.693.827-1.227 1.424-1.6a3.701 3.701 0 0 1 2-.56c.587 0 1.12.123 1.6.368a2.91 2.91 0 0 1 1.152.992v-4.144h2.736V198h-2.736v-1.28a2.772 2.772 0 0 1-1.104 1.024c-.469.256-1.018.384-1.648.384a3.701 3.701 0 0 1-2-.56c-.597-.384-1.072-.923-1.424-1.616-.341-.704-.512-1.515-.512-2.432zm6.688.016c0-.683-.192-1.221-.576-1.616a1.818 1.818 0 0 0-1.376-.592 1.87 1.87 0 0 0-1.392.592c-.373.384-.56.917-.56 1.6s.187 1.227.56 1.632a1.87 1.87 0 0 0 1.392.592c.544 0 1.003-.197 1.376-.592.384-.395.576-.933.576-1.616zM406.984 206.768V218h-2.736v-11.232h2.736zm7.423 2.208c1.045 0 1.877.341 2.496 1.024.629.672.944 1.6.944 2.784V218h-2.72v-4.848c0-.597-.155-1.061-.464-1.392-.31-.331-.726-.496-1.248-.496-.523 0-.939.165-1.248.496-.31.331-.464.795-.464 1.392V218h-2.736v-8.928h2.736v1.184c.277-.395.65-.704 1.12-.928a3.487 3.487 0 0 1 1.584-.352zm9.357 6.464 1.936-6.368h2.912L425.444 218h-3.376l-3.168-8.928h2.928l1.936 6.368zm14.415-2.048c0 .256-.016.523-.048.8h-6.192c.043.555.219.981.528 1.28.32.288.71.432 1.168.432.683 0 1.158-.288 1.424-.864h2.912a3.932 3.932 0 0 1-.816 1.584 3.976 3.976 0 0 1-1.456 1.104c-.586.267-1.242.4-1.968.4-.874 0-1.653-.187-2.336-.56a3.987 3.987 0 0 1-1.6-1.6c-.384-.693-.576-1.504-.576-2.432 0-.928.187-1.739.56-2.432a3.987 3.987 0 0 1 1.6-1.6c.683-.373 1.467-.56 2.352-.56.864 0 1.632.181 2.304.544.672.363 1.195.88 1.568 1.552.384.672.576 1.456.576 2.352zm-2.8-.72c0-.469-.16-.843-.48-1.12-.32-.277-.72-.416-1.2-.416-.458 0-.848.133-1.168.4-.309.267-.501.645-.576 1.136h3.424zm6.98-2.112c.32-.491.72-.875 1.2-1.152a3.05 3.05 0 0 1 1.6-.432v2.896h-.752c-.683 0-1.195.149-1.536.448-.341.288-.512.8-.512 1.536V218h-2.736v-8.928h2.736v1.488zm9.084 5.12V218h-1.392c-.992 0-1.766-.24-2.32-.72-.555-.491-.832-1.285-.832-2.384v-3.552h-1.088v-2.272h1.088v-2.176h2.736v2.176h1.792v2.272h-1.792v3.584c0 .267.064.459.192.576.128.117.341.176.64.176h.976zm9.94-2.288c0 .256-.016.523-.048.8h-6.192c.042.555.218.981.528 1.28.32.288.709.432 1.168.432.682 0 1.157-.288 1.424-.864h2.912a3.957 3.957 0 0 1-.816 1.584c-.384.469-.87.837-1.456 1.104-.587.267-1.243.4-1.968.4-.875 0-1.654-.187-2.336-.56a3.981 3.981 0 0 1-1.6-1.6c-.384-.693-.576-1.504-.576-2.432 0-.928.186-1.739.56-2.432a3.981 3.981 0 0 1 1.6-1.6c.682-.373 1.466-.56 2.352-.56.864 0 1.632.181 2.304.544a3.86 3.86 0 0 1 1.568 1.552c.384.672.576 1.456.576 2.352zm-2.8-.72c0-.469-.16-.843-.48-1.12-.32-.277-.72-.416-1.2-.416-.459 0-.848.133-1.168.4-.31.267-.502.645-.576 1.136h3.424zm6.979-2.112c.32-.491.72-.875 1.2-1.152a3.05 3.05 0 0 1 1.6-.432v2.896h-.752c-.683 0-1.195.149-1.536.448-.341.288-.512.8-.512 1.536V218h-2.736v-8.928h2.736v1.488zM732.384 145.24c.65.139 1.173.464 1.568.976.394.501.592 1.077.592 1.728 0 .939-.331 1.685-.992 2.24-.651.544-1.563.816-2.736.816h-5.232v-11.232h5.056c1.141 0 2.032.261 2.672.784.65.523.976 1.232.976 2.128 0 .661-.176 1.211-.528 1.648-.342.437-.8.741-1.376.912zm-4.064-.928h1.792c.448 0 .789-.096 1.024-.288.245-.203.368-.496.368-.88s-.123-.677-.368-.88c-.235-.203-.576-.304-1.024-.304h-1.792v2.352zm2.016 4.48c.458 0 .81-.101 1.056-.304.256-.213.384-.517.384-.912s-.134-.704-.4-.928c-.256-.224-.614-.336-1.072-.336h-1.984v2.48h2.016zm5.251-2.272c0-.917.17-1.723.512-2.416.352-.693.826-1.227 1.424-1.6a3.699 3.699 0 0 1 2-.56c.629 0 1.178.128 1.648.384.48.256.848.592 1.104 1.008v-1.264h2.736V151h-2.736v-1.264c-.267.416-.64.752-1.12 1.008-.47.256-1.019.384-1.648.384a3.669 3.669 0 0 1-1.984-.56c-.598-.384-1.072-.923-1.424-1.616-.342-.704-.512-1.515-.512-2.432zm6.688.016c0-.683-.192-1.221-.576-1.616a1.82 1.82 0 0 0-1.376-.592 1.87 1.87 0 0 0-1.392.592c-.374.384-.56.917-.56 1.6s.186 1.227.56 1.632a1.87 1.87 0 0 0 1.392.592 1.82 1.82 0 0 0 1.376-.592c.384-.395.576-.933.576-1.616zm4.171 0c0-.928.187-1.739.56-2.432a4.012 4.012 0 0 1 1.584-1.6c.683-.373 1.461-.56 2.336-.56 1.12 0 2.053.293 2.8.88.757.587 1.253 1.413 1.488 2.48h-2.912c-.245-.683-.72-1.024-1.424-1.024-.501 0-.901.197-1.2.592-.299.384-.448.939-.448 1.664s.149 1.285.448 1.68c.299.384.699.576 1.2.576.704 0 1.179-.341 1.424-1.024h2.912c-.235 1.045-.731 1.867-1.488 2.464s-1.691.896-2.8.896c-.875 0-1.653-.187-2.336-.56a4.012 4.012 0 0 1-1.584-1.6c-.373-.693-.56-1.504-.56-2.432zM762.134 151l-2.72-3.744V151h-2.736v-11.84h2.736v6.544l2.704-3.632h3.376l-3.712 4.48 3.744 4.448h-3.392zm13.25-8.928V151h-2.736v-1.216a3.046 3.046 0 0 1-1.136.96 3.452 3.452 0 0 1-1.568.352c-.682 0-1.285-.149-1.808-.448a3.128 3.128 0 0 1-1.216-1.328c-.288-.576-.432-1.253-.432-2.032v-5.216h2.72v4.848c0 .597.155 1.061.464 1.392.31.331.726.496 1.248.496.534 0 .955-.165 1.264-.496.31-.331.464-.795.464-1.392v-4.848h2.736zm4.701 1.264a2.975 2.975 0 0 1 1.104-1.008c.47-.256 1.019-.384 1.648-.384.736 0 1.403.187 2 .56.598.373 1.067.907 1.408 1.6.352.693.528 1.499.528 2.416 0 .917-.176 1.728-.528 2.432-.341.693-.81 1.232-1.408 1.616a3.699 3.699 0 0 1-2 .56c-.618 0-1.168-.128-1.648-.384a3.031 3.031 0 0 1-1.104-.992v5.504h-2.736v-13.184h2.736v1.264zm3.904 3.184c0-.683-.192-1.216-.576-1.6a1.836 1.836 0 0 0-1.392-.592 1.87 1.87 0 0 0-1.392.592c-.373.395-.56.933-.56 1.616s.187 1.221.56 1.616a1.87 1.87 0 0 0 1.392.592 1.87 1.87 0 0 0 1.392-.592c.384-.405.576-.949.576-1.632zm16.17-3.136c0 .651-.149 1.248-.448 1.792-.298.533-.757.965-1.376 1.296-.618.331-1.386.496-2.304.496h-1.696V151h-2.736v-11.232h4.432c.896 0 1.654.155 2.272.464.619.309 1.083.736 1.392 1.28.31.544.464 1.168.464 1.872zm-4.336 1.408c.523 0 .912-.123 1.168-.368.256-.245.384-.592.384-1.04 0-.448-.128-.795-.384-1.04s-.645-.368-1.168-.368h-1.488v2.816h1.488zm5.217 1.728c0-.917.17-1.723.512-2.416.352-.693.826-1.227 1.424-1.6a3.699 3.699 0 0 1 2-.56c.629 0 1.178.128 1.648.384.48.256.848.592 1.104 1.008v-1.264h2.736V151h-2.736v-1.264c-.267.416-.64.752-1.12 1.008-.47.256-1.019.384-1.648.384a3.669 3.669 0 0 1-1.984-.56c-.598-.384-1.072-.923-1.424-1.616-.342-.704-.512-1.515-.512-2.432zm6.688.016c0-.683-.192-1.221-.576-1.616a1.82 1.82 0 0 0-1.376-.592 1.87 1.87 0 0 0-1.392.592c-.374.384-.56.917-.56 1.6s.186 1.227.56 1.632a1.87 1.87 0 0 0 1.392.592 1.82 1.82 0 0 0 1.376-.592c.384-.395.576-.933.576-1.616zm10.155-4.56c1.046 0 1.878.341 2.496 1.024.63.672.944 1.6.944 2.784V151h-2.72v-4.848c0-.597-.154-1.061-.464-1.392-.309-.331-.725-.496-1.248-.496-.522 0-.938.165-1.248.496-.309.331-.464.795-.464 1.392V151h-2.736v-8.928h2.736v1.184a2.828 2.828 0 0 1 1.12-.928c.47-.235.998-.352 1.584-.352zm13.757 4.416c0 .256-.016.523-.048.8H825.4c.043.555.219.981.528 1.28.32.288.71.432 1.168.432.683 0 1.158-.288 1.424-.864h2.912a3.932 3.932 0 0 1-.816 1.584 3.976 3.976 0 0 1-1.456 1.104c-.586.267-1.242.4-1.968.4-.874 0-1.653-.187-2.336-.56a3.987 3.987 0 0 1-1.6-1.6c-.384-.693-.576-1.504-.576-2.432 0-.928.187-1.739.56-2.432a3.987 3.987 0 0 1 1.6-1.6c.683-.373 1.467-.56 2.352-.56.864 0 1.632.181 2.304.544.672.363 1.195.88 1.568 1.552.384.672.576 1.456.576 2.352zm-2.8-.72c0-.469-.16-.843-.48-1.12-.32-.277-.72-.416-1.2-.416-.458 0-.848.133-1.168.4-.309.267-.501.645-.576 1.136h3.424zm6.98-6.512V151h-2.736v-11.84h2.736zM1084.67 139.768V151h-2.73v-4.624h-4.26V151h-2.74v-11.232h2.74v4.4h4.26v-4.4h2.73zm6.04 11.36c-.87 0-1.66-.187-2.37-.56a4.136 4.136 0 0 1-1.64-1.6c-.4-.693-.6-1.504-.6-2.432 0-.917.21-1.723.61-2.416.41-.704.96-1.243 1.67-1.616.7-.373 1.49-.56 2.36-.56.88 0 1.67.187 2.37.56.71.373 1.26.912 1.67 1.616.4.693.6 1.499.6 2.416 0 .917-.2 1.728-.62 2.432a4.173 4.173 0 0 1-1.68 1.6c-.7.373-1.49.56-2.37.56zm0-2.368c.52 0 .97-.192 1.33-.576.37-.384.56-.933.56-1.648 0-.715-.18-1.264-.54-1.648a1.725 1.725 0 0 0-1.32-.576c-.53 0-.97.192-1.32.576-.36.373-.53.923-.53 1.648 0 .715.17 1.264.51 1.648.35.384.79.576 1.31.576zm17.52-6.784c1.11 0 1.99.336 2.64 1.008.66.672.99 1.605.99 2.8V151h-2.72v-4.848c0-.576-.16-1.019-.47-1.328-.29-.32-.71-.48-1.24-.48-.54 0-.96.16-1.27.48-.3.309-.45.752-.45 1.328V151h-2.72v-4.848c0-.576-.15-1.019-.46-1.328-.3-.32-.71-.48-1.25-.48-.53 0-.95.16-1.26.48-.3.309-.45.752-.45 1.328V151h-2.74v-8.928h2.74v1.12c.28-.373.64-.667 1.09-.88.45-.224.95-.336 1.52-.336.67 0 1.27.144 1.79.432.53.288.95.699 1.25 1.232.31-.491.73-.891 1.26-1.2a3.456 3.456 0 0 1 1.75-.464zm13.96 4.416c0 .256-.02.523-.05.8h-6.19c.04.555.22.981.53 1.28.32.288.71.432 1.16.432.69 0 1.16-.288 1.43-.864h2.91a3.89 3.89 0 0 1-.82 1.584 3.98 3.98 0 0 1-1.45 1.104c-.59.267-1.24.4-1.97.4-.87 0-1.65-.187-2.34-.56a4.037 4.037 0 0 1-1.6-1.6c-.38-.693-.57-1.504-.57-2.432 0-.928.18-1.739.56-2.432.38-.693.92-1.227 1.6-1.6s1.46-.56 2.35-.56c.86 0 1.63.181 2.3.544.68.363 1.2.88 1.57 1.552.39.672.58 1.456.58 2.352zm-2.8-.72c0-.469-.16-.843-.48-1.12-.32-.277-.72-.416-1.2-.416-.46 0-.85.133-1.17.4-.31.267-.5.645-.58 1.136h3.43zm10.37 3.216h3.58V151h-6.32v-11.232h2.74v9.12zm8.95 2.24c-.87 0-1.66-.187-2.37-.56a4.136 4.136 0 0 1-1.64-1.6c-.4-.693-.6-1.504-.6-2.432 0-.917.21-1.723.61-2.416.41-.704.96-1.243 1.67-1.616.7-.373 1.49-.56 2.36-.56.88 0 1.67.187 2.37.56.71.373 1.26.912 1.67 1.616.4.693.6 1.499.6 2.416 0 .917-.2 1.728-.62 2.432a4.173 4.173 0 0 1-1.68 1.6c-.7.373-1.49.56-2.37.56zm0-2.368c.52 0 .97-.192 1.33-.576.37-.384.56-.933.56-1.648 0-.715-.18-1.264-.54-1.648a1.725 1.725 0 0 0-1.32-.576c-.53 0-.97.192-1.32.576-.36.373-.53.923-.53 1.648 0 .715.17 1.264.51 1.648.35.384.79.576 1.31.576zm5.58-2.24c0-.917.17-1.723.51-2.416.35-.693.83-1.227 1.43-1.6.59-.373 1.26-.56 2-.56.63 0 1.18.128 1.64.384.48.256.85.592 1.11 1.008v-1.264h2.73V151h-2.73v-1.264c-.27.416-.64.752-1.12 1.008-.47.256-1.02.384-1.65.384-.72 0-1.39-.187-1.98-.56-.6-.384-1.08-.923-1.43-1.616-.34-.704-.51-1.515-.51-2.432zm6.69.016c0-.683-.19-1.221-.58-1.616a1.807 1.807 0 0 0-1.37-.592c-.55 0-1.01.197-1.4.592-.37.384-.56.917-.56 1.6s.19 1.227.56 1.632c.39.395.85.592 1.4.592.54 0 1-.197 1.37-.592.39-.395.58-.933.58-1.616zm4.17-.016c0-.917.17-1.723.51-2.416.35-.693.83-1.227 1.43-1.6.59-.373 1.26-.56 2-.56.58 0 1.12.123 1.6.368.49.245.87.576 1.15.992v-4.144h2.73V151h-2.73v-1.28c-.26.427-.63.768-1.11 1.024-.47.256-1.01.384-1.64.384-.74 0-1.41-.187-2-.56-.6-.384-1.08-.923-1.43-1.616-.34-.704-.51-1.515-.51-2.432zm6.69.016c0-.683-.19-1.221-.58-1.616a1.807 1.807 0 0 0-1.37-.592c-.55 0-1.01.197-1.4.592-.37.384-.56.917-.56 1.6s.19 1.227.56 1.632c.39.395.85.592 1.4.592.54 0 1-.197 1.37-.592.39-.395.58-.933.58-1.616zm8.35 4.592c-.78 0-1.48-.133-2.08-.4-.61-.267-1.09-.629-1.44-1.088a2.928 2.928 0 0 1-.6-1.568h2.71c.03.309.17.56.43.752.26.192.57.288.94.288.34 0 .61-.064.79-.192.19-.139.29-.315.29-.528 0-.256-.14-.443-.4-.56-.27-.128-.7-.267-1.3-.416-.64-.149-1.17-.304-1.6-.464-.43-.171-.8-.432-1.1-.784-.31-.363-.47-.848-.47-1.456 0-.512.14-.976.42-1.392.29-.427.7-.763 1.25-1.008s1.21-.368 1.96-.368c1.12 0 2 .277 2.64.832.65.555 1.03 1.291 1.12 2.208h-2.52a1.13 1.13 0 0 0-.42-.736c-.22-.181-.52-.272-.9-.272-.32 0-.56.064-.73.192a.572.572 0 0 0-.26.496c0 .256.13.448.4.576.28.128.71.256 1.28.384.66.171 1.2.341 1.62.512.41.16.78.427 1.09.8.32.363.48.853.49 1.472 0 .523-.15.992-.45 1.408-.28.405-.71.725-1.26.96-.54.235-1.18.352-1.9.352zM1115.42 356.32c-.2-.373-.49-.656-.88-.848-.37-.203-.81-.304-1.32-.304-.89 0-1.6.293-2.13.88-.53.576-.8 1.349-.8 2.32 0 1.035.28 1.845.83 2.432.57.576 1.34.864 2.32.864.67 0 1.24-.171 1.7-.512.47-.341.81-.832 1.02-1.472h-3.47v-2.016h5.95v2.544c-.2.683-.55 1.317-1.04 1.904a5.331 5.331 0 0 1-1.84 1.424c-.75.363-1.59.544-2.53.544-1.11 0-2.1-.24-2.97-.72a5.359 5.359 0 0 1-2.04-2.032c-.48-.864-.72-1.851-.72-2.96s.24-2.096.72-2.96a5.21 5.21 0 0 1 2.04-2.032c.86-.491 1.85-.736 2.96-.736 1.34 0 2.47.325 3.39.976.93.651 1.54 1.552 1.84 2.704h-3.03zm7.47.24c.32-.491.72-.875 1.2-1.152a3.067 3.067 0 0 1 1.6-.432v2.896h-.75c-.68 0-1.19.149-1.54.448-.34.288-.51.8-.51 1.536V364h-2.73v-8.928h2.73v1.488zm5.49-2.416c-.48 0-.88-.139-1.19-.416-.3-.288-.45-.64-.45-1.056 0-.427.15-.779.45-1.056.31-.288.71-.432 1.19-.432.47 0 .85.144 1.15.432.31.277.46.629.46 1.056 0 .416-.15.768-.46 1.056-.3.277-.68.416-1.15.416zm1.36.928V364H1127v-8.928h2.74zm1.43 4.448c0-.917.18-1.723.52-2.416.35-.693.82-1.227 1.42-1.6s1.26-.56 2-.56c.59 0 1.12.123 1.6.368.49.245.88.576 1.15.992v-4.144h2.74V364h-2.74v-1.28c-.25.427-.62.768-1.1 1.024-.47.256-1.02.384-1.65.384-.74 0-1.4-.187-2-.56-.6-.384-1.07-.923-1.42-1.616-.34-.704-.52-1.515-.52-2.432zm6.69.016c0-.683-.19-1.221-.57-1.616a1.844 1.844 0 0 0-1.38-.592c-.54 0-1.01.197-1.39.592-.37.384-.56.917-.56 1.6s.19 1.227.56 1.632c.38.395.85.592 1.39.592.54 0 1-.197 1.38-.592.38-.395.57-.933.57-1.616zM413.008 493.24c.65.139 1.173.464 1.568.976.394.501.592 1.077.592 1.728 0 .939-.331 1.685-.992 2.24-.651.544-1.563.816-2.736.816h-5.232v-11.232h5.056c1.141 0 2.032.261 2.672.784.65.523.976 1.232.976 2.128 0 .661-.176 1.211-.528 1.648-.342.437-.8.741-1.376.912zm-4.064-.928h1.792c.448 0 .789-.096 1.024-.288.245-.203.368-.496.368-.88s-.123-.677-.368-.88c-.235-.203-.576-.304-1.024-.304h-1.792v2.352zm2.016 4.48c.458 0 .81-.101 1.056-.304.256-.213.384-.517.384-.912s-.134-.704-.4-.928c-.256-.224-.614-.336-1.072-.336h-1.984v2.48h2.016zm5.251-2.272c0-.917.17-1.723.512-2.416.352-.693.826-1.227 1.424-1.6a3.699 3.699 0 0 1 2-.56c.629 0 1.178.128 1.648.384.48.256.848.592 1.104 1.008v-1.264h2.736V499h-2.736v-1.264c-.267.416-.64.752-1.12 1.008-.47.256-1.019.384-1.648.384a3.669 3.669 0 0 1-1.984-.56c-.598-.384-1.072-.923-1.424-1.616-.342-.704-.512-1.515-.512-2.432zm6.688.016c0-.683-.192-1.221-.576-1.616a1.82 1.82 0 0 0-1.376-.592 1.87 1.87 0 0 0-1.392.592c-.374.384-.56.917-.56 1.6s.186 1.227.56 1.632a1.87 1.87 0 0 0 1.392.592 1.82 1.82 0 0 0 1.376-.592c.384-.395.576-.933.576-1.616zm9.691 2.144V499h-1.392c-.992 0-1.765-.24-2.32-.72-.555-.491-.832-1.285-.832-2.384v-3.552h-1.088v-2.272h1.088v-2.176h2.736v2.176h1.792v2.272h-1.792v3.584c0 .267.064.459.192.576.128.117.341.176.64.176h.976zm6.5 0V499h-1.392c-.992 0-1.765-.24-2.32-.72-.555-.491-.832-1.285-.832-2.384v-3.552h-1.088v-2.272h1.088v-2.176h2.736v2.176h1.792v2.272h-1.792v3.584c0 .267.064.459.192.576.128.117.341.176.64.176h.976zm9.94-2.288c0 .256-.016.523-.048.8h-6.192c.043.555.219.981.528 1.28.32.288.709.432 1.168.432.683 0 1.157-.288 1.424-.864h2.912a3.932 3.932 0 0 1-.816 1.584 3.976 3.976 0 0 1-1.456 1.104c-.587.267-1.243.4-1.968.4-.875 0-1.653-.187-2.336-.56a3.981 3.981 0 0 1-1.6-1.6c-.384-.693-.576-1.504-.576-2.432 0-.928.187-1.739.56-2.432a3.981 3.981 0 0 1 1.6-1.6c.683-.373 1.467-.56 2.352-.56.864 0 1.632.181 2.304.544.672.363 1.195.88 1.568 1.552.384.672.576 1.456.576 2.352zm-2.8-.72c0-.469-.16-.843-.48-1.12-.32-.277-.72-.416-1.2-.416-.459 0-.848.133-1.168.4-.309.267-.501.645-.576 1.136h3.424zm6.979-2.112c.32-.491.72-.875 1.2-1.152a3.052 3.052 0 0 1 1.6-.432v2.896h-.752c-.682 0-1.194.149-1.536.448-.341.288-.512.8-.512 1.536V499h-2.736v-8.928h2.736v1.488zm13.228-1.488-5.6 13.168h-2.944l2.048-4.544-3.632-8.624h3.056l2.064 5.584 2.048-5.584h2.96zM770.712 352.768V364h-2.736v-6.736L765.464 364h-2.208l-2.528-6.752V364h-2.736v-11.232h3.232l3.152 7.776 3.12-7.776h3.216zm10.383 6.624c0 .256-.015.523-.047.8h-6.192c.042.555.218.981.528 1.28.32.288.709.432 1.168.432.682 0 1.157-.288 1.424-.864h2.912a3.957 3.957 0 0 1-.816 1.584c-.384.469-.87.837-1.456 1.104-.587.267-1.243.4-1.968.4-.875 0-1.654-.187-2.336-.56a3.981 3.981 0 0 1-1.6-1.6c-.384-.693-.576-1.504-.576-2.432 0-.928.186-1.739.56-2.432a3.981 3.981 0 0 1 1.6-1.6c.682-.373 1.466-.56 2.352-.56.864 0 1.632.181 2.304.544a3.86 3.86 0 0 1 1.568 1.552c.384.672.575 1.456.575 2.352zm-2.799-.72c0-.469-.16-.843-.48-1.12-.32-.277-.72-.416-1.2-.416-.459 0-.848.133-1.168.4-.31.267-.502.645-.576 1.136h3.424zm9.219 3.008V364h-1.392c-.992 0-1.765-.24-2.32-.72-.555-.491-.832-1.285-.832-2.384v-3.552h-1.088v-2.272h1.088v-2.176h2.736v2.176h1.792v2.272h-1.792v3.584c0 .267.064.459.192.576.128.117.341.176.64.176h.976zm9.94-2.288c0 .256-.016.523-.048.8h-6.192c.043.555.219.981.528 1.28.32.288.709.432 1.168.432.683 0 1.157-.288 1.424-.864h2.912a3.932 3.932 0 0 1-.816 1.584 3.976 3.976 0 0 1-1.456 1.104c-.587.267-1.243.4-1.968.4-.875 0-1.653-.187-2.336-.56a3.981 3.981 0 0 1-1.6-1.6c-.384-.693-.576-1.504-.576-2.432 0-.928.187-1.739.56-2.432a3.981 3.981 0 0 1 1.6-1.6c.683-.373 1.467-.56 2.352-.56.864 0 1.632.181 2.304.544.672.363 1.195.88 1.568 1.552.384.672.576 1.456.576 2.352zm-2.8-.72c0-.469-.16-.843-.48-1.12-.32-.277-.72-.416-1.2-.416-.459 0-.848.133-1.168.4-.309.267-.501.645-.576 1.136h3.424zm6.979-2.112c.32-.491.72-.875 1.2-1.152a3.052 3.052 0 0 1 1.6-.432v2.896h-.752c-.682 0-1.194.149-1.536.448-.341.288-.512.8-.512 1.536V364h-2.736v-8.928h2.736v1.488z" fill="#fff"/>
    <path d="M549 106v139M813.441 82.117h267.139" stroke="#fff" stroke-width="2"/>
    <path d="M1079.22 78.025V85.3l5.27-3.417-5.27-3.858z" fill="#fff"/>
    <path d="M548.5 106.527h196" stroke="#fff" stroke-width="2"/>
    <path d="M741.908 102.476v7.274l5.272-3.417-5.272-3.857z" fill="#fff"/>
    <path d="M473.156 245.366h76.973" stroke="#fff" stroke-width="2"/>
    <path d="M473.156 241.729v7.274l-5.272-3.417 5.272-3.857z" fill="#fff"/>
    <path d="M166 338.214h113.521M166 185.34h113.521M278.5 292.638h115.394" stroke="#fff" stroke-width="2"/>
    <path d="M393.439 289v7.275l5.272-3.417-5.272-3.858z" fill="#fff"/>
    <path d="M278.5 246h115.394" stroke="#fff" stroke-width="2"/>
    <path d="M393.439 249.638v-7.275l5.272 3.417-5.272 3.858z" fill="#fff"/>
    <path d="M473 293h264" stroke="#fff" stroke-width="2"/>
    <path d="M473.156 289v7.275l-5.272-3.417 5.272-3.858zM734.425 289v7.275l5.272-3.417-5.272-3.858z" fill="#fff"/>
    <path d="m826 293 253-1" stroke="#fff" stroke-width="2"/>
    <path d="M826.847 289.616v7.275l-5.272-3.417 5.272-3.858zM1079.22 289v7.275l5.27-3.417-5.27-3.858z" fill="#fff"/>
    <path d="M434.638 314.5v87" stroke="#fff" stroke-width="2"/>
    <path d="M431 314.952h7.275l-3.418-5.272-3.857 5.272zM438.275 400.96H431l3.418 5.272 3.857-5.272zM561.104 219.888h3.584V222h-6.32v-11.232h2.736v9.12zm8.953 2.24c-.875 0-1.664-.187-2.368-.56a4.168 4.168 0 0 1-1.648-1.6c-.395-.693-.592-1.504-.592-2.432 0-.917.203-1.723.608-2.416a4.107 4.107 0 0 1 1.664-1.616c.704-.373 1.493-.56 2.368-.56.875 0 1.664.187 2.368.56a4.107 4.107 0 0 1 1.664 1.616c.405.693.608 1.499.608 2.416 0 .917-.208 1.728-.624 2.432a4.11 4.11 0 0 1-1.68 1.6c-.704.373-1.493.56-2.368.56zm0-2.368c.523 0 .965-.192 1.328-.576.373-.384.56-.933.56-1.648 0-.715-.181-1.264-.544-1.648a1.707 1.707 0 0 0-1.312-.576c-.533 0-.976.192-1.328.576-.352.373-.528.923-.528 1.648 0 .715.171 1.264.512 1.648.352.384.789.576 1.312.576zm5.579-2.24c0-.917.171-1.723.512-2.416.352-.693.827-1.227 1.424-1.6a3.701 3.701 0 0 1 2-.56c.63 0 1.179.128 1.648.384.48.256.848.592 1.104 1.008v-1.264h2.736V222h-2.736v-1.264c-.266.416-.64.752-1.12 1.008-.469.256-1.018.384-1.648.384a3.674 3.674 0 0 1-1.984-.56c-.597-.384-1.072-.923-1.424-1.616-.341-.704-.512-1.515-.512-2.432zm6.688.016c0-.683-.192-1.221-.576-1.616a1.818 1.818 0 0 0-1.376-.592 1.87 1.87 0 0 0-1.392.592c-.373.384-.56.917-.56 1.6s.187 1.227.56 1.632a1.87 1.87 0 0 0 1.392.592c.544 0 1.003-.197 1.376-.592.384-.395.576-.933.576-1.616zm4.172-.016c0-.917.171-1.723.512-2.416.352-.693.827-1.227 1.424-1.6a3.699 3.699 0 0 1 2-.56c.587 0 1.12.123 1.6.368a2.91 2.91 0 0 1 1.152.992v-4.144h2.736V222h-2.736v-1.28a2.772 2.772 0 0 1-1.104 1.024c-.469.256-1.019.384-1.648.384a3.699 3.699 0 0 1-2-.56c-.597-.384-1.072-.923-1.424-1.616-.341-.704-.512-1.515-.512-2.432zm6.688.016c0-.683-.192-1.221-.576-1.616a1.818 1.818 0 0 0-1.376-.592 1.87 1.87 0 0 0-1.392.592c-.373.384-.56.917-.56 1.6s.187 1.227.56 1.632a1.87 1.87 0 0 0 1.392.592c.544 0 1.003-.197 1.376-.592.384-.395.576-.933.576-1.616z" fill="#fff"/>
    <path d="M278.5 291.5v47M278.5 246.5v-61.445" stroke="#fff" stroke-width="2"/>
</svg>
