<svg xmlns="http://www.w3.org/2000/svg" width="1266" height="532" viewBox="0 0 1266 532">
    <g data-name="Group 393">
        <g data-name="Rectangle 4736" style="stroke:#fff;fill:#184d93">
            <rect width="1266" height="532" rx="20" style="stroke:none"/>
            <rect x=".5" y=".5" width="1265" height="531" rx="19.5" style="fill:none"/>
        </g>
        <path data-name="Line 36" transform="translate(165.752 82.117)" style="stroke-width:2px;fill:none;stroke:#fff" d="M0 0h230.071"/>
        <path data-name="Union 83" d="M4 46a4 4 0 0 1-4-4V4a4 4 0 0 1 4-4h72a4 4 0 0 1 4 4v38a4.005 4.005 0 0 1-4 4zm.59-3.15h72.949V5.9zm-2.128-2.257L76.449 3.118H2.462zM56.3 36.431a1.037 1.037 0 0 1-.376-1.406c.082-.144 2.027-3.521 5.059-3.932A5.421 5.421 0 0 1 65.628 33c1.021 1.035 1.976 1.478 2.844 1.319 1.706-.314 2.849-2.769 2.859-2.79a1.007 1.007 0 0 1 1.346-.51 1.032 1.032 0 0 1 .5 1.364c-.061.139-1.579 3.459-4.347 3.969a3.945 3.945 0 0 1-.732.067 5.575 5.575 0 0 1-3.91-1.956 3.5 3.5 0 0 0-2.946-1.323c-2.021.273-3.55 2.887-3.565 2.913a1.012 1.012 0 0 1-.878.515 1 1 0 0 1-.499-.137zM10 19.492v-3.9H6.154v-3.117H10v-3.9h3.077v3.9h3.846v3.118h-3.846v3.9zm24.615-3.9v-3.117h10.769v3.118z" transform="translate(395 61)" style="fill:#fff"/>
        <path data-name="Union 89" d="M64.918 71.571H15.082C12.187 71.775 8 69.911 8 65.5V36.3l-4.053 4.443a1.993 1.993 0 0 1-3.164 0 2.666 2.666 0 0 1 0-3.772l35.446-35.41a5.335 5.335 0 0 1 7.541 0L56 13.777V6.889a2.665 2.665 0 0 1 2.666-2.664H64a2.665 2.665 0 0 1 2.666 2.664v17.545l12.552 12.537a2.666 2.666 0 0 1 0 3.772c-1.043 1.041-2.733.041-3.775-1L72 36.3v29.2c0 4.017-4.43 6.136-6.531 6.135a2.152 2.152 0 0 1-.551-.064zm0-3.409c1.472 0 3.667-1.192 3.667-2.664V33.125l-28.414-28.9-28.755 28.9V65.5c0 1.471 2.194 2.664 3.667 2.664h13.878V40.478h22.077v27.683zm-32.278-.111h14.719v-23.9H32.64z" transform="translate(1085 48)" style="fill:#fff"/>
        <path data-name="Union 84" d="M3.052 80A3.218 3.218 0 0 1 0 76.741V3.259A3.233 3.233 0 0 1 3.147 0H61.03a3.218 3.218 0 0 1 3.051 3.259V42.5a1.24 1.24 0 1 1-2.479 0V3.259a.766.766 0 0 0-.763-.79H3.147a.767.767 0 0 0-.763.79v60.075h59.123V46.667a1.285 1.285 0 0 1 1.239-1.284 1.084 1.084 0 0 1 1.054 1.284v30.074A3.155 3.155 0 0 1 60.744 80zm-.668-3.259a.766.766 0 0 0 .763.79h57.6a.767.767 0 0 0 .763-.79V66.25H2.384zM6 73.334a1.458 1.458 0 0 1 0-2.917h51.8a1.458 1.458 0 0 1 0 2.917zm13.275-30.417a1.458 1.458 0 1 1 0-2.916h25.647a1.458 1.458 0 0 1 0 2.916zM12.961 37.5a2 2 0 0 1-2-2V9.916a2 2 0 0 1 2-2h38.275a2 2 0 0 1 2 2V35.5a2 2 0 0 1-2 2zm.414-26.5v23.416a1 1 0 0 0 1 1h35.447a1 1 0 0 0 1-1V11a1 1 0 0 0-1-1H14.375a1 1 0 0 0-1 1zm26.569 19.833a1.208 1.208 0 1 1 1.207 1.25 1.228 1.228 0 0 1-1.207-1.25zm-6.035 0a1.208 1.208 0 1 1 1.207 1.25 1.228 1.228 0 0 1-1.207-1.25zm-6.035 0a1.208 1.208 0 1 1 1.207 1.25 1.228 1.228 0 0 1-1.206-1.25zm-6.035 0a1.208 1.208 0 1 1 1.207 1.25 1.228 1.228 0 0 1-1.206-1.25zm-1.414-5.416a1 1 0 0 1-1-1v-10.5a1 1 0 0 1 1-1h23.346a1 1 0 0 1 1 1v10.5a1 1 0 0 1-1 1zm1.414-2.5h20.519v-7.5H21.84z" transform="translate(253 228)" style="fill:#fff"/>
        <path data-name="Path 81" d="M290.645 218.91h-68.676a5.676 5.676 0 0 1-5.669-5.669v-46.472a5.676 5.676 0 0 1 5.669-5.669h68.662a5.676 5.676 0 0 1 5.669 5.669v46.472a5.656 5.656 0 0 1-5.655 5.669zm-68.676-54.265a2.119 2.119 0 0 0-2.124 2.124v46.472a2.119 2.119 0 0 0 2.124 2.124h68.662a2.119 2.119 0 0 0 2.124-2.124v-46.472a2.119 2.119 0 0 0-2.124-2.124z" transform="translate(523.663 159.31)" style="fill:#fff"/>
        <path data-name="Path 84" d="M349.945 295.084h-6.983a1.769 1.769 0 0 1-1.763-1.763v-8.759a1.769 1.769 0 0 1 1.763-1.763h6.983a1.769 1.769 0 0 1 1.763 1.763v8.759a1.769 1.769 0 0 1-1.763 1.763zm-5.22-3.525h3.458v-5.234h-3.458zm20.659 3.525H358.4a1.769 1.769 0 0 1-1.763-1.763v-8.759a1.769 1.769 0 0 1 1.763-1.762h6.983a1.769 1.769 0 0 1 1.763 1.763v8.759a1.76 1.76 0 0 1-1.762 1.762zm-5.22-3.525h3.458v-5.234h-3.458z" transform="translate(409.641 51.721)" style="fill:#fff"/>
        <path data-name="Path 86" d="M365.912 295.084h-7.037a1.775 1.775 0 0 1-1.776-1.763v-8.759a1.775 1.775 0 0 1 1.776-1.763h7.037a1.775 1.775 0 0 1 1.776 1.763v8.759a1.775 1.775 0 0 1-1.776 1.763zm-5.261-3.525h3.485v-5.234h-3.485zm20.819 3.525h-7.037a1.775 1.775 0 0 1-1.776-1.763v-8.759a1.775 1.775 0 0 1 1.776-1.763h7.037a1.776 1.776 0 0 1 1.776 1.763v8.759a1.767 1.767 0 0 1-1.776 1.763zm-5.261-3.525h3.484v-5.234h-3.483zm5.261 24.806h-54.354a1.775 1.775 0 0 1-1.776-1.763v-9.452a1.775 1.775 0 0 1 1.776-1.762h54.354a1.775 1.775 0 0 1 1.776 1.762v9.45a1.767 1.767 0 0 1-1.776 1.765zm-52.579-3.525h50.8v-5.927h-50.8z" transform="translate(425.603 51.81)" style="fill:#fff"/>
        <path d="M136.433 27.552a1.3 1.3 0 0 0 1.3-1.3v-5.545a1.334 1.334 0 0 0-.008-.142v-.019a1.294 1.294 0 0 0-.03-.159l-.008-.031a1.28 1.28 0 0 0-.059-.168l-.007-.015a1.3 1.3 0 0 0-.078-.145l-.02-.028a1.3 1.3 0 0 0-.1-.139l-.024-.026a1.307 1.307 0 0 0-.124-.121l-.005-.005-16.524-13.765L116.678.52a1.3 1.3 0 0 0-1.04-.52h-5.545a1.3 1.3 0 0 0-1.04.52l-4.068 5.424L88.474 19.7l-.005.005a1.32 1.32 0 0 0-.124.121l-.024.026a1.3 1.3 0 0 0-.1.139l-.016.027a1.265 1.265 0 0 0-.078.145l-.007.015a1.314 1.314 0 0 0-.059.168c0 .01-.005.021-.008.031a1.3 1.3 0 0 0-.031.159v.019a1.293 1.293 0 0 0-.008.143v5.545a1.3 1.3 0 1 0 2.6 0v-4.236h14.036v11.954L88.474 47.429l-.005.005a1.327 1.327 0 0 0-.124.121l-.024.026a1.3 1.3 0 0 0-.1.139l-.016.027a1.269 1.269 0 0 0-.078.145l-.007.015a1.315 1.315 0 0 0-.059.168c0 .01-.005.021-.008.031a1.3 1.3 0 0 0-.03.159v.019a1.341 1.341 0 0 0-.008.143v5.545a1.3 1.3 0 1 0 2.6 0v-4.24h13.48l-10.145 27.9h-1.878a1.3 1.3 0 0 0 0 2.6H99a1.3 1.3 0 1 0 0-2.6h-1.413l15.279-18.674 15.279 18.674h-.03a1.3 1.3 0 0 0 0 2.6h6.931a1.3 1.3 0 0 0 0-2.6H131.8l-10.145-27.9h13.48v4.245a1.3 1.3 0 1 0 2.6 0v-5.544a1.334 1.334 0 0 0-.008-.142v-.019a1.294 1.294 0 0 0-.03-.159l-.008-.031a1.28 1.28 0 0 0-.059-.168l-.007-.015a1.3 1.3 0 0 0-.078-.145l-.016-.027a1.3 1.3 0 0 0-.1-.139l-.024-.026a1.308 1.308 0 0 0-.124-.121l-.005-.005L121.1 33.961V22.007h14.036v4.245a1.3 1.3 0 0 0 1.297 1.3zm-25.4-13.776-3.794 3.794V9.982zm-1.956-5.632h7.587l-3.794 3.794zm0 11.263 3.794-3.794 3.794 3.794zm7.587 2.6-3.798 3.793-3.794-3.794zm-5.632 5.632-3.794 3.794v-7.588zm-1.956 5.632 3.794-3.794 3.794 3.794zm7.587 2.6-3.794 3.794-3.794-3.794zm-5.635 5.629-3.794 3.8v-7.592zm1.838 1.838 3.794 3.794h-7.587zm4.189 6.393-4.189 5.12-4.189-5.12zM114.7 41.5l3.794-3.794V45.3zm0-13.863 3.794-3.794v7.587zm0-13.863 3.8-3.792v7.588zM110.743 2.6h4.245l2.212 2.945h-8.664zm-6.108 7.02v9.788H92.889zm0 27.725v9.788H92.889zm-5.958 34.849 7.7-21.17 4.811 5.881zM114.545 56.9l4.811-5.881 7.7 21.17zm6.552-9.771v-9.784l11.746 9.788zm0-27.725V9.619l11.746 9.788z" transform="translate(1013 307.984)" style="fill:#fff"/>
        <path data-name="Union 91" d="M9 62.786a4 4 0 0 1-4-4v-36.3H2a2 2 0 0 1-2-2v-7.241a2 2 0 0 1 2-2h7.411V6.622a1 1 0 0 1 1-1h1.825V1a1 1 0 0 1 1-1h8.353a1 1 0 0 1 1 1v4.622h1.825a1 1 0 0 1 1 1v4.623h30.115V6.622a1 1 0 0 1 1-1h1.825V1a1 1 0 0 1 1-1h8.353a1 1 0 0 1 1 1v4.622h1.825a1 1 0 0 1 1 1v4.623H78a2 2 0 0 1 2 2v7.246a2 2 0 0 1-2 2h-1.47v36.3a4 4 0 0 1-4 4zm-1-4.749a2 2 0 0 0 2 2h62a2 2 0 0 0 2-2V22.491H8zm-5.176-42.98v3.623a1 1 0 0 0 1 1h73.294a1 1 0 0 0 1-1v-3.623a1 1 0 0 0-1-1H3.824a1 1 0 0 0-1 1zM68.8 11.246a.5.5 0 0 0 .5-.5V8a.5.5 0 0 0-.5-.5H57.956a.5.5 0 0 0-.5.5v2.749a.5.5 0 0 0 .5.5zm-46.118 0a.5.5 0 0 0 .5-.5V8a.5.5 0 0 0-.5-.5H11.838a.5.5 0 0 0-.5.5v2.749a.5.5 0 0 0 .5.5zm37.549-9.5v3.721h6.729V1.75a.5.5 0 0 0-.5-.5h-5.725a.5.5 0 0 0-.5.5zm-46.118 0v3.721h6.725V1.75a.5.5 0 0 0-.5-.5h-5.721a.5.5 0 0 0-.5.5zm23.92 52.997.911-9.011-6.319-1.149L43.076 32.8l-.723 8.033 6.251 2.3-10.57 11.61zM36.239 43.6l4.628.623-.734 4.99 5.234-5.613-4.5-1.474.575-4.831zm-18.357-7.528V32.8h-2.36a1.406 1.406 0 0 1 0-2.812h2.36v-2.337a1.412 1.412 0 1 1 2.823 0v2.336h3.3a1.406 1.406 0 0 1 0 2.812h-3.3v3.273a1.412 1.412 0 1 1-2.823 0zM56.935 32.8a1.406 1.406 0 0 1 0-2.812h8.483a1.406 1.406 0 0 1 0 2.812z" transform="translate(245 406)" style="fill:#fff"/>
        <path data-name="Union 88" d="M31.13 69.457V61h5.449v-7.61H0L5.248 0h68.637l5.331 53.388h-36.1V61h5.449v8.46zm22.406-19.491h21.825L74.2 38.194 53.371 38zm-22.589 0h18.941l-.162-12-18.615-.173zm-27.175 0H27.3l.169-12.207L5 37.551zm49.361-29.088.188 13.587 20.529.187L72.473 20.7zm-21.8.2-.179 13.187 18.519.169-.173-13.523zM6.6 21.3 5.345 34.028l22.171.2.184-13.118zm.349-3.53 20.8-.193.2-14.14H8.365zm24.436-.227 18.062-.168-.188-13.937H31.577zm21.7-.2 19.039-.177-1.355-13.728H52.893z" transform="translate(89 49)" style="fill:#fff"/>
        <g data-name="Group 291">
            <g data-name="Group 290">
                <g data-name="Group 289">
                    <path data-name="Path 67" d="M72.88 41.317A1.305 1.305 0 0 0 71.6 42.6v34.214a.778.778 0 0 1-.789.789H11.254a.778.778 0 0 1-.789-.789V3.454a.778.778 0 0 1 .789-.789h59.654a.778.778 0 0 1 .789.789v35a1.282 1.282 0 1 0 2.564 0v-35A3.264 3.264 0 0 0 71.106.2H11.254A3.283 3.283 0 0 0 8 3.454v73.36a3.264 3.264 0 0 0 3.155 3.254H70.81a3.2 3.2 0 0 0 3.155-3.254V42.6a1.093 1.093 0 0 0-1.085-1.283z" transform="translate(739.181 43.8)" style="fill:#fff"/>
                    <path data-name="Path 68" d="M29.292 73.652h37.173a1.305 1.305 0 0 0 1.282-1.282v-6.8a3.386 3.386 0 0 0 2.071-3.155V55.9a3.492 3.492 0 0 0-2.071-3.155V27.7a3.386 3.386 0 0 0 2.071-3.155v-6.504a3.492 3.492 0 0 0-2.071-3.155v-6.8A1.305 1.305 0 0 0 66.465 6.8H15.882A1.305 1.305 0 0 0 14.6 8.082v64.289a1.305 1.305 0 0 0 1.282 1.282h9.367a1.282 1.282 0 0 0 0-2.564h-8.184V9.364h48.217v5.522h-.1c-.1 0-.1.1-.2.1h-.1c-.1 0-.1.1-.2.1h-.1c-.1.1-.2.1-.2.2-.1 0-.1.1-.2.2l-.1.1a.344.344 0 0 0-.1.2v.1c-.1.1-.1.2-.2.2 0 .1-.1.1-.1.2v.1c0 .1-.1.1-.1.2v.1c0 .1-.1.2-.1.3a.362.362 0 0 1-.1.3v7.854a.362.362 0 0 0 .1.3c0 .1.1.2.1.3v.1c0 .1.1.1.1.2v.1c0 .1.1.1.1.2.1.1.1.2.2.2v.1c0 .1.1.1.1.2l.1.1c.1 0 .1.1.2.2s.2.1.2.2h.1c.1 0 .1.1.2.1h.1c.1 0 .1.1.2.1h.1v25.012h-.1c-.1 0-.1.1-.2.1h-.1c-.1 0-.1.1-.2.1h-.1c-.1.1-.2.1-.2.2-.1 0-.1.1-.2.2l-.1.1a.344.344 0 0 0-.1.2v.1c-.1.1-.1.2-.2.2 0 .1-.1.1-.1.2v.1c0 .1-.1.1-.1.2v.1c0 .1-.1.2-.1.3a.362.362 0 0 1-.1.3v7.888a.362.362 0 0 0 .1.3c0 .1.1.2.1.3v.1c0 .1.1.1.1.2v.1c0 .1.1.1.1.2.1.1.1.2.2.2v.1c0 .1.1.1.1.2l.1.1c.1 0 .1.1.2.2s.2.1.2.2h.1c.1 0 .1.1.2.1h.1c.1 0 .1.1.2.1h.1v5.62h-35.99a1.305 1.305 0 0 0-1.282 1.282c0 .623.59 1.51 1.282 1.51zm36.384-55.611a.794.794 0 1 1 1.578 0v6.508a.794.794 0 1 1-1.578 0zm0 37.863a.794.794 0 1 1 1.578 0v6.508a.794.794 0 1 1-1.578 0z" transform="translate(739.089 43.708)" style="fill:#fff"/>
                    <path data-name="Path 69" d="M52.759 53.2H29.982a1.282 1.282 0 0 0 0 2.564h22.777a1.282 1.282 0 0 0 0-2.564z" transform="translate(738.892 43.059)" style="fill:#fff"/>
                    <path data-name="Path 70" d="M52.759 58.6H29.982a1.282 1.282 0 0 0 0 2.564h22.777a1.282 1.282 0 0 0 0-2.564z" transform="translate(738.892 42.984)" style="fill:#fff"/>
                    <path data-name="Path 71" d="M52.759 64H29.982a1.282 1.282 0 0 0 0 2.564h22.777a1.282 1.282 0 0 0 0-2.564z" transform="translate(738.892 42.908)" style="fill:#fff"/>
                    <path data-name="Path 72" d="M56.648 44.782A1.305 1.305 0 0 0 57.93 43.5a1.425 1.425 0 0 0-.2-.69L42.351 15.892a1.133 1.133 0 0 0-1.085-.592 1.362 1.362 0 0 0-1.085.592L24.9 42.909a1.463 1.463 0 0 0 0 1.282 1.133 1.133 0 0 0 1.085.592h30.663zm-28.595-2.465 13.213-23.27 13.311 23.27z" transform="translate(738.947 43.589)" style="fill:#fff"/>
                    <path data-name="Path 73" d="M39.971 28.689 38 33.915a1.269 1.269 0 0 0 .1 1.183 1.308 1.308 0 0 0 .986.592h1.873l-1.085 2.465a1.3 1.3 0 0 0 .592 1.676.889.889 0 0 0 .493.1 1.154 1.154 0 0 0 1.085-.789l1.775-4.24a1.245 1.245 0 0 0-.1-1.183 1.337 1.337 0 0 0-1.085-.592h-1.973l1.282-3.451A1.41 1.41 0 0 0 41.252 28c-.295-.3-.986 0-1.281.689z" transform="translate(738.763 43.413)" style="fill:#fff"/>
                    <path data-name="Path 74" d="M22.947 56a3.847 3.847 0 1 0 3.747 3.845A3.831 3.831 0 0 0 22.947 56zm0 5.226a1.384 1.384 0 1 1 1.282-1.38 1.329 1.329 0 0 1-1.282 1.38z" transform="translate(739.024 43.02)" style="fill:#fff"/>
                </g>
            </g>
        </g>
        <text data-name="AC PV" transform="translate(128 149)" style="font-size:16px;font-family:Poppins-SemiBold,Poppins;font-weight:600;fill:#fff"><tspan x="-24.328" y="0">AC PV</tspan></text>
        <text data-name="Hybrid Inverter" transform="translate(285 196)" style="font-size:16px;font-family:Poppins-SemiBold,Poppins;font-weight:600;fill:#fff"><tspan x="-26.88" y="0">Hybrid</tspan><tspan x="-31.744" y="20">Inverter</tspan></text>
        <text data-name="Main Panel" transform="translate(780 149)" style="font-size:16px;font-family:Poppins-SemiBold,Poppins;font-weight:600;fill:#fff"><tspan x="-44.768" y="0">Main Panel</tspan></text>
        <text data-name="Home Loads" transform="translate(1124 149)" style="font-size:16px;font-family:Poppins-SemiBold,Poppins;font-weight:600;fill:#fff"><tspan x="-50.048" y="0">Home Loads</tspan></text>
        <text transform="translate(1125 412)" style="font-size:16px;font-family:Poppins-SemiBold,Poppins;font-weight:600;fill:#fff"><tspan x="-17.024" y="0">Grid</tspan></text>
        <text transform="translate(285 497)" style="font-size:16px;font-family:Poppins-SemiBold,Poppins;font-weight:600;fill:#fff"><tspan x="-29.784" y="0">Battery</tspan></text>
        <text transform="translate(779 412)" style="font-size:16px;font-family:Poppins-SemiBold,Poppins;font-weight:600;fill:#fff"><tspan x="-23.4" y="0">Meter</tspan></text>
        <path data-name="Line 37" transform="translate(612 106)" style="stroke-width:2px;fill:none;stroke:#fff" d="M0 0v139"/>
        <g data-name="Group 359">
            <path data-name="Line 2" transform="translate(474.5 82.117)" style="stroke-width:2px;fill:none;stroke:#fff" d="M0 0h267.863"/>
            <path data-name="Path 99" d="M2332 4457v7.275l5.272-3.417z" transform="translate(-1590.092 -4378.975)" style="fill:#fff"/>
        </g>
        <g data-name="Group 364">
            <path data-name="Line 3" transform="translate(813.441 82.117)" style="stroke-width:2px;fill:none;stroke:#fff" d="M0 0h267.139"/>
            <path data-name="Path 100" d="M2332 4457v7.275l5.272-3.417z" transform="translate(-1252.785 -4378.975)" style="fill:#fff"/>
        </g>
        <g data-name="Group 360">
            <path data-name="Line 11" transform="translate(611.349 106.527)" style="stroke-width:2px;fill:none;stroke:#fff" d="M0 0h133.15"/>
            <path data-name="Path 101" d="M2332 4457v7.275l5.272-3.417z" transform="translate(-1590.092 -4354.524)" style="fill:#fff"/>
        </g>
        <g data-name="Group 361">
            <path data-name="Path 103" d="M0 0h288.791" transform="translate(324.186 245.365)" style="stroke-width:2px;fill:none;stroke:#fff"/>
            <path data-name="Path 102" d="M2337.272 4457v7.275l-5.272-3.417z" transform="translate(-2013.086 -4215.272)" style="fill:#fff"/>
        </g>
        <g data-name="Group 363">
            <path data-name="Line 8" transform="translate(359.5 348.638)" style="stroke-width:2px;fill:none;stroke:#fff" d="M0 0h375.671"/>
            <path data-name="Path 107" d="M2332 4457v7.275l5.272-3.417z" transform="translate(-1597.31 -4112)" style="fill:#fff"/>
        </g>
        <g data-name="Group 366">
            <path data-name="Path 87" d="M0-.081 253.981-.5" transform="translate(825.235 348.521)" style="stroke-width:2px;fill:none;stroke:#fff"/>
            <path data-name="Path 108" d="M2337.272 4457v7.275l-5.272-3.417z" transform="translate(-1512.037 -4112)" style="fill:#fff"/>
            <path data-name="Path 109" d="M2332 4457v7.275l5.272-3.417z" transform="translate(-1252.784 -4112.616)" style="fill:#fff"/>
        </g>
        <g data-name="Group 368">
            <path data-name="Line 40" transform="translate(284.638 314.5)" style="stroke-width:2px;fill:none;stroke:#fff" d="M0 0v87"/>
            <path data-name="Path 205" d="M0 0v7.275l5.272-3.418z" transform="rotate(-90 297.976 16.976)" style="fill:#fff"/>
            <path data-name="Path 206" d="M0 0v7.275l5.272-3.418z" transform="rotate(90 -56.343 344.618)" style="fill:#fff"/>
        </g>
        <text transform="translate(642 240)" style="font-size:16px;font-family:Poppins-SemiBold,Poppins;font-weight:600;fill:#fff"><tspan x="-19.624" y="0">Load</tspan></text>
        <path data-name="Path 227" d="m-.005 0-.006 57.649" transform="translate(359.114 292.005)" style="stroke-width:2px;fill:none;stroke:#fff"/>
        <g data-name="Group 391">
            <path data-name="Line 8" transform="translate(324.006 292.281)" style="stroke-width:2px;fill:none;stroke:#fff" d="M0 0h36.605"/>
            <path data-name="Path 106" d="M2337.272 4457v7.275l-5.272-3.417z" transform="translate(-2013.086 -4168.356)" style="fill:#fff"/>
        </g>
    </g>
</svg>
