<svg width="40" height="40" viewBox="0 0 40 40" fill="none" xmlns="http://www.w3.org/2000/svg">
<g id="charger">
<mask id="mask0_83_9013" style="mask-type:alpha" maskUnits="userSpaceOnUse" x="0" y="0" width="40" height="40">
<rect id="Bounding box" width="40" height="40" fill="#D9D9D9"/>
</mask>
<g mask="url(#mask0_83_9013)">
<path id="charger_2" d="M19.6237 31.7916L26.5404 18.2916C26.6793 18.0139 26.6654 17.743 26.4987 17.4791C26.332 17.2153 26.0959 17.0833 25.7904 17.0833H21.332V8.37498C21.332 8.15276 21.2279 8.02081 21.0195 7.97915C20.8112 7.93748 20.6515 8.01387 20.5404 8.20831L13.6237 21.7083C13.4848 21.9861 13.4987 22.2569 13.6654 22.5208C13.832 22.7847 14.0681 22.9166 14.3737 22.9166H18.832V31.625C18.832 31.8472 18.9362 31.9791 19.1445 32.0208C19.3529 32.0625 19.5126 31.9861 19.6237 31.7916ZM19.9987 36.6666C17.6931 36.6666 15.5265 36.2291 13.4987 35.3541C11.4709 34.4791 9.70703 33.2916 8.20703 31.7916C6.70703 30.2916 5.51953 28.5278 4.64453 26.5C3.76953 24.4722 3.33203 22.3055 3.33203 20C3.33203 17.6944 3.76953 15.5278 4.64453 13.5C5.51953 11.4722 6.70703 9.70831 8.20703 8.20831C9.70703 6.70831 11.4709 5.52081 13.4987 4.64581C15.5265 3.77081 17.6931 3.33331 19.9987 3.33331C22.3043 3.33331 24.4709 3.77081 26.4987 4.64581C28.5265 5.52081 30.2904 6.70831 31.7904 8.20831C33.2904 9.70831 34.4779 11.4722 35.3529 13.5C36.2279 15.5278 36.6654 17.6944 36.6654 20C36.6654 22.3055 36.2279 24.4722 35.3529 26.5C34.4779 28.5278 33.2904 30.2916 31.7904 31.7916C30.2904 33.2916 28.5265 34.4791 26.4987 35.3541C24.4709 36.2291 22.3043 36.6666 19.9987 36.6666ZM19.9987 33.3333C23.6931 33.3333 26.839 32.0347 29.4362 29.4375C32.0334 26.8403 33.332 23.6944 33.332 20C33.332 16.3055 32.0334 13.1597 29.4362 10.5625C26.839 7.96526 23.6931 6.66665 19.9987 6.66665C16.3043 6.66665 13.1584 7.96526 10.5612 10.5625C7.96398 13.1597 6.66536 16.3055 6.66536 20C6.66536 23.6944 7.96398 26.8403 10.5612 29.4375C13.1584 32.0347 16.3043 33.3333 19.9987 33.3333Z" fill="white"/>
</g>
</g>
</svg>
