<svg width="40" height="40" viewBox="0 0 40 40" fill="none" xmlns="http://www.w3.org/2000/svg">
<g id="co2">
<mask id="mask0_83_9393" style="mask-type:alpha" maskUnits="userSpaceOnUse" x="0" y="0" width="40" height="40">
<rect id="Bounding box" width="40" height="40" fill="#D9D9D9"/>
</mask>
<g mask="url(#mask0_83_9393)">
<path id="co2_2" d="M18.3333 25C17.8611 25 17.4653 24.8403 17.1458 24.5208C16.8264 24.2014 16.6667 23.8056 16.6667 23.3333V16.6667C16.6667 16.1944 16.8264 15.7986 17.1458 15.4792C17.4653 15.1597 17.8611 15 18.3333 15H23.3333C23.8056 15 24.2014 15.1597 24.5208 15.4792C24.8403 15.7986 25 16.1944 25 16.6667V23.3333C25 23.8056 24.8403 24.2014 24.5208 24.5208C24.2014 24.8403 23.8056 25 23.3333 25H18.3333ZM19.1667 22.5H22.5V17.5H19.1667V22.5ZM28.3333 28.75V25.8333C28.3333 25.3611 28.4931 24.9653 28.8125 24.6458C29.1319 24.3264 29.5278 24.1667 30 24.1667H33.3333V22.5H29.5417C29.2083 22.5 28.9236 22.3819 28.6875 22.1458C28.4514 21.9097 28.3333 21.6111 28.3333 21.25C28.3333 20.9167 28.4514 20.625 28.6875 20.375C28.9236 20.125 29.2222 20 29.5833 20H34.1667C34.6389 20 35.0347 20.1597 35.3542 20.4792C35.6736 20.7986 35.8333 21.1944 35.8333 21.6667V24.1667C35.8333 24.6389 35.6736 25.0347 35.3542 25.3542C35.0347 25.6736 34.6389 25.8333 34.1667 25.8333H30.8333V27.5H34.5833C34.9167 27.5 35.2083 27.625 35.4583 27.875C35.7083 28.125 35.8333 28.4167 35.8333 28.75C35.8333 29.1111 35.7083 29.4097 35.4583 29.6458C35.2083 29.8819 34.9167 30 34.5833 30H29.5833C29.2222 30 28.9236 29.8819 28.6875 29.6458C28.4514 29.4097 28.3333 29.1111 28.3333 28.75ZM6.66667 25C6.19444 25 5.79861 24.8403 5.47917 24.5208C5.15972 24.2014 5 23.8056 5 23.3333V16.6667C5 16.1944 5.15972 15.7986 5.47917 15.4792C5.79861 15.1597 6.19444 15 6.66667 15H11.6667C12.1389 15 12.5347 15.1597 12.8542 15.4792C13.1736 15.7986 13.3333 16.1944 13.3333 16.6667V17.5417C13.3333 17.875 13.2083 18.1597 12.9583 18.3958C12.7083 18.6319 12.4167 18.75 12.0833 18.75C11.7222 18.75 11.4236 18.6319 11.1875 18.3958C10.9514 18.1597 10.8333 17.8611 10.8333 17.5H7.5V22.5H10.8333C10.8333 22.1667 10.9514 21.875 11.1875 21.625C11.4236 21.375 11.7222 21.25 12.0833 21.25C12.4167 21.25 12.7083 21.375 12.9583 21.625C13.2083 21.875 13.3333 22.1667 13.3333 22.5V23.3333C13.3333 23.8056 13.1736 24.2014 12.8542 24.5208C12.5347 24.8403 12.1389 25 11.6667 25H6.66667Z" fill="white"/>
</g>
</g>
</svg>
