<svg width="34" height="34" viewBox="0 0 34 34" fill="none" xmlns="http://www.w3.org/2000/svg">
<g id="currency_exchange">
<mask id="mask0_88_9433" style="mask-type:alpha" maskUnits="userSpaceOnUse" x="0" y="0" width="34" height="34">
<rect id="Bounding box" x="0.5" y="0.5" width="33" height="33" fill="#D9D9D9"/>
</mask>
<g mask="url(#mask0_88_9433)">
<path id="currency_exchange_2" d="M17.2063 22.7063C17.9625 22.7063 18.6099 22.5286 19.1484 22.1734C19.687 21.8182 19.9563 21.2625 19.9563 20.5063C19.9563 19.8417 19.6755 19.3031 19.1141 18.8906C18.5526 18.4781 17.55 18.0083 16.1063 17.4813C14.7542 17 13.763 16.4271 13.1328 15.7625C12.5026 15.0979 12.1875 14.2271 12.1875 13.15C12.1875 12.2104 12.5141 11.3568 13.1672 10.5891C13.8203 9.82135 14.7083 9.32292 15.8313 9.09375V8.57813C15.8313 8.25729 15.9516 7.97656 16.1922 7.73594C16.4328 7.49531 16.7135 7.375 17.0344 7.375C17.3552 7.375 17.6359 7.49531 17.8766 7.73594C18.1172 7.97656 18.2375 8.25729 18.2375 8.57813V9.09375C18.9021 9.13958 19.5151 9.36302 20.0766 9.76406C20.638 10.1651 21.0906 10.6521 21.4344 11.225C21.5948 11.4771 21.6063 11.7464 21.4688 12.0328C21.3313 12.3193 21.1021 12.5198 20.7813 12.6344C20.4833 12.749 20.1854 12.7604 19.8875 12.6688C19.5896 12.5771 19.349 12.4052 19.1656 12.1531C18.9365 11.8781 18.65 11.6547 18.3063 11.4828C17.9625 11.3109 17.55 11.225 17.0688 11.225C16.2667 11.225 15.6536 11.3969 15.2297 11.7406C14.8057 12.0844 14.5938 12.5542 14.5938 13.15C14.5938 13.7458 14.8573 14.2156 15.3844 14.5594C15.9115 14.9031 16.8625 15.3042 18.2375 15.7625C19.8875 16.3583 20.9875 17.0573 21.5375 17.8594C22.0875 18.6615 22.3625 19.5438 22.3625 20.5063C22.3625 21.1708 22.2479 21.7552 22.0188 22.2594C21.7896 22.7635 21.4859 23.1932 21.1078 23.5484C20.7297 23.9036 20.2885 24.1901 19.7844 24.4078C19.2802 24.6255 18.7417 24.7917 18.1688 24.9063V25.4219C18.1688 25.7427 18.0484 26.0234 17.8078 26.2641C17.5672 26.5047 17.2865 26.625 16.9656 26.625C16.6448 26.625 16.3641 26.5047 16.1234 26.2641C15.8828 26.0234 15.7625 25.7427 15.7625 25.4219V24.8375C14.8917 24.6542 14.1469 24.3104 13.5281 23.8063C12.9094 23.3021 12.4167 22.6604 12.05 21.8813C11.9125 21.5604 11.9182 21.251 12.0672 20.9531C12.2161 20.6552 12.451 20.449 12.7719 20.3344C13.0698 20.2198 13.3677 20.2255 13.6656 20.3516C13.9635 20.4776 14.1927 20.6781 14.3531 20.9531C14.674 21.549 15.0807 21.9901 15.5734 22.2766C16.0661 22.563 16.6104 22.7063 17.2063 22.7063ZM17 32.125C14.4333 32.125 12.0729 31.5406 9.91875 30.3719C7.76458 29.2031 6 27.6448 4.625 25.6969V28C4.625 28.3896 4.49323 28.7161 4.22969 28.9797C3.96615 29.2432 3.63958 29.375 3.25 29.375C2.86042 29.375 2.53385 29.2432 2.27031 28.9797C2.00677 28.7161 1.875 28.3896 1.875 28V22.5C1.875 22.1104 2.00677 21.7839 2.27031 21.5203C2.53385 21.2568 2.86042 21.125 3.25 21.125H8.75C9.13958 21.125 9.46615 21.2568 9.72969 21.5203C9.99323 21.7839 10.125 22.1104 10.125 22.5C10.125 22.8896 9.99323 23.2161 9.72969 23.4797C9.46615 23.7432 9.13958 23.875 8.75 23.875H6.72188C7.82188 25.525 9.27135 26.8542 11.0703 27.8625C12.8693 28.8708 14.8458 29.375 17 29.375C20.2313 29.375 23.0099 28.2979 25.3359 26.1438C27.662 23.9896 28.9854 21.3427 29.3063 18.2031C29.3521 17.8365 29.5125 17.5443 29.7875 17.3266C30.0625 17.1089 30.3833 17 30.75 17C31.1396 17 31.4719 17.1203 31.7469 17.3609C32.0219 17.6016 32.1365 17.8938 32.0906 18.2375C31.9302 20.1854 31.426 22.0016 30.5781 23.6859C29.7302 25.3703 28.6302 26.837 27.2781 28.0859C25.926 29.3349 24.3734 30.3203 22.6203 31.0422C20.8672 31.7641 18.9938 32.125 17 32.125ZM17 4.625C13.7688 4.625 10.9901 5.70208 8.66406 7.85625C6.33802 10.0104 5.01458 12.6573 4.69375 15.7969C4.64792 16.1635 4.4875 16.4557 4.2125 16.6734C3.9375 16.8911 3.61667 17 3.25 17C2.86042 17 2.52813 16.8797 2.25313 16.6391C1.97813 16.3984 1.86354 16.1063 1.90938 15.7625C2.06979 13.8146 2.57396 11.9984 3.42188 10.3141C4.26979 8.62969 5.36979 7.16302 6.72188 5.91406C8.07396 4.6651 9.62656 3.67969 11.3797 2.95781C13.1328 2.23594 15.0063 1.875 17 1.875C19.5667 1.875 21.9271 2.45937 24.0813 3.62813C26.2354 4.79688 28 6.35521 29.375 8.30313V6C29.375 5.61042 29.5068 5.28385 29.7703 5.02031C30.0339 4.75677 30.3604 4.625 30.75 4.625C31.1396 4.625 31.4661 4.75677 31.7297 5.02031C31.9932 5.28385 32.125 5.61042 32.125 6V11.5C32.125 11.8896 31.9932 12.2161 31.7297 12.4797C31.4661 12.7432 31.1396 12.875 30.75 12.875H25.25C24.8604 12.875 24.5339 12.7432 24.2703 12.4797C24.0068 12.2161 23.875 11.8896 23.875 11.5C23.875 11.1104 24.0068 10.7839 24.2703 10.5203C24.5339 10.2568 24.8604 10.125 25.25 10.125H27.2781C26.1781 8.475 24.7286 7.14583 22.9297 6.1375C21.1307 5.12917 19.1542 4.625 17 4.625Z" fill="white"/>
</g>
</g>
</svg>
