<svg width="34" height="34" viewBox="0 0 34 34" fill="none" xmlns="http://www.w3.org/2000/svg">
<g id="forest">
<mask id="mask0_83_9401" style="mask-type:alpha" maskUnits="userSpaceOnUse" x="0" y="0" width="34" height="34">
<rect id="Bounding box" width="34" height="34" fill="#D9D9D9"/>
</mask>
<g mask="url(#mask0_83_9401)">
<path id="forest_2" d="M9.91736 25.5H2.58611C2.01944 25.5 1.60625 25.2521 1.34653 24.7562C1.08681 24.2604 1.11042 23.7764 1.41736 23.3041L5.45486 17C4.88819 17 4.48681 16.7462 4.25069 16.2385C4.01458 15.7309 4.06181 15.241 4.39236 14.7687L11.5819 4.4979C11.8653 4.09651 12.2549 3.89581 12.7507 3.89581C13.2465 3.89581 13.6361 4.09651 13.9194 4.4979L17.0007 8.92498L20.0819 4.4979C20.3653 4.09651 20.7549 3.89581 21.2507 3.89581C21.7465 3.89581 22.1361 4.09651 22.4194 4.4979L29.609 14.7687C29.9396 15.241 29.9868 15.7309 29.7507 16.2385C29.5146 16.7462 29.1132 17 28.5465 17L32.584 23.3041C32.891 23.7764 32.9146 24.2604 32.6549 24.7562C32.3951 25.2521 31.9819 25.5 31.4153 25.5H24.084V28.3333C24.084 29.1125 23.8066 29.7795 23.2517 30.3344C22.6969 30.8892 22.0299 31.1666 21.2507 31.1666C20.4715 31.1666 19.8045 30.8892 19.2497 30.3344C18.6948 29.7795 18.4174 29.1125 18.4174 28.3333V25.5H15.584V28.3333C15.584 29.1125 15.3066 29.7795 14.7517 30.3344C14.1969 30.8892 13.5299 31.1666 12.7507 31.1666C11.9715 31.1666 11.3045 30.8892 10.7497 30.3344C10.1948 29.7795 9.91736 29.1125 9.91736 28.3333V25.5ZM23.6944 22.6666H28.8299L23.3403 14.1666H25.7132L21.2507 7.79165L18.7361 11.3687L21.109 14.7687C21.4396 15.241 21.4868 15.7309 21.2507 16.2385C21.0146 16.7462 20.6132 17 20.0465 17L23.6944 22.6666ZM5.17153 22.6666H20.3299L14.8403 14.1666H17.2132L12.7507 7.79165L8.28819 14.1666H10.6611L5.17153 22.6666ZM5.17153 22.6666H10.6611H8.28819H17.2132H14.8403H20.3299H5.17153ZM23.6944 22.6666H20.0465H21.2507H18.7361H25.7132H23.3403H28.8299H23.6944Z" fill="white"/>
</g>
</g>
</svg>
