<svg width="34" height="34" viewBox="0 0 34 34" fill="none" xmlns="http://www.w3.org/2000/svg">
<g id="mode_heat_off">
<mask id="mask0_83_9413" style="mask-type:alpha" maskUnits="userSpaceOnUse" x="0" y="0" width="34" height="34">
<rect id="Bounding box" width="34" height="34" fill="#D9D9D9"/>
</mask>
<g mask="url(#mask0_83_9413)">
<path id="mode_heat_off_2" d="M28.0149 32.0521L1.94824 5.9854L3.96699 3.96665L30.0337 30.0333L28.0149 32.0521ZM27.2712 23.1979L25.1107 21.0375C25.2288 20.6125 25.3232 20.1816 25.3941 19.7448C25.4649 19.308 25.5003 18.8653 25.5003 18.4166C25.5003 17.2361 25.2819 16.1205 24.8451 15.0698C24.4083 14.0191 23.7767 13.0805 22.9503 12.2541C22.4781 12.5611 21.9823 12.7913 21.4628 12.9448C20.9434 13.0982 20.4121 13.175 19.8691 13.175C18.4052 13.175 17.1361 12.691 16.0618 11.7229C14.9875 10.7548 14.3677 9.56248 14.2024 8.14581C14.0135 8.28748 13.8364 8.43505 13.6712 8.58852C13.5059 8.74199 13.3288 8.90137 13.1399 9.06665L11.1212 7.0479C11.9475 6.24512 12.8507 5.49547 13.8305 4.79894C14.8104 4.10241 15.867 3.4472 17.0003 2.83331V7.50831C17.0003 8.31109 17.2778 8.98401 17.8326 9.52706C18.3875 10.0701 19.0663 10.3416 19.8691 10.3416C20.2941 10.3416 20.6896 10.2472 21.0555 10.0583C21.4215 9.86942 21.7462 9.6097 22.0295 9.27915L22.667 8.49998C24.4142 9.49165 25.7955 10.8729 26.8107 12.6437C27.826 14.4146 28.3337 16.3389 28.3337 18.4166C28.3337 19.2666 28.2451 20.093 28.068 20.8958C27.891 21.6986 27.6253 22.466 27.2712 23.1979ZM17.0003 29.75C13.8364 29.75 11.1566 28.6521 8.96074 26.4562C6.76491 24.2604 5.66699 21.5805 5.66699 18.4166C5.66699 16.7875 5.96803 15.1996 6.57012 13.6531C7.1722 12.1066 8.03991 10.625 9.17324 9.20831L11.192 11.2271C10.2948 12.4076 9.62185 13.6 9.17324 14.8041C8.72463 16.0083 8.50033 17.2125 8.50033 18.4166C8.50033 19.6444 8.74824 20.8073 9.24408 21.9052C9.73991 23.0031 10.4482 23.9653 11.3691 24.7916C11.3455 24.6736 11.3337 24.5673 11.3337 24.4729V24.1541C11.3337 23.3986 11.4753 22.6903 11.7587 22.0291C12.042 21.368 12.4552 20.766 12.9982 20.2229L16.6462 16.6812L18.6649 18.7L14.9816 22.2416C14.7219 22.5014 14.5212 22.7965 14.3795 23.1271C14.2378 23.4576 14.167 23.8 14.167 24.1541C14.167 24.9097 14.4444 25.559 14.9993 26.1021C15.5541 26.6451 16.2212 26.9166 17.0003 26.9166C17.7795 26.9166 18.4465 26.6451 19.0014 26.1021C19.5562 25.559 19.8337 24.9097 19.8337 24.1541C19.8337 23.7764 19.7569 23.434 19.6035 23.1271C19.45 22.8201 19.2434 22.5368 18.9837 22.2771L20.6128 20.6479L25.6774 25.7125C24.6149 26.9639 23.3458 27.9496 21.8701 28.6698C20.3944 29.3899 18.7712 29.75 17.0003 29.75Z" fill="white"/>
</g>
</g>
</svg>
