<svg width="36" height="36" viewBox="0 0 36 36" fill="none" xmlns="http://www.w3.org/2000/svg">
<g id="request_quote">
<mask id="mask0_88_9445" style="mask-type:alpha" maskUnits="userSpaceOnUse" x="0" y="0" width="36" height="36">
<rect id="Bounding box" x="0.5" y="0.5" width="35" height="35" fill="#D9D9D9"/>
</mask>
<g mask="url(#mask0_88_9445)">
<path id="request_quote_2" d="M16.5413 26.75V27.4792C16.5413 27.6736 16.6143 27.8437 16.7601 27.9896C16.9059 28.1354 17.0761 28.2083 17.2705 28.2083H18.7288C18.9233 28.2083 19.0934 28.1354 19.2393 27.9896C19.3851 27.8437 19.458 27.6736 19.458 27.4792V26.75H20.9163C21.3295 26.75 21.6759 26.6102 21.9554 26.3307C22.2349 26.0512 22.3747 25.7048 22.3747 25.2917V20.9167C22.3747 20.5035 22.2349 20.1571 21.9554 19.8776C21.6759 19.5981 21.3295 19.4583 20.9163 19.4583H16.5413V18H20.9163C21.3295 18 21.6759 17.8602 21.9554 17.5807C22.2349 17.3012 22.3747 16.9549 22.3747 16.5417C22.3747 16.1285 22.2349 15.7821 21.9554 15.5026C21.6759 15.2231 21.3295 15.0833 20.9163 15.0833H19.458V14.3542C19.458 14.1597 19.3851 13.9896 19.2393 13.8437C19.0934 13.6979 18.9233 13.625 18.7288 13.625H17.2705C17.0761 13.625 16.9059 13.6979 16.7601 13.8437C16.6143 13.9896 16.5413 14.1597 16.5413 14.3542V15.0833H15.083C14.6698 15.0833 14.3235 15.2231 14.0439 15.5026C13.7644 15.7821 13.6247 16.1285 13.6247 16.5417V20.9167C13.6247 21.3298 13.7644 21.6762 14.0439 21.9557C14.3235 22.2352 14.6698 22.375 15.083 22.375H19.458V23.8333H15.083C14.6698 23.8333 14.3235 23.9731 14.0439 24.2526C13.7644 24.5321 13.6247 24.8785 13.6247 25.2917C13.6247 25.7048 13.7644 26.0512 14.0439 26.3307C14.3235 26.6102 14.6698 26.75 15.083 26.75H16.5413ZM9.24967 32.5833C8.44759 32.5833 7.76096 32.2977 7.18978 31.7266C6.6186 31.1554 6.33301 30.4687 6.33301 29.6667V6.33332C6.33301 5.53124 6.6186 4.84461 7.18978 4.27343C7.76096 3.70225 8.44759 3.41666 9.24967 3.41666H22.3747L29.6663 10.7083V29.6667C29.6663 30.4687 29.3808 31.1554 28.8096 31.7266C28.2384 32.2977 27.5518 32.5833 26.7497 32.5833H9.24967ZM9.24967 29.6667H26.7497V12.1667H22.3747C21.9615 12.1667 21.6151 12.0269 21.3356 11.7474C21.0561 11.4679 20.9163 11.1215 20.9163 10.7083V6.33332H9.24967V29.6667Z" fill="white"/>
</g>
</g>
</svg>
