<svg width="34" height="34" viewBox="0 0 34 34" fill="none" xmlns="http://www.w3.org/2000/svg">
<g id="routine">
<mask id="mask0_88_9423" style="mask-type:alpha" maskUnits="userSpaceOnUse" x="0" y="0" width="34" height="34">
<rect id="Bounding box" x="0.5" y="0.5" width="33" height="33" fill="#D9D9D9"/>
</mask>
<g mask="url(#mask0_88_9423)">
<path id="routine_2" d="M14.1125 19.8875C13.3792 19.1542 12.7089 18.3865 12.1016 17.5844C11.4943 16.7823 10.9385 15.9344 10.4344 15.0406C10.3198 15.3615 10.2453 15.688 10.2109 16.0203C10.1766 16.3526 10.1594 16.6792 10.1594 17C10.1594 18.9021 10.824 20.5177 12.1531 21.8469C13.4823 23.176 15.0979 23.8406 17 23.8406C17.3208 23.8406 17.6474 23.8177 17.9797 23.7719C18.312 23.726 18.6385 23.6573 18.9594 23.5656C18.0656 23.0615 17.2177 22.5057 16.4156 21.8984C15.6135 21.2911 14.8458 20.6208 14.1125 19.8875ZM16.0719 17.9625C17.2406 19.1313 18.5469 20.1339 19.9906 20.9703C21.4344 21.8068 22.9813 22.4542 24.6313 22.9125C23.7146 24.0813 22.5917 24.9922 21.2625 25.6453C19.9333 26.2984 18.524 26.625 17.0344 26.625C14.3531 26.625 12.0786 25.6911 10.2109 23.8234C8.34323 21.9557 7.40938 19.6812 7.40938 17C7.40938 15.5104 7.73594 14.101 8.38906 12.7719C9.04219 11.4427 9.95312 10.3198 11.1219 9.40312C11.5802 11.0531 12.2276 12.6 13.0641 14.0438C13.9005 15.4875 14.9031 16.7937 16.0719 17.9625ZM26.0406 20.4375C25.5823 20.3229 25.1297 20.1969 24.6828 20.0594C24.2359 19.9219 23.7948 19.7615 23.3594 19.5781C23.5427 19.1656 23.6745 18.7474 23.7547 18.3234C23.8349 17.8995 23.875 17.4583 23.875 17C23.875 15.0979 23.2047 13.4766 21.8641 12.1359C20.5234 10.7953 18.9021 10.125 17 10.125C16.5417 10.125 16.1005 10.1651 15.6766 10.2453C15.2526 10.3255 14.8344 10.4573 14.4219 10.6406C14.2385 10.2052 14.0839 9.76979 13.9578 9.33438C13.8318 8.89896 13.7115 8.45208 13.5969 7.99375C14.1469 7.7875 14.7083 7.63281 15.2812 7.52969C15.8542 7.42656 16.4385 7.375 17.0344 7.375C19.7156 7.375 21.9901 8.30885 23.8578 10.1766C25.7255 12.0443 26.6594 14.3188 26.6594 17C26.6594 17.5958 26.6078 18.1802 26.5047 18.7531C26.4016 19.326 26.2469 19.8875 26.0406 20.4375ZM15.625 4.625V0.5H18.375V4.625H15.625ZM15.625 33.5V29.375H18.375V33.5H15.625ZM26.7281 9.23125L24.7687 7.27188L27.6906 4.38438L29.65 6.30937L26.7281 9.23125ZM6.30937 29.6156L4.35 27.6906L7.27188 24.7687L9.23125 26.7281L6.30937 29.6156ZM29.375 18.375V15.625H33.5V18.375H29.375ZM0.5 18.375V15.625H4.625V18.375H0.5ZM27.6906 29.65L24.7687 26.7281L26.7281 24.7687L29.6156 27.6906L27.6906 29.65ZM7.27188 9.23125L4.38438 6.30937L6.30937 4.35L9.23125 7.27188L7.27188 9.23125Z" fill="white"/>
</g>
</g>
</svg>
