<svg width="26" height="26" viewBox="0 0 26 26" fill="none" xmlns="http://www.w3.org/2000/svg">
<path id="solar_power" d="M0.564275 22.88L2.13098 15.08C2.23978 14.4733 2.53898 13.975 3.02857 13.585C3.51817 13.195 4.07848 13 4.70952 13H21.2905C21.9215 13 22.4818 13.195 22.9714 13.585C23.461 13.975 23.7602 14.4733 23.869 15.08L25.4357 22.88C25.6098 23.7033 25.4303 24.4292 24.8972 25.0575C24.3641 25.6858 23.6841 26 22.8572 26H3.14281C2.31594 26 1.63595 25.6858 1.10283 25.0575C0.569715 24.4292 0.390197 23.7033 0.564275 22.88ZM5.16647 1.3C5.16647 1.66833 5.04135 1.97708 4.79112 2.22625C4.54088 2.47542 4.2308 2.6 3.86088 2.6H2.5553C2.18538 2.6 1.8753 2.47542 1.62507 2.22625C1.37483 1.97708 1.24971 1.66833 1.24971 1.3C1.24971 0.931667 1.37483 0.622917 1.62507 0.37375C1.8753 0.124583 2.18538 0 2.5553 0H3.86088C4.2308 0 4.54088 0.124583 4.79112 0.37375C5.04135 0.622917 5.16647 0.931667 5.16647 1.3ZM3.14281 23.4H11.6944V20.8H3.66505L3.14281 23.4ZM7.15749 5.85C7.41861 6.11 7.54917 6.41875 7.54917 6.77625C7.54917 7.13375 7.41861 7.4425 7.15749 7.7025L6.24358 8.6125C6.00422 8.85083 5.70503 8.97 5.34599 8.97C4.98695 8.97 4.67688 8.85083 4.41576 8.6125C4.15464 8.3525 4.02408 8.04375 4.02408 7.68625C4.02408 7.32875 4.15464 7.02 4.41576 6.76L5.32967 5.85C5.56903 5.61167 5.86823 5.4925 6.22726 5.4925C6.5863 5.4925 6.89638 5.61167 7.15749 5.85ZM4.18728 18.2H11.6944V15.6H4.70952L4.18728 18.2ZM13 6.5C11.1939 6.5 9.65443 5.86625 8.38148 4.59875C7.10853 3.33125 6.47206 1.79833 6.47206 0H9.08324C9.08324 1.08333 9.46403 2.00417 10.2256 2.7625C10.9872 3.52083 11.912 3.9 13 3.9C14.088 3.9 15.0128 3.52083 15.7744 2.7625C16.536 2.00417 16.9168 1.08333 16.9168 0H19.5279C19.5279 1.79833 18.8915 3.33125 17.6185 4.59875C16.3456 5.86625 14.8061 6.5 13 6.5ZM13 7.8C13.3699 7.8 13.68 7.92458 13.9302 8.17375C14.1805 8.42292 14.3056 8.73167 14.3056 9.1V10.4C14.3056 10.7683 14.1805 11.0771 13.9302 11.3263C13.68 11.5754 13.3699 11.7 13 11.7C12.6301 11.7 12.32 11.5754 12.0698 11.3263C11.8195 11.0771 11.6944 10.7683 11.6944 10.4V9.1C11.6944 8.73167 11.8195 8.42292 12.0698 8.17375C12.32 7.92458 12.6301 7.8 13 7.8ZM14.3056 23.4H22.8572L22.335 20.8H14.3056V23.4ZM14.3056 18.2H21.8127L21.2905 15.6H14.3056V18.2ZM18.8425 5.85C19.0819 5.61167 19.3865 5.4925 19.7564 5.4925C20.1263 5.4925 20.431 5.61167 20.6703 5.85L21.5842 6.76C21.8454 7.02 21.9814 7.32333 21.9922 7.67C22.0031 8.01667 21.878 8.32 21.6169 8.58C21.3558 8.84 21.0457 8.97 20.6866 8.97C20.3276 8.97 20.0175 8.84 19.7564 8.58L18.8425 7.67C18.6031 7.41 18.478 7.10667 18.4671 6.76C18.4563 6.41333 18.5814 6.11 18.8425 5.85ZM24.7503 1.3C24.7503 1.66833 24.6252 1.97708 24.3749 2.22625C24.1247 2.47542 23.8146 2.6 23.4447 2.6H22.1391C21.7692 2.6 21.4591 2.47542 21.2089 2.22625C20.9586 1.97708 20.8335 1.66833 20.8335 1.3C20.8335 0.931667 20.9586 0.622917 21.2089 0.37375C21.4591 0.124583 21.7692 0 22.1391 0H23.4447C23.8146 0 24.1247 0.124583 24.3749 0.37375C24.6252 0.622917 24.7503 0.931667 24.7503 1.3Z" fill="white"/>
</svg>
