<svg width="20" height="20" viewBox="0 0 20 20" fill="none" xmlns="http://www.w3.org/2000/svg">
<g id="CaretDownFill">
<path id="Vector" d="M10.9414 6.075L16.9364 12.9275C17.6439 13.7337 17.0689 15 15.9951 15L4.00511 15C3.7648 15.0002 3.52953 14.9311 3.32747 14.8011C3.12541 14.671 2.96512 14.4855 2.8658 14.2666C2.76648 14.0478 2.73234 13.805 2.76746 13.5673C2.80259 13.3296 2.9055 13.107 3.06386 12.9262L9.05886 6.07625C9.17619 5.94199 9.32088 5.83438 9.48322 5.76065C9.64557 5.68692 9.82181 5.64877 10.0001 5.64877C10.1784 5.64877 10.3547 5.68692 10.517 5.76065C10.6793 5.83438 10.824 5.94199 10.9414 6.07625L10.9414 6.075Z" fill="black"/>
</g>
</svg>
