<svg width="39" height="49" viewBox="0 0 39 49" fill="none" xmlns="http://www.w3.org/2000/svg">
<path d="M32.5402 27.1755C32.5397 27.1685 32.5398 27.1615 32.5392 27.1545C32.5365 27.1251 32.532 27.0963 32.526 27.068C32.5254 27.0652 32.5246 27.0626 32.5239 27.0598C32.5182 27.0343 32.5111 27.0092 32.5029 26.9846C32.5006 26.978 32.4981 26.9715 32.4957 26.9649C32.488 26.9441 32.4796 26.9237 32.4703 26.9038C32.467 26.8968 32.4637 26.8898 32.4602 26.8829C32.4498 26.8624 32.4385 26.8424 32.4263 26.823C32.4232 26.818 32.4203 26.8127 32.417 26.8077C32.4012 26.7838 32.3841 26.7607 32.3658 26.7388C32.3624 26.7346 32.3584 26.7308 32.3549 26.7267C32.3395 26.7091 32.3235 26.6923 32.3067 26.6763C32.3038 26.6735 32.3015 26.6705 32.2985 26.6677L24.0792 19.065C23.9385 18.9348 23.7539 18.8626 23.5623 18.8626H15.9137C15.7221 18.8626 15.5374 18.9348 15.3968 19.065L7.17755 26.6677C6.99088 26.8404 6.90278 27.0949 6.94267 27.346L8.99742 40.2912C9.05609 40.661 9.37491 40.9331 9.74926 40.9331H29.7267C30.1011 40.9331 30.4199 40.6609 30.4786 40.2912L32.5333 27.346C32.5341 27.341 32.534 27.3361 32.5347 27.3312C32.5375 27.3113 32.5393 27.2912 32.5405 27.2708C32.5411 27.2608 32.5418 27.2509 32.542 27.2409C32.5421 27.2362 32.5428 27.2314 32.5428 27.2266C32.5429 27.2094 32.5413 27.1924 32.5402 27.1755ZM29.8374 26.4653H16.675V20.6389C16.675 20.5215 16.5562 20.437 16.3851 20.3851H23.2642L29.8374 26.4653ZM8.5102 27.5092L15.1524 21.3652V39.4107H10.3993L8.5102 27.5092ZM29.0768 39.4106H16.675V27.9879H30.8899L29.0768 39.4106Z" fill="#222222"/>
<path d="M37.9608 29.3278C37.542 29.3003 37.178 29.6157 37.1492 30.0352C36.6045 37.9669 30.9235 46.5037 19.7377 46.5037C14.8328 46.5037 10.5735 44.8242 7.42051 41.6467C4.11543 38.3159 2.24196 33.5499 2.28054 28.5706C2.34276 20.5273 7.31281 12.8768 9.07391 10.4163L11.8821 14.3864C12.2365 14.8855 12.6871 14.7606 12.8168 14.7103C13.0197 14.6318 13.1793 14.4701 13.2553 14.2663C13.2605 14.2525 13.2737 14.2139 13.2943 14.1522C13.9018 12.3322 16.0996 6.29773 19.7377 2.19949C23.3763 6.29814 25.5739 12.3325 26.1813 14.1525C26.2018 14.2139 26.2149 14.2523 26.2201 14.2661C26.2972 14.4727 26.4598 14.6357 26.6662 14.7131C27.216 14.9195 27.5095 14.5051 27.7036 14.2309L30.4016 10.4162C32.0562 12.7272 36.5413 19.6152 37.1301 27.1017C37.163 27.5207 37.5266 27.8341 37.9486 27.801C38.3678 27.768 38.6809 27.4015 38.6479 26.9824C38.251 21.9353 36.1873 17.2191 34.5261 14.1514C32.7314 10.8377 31.0496 8.7317 30.9788 8.6437C30.8291 8.45744 30.6003 8.35146 30.362 8.35958C30.1232 8.36689 29.9017 8.48596 29.7637 8.68105C29.0475 9.69406 27.9295 11.2754 27.162 12.3605C26.1141 9.54637 23.7969 4.16888 20.284 0.55005C20.1406 0.402564 19.9436 0.319229 19.7377 0.319229C19.5319 0.319229 19.3349 0.402564 19.1916 0.550253C15.6789 4.16888 13.3615 9.54668 12.3136 12.3607C11.546 11.2757 10.428 9.69426 9.71187 8.68125C9.57402 8.48616 9.35244 8.3672 9.1136 8.35979C8.87507 8.35217 8.64638 8.45764 8.49676 8.6439C8.4184 8.74144 6.55529 11.0745 4.65969 14.6949C2.90276 18.0503 0.799689 23.1793 0.758073 28.5589C0.716456 33.9412 2.75091 39.1024 6.33979 42.7192C9.78495 46.191 14.4179 48.0262 19.7377 48.0262C25.1922 48.0262 29.9088 46.1049 33.3777 42.4699C36.4654 39.2342 38.3443 34.8551 38.6681 30.1395C38.697 29.7199 38.3802 29.3566 37.9608 29.3278Z" fill="#222222"/>
<path d="M23.9791 33.3617C23.5593 33.3617 23.2178 33.7033 23.2178 34.123C23.2178 34.5427 23.5593 34.8843 23.9791 34.8843C24.3988 34.8843 24.7403 34.5427 24.7403 34.123C24.7403 33.7033 24.3989 33.3617 23.9791 33.3617Z" fill="#222222"/>
<path d="M26.5879 35.9585C26.1682 35.9585 25.8267 36.3 25.8267 36.7198C25.8267 37.1395 26.1682 37.481 26.5879 37.481C27.0077 37.481 27.3492 37.1395 27.3492 36.7198C27.3492 36.3 27.0078 35.9585 26.5879 35.9585Z" fill="#222222"/>
</svg>
