<svg width="14" height="14" viewBox="0 0 14 14" fill="none" xmlns="http://www.w3.org/2000/svg">
<path d="M8.1873 7.00164L13.5798 1.61164C13.6344 1.55602 13.6649 1.48122 13.6649 1.40331C13.6649 1.3254 13.6344 1.25059 13.5798 1.19497L12.8098 0.418308C12.7542 0.363747 12.6794 0.333183 12.6015 0.333183C12.5236 0.333183 12.4488 0.363747 12.3931 0.418308L6.99647 5.81081L1.6073 0.418308C1.5507 0.365648 1.47627 0.336374 1.39897 0.336374C1.32166 0.336374 1.24723 0.365648 1.19063 0.418308L0.422299 1.18747C0.367739 1.24309 0.337174 1.3179 0.337174 1.39581C0.337174 1.47372 0.367739 1.54852 0.422299 1.60414L5.80813 7.00164L0.418132 12.3883C0.363572 12.4439 0.333008 12.5187 0.333008 12.5966C0.333008 12.6746 0.363572 12.7494 0.418132 12.805L1.18647 13.5741C1.24208 13.6287 1.31689 13.6593 1.3948 13.6593C1.47271 13.6593 1.54751 13.6287 1.60313 13.5741L6.99647 8.18914L12.3881 13.5808C12.4438 13.6354 12.5186 13.6659 12.5965 13.6659C12.6744 13.6659 12.7492 13.6354 12.8048 13.5808L13.574 12.8116C13.6285 12.756 13.6591 12.6812 13.6591 12.6033C13.6591 12.5254 13.6285 12.4506 13.574 12.395L8.1873 7.00164Z" fill="#222222"/>
</svg>
