<svg width="747" height="300" viewBox="0 0 747 300" fill="none" xmlns="http://www.w3.org/2000/svg">
<path d="M733.873 1.00018H12.7636C6.26675 1.00018 1 6.02726 1 12.2285V288.445C1 294.646 6.26675 299.673 12.7636 299.673H733.873C740.369 299.673 745.636 294.646 745.636 288.445V12.2285C745.636 6.02726 740.369 1.00018 733.873 1.00018Z" fill="#184D93"/>
<path d="M734.341 0.693604H12.4815C6.14042 0.693604 1 5.59201 1 11.6345V287.682C1 293.724 6.14042 298.623 12.4815 298.623H734.341C740.682 298.623 745.822 293.724 745.822 287.682V11.6345C745.822 5.59201 740.682 0.693604 734.341 0.693604Z" stroke="white" stroke-width="0.588792"/>
<path d="M678.063 56.3746H648.72C647.015 56.4948 644.55 55.3972 644.55 52.8001V35.6073L642.164 38.2234C642.054 38.3663 641.913 38.4822 641.751 38.5619C641.59 38.6416 641.412 38.6831 641.232 38.6831C641.052 38.6831 640.874 38.6416 640.713 38.5619C640.551 38.4822 640.41 38.3663 640.301 38.2234C640.155 38.0776 640.039 37.9045 639.96 37.7139C639.881 37.5234 639.84 37.3191 639.84 37.1129C639.84 36.9066 639.881 36.7024 639.96 36.5119C640.039 36.3213 640.155 36.1482 640.301 36.0024L661.171 15.1533C661.76 14.5649 662.558 14.2344 663.391 14.2344C664.224 14.2344 665.022 14.5649 665.611 15.1533L672.812 22.346V18.2904C672.812 18.0843 672.853 17.8803 672.932 17.6899C673.011 17.4996 673.126 17.3267 673.272 17.181C673.418 17.0353 673.591 16.9198 673.781 16.841C673.972 16.7623 674.176 16.7218 674.382 16.7218H677.522C677.728 16.7218 677.932 16.7623 678.123 16.841C678.313 16.9198 678.486 17.0353 678.632 17.181C678.778 17.3267 678.893 17.4996 678.972 17.6899C679.051 17.8803 679.092 18.0843 679.092 18.2904V28.6207L686.483 36.0024C686.628 36.1482 686.744 36.3213 686.823 36.5119C686.902 36.7024 686.943 36.9066 686.943 37.1129C686.943 37.3191 686.902 37.5234 686.823 37.7139C686.744 37.9045 686.628 38.0776 686.483 38.2234C685.868 38.8363 684.873 38.2475 684.26 37.6346L682.233 35.6073V52.8001C682.233 55.1653 679.624 56.4129 678.387 56.4123C678.278 56.4138 678.169 56.4011 678.063 56.3746ZM678.063 54.3675C678.93 54.3675 680.222 53.6656 680.222 52.7989V33.7379L663.492 16.7218L646.561 33.7379V52.8001C646.561 53.6662 647.853 54.3686 648.72 54.3686H656.892V38.0673H669.89V54.3669L678.063 54.3675ZM659.058 54.3021H667.724V40.23H659.058V54.3021Z" fill="white"/>
<path d="M66.3864 167.321C65.8968 167.296 65.4361 167.082 65.101 166.724C64.7659 166.367 64.5825 165.893 64.5894 165.403V122.137C64.5852 121.638 64.777 121.158 65.1236 120.799C65.4701 120.44 65.9437 120.231 66.4424 120.218H100.523C101.013 120.243 101.473 120.458 101.808 120.815C102.143 121.173 102.327 121.647 102.32 122.137V145.242C102.323 145.339 102.306 145.437 102.27 145.527C102.235 145.618 102.182 145.701 102.114 145.771C102.046 145.841 101.964 145.897 101.874 145.935C101.784 145.973 101.688 145.993 101.59 145.993C101.492 145.993 101.396 145.973 101.306 145.935C101.216 145.897 101.135 145.841 101.066 145.771C100.998 145.701 100.945 145.618 100.91 145.527C100.874 145.437 100.857 145.339 100.86 145.242V122.137C100.862 122.077 100.852 122.017 100.83 121.96C100.808 121.904 100.776 121.853 100.734 121.81C100.692 121.766 100.642 121.732 100.586 121.708C100.531 121.684 100.471 121.672 100.411 121.672H66.4424C66.3821 121.672 66.3225 121.684 66.2671 121.708C66.2117 121.732 66.1615 121.766 66.1197 121.81C66.0778 121.853 66.045 121.904 66.0233 121.961C66.0016 122.017 65.9913 122.077 65.9931 122.137V157.509H100.804V147.695C100.804 147.499 100.88 147.311 101.016 147.17C101.152 147.029 101.338 146.946 101.534 146.939C101.627 146.94 101.719 146.962 101.803 147.002C101.887 147.042 101.961 147.1 102.02 147.173C102.08 147.245 102.122 147.329 102.145 147.419C102.169 147.509 102.172 147.604 102.154 147.695V165.403C102.163 165.647 102.122 165.89 102.036 166.119C101.95 166.348 101.82 166.557 101.653 166.735C101.486 166.914 101.285 167.057 101.062 167.158C100.84 167.258 100.599 167.314 100.355 167.321H66.3864ZM65.9931 165.403C65.9912 165.463 66.0014 165.523 66.0231 165.579C66.0448 165.635 66.0776 165.687 66.1195 165.73C66.1614 165.773 66.2115 165.808 66.267 165.832C66.3224 165.855 66.3821 165.868 66.4424 165.868H100.357C100.417 165.867 100.477 165.855 100.532 165.831C100.587 165.808 100.638 165.773 100.679 165.73C100.721 165.687 100.754 165.635 100.776 165.579C100.798 165.523 100.808 165.463 100.806 165.403V159.226H65.9931V165.403ZM68.1222 163.397C67.8944 163.397 67.676 163.306 67.5149 163.145C67.3539 162.984 67.2634 162.766 67.2634 162.538C67.2634 162.31 67.3539 162.092 67.5149 161.931C67.676 161.77 67.8944 161.679 68.1222 161.679H98.6216C98.8494 161.679 99.0678 161.77 99.2289 161.931C99.3899 162.092 99.4804 162.31 99.4804 162.538C99.4804 162.766 99.3899 162.984 99.2289 163.145C99.0678 163.306 98.8494 163.397 98.6216 163.397H68.1222ZM75.9384 145.487C75.8257 145.487 75.714 145.465 75.6099 145.422C75.5057 145.379 75.4111 145.316 75.3314 145.236C75.2517 145.156 75.1884 145.062 75.1453 144.957C75.1021 144.853 75.0799 144.742 75.0799 144.629C75.0799 144.516 75.1021 144.404 75.1453 144.3C75.1884 144.196 75.2517 144.102 75.3314 144.022C75.4111 143.942 75.5057 143.879 75.6099 143.836C75.714 143.793 75.8257 143.77 75.9384 143.77H91.0392C91.2668 143.77 91.4852 143.861 91.6462 144.022C91.8072 144.183 91.8976 144.401 91.8976 144.629C91.8976 144.857 91.8072 145.075 91.6462 145.236C91.4852 145.397 91.2668 145.487 91.0392 145.487H75.9384ZM72.2208 142.298C71.9084 142.298 71.6089 142.174 71.3881 141.953C71.1672 141.732 71.0432 141.433 71.0432 141.12V126.057C71.0432 125.744 71.1672 125.445 71.3881 125.224C71.6089 125.003 71.9084 124.879 72.2208 124.879H94.7568C95.0691 124.879 95.3686 125.003 95.5895 125.224C95.8103 125.445 95.9344 125.744 95.9344 126.057V141.12C95.9344 141.433 95.8103 141.732 95.5895 141.953C95.3686 142.174 95.0691 142.298 94.7568 142.298H72.2208ZM72.4645 126.695V140.482C72.4645 140.638 72.5266 140.788 72.637 140.898C72.7474 141.009 72.8972 141.071 73.0533 141.071H93.9242C94.0804 141.071 94.2302 141.009 94.3406 140.898C94.451 140.788 94.513 140.638 94.513 140.482V126.695C94.513 126.539 94.451 126.389 94.3406 126.278C94.2302 126.168 94.0804 126.106 93.9242 126.106H73.0533C72.8972 126.106 72.7474 126.168 72.637 126.278C72.5266 126.389 72.4645 126.539 72.4645 126.695ZM88.1081 138.372C88.113 138.233 88.1588 138.098 88.2399 137.984C88.321 137.87 88.4337 137.783 88.5641 137.733C88.6944 137.683 88.8366 137.672 88.9729 137.703C89.1092 137.733 89.2336 137.803 89.3306 137.903C89.4276 138.003 89.4929 138.13 89.5183 138.268C89.5438 138.405 89.5282 138.547 89.4737 138.675C89.4191 138.804 89.3279 138.913 89.2114 138.99C89.095 139.067 88.9584 139.108 88.8188 139.108C88.7238 139.107 88.6301 139.086 88.5429 139.049C88.4558 139.011 88.3769 138.956 88.3109 138.888C88.2449 138.819 88.193 138.739 88.1583 138.65C88.1235 138.562 88.1064 138.467 88.1081 138.372ZM84.5548 138.372C84.5596 138.233 84.6055 138.098 84.6865 137.984C84.7676 137.87 84.8803 137.783 85.0107 137.733C85.141 137.683 85.2832 137.672 85.4196 137.703C85.5559 137.733 85.6803 137.803 85.7773 137.903C85.8743 138.003 85.9395 138.13 85.965 138.268C85.9904 138.405 85.9749 138.547 85.9203 138.675C85.8657 138.804 85.7745 138.913 85.6581 138.99C85.5416 139.067 85.4051 139.108 85.2655 139.108C85.1705 139.107 85.0767 139.086 84.9895 139.049C84.9024 139.011 84.8236 138.956 84.7576 138.888C84.6916 138.819 84.6397 138.739 84.6049 138.65C84.5701 138.562 84.5531 138.467 84.5548 138.372ZM81.0014 138.372C81.0063 138.233 81.0521 138.098 81.1332 137.984C81.2142 137.87 81.327 137.783 81.4573 137.733C81.5877 137.683 81.7299 137.672 81.8662 137.703C82.0025 137.733 82.1269 137.803 82.2239 137.903C82.3209 138.003 82.3862 138.13 82.4116 138.268C82.437 138.405 82.4215 138.547 82.3669 138.675C82.3124 138.804 82.2212 138.913 82.1047 138.99C81.9883 139.067 81.8517 139.108 81.7121 139.108C81.6171 139.107 81.5234 139.086 81.4364 139.048C81.3493 139.01 81.2705 138.956 81.2046 138.887C81.1386 138.819 81.0868 138.738 81.0521 138.65C81.0173 138.562 80.9997 138.467 81.0014 138.372ZM77.4481 138.372C77.4529 138.233 77.4987 138.098 77.5798 137.984C77.6609 137.87 77.7736 137.783 77.904 137.733C78.0343 137.683 78.1765 137.672 78.3128 137.703C78.4492 137.733 78.5736 137.803 78.6705 137.903C78.7675 138.003 78.8328 138.13 78.8583 138.268C78.8837 138.405 78.8681 138.547 78.8136 138.675C78.759 138.804 78.6678 138.913 78.5514 138.99C78.4349 139.067 78.2984 139.108 78.1587 139.108C78.0638 139.107 77.9701 139.086 77.883 139.048C77.7959 139.01 77.7172 138.956 77.6512 138.887C77.5853 138.819 77.5335 138.738 77.4987 138.65C77.4639 138.562 77.4463 138.467 77.4481 138.372ZM76.6155 135.183C76.4593 135.183 76.3096 135.121 76.1992 135.011C76.0887 134.901 76.0267 134.751 76.0267 134.595V128.412C76.0267 128.256 76.0887 128.106 76.1992 127.996C76.3096 127.886 76.4593 127.824 76.6155 127.824H90.3615C90.5176 127.824 90.6674 127.886 90.7778 127.996C90.8882 128.106 90.9502 128.256 90.9502 128.412V134.595C90.9502 134.751 90.8882 134.901 90.7778 135.011C90.6674 135.121 90.5176 135.183 90.3615 135.183H76.6155ZM77.4481 133.711H89.5295V129.296H77.4486L77.4481 133.711Z" fill="white"/>
<path d="M522.284 210.193H481.848C480.963 210.192 480.115 209.84 479.489 209.215C478.863 208.589 478.511 207.74 478.51 206.856V179.493C478.511 178.608 478.863 177.76 479.489 177.134C480.115 176.508 480.963 176.156 481.848 176.155H522.276C523.16 176.156 524.009 176.508 524.635 177.134C525.26 177.76 525.612 178.608 525.613 179.493V206.856C525.614 207.293 525.529 207.727 525.362 208.132C525.195 208.537 524.95 208.905 524.641 209.215C524.332 209.525 523.964 209.771 523.56 209.939C523.155 210.107 522.722 210.193 522.284 210.193ZM481.848 178.243C481.684 178.242 481.521 178.274 481.369 178.337C481.217 178.4 481.079 178.492 480.963 178.608C480.846 178.724 480.754 178.862 480.692 179.014C480.629 179.166 480.597 179.329 480.597 179.493V206.856C480.597 207.02 480.629 207.183 480.692 207.335C480.754 207.486 480.846 207.625 480.963 207.741C481.079 207.857 481.217 207.949 481.369 208.012C481.521 208.074 481.684 208.107 481.848 208.106H522.276C522.44 208.107 522.603 208.074 522.755 208.012C522.906 207.949 523.045 207.857 523.161 207.741C523.277 207.625 523.369 207.486 523.432 207.335C523.494 207.183 523.527 207.02 523.526 206.856V179.493C523.527 179.329 523.494 179.166 523.432 179.014C523.369 178.862 523.277 178.724 523.161 178.608C523.045 178.492 522.906 178.4 522.755 178.337C522.603 178.274 522.44 178.242 522.276 178.243H481.848Z" fill="white"/>
<path d="M490.064 191.695H485.953C485.678 191.694 485.414 191.585 485.22 191.39C485.025 191.196 484.915 190.932 484.915 190.657V185.5C484.915 185.225 485.025 184.962 485.22 184.767C485.414 184.573 485.678 184.463 485.953 184.462H490.064C490.339 184.463 490.603 184.573 490.797 184.767C490.992 184.962 491.101 185.225 491.102 185.5V190.657C491.101 190.932 490.992 191.196 490.797 191.39C490.603 191.585 490.339 191.694 490.064 191.695ZM486.991 189.62H489.027V186.538H486.991V189.62ZM499.154 191.695H495.042C494.767 191.694 494.504 191.585 494.309 191.39C494.115 191.196 494.005 190.932 494.004 190.657V185.5C494.005 185.225 494.115 184.962 494.31 184.767C494.504 184.573 494.767 184.464 495.042 184.463H499.154C499.429 184.464 499.692 184.573 499.887 184.768C500.081 184.962 500.191 185.226 500.192 185.501V190.658C500.192 190.794 500.165 190.929 500.113 191.055C500.061 191.181 499.985 191.295 499.888 191.392C499.792 191.488 499.678 191.565 499.552 191.617C499.426 191.669 499.291 191.696 499.154 191.695ZM496.081 189.62H498.117V186.538H496.081V189.62Z" fill="white"/>
<path d="M508.863 191.749H504.72C504.444 191.749 504.179 191.64 503.983 191.445C503.787 191.251 503.676 190.987 503.674 190.711V185.553C503.676 185.277 503.787 185.013 503.983 184.819C504.179 184.624 504.444 184.515 504.72 184.515H508.863C509.139 184.515 509.404 184.624 509.6 184.819C509.796 185.013 509.907 185.277 509.909 185.553V190.711C509.907 190.987 509.796 191.251 509.6 191.445C509.404 191.64 509.139 191.749 508.863 191.749ZM505.765 189.673H507.817V186.591H505.765V189.673ZM518.023 191.749H513.88C513.604 191.749 513.339 191.64 513.143 191.445C512.947 191.251 512.836 190.987 512.834 190.711V185.553C512.836 185.277 512.947 185.013 513.143 184.819C513.339 184.624 513.604 184.515 513.88 184.515H518.023C518.299 184.515 518.564 184.624 518.76 184.819C518.956 185.013 519.067 185.277 519.069 185.553V190.711C519.069 190.847 519.041 190.983 518.989 191.109C518.936 191.236 518.859 191.35 518.762 191.447C518.665 191.543 518.549 191.619 518.423 191.671C518.296 191.723 518.16 191.749 518.023 191.749ZM514.926 189.673H516.977V186.591H514.926L514.926 189.673ZM518.023 204.279H486.02C485.744 204.279 485.479 204.17 485.283 203.975C485.087 203.781 484.976 203.517 484.974 203.241V197.675C484.977 197.399 485.088 197.136 485.283 196.941C485.479 196.747 485.744 196.638 486.02 196.638H518.023C518.299 196.638 518.564 196.747 518.76 196.941C518.956 197.136 519.067 197.399 519.069 197.675V203.24C519.069 203.376 519.042 203.512 518.989 203.639C518.936 203.765 518.859 203.88 518.762 203.976C518.665 204.073 518.55 204.149 518.423 204.201C518.296 204.253 518.16 204.279 518.023 204.279ZM487.065 202.203H516.976V198.713H487.065V202.203Z" fill="white"/>
<path d="M677.778 185.899C677.981 185.899 678.175 185.818 678.319 185.675C678.463 185.531 678.543 185.337 678.543 185.134V181.869C678.543 181.841 678.542 181.813 678.539 181.785C678.539 181.782 678.539 181.777 678.539 181.774C678.535 181.742 678.529 181.711 678.521 181.68L678.516 181.662C678.507 181.628 678.495 181.595 678.481 181.563L678.477 181.554C678.464 181.525 678.448 181.496 678.431 181.469L678.42 181.452C678.402 181.424 678.382 181.397 678.361 181.371L678.347 181.355C678.324 181.33 678.299 181.306 678.274 181.284L678.271 181.281L668.541 173.176L666.146 169.983C666.075 169.888 665.982 169.811 665.876 169.757C665.77 169.704 665.653 169.677 665.534 169.677H662.269C662.15 169.677 662.033 169.704 661.927 169.757C661.82 169.811 661.728 169.888 661.657 169.983L659.261 173.176L649.54 181.276L649.537 181.279C649.511 181.301 649.487 181.325 649.464 181.35L649.45 181.365C649.428 181.391 649.409 181.419 649.391 181.447L649.382 181.463C649.364 181.49 649.349 181.519 649.336 181.548L649.331 181.557C649.318 181.589 649.306 181.622 649.297 181.656C649.297 181.662 649.294 181.669 649.292 181.674C649.284 181.705 649.278 181.736 649.274 181.768C649.274 181.772 649.274 181.776 649.274 181.779C649.271 181.807 649.269 181.835 649.269 181.863V185.128C649.269 185.331 649.35 185.526 649.493 185.669C649.637 185.813 649.831 185.894 650.034 185.894C650.237 185.894 650.432 185.813 650.576 185.669C650.719 185.526 650.8 185.331 650.8 185.128V182.634H659.064V189.673L649.54 197.602L649.537 197.605C649.511 197.627 649.487 197.651 649.464 197.677L649.45 197.692C649.428 197.718 649.409 197.745 649.391 197.774L649.382 197.79C649.364 197.817 649.349 197.846 649.336 197.875L649.331 197.884C649.318 197.916 649.306 197.949 649.297 197.983C649.297 197.989 649.294 197.995 649.292 198.001C649.284 198.032 649.278 198.063 649.274 198.095C649.274 198.098 649.274 198.102 649.274 198.106C649.271 198.134 649.27 198.162 649.27 198.19V201.455C649.27 201.658 649.35 201.853 649.494 201.996C649.637 202.14 649.832 202.22 650.035 202.22C650.238 202.22 650.433 202.14 650.576 201.996C650.72 201.853 650.8 201.658 650.8 201.455V198.958H658.737L652.764 215.386H651.658C651.455 215.386 651.261 215.466 651.117 215.61C650.974 215.753 650.893 215.948 650.893 216.151C650.893 216.354 650.974 216.549 651.117 216.692C651.261 216.836 651.455 216.917 651.658 216.917H655.738C655.941 216.917 656.135 216.836 656.279 216.692C656.422 216.549 656.503 216.354 656.503 216.151C656.503 215.948 656.422 215.753 656.279 215.61C656.135 215.466 655.941 215.386 655.738 215.386H654.906L663.902 204.391L672.898 215.386H672.88C672.677 215.386 672.483 215.466 672.339 215.61C672.195 215.753 672.115 215.948 672.115 216.151C672.115 216.354 672.195 216.549 672.339 216.692C672.483 216.836 672.677 216.917 672.88 216.917H676.961C677.164 216.917 677.359 216.836 677.502 216.692C677.646 216.549 677.727 216.354 677.727 216.151C677.727 215.948 677.646 215.753 677.502 215.61C677.359 215.466 677.164 215.386 676.961 215.386H675.05L669.077 198.958H677.014V201.458C677.014 201.661 677.094 201.856 677.238 201.999C677.381 202.143 677.576 202.223 677.779 202.223C677.982 202.223 678.177 202.143 678.32 201.999C678.464 201.856 678.544 201.661 678.544 201.458V198.194C678.544 198.166 678.543 198.138 678.54 198.11C678.54 198.106 678.54 198.102 678.54 198.099C678.536 198.067 678.53 198.036 678.522 198.005L678.517 197.987C678.508 197.953 678.496 197.92 678.483 197.888L678.478 197.879C678.465 197.85 678.45 197.821 678.433 197.794L678.423 197.778C678.405 197.749 678.386 197.722 678.364 197.696L678.35 197.681C678.327 197.655 678.303 197.632 678.277 197.609L678.274 197.607L668.75 189.673V182.634H677.014V185.134C677.014 185.336 677.095 185.531 677.238 185.674C677.381 185.818 677.575 185.899 677.778 185.899ZM662.822 177.788L660.589 180.022V175.554L662.822 177.788ZM661.671 174.472H666.138L663.904 176.706L661.671 174.472ZM661.671 181.103L663.905 178.869L666.139 181.103H661.671ZM666.138 182.634L663.902 184.867L661.668 182.634L666.138 182.634ZM662.822 185.95L660.588 188.184V183.716L662.822 185.95ZM661.67 189.266L663.904 187.032L666.138 189.266H661.67ZM666.137 190.797L663.903 193.031L661.67 190.797H666.137ZM662.82 194.111L660.586 196.349V191.879L662.82 194.111ZM663.902 195.194L666.136 197.428H661.668L663.902 195.194ZM666.368 198.958L663.902 201.972L661.435 198.958H666.368ZM664.982 194.111L667.215 191.878V196.349L664.982 194.111ZM664.982 185.949L667.215 183.715V188.182L664.982 185.949ZM664.982 177.787L667.219 175.554V180.022L664.982 177.787ZM662.652 171.207H665.151L666.454 172.941H661.352L662.652 171.207ZM659.055 175.341V181.104H652.139L659.055 175.341ZM659.055 191.665V197.428H652.139L659.055 191.665ZM655.547 212.184L660.081 199.719L662.914 203.182L655.547 212.184ZM664.89 203.179L667.723 199.716L672.257 212.181L664.89 203.179ZM668.748 197.426V191.665L675.664 197.428L668.748 197.426ZM668.748 181.102V175.34L675.664 181.103L668.748 181.102Z" fill="white"/>
<path d="M65.1784 261.992C64.5538 261.992 63.9547 261.744 63.513 261.302C63.0714 260.86 62.8232 260.261 62.8232 259.637V238.263H61.0569C60.7445 238.263 60.445 238.139 60.2242 237.918C60.0033 237.698 59.8793 237.398 59.8793 237.086V232.822C59.8793 232.51 60.0033 232.211 60.2242 231.99C60.445 231.769 60.7445 231.645 61.0569 231.645H65.4204V228.923C65.4204 228.767 65.4824 228.617 65.5929 228.506C65.7033 228.396 65.853 228.334 66.0092 228.334H67.0837C67.0837 228.322 67.0837 228.31 67.0837 228.297V225.613C67.0837 225.456 67.1458 225.307 67.2562 225.196C67.3666 225.086 67.5164 225.024 67.6725 225.024H72.5907C72.7469 225.024 72.8966 225.086 73.0071 225.196C73.1175 225.307 73.1795 225.456 73.1795 225.613V228.297C73.1795 228.31 73.1795 228.322 73.1795 228.334H74.254C74.4102 228.334 74.56 228.396 74.6704 228.506C74.7808 228.617 74.8428 228.767 74.8428 228.923V231.645H92.5743V228.923C92.5743 228.767 92.6364 228.617 92.7468 228.506C92.8572 228.396 93.007 228.334 93.1631 228.334H94.2377C94.2377 228.322 94.2377 228.31 94.2377 228.297V225.613C94.2377 225.456 94.2997 225.307 94.4101 225.196C94.5205 225.086 94.6703 225.024 94.8265 225.024H99.7446C99.9008 225.024 100.051 225.086 100.161 225.196C100.271 225.307 100.333 225.456 100.333 225.613V228.297C100.333 228.31 100.333 228.322 100.333 228.334H101.408C101.564 228.334 101.714 228.396 101.824 228.506C101.935 228.617 101.997 228.767 101.997 228.923V231.645H105.805C106.117 231.645 106.417 231.769 106.638 231.99C106.859 232.211 106.983 232.51 106.983 232.822V237.089C106.983 237.401 106.859 237.701 106.638 237.921C106.417 238.142 106.117 238.266 105.805 238.266H104.94V259.639C104.94 260.264 104.691 260.863 104.25 261.305C103.808 261.747 103.209 261.995 102.584 261.995L65.1784 261.992ZM64.5896 259.196C64.5896 259.508 64.7137 259.807 64.9345 260.028C65.1554 260.249 65.4549 260.373 65.7672 260.373H102.272C102.585 260.373 102.884 260.249 103.105 260.028C103.326 259.807 103.45 259.508 103.45 259.196V238.266H64.5896V259.196ZM61.542 233.889V236.022C61.542 236.179 61.6041 236.328 61.7145 236.439C61.8249 236.549 61.9747 236.611 62.1308 236.611H105.286C105.442 236.611 105.592 236.549 105.702 236.439C105.813 236.328 105.875 236.179 105.875 236.022V233.889C105.875 233.733 105.813 233.583 105.702 233.473C105.592 233.362 105.442 233.3 105.286 233.3H62.1308C61.9747 233.3 61.8249 233.362 61.7145 233.473C61.6041 233.583 61.542 233.733 61.542 233.889ZM100.388 231.645C100.466 231.645 100.541 231.614 100.596 231.559C100.652 231.504 100.683 231.429 100.683 231.351V229.734C100.683 229.656 100.652 229.581 100.596 229.526C100.541 229.471 100.466 229.44 100.388 229.44H94.0033C93.9252 229.44 93.8504 229.471 93.7952 229.526C93.7399 229.581 93.7089 229.656 93.7089 229.734V231.353C93.7089 231.431 93.7399 231.506 93.7952 231.561C93.8504 231.616 93.9252 231.647 94.0033 231.647L100.388 231.645ZM73.2343 231.645C73.3123 231.645 73.3872 231.614 73.4424 231.559C73.4976 231.504 73.5287 231.429 73.5287 231.351V229.734C73.5287 229.656 73.4976 229.581 73.4424 229.526C73.3872 229.471 73.3123 229.44 73.2343 229.44H66.8494C66.7713 229.44 66.6964 229.471 66.6412 229.526C66.586 229.581 66.555 229.656 66.555 229.734V231.353C66.555 231.431 66.586 231.506 66.6412 231.561C66.6964 231.616 66.7713 231.647 66.8494 231.647L73.2343 231.645ZM95.3428 226.052V228.243H99.3048V226.054C99.3048 225.976 99.2738 225.901 99.2186 225.846C99.1634 225.791 99.0885 225.76 99.0104 225.76H95.6396C95.5615 225.76 95.4866 225.791 95.4314 225.846C95.3762 225.901 95.3452 225.976 95.3452 226.054L95.3428 226.052ZM68.1889 226.052V228.243H72.1485V226.054C72.1485 225.976 72.1175 225.901 72.0623 225.846C72.0071 225.791 71.9322 225.76 71.8541 225.76H68.4857C68.4076 225.76 68.3327 225.791 68.2775 225.846C68.2223 225.901 68.1913 225.976 68.1913 226.054L68.1889 226.052ZM82.2728 257.256L82.8092 251.95L79.0886 251.274L85.2421 244.336L84.8164 249.066L88.4969 250.42L82.2728 257.256ZM81.2165 250.695L83.9415 251.062L83.5093 254L86.591 250.695L83.9415 249.827L84.28 246.983L81.2165 250.695ZM70.4081 246.263V244.336H69.0185C68.799 244.336 68.5884 244.249 68.4331 244.094C68.2779 243.938 68.1907 243.728 68.1907 243.508C68.1907 243.289 68.2779 243.078 68.4331 242.923C68.5884 242.768 68.799 242.681 69.0185 242.681H70.4081V241.305C70.4051 241.194 70.4244 241.083 70.4649 240.98C70.5053 240.876 70.566 240.782 70.6435 240.702C70.721 240.623 70.8136 240.56 70.9159 240.516C71.0182 240.473 71.1281 240.451 71.2391 240.451C71.3502 240.451 71.4601 240.473 71.5624 240.516C71.6647 240.56 71.7573 240.623 71.8348 240.702C71.9122 240.782 71.973 240.876 72.0134 240.98C72.0539 241.083 72.0732 241.194 72.0702 241.305V242.68H74.0132C74.2328 242.68 74.4434 242.767 74.5986 242.922C74.7539 243.078 74.8411 243.288 74.8411 243.508C74.8411 243.727 74.7539 243.938 74.5986 244.093C74.4434 244.248 74.2328 244.336 74.0132 244.336H72.0702V246.263C72.0732 246.374 72.0539 246.484 72.0134 246.588C71.973 246.691 71.9122 246.785 71.8348 246.865C71.7573 246.944 71.6647 247.008 71.5624 247.051C71.4601 247.094 71.3502 247.116 71.2391 247.116C71.1281 247.116 71.0182 247.094 70.9159 247.051C70.8136 247.008 70.721 246.944 70.6435 246.865C70.566 246.785 70.5053 246.691 70.4649 246.588C70.4244 246.484 70.4051 246.374 70.4081 246.263ZM93.4022 244.336C93.1826 244.336 92.972 244.249 92.8168 244.094C92.6615 243.938 92.5743 243.728 92.5743 243.508C92.5743 243.289 92.6615 243.078 92.8168 242.923C92.972 242.768 93.1826 242.681 93.4022 242.681H98.3969C98.6165 242.681 98.827 242.768 98.9823 242.923C99.1375 243.078 99.2247 243.289 99.2247 243.508C99.2247 243.728 99.1375 243.938 98.9823 244.094C98.827 244.249 98.6165 244.336 98.3969 244.336H93.4022Z" fill="white"/>
<path d="M392.583 36.0851C392.384 36.0889 392.194 36.1697 392.054 36.3107C391.913 36.4516 391.833 36.6415 391.829 36.8405V56.9855C391.83 57.0467 391.819 57.1075 391.796 57.1643C391.773 57.221 391.738 57.2726 391.695 57.3159C391.652 57.3592 391.6 57.3934 391.544 57.4164C391.487 57.4395 391.426 57.4509 391.365 57.45H356.298C356.237 57.4509 356.176 57.4395 356.119 57.4164C356.062 57.3934 356.011 57.3592 355.968 57.3159C355.924 57.2726 355.89 57.221 355.867 57.1643C355.844 57.1075 355.833 57.0467 355.833 56.9855V13.7917C355.833 13.7304 355.844 13.6696 355.867 13.6129C355.89 13.5561 355.924 13.5045 355.968 13.4612C356.011 13.4179 356.062 13.3837 356.119 13.3607C356.176 13.3377 356.237 13.3262 356.298 13.3271H391.422C391.483 13.3262 391.544 13.3377 391.601 13.3607C391.657 13.3837 391.709 13.4179 391.752 13.4612C391.796 13.5045 391.83 13.5561 391.853 13.6129C391.876 13.6696 391.887 13.7304 391.886 13.7917V34.3994C391.886 34.5996 391.966 34.7916 392.107 34.9331C392.249 35.0747 392.441 35.1542 392.641 35.1542C392.841 35.1542 393.033 35.0747 393.175 34.9331C393.317 34.7916 393.396 34.5996 393.396 34.3994V13.7917C393.395 13.2939 393.2 12.8161 392.854 12.4587C392.508 12.1013 392.036 11.8924 391.538 11.8757H356.298C355.791 11.8802 355.307 12.0835 354.948 12.4418C354.59 12.8002 354.387 13.2849 354.382 13.7917V56.9855C354.383 57.4832 354.578 57.9611 354.924 58.3184C355.271 58.6758 355.742 58.8848 356.24 58.9014H391.364C391.612 58.8979 391.857 58.8456 392.084 58.7474C392.312 58.6492 392.518 58.507 392.691 58.329C392.863 58.151 392.999 57.9407 393.09 57.7102C393.181 57.4796 393.226 57.2333 393.222 56.9855V36.8405C393.238 36.7475 393.234 36.6521 393.209 36.5609C393.185 36.4698 393.14 36.3852 393.079 36.3131C393.018 36.241 392.942 36.1832 392.857 36.1438C392.771 36.1044 392.677 36.0844 392.583 36.0851Z" fill="white"/>
<path d="M366.865 55.0689H388.752C388.951 55.0654 389.141 54.9848 389.282 54.844C389.422 54.7032 389.503 54.5132 389.507 54.3141V50.3103C389.871 50.1566 390.182 49.8979 390.399 49.5671C390.616 49.2363 390.73 48.8484 390.726 48.4527V44.6167C390.722 44.2228 390.605 43.8383 390.389 43.5089C390.173 43.1796 389.866 42.9193 389.507 42.759V28.0127C389.871 27.8591 390.182 27.6004 390.399 27.2696C390.616 26.9387 390.73 26.5508 390.726 26.1551V22.3256C390.722 21.9317 390.605 21.5472 390.389 21.2178C390.173 20.8885 389.866 20.6282 389.507 20.4679V16.4642C389.504 16.2646 389.423 16.0741 389.282 15.9328C389.142 15.7914 388.951 15.7105 388.752 15.707H358.969C358.77 15.7104 358.58 15.7911 358.439 15.9319C358.298 16.0727 358.217 16.2627 358.214 16.4618V54.3147C358.217 54.5138 358.298 54.7038 358.439 54.8446C358.58 54.9854 358.77 55.066 358.969 55.0695H364.484C364.684 55.0695 364.876 54.99 365.018 54.8484C365.159 54.7069 365.239 54.5149 365.239 54.3147C365.239 54.1145 365.159 53.9225 365.018 53.7809C364.876 53.6394 364.684 53.5598 364.484 53.5598H359.665V17.2166H388.055V20.4679H387.996C387.937 20.4679 387.937 20.5268 387.879 20.5268H387.82C387.761 20.5268 387.761 20.5857 387.702 20.5857H387.643C387.584 20.6446 387.525 20.6446 387.525 20.7035C387.466 20.7035 387.466 20.7623 387.407 20.8212L387.349 20.8801C387.316 20.9117 387.296 20.9531 387.29 20.9979V21.0567C387.231 21.1156 387.231 21.1745 387.172 21.1745C387.172 21.2334 387.113 21.2334 387.113 21.2923V21.3511C387.113 21.41 387.054 21.41 387.054 21.4689V21.5278C387.054 21.5867 386.995 21.6455 386.995 21.7044C387 21.7364 386.996 21.7689 386.986 21.7995C386.976 21.8301 386.959 21.858 386.936 21.881V26.5054C386.932 26.5374 386.935 26.5699 386.946 26.6005C386.956 26.6311 386.973 26.659 386.995 26.6821C386.995 26.7409 387.054 26.7998 387.054 26.8587V26.9176C387.054 26.9765 387.113 26.9765 387.113 27.0353V27.0942C387.113 27.1531 387.172 27.1531 387.172 27.212C387.231 27.2709 387.231 27.3297 387.29 27.3297V27.3886C387.29 27.4475 387.349 27.4475 387.349 27.5064L387.407 27.5652C387.466 27.5652 387.466 27.6241 387.525 27.683C387.584 27.7419 387.643 27.7419 387.643 27.8008H387.702C387.761 27.8008 387.761 27.8596 387.82 27.8596H387.879C387.937 27.8596 387.937 27.9185 387.996 27.9185H388.055V42.6454H387.996C387.937 42.6454 387.937 42.7043 387.879 42.7043H387.82C387.761 42.7043 387.761 42.7632 387.702 42.7632H387.643C387.584 42.822 387.525 42.822 387.525 42.8809C387.466 42.8809 387.466 42.9398 387.407 42.9987L387.349 43.0576C387.316 43.0892 387.296 43.1306 387.29 43.1753V43.2342C387.231 43.2931 387.231 43.352 387.172 43.352C387.172 43.4108 387.113 43.4108 387.113 43.4697V43.5286C387.113 43.5875 387.054 43.5875 387.054 43.6463V43.7052C387.054 43.7641 386.995 43.823 386.995 43.8819C387 43.9138 386.996 43.9464 386.986 43.977C386.976 44.0076 386.959 44.0354 386.936 44.0585V48.7029C386.932 48.7349 386.935 48.7674 386.946 48.798C386.956 48.8286 386.973 48.8565 386.995 48.8795C386.995 48.9384 387.054 48.9973 387.054 49.0562V49.1151C387.054 49.1739 387.113 49.1739 387.113 49.2328V49.2917C387.113 49.3506 387.172 49.3506 387.172 49.4095C387.231 49.4683 387.231 49.5272 387.29 49.5272V49.5861C387.29 49.645 387.349 49.645 387.349 49.7038L387.407 49.7627C387.466 49.7627 387.466 49.8216 387.525 49.8805C387.584 49.9394 387.643 49.9394 387.643 49.9982H387.702C387.761 49.9982 387.761 50.0571 387.82 50.0571H387.879C387.937 50.0571 387.937 50.116 387.996 50.116H388.055V53.425H366.865C366.665 53.4285 366.475 53.5091 366.335 53.6499C366.194 53.7908 366.113 53.9807 366.11 54.1798C366.11 54.5467 366.457 55.0689 366.865 55.0689ZM388.287 22.3256C388.28 22.2602 388.286 22.194 388.306 22.1313C388.326 22.0686 388.359 22.0108 388.403 21.9617C388.447 21.9126 388.501 21.8734 388.561 21.8465C388.621 21.8196 388.686 21.8057 388.752 21.8057C388.818 21.8057 388.883 21.8196 388.943 21.8465C389.003 21.8734 389.056 21.9126 389.1 21.9617C389.144 22.0108 389.177 22.0686 389.197 22.1313C389.217 22.194 389.224 22.2602 389.216 22.3256V26.1574C389.224 26.2228 389.217 26.2891 389.197 26.3518C389.177 26.4145 389.144 26.4723 389.1 26.5213C389.056 26.5704 389.003 26.6097 388.943 26.6366C388.883 26.6634 388.818 26.6773 388.752 26.6773C388.686 26.6773 388.621 26.6634 388.561 26.6366C388.501 26.6097 388.447 26.5704 388.403 26.5213C388.359 26.4723 388.326 26.4145 388.306 26.3518C388.286 26.2891 388.28 26.2228 388.287 26.1574V22.3256ZM388.287 44.619C388.28 44.5536 388.286 44.4874 388.306 44.4247C388.326 44.362 388.359 44.3042 388.403 44.2551C388.447 44.2061 388.501 44.1668 388.561 44.1399C388.621 44.113 388.686 44.0992 388.752 44.0992C388.818 44.0992 388.883 44.113 388.943 44.1399C389.003 44.1668 389.056 44.2061 389.1 44.2551C389.144 44.3042 389.177 44.362 389.197 44.4247C389.217 44.4874 389.224 44.5536 389.216 44.619V48.4509C389.224 48.5163 389.217 48.5825 389.197 48.6452C389.177 48.7079 389.144 48.7657 389.1 48.8148C389.056 48.8639 389.003 48.9031 388.943 48.93C388.883 48.9569 388.818 48.9708 388.752 48.9708C388.686 48.9708 388.621 48.9569 388.561 48.93C388.501 48.9031 388.447 48.8639 388.403 48.8148C388.359 48.7657 388.326 48.7079 388.306 48.6452C388.286 48.5825 388.28 48.5163 388.287 48.4509V44.619Z" fill="white"/>
<path d="M380.566 42.6454H367.155C366.955 42.6454 366.763 42.7249 366.621 42.8665C366.48 43.008 366.4 43.2 366.4 43.4002C366.4 43.6004 366.48 43.7924 366.621 43.934C366.763 44.0755 366.955 44.155 367.155 44.155H380.566C380.766 44.155 380.958 44.0755 381.1 43.934C381.241 43.7924 381.321 43.6004 381.321 43.4002C381.321 43.2 381.241 43.008 381.1 42.8665C380.958 42.7249 380.766 42.6454 380.566 42.6454Z" fill="white"/>
<path d="M380.566 45.7812H367.155C366.955 45.7813 366.763 45.8608 366.621 46.0023C366.48 46.1439 366.4 46.3359 366.4 46.5361C366.4 46.7363 366.48 46.9283 366.621 47.0698C366.763 47.2114 366.955 47.2909 367.155 47.2909H380.566C380.766 47.2909 380.958 47.2114 381.1 47.0698C381.241 46.9283 381.321 46.7363 381.321 46.5361C381.321 46.3359 381.241 46.1439 381.1 46.0023C380.958 45.8608 380.766 45.7812 380.566 45.7812Z" fill="white"/>
<path d="M380.566 48.915H367.155C366.955 48.915 366.763 48.9946 366.621 49.1361C366.48 49.2777 366.4 49.4697 366.4 49.6699C366.4 49.8701 366.48 50.0621 366.621 50.2036C366.763 50.3452 366.955 50.4247 367.155 50.4247H380.566C380.766 50.4247 380.958 50.3452 381.1 50.2036C381.241 50.0621 381.321 49.8701 381.321 49.6699C381.321 49.4697 381.241 49.2777 381.1 49.1361C380.958 48.9946 380.766 48.915 380.566 48.915Z" fill="white"/>
<path d="M382.888 38.0009C383.087 37.9974 383.277 37.9168 383.418 37.776C383.559 37.6352 383.639 37.4452 383.643 37.2461C383.639 37.1028 383.598 36.963 383.525 36.8398L374.47 20.9907C374.409 20.877 374.316 20.7835 374.202 20.7216C374.089 20.6598 373.96 20.6321 373.831 20.6421C373.705 20.6457 373.581 20.6792 373.47 20.7398C373.359 20.8004 373.264 20.8863 373.192 20.9907L364.195 36.8981C364.138 37.0157 364.108 37.1447 364.108 37.2755C364.108 37.4063 364.138 37.5354 364.195 37.6529C364.256 37.7667 364.349 37.8601 364.463 37.922C364.576 37.9839 364.705 38.0115 364.834 38.0015L382.888 38.0009ZM366.052 36.5495L373.831 22.8483L381.669 36.5495H366.052Z" fill="white"/>
<path d="M372.96 28.4192L371.8 31.4963C371.752 31.6084 371.733 31.7305 371.743 31.8519C371.753 31.9733 371.793 32.0903 371.859 32.1928C371.922 32.2913 372.008 32.3739 372.109 32.4343C372.209 32.4947 372.322 32.5314 372.439 32.5414H373.542L372.903 33.9928C372.825 34.1708 372.818 34.3718 372.882 34.555C372.947 34.7383 373.079 34.8901 373.252 34.9796C373.341 35.0267 373.442 35.0472 373.542 35.0385C373.684 35.0373 373.821 34.9918 373.936 34.9085C374.05 34.8253 374.136 34.7082 374.181 34.5739L375.226 32.0774C375.275 31.9656 375.295 31.8433 375.285 31.7217C375.275 31.6 375.234 31.4829 375.167 31.3809C375.097 31.2757 375.002 31.189 374.89 31.1283C374.779 31.0677 374.655 31.0347 374.528 31.0323H373.367L374.121 29.0004C374.18 28.8143 374.172 28.6134 374.098 28.4329C374.023 28.2525 373.888 28.104 373.715 28.0136C373.541 27.8369 373.134 28.0136 372.96 28.4192Z" fill="white"/>
<path d="M363.09 44.2697C362.64 44.258 362.196 44.3808 361.816 44.6225C361.436 44.8643 361.137 45.2139 360.956 45.6267C360.776 46.0394 360.722 46.4967 360.803 46.9399C360.884 47.3831 361.095 47.7922 361.409 48.1149C361.724 48.4375 362.127 48.6591 362.568 48.7512C363.009 48.8433 363.468 48.8019 363.885 48.6321C364.302 48.4624 364.66 48.172 364.911 47.7982C365.162 47.4244 365.297 46.9841 365.297 46.5336C365.299 45.9424 365.069 45.3739 364.656 44.9505C364.244 44.5271 363.681 44.2826 363.09 44.2697ZM363.09 47.3467C362.927 47.3588 362.764 47.3214 362.622 47.2394C362.481 47.1574 362.367 47.0346 362.296 46.887C362.225 46.7394 362.2 46.5739 362.225 46.412C362.249 46.2501 362.322 46.0994 362.433 45.9794C362.545 45.8595 362.69 45.7759 362.849 45.7395C363.009 45.7031 363.176 45.7157 363.328 45.7756C363.481 45.8355 363.612 45.9399 363.704 46.0752C363.796 46.2105 363.845 46.3704 363.845 46.5342C363.849 46.6372 363.833 46.7399 363.797 46.8365C363.761 46.9332 363.707 47.0218 363.637 47.0973C363.567 47.1728 363.482 47.2337 363.388 47.2765C363.295 47.3193 363.193 47.3432 363.09 47.3467Z" fill="white"/>
<path d="M308.973 193.889C308.774 193.892 308.585 193.973 308.444 194.114C308.303 194.255 308.223 194.445 308.22 194.644V214.789C308.221 214.85 308.209 214.911 308.186 214.968C308.163 215.025 308.129 215.076 308.086 215.119C308.042 215.163 307.991 215.197 307.934 215.22C307.877 215.243 307.816 215.254 307.755 215.254H272.688C272.627 215.254 272.566 215.243 272.51 215.22C272.453 215.197 272.401 215.163 272.358 215.119C272.315 215.076 272.28 215.025 272.257 214.968C272.234 214.911 272.223 214.85 272.224 214.789V171.595C272.223 171.534 272.234 171.473 272.257 171.416C272.28 171.36 272.315 171.308 272.358 171.265C272.401 171.221 272.453 171.187 272.51 171.164C272.566 171.141 272.627 171.13 272.688 171.131H307.812C307.873 171.13 307.934 171.141 307.991 171.164C308.048 171.187 308.099 171.221 308.143 171.265C308.186 171.308 308.22 171.36 308.243 171.416C308.266 171.473 308.278 171.534 308.277 171.595V192.203C308.277 192.403 308.356 192.595 308.498 192.737C308.639 192.878 308.831 192.958 309.032 192.958C309.232 192.958 309.424 192.878 309.565 192.737C309.707 192.595 309.786 192.403 309.786 192.203V171.595C309.785 171.097 309.591 170.62 309.244 170.262C308.898 169.905 308.426 169.696 307.929 169.679H272.688C272.182 169.684 271.697 169.887 271.339 170.245C270.98 170.604 270.777 171.088 270.772 171.595V214.789C270.774 215.287 270.968 215.765 271.315 216.122C271.661 216.479 272.133 216.688 272.63 216.705H307.755C308.002 216.701 308.247 216.649 308.475 216.551C308.702 216.453 308.908 216.311 309.081 216.133C309.254 215.955 309.389 215.744 309.48 215.514C309.572 215.283 309.616 215.037 309.612 214.789V194.644C309.629 194.551 309.624 194.456 309.6 194.364C309.575 194.273 309.531 194.189 309.47 194.117C309.409 194.045 309.333 193.987 309.247 193.947C309.161 193.908 309.068 193.888 308.973 193.889Z" fill="white"/>
<path d="M283.255 212.873H305.142C305.341 212.869 305.531 212.789 305.672 212.648C305.813 212.507 305.893 212.317 305.897 212.118V208.114C306.261 207.961 306.572 207.702 306.789 207.371C307.006 207.04 307.12 206.652 307.116 206.257V202.421C307.112 202.027 306.995 201.642 306.779 201.313C306.563 200.984 306.257 200.723 305.897 200.563V185.817C306.261 185.663 306.572 185.404 306.789 185.074C307.006 184.743 307.12 184.355 307.116 183.959V180.13C307.112 179.736 306.995 179.351 306.779 179.022C306.563 178.693 306.257 178.432 305.897 178.272V174.268C305.894 174.069 305.814 173.878 305.673 173.737C305.532 173.595 305.341 173.515 305.142 173.511H275.359C275.16 173.514 274.97 173.595 274.829 173.736C274.688 173.877 274.608 174.067 274.604 174.266V212.119C274.608 212.318 274.688 212.508 274.829 212.649C274.97 212.789 275.16 212.87 275.359 212.874H280.874C281.074 212.874 281.266 212.794 281.408 212.652C281.55 212.511 281.629 212.319 281.629 212.119C281.629 211.919 281.55 211.727 281.408 211.585C281.266 211.443 281.074 211.364 280.874 211.364H276.056V175.021H304.445V178.272H304.387C304.328 178.272 304.328 178.331 304.269 178.331H304.21C304.151 178.331 304.151 178.39 304.092 178.39H304.033C303.974 178.449 303.916 178.449 303.916 178.508C303.857 178.508 303.857 178.566 303.798 178.625L303.739 178.684C303.707 178.716 303.686 178.757 303.68 178.802V178.861C303.621 178.92 303.621 178.979 303.562 178.979C303.562 179.037 303.503 179.037 303.503 179.096V179.155C303.503 179.214 303.444 179.214 303.444 179.273V179.332C303.444 179.391 303.386 179.45 303.386 179.508C303.39 179.54 303.387 179.573 303.376 179.604C303.366 179.634 303.349 179.662 303.327 179.685V184.309C303.323 184.341 303.326 184.374 303.336 184.405C303.346 184.435 303.363 184.463 303.386 184.486C303.386 184.545 303.444 184.604 303.444 184.663V184.722C303.444 184.781 303.503 184.781 303.503 184.839V184.898C303.503 184.957 303.562 184.957 303.562 185.016C303.621 185.075 303.621 185.134 303.68 185.134V185.193C303.68 185.252 303.739 185.252 303.739 185.31L303.798 185.369C303.857 185.369 303.857 185.428 303.916 185.487C303.974 185.546 304.033 185.546 304.033 185.605H304.092C304.151 185.605 304.151 185.664 304.21 185.664H304.269C304.328 185.664 304.328 185.723 304.387 185.723H304.445V200.449H304.387C304.328 200.449 304.328 200.508 304.269 200.508H304.21C304.151 200.508 304.151 200.567 304.092 200.567H304.033C303.974 200.626 303.916 200.626 303.916 200.685C303.857 200.685 303.857 200.744 303.798 200.803L303.739 200.862C303.707 200.893 303.686 200.935 303.68 200.979V201.038C303.621 201.097 303.621 201.156 303.562 201.156C303.562 201.215 303.503 201.215 303.503 201.274V201.333C303.503 201.392 303.444 201.392 303.444 201.45V201.509C303.444 201.568 303.386 201.627 303.386 201.686C303.39 201.718 303.387 201.75 303.376 201.781C303.366 201.812 303.349 201.839 303.327 201.863V206.507C303.323 206.539 303.326 206.571 303.336 206.602C303.346 206.633 303.363 206.661 303.386 206.684C303.386 206.742 303.444 206.801 303.444 206.86V206.919C303.444 206.978 303.503 206.978 303.503 207.037V207.096C303.503 207.155 303.562 207.155 303.562 207.213C303.621 207.272 303.621 207.331 303.68 207.331V207.39C303.68 207.449 303.739 207.449 303.739 207.508L303.798 207.567C303.857 207.567 303.857 207.626 303.916 207.685C303.974 207.743 304.033 207.743 304.033 207.802H304.092C304.151 207.802 304.151 207.861 304.21 207.861H304.269C304.328 207.861 304.328 207.92 304.387 207.92H304.445V211.229H283.255C283.056 211.233 282.866 211.313 282.725 211.454C282.584 211.595 282.503 211.785 282.5 211.984C282.5 212.351 282.847 212.873 283.255 212.873ZM304.677 180.13C304.67 180.064 304.677 179.998 304.697 179.935C304.717 179.873 304.75 179.815 304.793 179.766C304.837 179.717 304.891 179.677 304.951 179.651C305.011 179.624 305.076 179.61 305.142 179.61C305.208 179.61 305.273 179.624 305.333 179.651C305.393 179.677 305.447 179.717 305.491 179.766C305.534 179.815 305.567 179.873 305.587 179.935C305.607 179.998 305.614 180.064 305.607 180.13V183.961C305.614 184.027 305.607 184.093 305.587 184.156C305.567 184.219 305.534 184.276 305.491 184.325C305.447 184.374 305.393 184.414 305.333 184.441C305.273 184.467 305.208 184.481 305.142 184.481C305.076 184.481 305.011 184.467 304.951 184.441C304.891 184.414 304.837 184.374 304.793 184.325C304.75 184.276 304.717 184.219 304.697 184.156C304.677 184.093 304.67 184.027 304.677 183.961V180.13ZM304.677 202.423C304.67 202.358 304.677 202.291 304.697 202.229C304.717 202.166 304.75 202.108 304.793 202.059C304.837 202.01 304.891 201.971 304.951 201.944C305.011 201.917 305.076 201.903 305.142 201.903C305.208 201.903 305.273 201.917 305.333 201.944C305.393 201.971 305.447 202.01 305.491 202.059C305.534 202.108 305.567 202.166 305.587 202.229C305.607 202.291 305.614 202.358 305.607 202.423V206.255C305.614 206.32 305.607 206.387 305.587 206.449C305.567 206.512 305.534 206.57 305.491 206.619C305.447 206.668 305.393 206.707 305.333 206.734C305.273 206.761 305.208 206.775 305.142 206.775C305.076 206.775 305.011 206.761 304.951 206.734C304.891 206.707 304.837 206.668 304.793 206.619C304.75 206.57 304.717 206.512 304.697 206.449C304.677 206.387 304.67 206.32 304.677 206.255V202.423Z" fill="white"/>
<path d="M296.956 200.449H283.545C283.345 200.449 283.153 200.528 283.011 200.67C282.87 200.811 282.79 201.003 282.79 201.204C282.79 201.404 282.87 201.596 283.011 201.737C283.153 201.879 283.345 201.958 283.545 201.958H296.956C297.156 201.958 297.348 201.879 297.49 201.737C297.631 201.596 297.711 201.404 297.711 201.204C297.711 201.003 297.631 200.811 297.49 200.67C297.348 200.528 297.156 200.449 296.956 200.449Z" fill="white"/>
<path d="M296.956 203.585H283.545C283.345 203.585 283.153 203.665 283.011 203.806C282.87 203.948 282.79 204.14 282.79 204.34C282.79 204.54 282.87 204.732 283.011 204.874C283.153 205.015 283.345 205.095 283.545 205.095H296.956C297.156 205.095 297.348 205.015 297.49 204.874C297.631 204.732 297.711 204.54 297.711 204.34C297.711 204.14 297.631 203.948 297.49 203.806C297.348 203.665 297.156 203.585 296.956 203.585Z" fill="white"/>
<path d="M296.956 206.72H283.545C283.345 206.72 283.153 206.799 283.011 206.941C282.87 207.082 282.79 207.274 282.79 207.475C282.79 207.675 282.87 207.867 283.011 208.008C283.153 208.15 283.345 208.229 283.545 208.229H296.956C297.156 208.229 297.348 208.15 297.49 208.008C297.631 207.867 297.711 207.675 297.711 207.475C297.711 207.274 297.631 207.082 297.49 206.941C297.348 206.799 297.156 206.72 296.956 206.72Z" fill="white"/>
<path d="M299.278 195.805C299.477 195.801 299.667 195.721 299.808 195.58C299.949 195.439 300.03 195.249 300.033 195.05C300.029 194.907 299.989 194.767 299.915 194.644L290.86 178.795C290.799 178.681 290.706 178.588 290.593 178.526C290.479 178.464 290.35 178.436 290.222 178.446C290.095 178.45 289.971 178.483 289.86 178.544C289.749 178.604 289.654 178.69 289.583 178.795L280.585 194.702C280.528 194.82 280.498 194.949 280.498 195.08C280.498 195.21 280.528 195.339 280.585 195.457C280.647 195.571 280.74 195.664 280.853 195.726C280.966 195.788 281.095 195.816 281.224 195.806L299.278 195.805ZM282.442 194.354L290.222 180.652L298.059 194.354H282.442Z" fill="white"/>
<path d="M289.351 186.223L288.19 189.3C288.142 189.412 288.123 189.534 288.133 189.656C288.143 189.777 288.183 189.894 288.249 189.997C288.313 190.095 288.398 190.178 288.499 190.238C288.599 190.299 288.713 190.335 288.829 190.345H289.932L289.293 191.797C289.215 191.975 289.208 192.176 289.273 192.359C289.337 192.542 289.469 192.694 289.642 192.784C289.731 192.831 289.832 192.851 289.932 192.842C290.074 192.841 290.212 192.796 290.326 192.713C290.441 192.629 290.526 192.512 290.571 192.378L291.616 189.881C291.665 189.77 291.685 189.647 291.675 189.526C291.665 189.404 291.624 189.287 291.557 189.185C291.487 189.08 291.392 188.993 291.281 188.932C291.169 188.872 291.045 188.839 290.919 188.836H289.757L290.512 186.804C290.571 186.618 290.562 186.417 290.488 186.237C290.413 186.056 290.278 185.908 290.105 185.818C289.931 185.641 289.524 185.818 289.351 186.223Z" fill="white"/>
<path d="M279.48 202.073C279.03 202.061 278.586 202.184 278.206 202.426C277.826 202.668 277.526 203.017 277.346 203.43C277.165 203.843 277.112 204.3 277.193 204.743C277.273 205.186 277.484 205.596 277.799 205.918C278.113 206.241 278.517 206.462 278.958 206.555C279.399 206.647 279.857 206.605 280.275 206.436C280.692 206.266 281.049 205.975 281.301 205.602C281.552 205.228 281.686 204.787 281.686 204.337C281.688 203.746 281.459 203.177 281.046 202.754C280.633 202.331 280.071 202.086 279.48 202.073ZM279.48 205.15C279.317 205.162 279.154 205.125 279.012 205.043C278.87 204.961 278.756 204.838 278.685 204.69C278.615 204.543 278.59 204.377 278.614 204.215C278.639 204.054 278.711 203.903 278.823 203.783C278.934 203.663 279.079 203.579 279.239 203.543C279.399 203.507 279.566 203.519 279.718 203.579C279.87 203.639 280.001 203.743 280.093 203.879C280.186 204.014 280.235 204.174 280.235 204.338C280.239 204.441 280.222 204.543 280.187 204.64C280.151 204.737 280.096 204.825 280.026 204.901C279.956 204.976 279.872 205.037 279.778 205.08C279.684 205.123 279.583 205.147 279.48 205.15Z" fill="white"/>
<path d="M73.9167 95.3419V101.955H72.3058V99.2326H69.7999V101.955H68.1889V95.3419H69.7999V97.9326H72.3058V95.3419H73.9167ZM80.4494 96.6985L77.1522 104.452H75.4188L76.6246 101.776L74.4861 96.6985H76.2855L77.5008 99.9863L78.7066 96.6985H80.4494ZM82.6429 97.4427C82.7936 97.1978 83.0103 96.9999 83.2929 96.8492C83.5756 96.6985 83.899 96.6231 84.2633 96.6231C84.6966 96.6231 85.0891 96.733 85.4409 96.9528C85.7926 97.1726 86.0689 97.4867 86.2699 97.8949C86.4771 98.3031 86.5808 98.7773 86.5808 99.3174C86.5808 99.8575 86.4771 100.335 86.2699 100.749C86.0689 101.158 85.7926 101.475 85.4409 101.701C85.0891 101.921 84.6966 102.031 84.2633 102.031C83.8927 102.031 83.5693 101.958 83.2929 101.814C83.0166 101.663 82.7999 101.465 82.6429 101.22V101.955H81.032V94.9839H82.6429V97.4427ZM84.9416 99.3174C84.9416 98.9155 84.8285 98.6014 84.6024 98.3753C84.3826 98.143 84.1094 98.0268 83.7828 98.0268C83.4625 98.0268 83.1893 98.143 82.9632 98.3753C82.7434 98.6077 82.6335 98.9249 82.6335 99.3268C82.6335 99.7288 82.7434 100.046 82.9632 100.278C83.1893 100.511 83.4625 100.627 83.7828 100.627C84.1031 100.627 84.3763 100.511 84.6024 100.278C84.8285 100.04 84.9416 99.7194 84.9416 99.3174ZM89.0368 97.5746C89.2252 97.2857 89.4608 97.0596 89.7434 96.8963C90.026 96.7267 90.34 96.6419 90.6854 96.6419V98.3471H90.2427C89.8407 98.3471 89.5393 98.435 89.3383 98.6109C89.1373 98.7804 89.0368 99.0819 89.0368 99.5152V101.955H87.4259V96.6985H89.0368V97.5746ZM92.2656 96.1521C91.983 96.1521 91.7506 96.0704 91.5685 95.9071C91.3926 95.7376 91.3047 95.5303 91.3047 95.2854C91.3047 95.0341 91.3926 94.8269 91.5685 94.6636C91.7506 94.494 91.983 94.4092 92.2656 94.4092C92.542 94.4092 92.7681 94.494 92.9439 94.6636C93.126 94.8269 93.2171 95.0341 93.2171 95.2854C93.2171 95.5303 93.126 95.7376 92.9439 95.9071C92.7681 96.0704 92.542 96.1521 92.2656 96.1521ZM93.0664 96.6985V101.955H91.4554V96.6985H93.0664ZM93.9135 99.3174C93.9135 98.7773 94.014 98.3031 94.215 97.8949C94.4222 97.4867 94.7017 97.1726 95.0534 96.9528C95.4051 96.733 95.7976 96.6231 96.231 96.6231C96.5764 96.6231 96.8904 96.6953 97.1731 96.8398C97.462 96.9842 97.6881 97.1789 97.8513 97.4239V94.9839H99.4623V101.955H97.8513V101.202C97.7006 101.453 97.4839 101.654 97.2013 101.804C96.925 101.955 96.6015 102.031 96.231 102.031C95.7976 102.031 95.4051 101.921 95.0534 101.701C94.7017 101.475 94.4222 101.158 94.215 100.749C94.014 100.335 93.9135 99.8575 93.9135 99.3174ZM97.8513 99.3268C97.8513 98.9249 97.7383 98.6077 97.5122 98.3753C97.2924 98.143 97.0223 98.0268 96.702 98.0268C96.3817 98.0268 96.1085 98.143 95.8824 98.3753C95.6626 98.6014 95.5527 98.9155 95.5527 99.3174C95.5527 99.7194 95.6626 100.04 95.8824 100.278C96.1085 100.511 96.3817 100.627 96.702 100.627C97.0223 100.627 97.2924 100.511 97.5122 100.278C97.7383 100.046 97.8513 99.7288 97.8513 99.3268Z" fill="white"/>
<path d="M66.9357 107.117V113.731H65.3248V107.117H66.9357ZM71.3062 108.417C71.9217 108.417 72.4116 108.618 72.7758 109.02C73.1464 109.416 73.3316 109.962 73.3316 110.66V113.731H71.7301V110.876C71.7301 110.524 71.6391 110.251 71.4569 110.057C71.2748 109.862 71.0299 109.765 70.7221 109.765C70.4144 109.765 70.1694 109.862 69.9873 110.057C69.8052 110.251 69.7141 110.524 69.7141 110.876V113.731H68.1032V108.474H69.7141V109.171C69.8774 108.939 70.0972 108.757 70.3736 108.625C70.6499 108.486 70.9608 108.417 71.3062 108.417ZM76.8157 112.223L77.9556 108.474H79.6701L77.8048 113.731H75.8171L73.9518 108.474H75.6758L76.8157 112.223ZM85.3035 111.017C85.3035 111.168 85.2941 111.325 85.2752 111.489H81.6294C81.6545 111.815 81.7582 112.066 81.9403 112.242C82.1287 112.412 82.358 112.497 82.628 112.497C83.03 112.497 83.3094 112.327 83.4665 111.988H85.181C85.0931 112.333 84.9329 112.644 84.7006 112.92C84.4745 113.197 84.1887 113.413 83.8433 113.571C83.4979 113.728 83.1116 113.806 82.6845 113.806C82.1695 113.806 81.7111 113.696 81.3091 113.476C80.9072 113.256 80.5931 112.942 80.3671 112.534C80.141 112.126 80.0279 111.649 80.0279 111.102C80.0279 110.556 80.1378 110.079 80.3576 109.67C80.5837 109.262 80.8978 108.948 81.2997 108.728C81.7016 108.508 82.1633 108.399 82.6845 108.399C83.1933 108.399 83.6454 108.505 84.0411 108.719C84.4368 108.932 84.7445 109.237 84.9643 109.633C85.1904 110.028 85.3035 110.49 85.3035 111.017ZM83.6549 110.594C83.6549 110.317 83.5607 110.097 83.3722 109.934C83.1838 109.771 82.9483 109.689 82.6657 109.689C82.3956 109.689 82.1664 109.768 81.978 109.925C81.7959 110.082 81.6828 110.305 81.6388 110.594H83.6549ZM87.7643 109.35C87.9527 109.061 88.1882 108.835 88.4708 108.672C88.7534 108.502 89.0675 108.417 89.4129 108.417V110.123H88.9701C88.5682 110.123 88.2667 110.21 88.0657 110.386C87.8648 110.556 87.7643 110.857 87.7643 111.291V113.731H86.1533V108.474H87.7643V109.35ZM93.1127 112.365V113.731H92.2931C91.709 113.731 91.2537 113.589 90.9271 113.307C90.6005 113.018 90.4372 112.55 90.4372 111.903V109.812H89.7966V108.474H90.4372V107.193H92.0482V108.474H93.1033V109.812H92.0482V111.922C92.0482 112.079 92.0859 112.192 92.1612 112.261C92.2366 112.33 92.3622 112.365 92.5381 112.365H93.1127ZM98.9653 111.017C98.9653 111.168 98.9559 111.325 98.937 111.489H95.2912C95.3164 111.815 95.42 112.066 95.6021 112.242C95.7905 112.412 96.0198 112.497 96.2898 112.497C96.6918 112.497 96.9713 112.327 97.1283 111.988H98.8428C98.7549 112.333 98.5948 112.644 98.3624 112.92C98.1363 113.197 97.8505 113.413 97.5051 113.571C97.1597 113.728 96.7734 113.806 96.3464 113.806C95.8314 113.806 95.3729 113.696 94.9709 113.476C94.569 113.256 94.255 112.942 94.0289 112.534C93.8028 112.126 93.6897 111.649 93.6897 111.102C93.6897 110.556 93.7996 110.079 94.0195 109.67C94.2456 109.262 94.5596 108.948 94.9615 108.728C95.3635 108.508 95.8251 108.399 96.3464 108.399C96.8551 108.399 97.3073 108.505 97.7029 108.719C98.0986 108.932 98.4063 109.237 98.6262 109.633C98.8523 110.028 98.9653 110.49 98.9653 111.017ZM97.3167 110.594C97.3167 110.317 97.2225 110.097 97.0341 109.934C96.8457 109.771 96.6101 109.689 96.3275 109.689C96.0575 109.689 95.8282 109.768 95.6398 109.925C95.4577 110.082 95.3446 110.305 95.3007 110.594H97.3167ZM101.426 109.35C101.615 109.061 101.85 108.835 102.133 108.672C102.415 108.502 102.729 108.417 103.075 108.417V110.123H102.632C102.23 110.123 101.929 110.21 101.728 110.386C101.527 110.556 101.426 110.857 101.426 111.291V113.731H99.8152V108.474H101.426V109.35Z" fill="white"/>
<path d="M345.669 70.8921C346.053 70.9738 346.36 71.1653 346.593 71.4668C346.825 71.762 346.941 72.1011 346.941 72.4842C346.941 73.0369 346.747 73.4765 346.357 73.8031C345.974 74.1234 345.437 74.2836 344.746 74.2836H341.666V67.6703H344.643C345.315 67.6703 345.839 67.8241 346.216 68.1319C346.599 68.4396 346.79 68.8573 346.79 69.3848C346.79 69.7742 346.687 70.0976 346.48 70.3551C346.279 70.6126 346.009 70.7916 345.669 70.8921ZM343.277 70.3457H344.332C344.595 70.3457 344.796 70.2892 344.935 70.1762C345.079 70.0568 345.151 69.8841 345.151 69.658C345.151 69.4319 345.079 69.2592 344.935 69.1399C344.796 69.0206 344.595 68.9609 344.332 68.9609H343.277V70.3457ZM344.464 72.9835C344.734 72.9835 344.941 72.9239 345.085 72.8045C345.236 72.6789 345.311 72.4999 345.311 72.2675C345.311 72.0352 345.233 71.853 345.076 71.7211C344.925 71.5893 344.715 71.5233 344.445 71.5233H343.277V72.9835H344.464ZM347.555 71.6458C347.555 71.1057 347.656 70.6315 347.857 70.2233C348.064 69.815 348.343 69.501 348.695 69.2812C349.047 69.0614 349.439 68.9515 349.873 68.9515C350.243 68.9515 350.567 69.0268 350.843 69.1776C351.126 69.3283 351.342 69.5261 351.493 69.7711V69.0268H353.104V74.2836H351.493V73.5393C351.336 73.7843 351.116 73.9821 350.834 74.1328C350.557 74.2836 350.234 74.3589 349.863 74.3589C349.436 74.3589 349.047 74.249 348.695 74.0292C348.343 73.8031 348.064 73.486 347.857 73.0777C347.656 72.6632 347.555 72.1859 347.555 71.6458ZM351.493 71.6552C351.493 71.2533 351.38 70.9361 351.154 70.7037C350.934 70.4713 350.664 70.3551 350.344 70.3551C350.023 70.3551 349.75 70.4713 349.524 70.7037C349.304 70.9298 349.194 71.2438 349.194 71.6458C349.194 72.0477 349.304 72.368 349.524 72.6067C349.75 72.8391 350.023 72.9553 350.344 72.9553C350.664 72.9553 350.934 72.8391 351.154 72.6067C351.38 72.3743 351.493 72.0571 351.493 71.6552ZM353.949 71.6552C353.949 71.1088 354.059 70.6315 354.279 70.2233C354.505 69.815 354.816 69.501 355.212 69.2812C355.613 69.0614 356.072 68.9515 356.587 68.9515C357.246 68.9515 357.796 69.1242 358.236 69.4696C358.681 69.815 358.974 70.3018 359.112 70.9298H357.397C357.253 70.5279 356.973 70.3269 356.559 70.3269C356.264 70.3269 356.028 70.4431 355.852 70.6754C355.676 70.9015 355.588 71.2281 355.588 71.6552C355.588 72.0823 355.676 72.412 355.852 72.6444C356.028 72.8705 356.264 72.9835 356.559 72.9835C356.973 72.9835 357.253 72.7825 357.397 72.3806H359.112C358.974 72.9961 358.681 73.4797 358.236 73.8314C357.79 74.1831 357.24 74.3589 356.587 74.3589C356.072 74.3589 355.613 74.249 355.212 74.0292C354.816 73.8094 354.505 73.4954 354.279 73.0871C354.059 72.6789 353.949 72.2016 353.949 71.6552ZM363.186 74.2836L361.584 72.0791V74.2836H359.973V67.3123H361.584V71.1653L363.176 69.0268H365.164L362.979 71.6646L365.183 74.2836H363.186ZM370.988 69.0268V74.2836H369.377V73.5676C369.213 73.8 368.991 73.9884 368.708 74.1328C368.432 74.271 368.124 74.3401 367.785 74.3401C367.383 74.3401 367.028 74.2522 366.72 74.0763C366.412 73.8942 366.174 73.6335 366.004 73.2944C365.835 72.9553 365.75 72.5564 365.75 72.098V69.0268H367.351V71.8813C367.351 72.233 367.442 72.5062 367.625 72.7009C367.807 72.8956 368.052 72.9929 368.359 72.9929C368.673 72.9929 368.921 72.8956 369.104 72.7009C369.286 72.5062 369.377 72.233 369.377 71.8813V69.0268H370.988ZM373.756 69.7711C373.913 69.5261 374.129 69.3283 374.406 69.1776C374.682 69.0268 375.006 68.9515 375.376 68.9515C375.809 68.9515 376.202 69.0614 376.554 69.2812C376.905 69.501 377.182 69.815 377.383 70.2233C377.59 70.6315 377.694 71.1057 377.694 71.6458C377.694 72.1859 377.59 72.6632 377.383 73.0777C377.182 73.486 376.905 73.8031 376.554 74.0292C376.202 74.249 375.809 74.3589 375.376 74.3589C375.012 74.3589 374.688 74.2836 374.406 74.1328C374.129 73.9821 373.913 73.7874 373.756 73.5488V76.7895H372.145V69.0268H373.756V69.7711ZM376.054 71.6458C376.054 71.2438 375.941 70.9298 375.715 70.7037C375.495 70.4713 375.222 70.3551 374.896 70.3551C374.575 70.3551 374.302 70.4713 374.076 70.7037C373.856 70.9361 373.746 71.2533 373.746 71.6552C373.746 72.0571 373.856 72.3743 374.076 72.6067C374.302 72.8391 374.575 72.9553 374.896 72.9553C375.216 72.9553 375.489 72.8391 375.715 72.6067C375.941 72.368 376.054 72.0477 376.054 71.6458ZM385.575 69.7993C385.575 70.1824 385.487 70.5341 385.311 70.8544C385.136 71.1685 384.865 71.4228 384.501 71.6175C384.137 71.8122 383.685 71.9096 383.145 71.9096H382.146V74.2836H380.535V67.6703H383.145C383.672 67.6703 384.118 67.7613 384.482 67.9435C384.847 68.1256 385.12 68.3768 385.302 68.6971C385.484 69.0174 385.575 69.3848 385.575 69.7993ZM383.022 70.6283C383.33 70.6283 383.559 70.5561 383.71 70.4117C383.861 70.2672 383.936 70.0631 383.936 69.7993C383.936 69.5355 383.861 69.3314 383.71 69.187C383.559 69.0425 383.33 68.9703 383.022 68.9703H382.146V70.6283H383.022ZM386.094 71.6458C386.094 71.1057 386.194 70.6315 386.395 70.2233C386.602 69.815 386.882 69.501 387.233 69.2812C387.585 69.0614 387.978 68.9515 388.411 68.9515C388.782 68.9515 389.105 69.0268 389.381 69.1776C389.664 69.3283 389.881 69.5261 390.031 69.7711V69.0268H391.642V74.2836H390.031V73.5393C389.874 73.7843 389.655 73.9821 389.372 74.1328C389.096 74.2836 388.772 74.3589 388.402 74.3589C387.975 74.3589 387.585 74.249 387.233 74.0292C386.882 73.8031 386.602 73.486 386.395 73.0777C386.194 72.6632 386.094 72.1859 386.094 71.6458ZM390.031 71.6552C390.031 71.2533 389.918 70.9361 389.692 70.7037C389.472 70.4713 389.202 70.3551 388.882 70.3551C388.562 70.3551 388.289 70.4713 388.062 70.7037C387.843 70.9298 387.733 71.2438 387.733 71.6458C387.733 72.0477 387.843 72.368 388.062 72.6067C388.289 72.8391 388.562 72.9553 388.882 72.9553C389.202 72.9553 389.472 72.8391 389.692 72.6067C389.918 72.3743 390.031 72.0571 390.031 71.6552ZM396.011 68.9703C396.626 68.9703 397.116 69.1713 397.48 69.5732C397.851 69.9689 398.036 70.5153 398.036 71.2124V74.2836H396.435V71.4291C396.435 71.0774 396.344 70.8042 396.162 70.6095C395.979 70.4148 395.734 70.3175 395.427 70.3175C395.119 70.3175 394.874 70.4148 394.692 70.6095C394.51 70.8042 394.419 71.0774 394.419 71.4291V74.2836H392.808V69.0268H394.419V69.724C394.582 69.4916 394.802 69.3095 395.078 69.1776C395.354 69.0394 395.665 68.9703 396.011 68.9703ZM404.111 71.5704C404.111 71.7211 404.102 71.8782 404.083 72.0414H400.437C400.462 72.368 400.566 72.6192 400.748 72.7951C400.936 72.9647 401.165 73.0495 401.435 73.0495C401.837 73.0495 402.117 72.8799 402.274 72.5407H403.988C403.901 72.8862 403.74 73.1971 403.508 73.4734C403.282 73.7497 402.996 73.9664 402.651 74.1234C402.305 74.2804 401.919 74.3589 401.492 74.3589C400.977 74.3589 400.519 74.249 400.117 74.0292C399.715 73.8094 399.401 73.4954 399.175 73.0871C398.948 72.6789 398.835 72.2016 398.835 71.6552C398.835 71.1088 398.945 70.6315 399.165 70.2233C399.391 69.815 399.705 69.501 400.107 69.2812C400.509 69.0614 400.971 68.9515 401.492 68.9515C402.001 68.9515 402.453 69.0582 402.849 69.2718C403.244 69.4853 403.552 69.7899 403.772 70.1856C403.998 70.5812 404.111 71.0429 404.111 71.5704ZM402.462 71.1465C402.462 70.8701 402.368 70.6503 402.18 70.487C401.991 70.3237 401.756 70.2421 401.473 70.2421C401.203 70.2421 400.974 70.3206 400.785 70.4776C400.603 70.6346 400.49 70.8576 400.446 71.1465H402.462ZM406.572 67.3123V74.2836H404.961V67.3123H406.572Z" fill="white"/>
<path d="M271.812 228.41V235.024H270.201V231.058L268.722 235.024H267.422L265.933 231.048V235.024H264.322V228.41H266.225L268.081 232.989L269.918 228.41H271.812ZM272.65 232.386C272.65 231.846 272.751 231.372 272.952 230.963C273.159 230.555 273.438 230.241 273.79 230.021C274.142 229.802 274.534 229.692 274.968 229.692C275.338 229.692 275.662 229.767 275.938 229.918C276.221 230.069 276.437 230.266 276.588 230.511V229.767H278.199V235.024H276.588V234.28C276.431 234.525 276.211 234.722 275.928 234.873C275.652 235.024 275.329 235.099 274.958 235.099C274.531 235.099 274.142 234.989 273.79 234.769C273.438 234.543 273.159 234.226 272.952 233.818C272.751 233.403 272.65 232.926 272.65 232.386ZM276.588 232.395C276.588 231.993 276.475 231.676 276.249 231.444C276.029 231.212 275.759 231.095 275.439 231.095C275.118 231.095 274.845 231.212 274.619 231.444C274.399 231.67 274.289 231.984 274.289 232.386C274.289 232.788 274.399 233.108 274.619 233.347C274.845 233.579 275.118 233.695 275.439 233.695C275.759 233.695 276.029 233.579 276.249 233.347C276.475 233.115 276.588 232.797 276.588 232.395ZM280.174 229.221C279.892 229.221 279.659 229.139 279.477 228.976C279.301 228.806 279.214 228.599 279.214 228.354C279.214 228.103 279.301 227.895 279.477 227.732C279.659 227.563 279.892 227.478 280.174 227.478C280.451 227.478 280.677 227.563 280.853 227.732C281.035 227.895 281.126 228.103 281.126 228.354C281.126 228.599 281.035 228.806 280.853 228.976C280.677 229.139 280.451 229.221 280.174 229.221ZM280.975 229.767V235.024H279.364V229.767H280.975ZM285.346 229.711C285.961 229.711 286.451 229.912 286.815 230.313C287.186 230.709 287.371 231.256 287.371 231.953V235.024H285.77V232.169C285.77 231.818 285.679 231.544 285.496 231.35C285.314 231.155 285.069 231.058 284.762 231.058C284.454 231.058 284.209 231.155 284.027 231.35C283.845 231.544 283.754 231.818 283.754 232.169V235.024H282.143V229.767H283.754V230.464C283.917 230.232 284.137 230.05 284.413 229.918C284.689 229.78 285 229.711 285.346 229.711ZM295.527 230.54C295.527 230.923 295.439 231.274 295.263 231.595C295.087 231.909 294.817 232.163 294.453 232.358C294.089 232.552 293.637 232.65 293.096 232.65H292.098V235.024H290.487V228.41H293.096C293.624 228.41 294.07 228.502 294.434 228.684C294.798 228.866 295.072 229.117 295.254 229.437C295.436 229.758 295.527 230.125 295.527 230.54ZM292.974 231.369C293.282 231.369 293.511 231.296 293.662 231.152C293.812 231.007 293.888 230.803 293.888 230.54C293.888 230.276 293.812 230.072 293.662 229.927C293.511 229.783 293.282 229.711 292.974 229.711H292.098V231.369H292.974ZM296.045 232.386C296.045 231.846 296.146 231.372 296.347 230.963C296.554 230.555 296.834 230.241 297.185 230.021C297.537 229.802 297.93 229.692 298.363 229.692C298.733 229.692 299.057 229.767 299.333 229.918C299.616 230.069 299.832 230.266 299.983 230.511V229.767H301.594V235.024H299.983V234.28C299.826 234.525 299.606 234.722 299.324 234.873C299.047 235.024 298.724 235.099 298.353 235.099C297.926 235.099 297.537 234.989 297.185 234.769C296.834 234.543 296.554 234.226 296.347 233.818C296.146 233.403 296.045 232.926 296.045 232.386ZM299.983 232.395C299.983 231.993 299.87 231.676 299.644 231.444C299.424 231.212 299.154 231.095 298.834 231.095C298.514 231.095 298.24 231.212 298.014 231.444C297.794 231.67 297.685 231.984 297.685 232.386C297.685 232.788 297.794 233.108 298.014 233.347C298.24 233.579 298.514 233.695 298.834 233.695C299.154 233.695 299.424 233.579 299.644 233.347C299.87 233.115 299.983 232.797 299.983 232.395ZM305.963 229.711C306.578 229.711 307.068 229.912 307.432 230.313C307.803 230.709 307.988 231.256 307.988 231.953V235.024H306.387V232.169C306.387 231.818 306.295 231.544 306.113 231.35C305.931 231.155 305.686 231.058 305.379 231.058C305.071 231.058 304.826 231.155 304.644 231.35C304.462 231.544 304.371 231.818 304.371 232.169V235.024H302.76V229.767H304.371V230.464C304.534 230.232 304.754 230.05 305.03 229.918C305.306 229.78 305.617 229.711 305.963 229.711ZM314.063 232.311C314.063 232.461 314.053 232.618 314.035 232.782H310.389C310.414 233.108 310.517 233.359 310.7 233.535C310.888 233.705 311.117 233.79 311.387 233.79C311.789 233.79 312.069 233.62 312.226 233.281H313.94C313.852 233.626 313.692 233.937 313.46 234.214C313.234 234.49 312.948 234.707 312.603 234.864C312.257 235.021 311.871 235.099 311.444 235.099C310.929 235.099 310.47 234.989 310.068 234.769C309.666 234.55 309.352 234.236 309.126 233.827C308.9 233.419 308.787 232.942 308.787 232.395C308.787 231.849 308.897 231.372 309.117 230.963C309.343 230.555 309.657 230.241 310.059 230.021C310.461 229.802 310.923 229.692 311.444 229.692C311.953 229.692 312.405 229.798 312.8 230.012C313.196 230.226 313.504 230.53 313.724 230.926C313.95 231.321 314.063 231.783 314.063 232.311ZM312.414 231.887C312.414 231.61 312.32 231.391 312.132 231.227C311.943 231.064 311.708 230.982 311.425 230.982C311.155 230.982 310.926 231.061 310.737 231.218C310.555 231.375 310.442 231.598 310.398 231.887H312.414ZM316.524 228.053V235.024H314.913V228.053H316.524Z" fill="white"/>
<path d="M639.647 67.6703V74.2836H638.036V71.561H635.53V74.2836H633.919V67.6703H635.53V70.2609H638.036V67.6703H639.647ZM643.203 74.3589C642.688 74.3589 642.223 74.249 641.808 74.0292C641.4 73.8094 641.077 73.4954 640.838 73.0871C640.606 72.6789 640.489 72.2016 640.489 71.6552C640.489 71.1151 640.609 70.6409 640.847 70.2327C641.086 69.8182 641.413 69.501 641.827 69.2812C642.242 69.0614 642.706 68.9515 643.221 68.9515C643.736 68.9515 644.201 69.0614 644.616 69.2812C645.03 69.501 645.357 69.8182 645.595 70.2327C645.834 70.6409 645.953 71.1151 645.953 71.6552C645.953 72.1953 645.831 72.6726 645.586 73.0871C645.347 73.4954 645.018 73.8094 644.597 74.0292C644.182 74.249 643.718 74.3589 643.203 74.3589ZM643.203 72.9647C643.51 72.9647 643.771 72.8516 643.985 72.6255C644.204 72.3994 644.314 72.076 644.314 71.6552C644.314 71.2344 644.207 70.911 643.994 70.6849C643.787 70.4588 643.529 70.3457 643.221 70.3457C642.907 70.3457 642.647 70.4588 642.44 70.6849C642.232 70.9047 642.129 71.2281 642.129 71.6552C642.129 72.076 642.229 72.3994 642.43 72.6255C642.637 72.8516 642.895 72.9647 643.203 72.9647ZM653.516 68.9703C654.169 68.9703 654.687 69.1681 655.07 69.5638C655.459 69.9595 655.654 70.509 655.654 71.2124V74.2836H654.053V71.4291C654.053 71.09 653.962 70.8293 653.779 70.6472C653.604 70.4588 653.359 70.3646 653.045 70.3646C652.731 70.3646 652.482 70.4588 652.3 70.6472C652.124 70.8293 652.037 71.09 652.037 71.4291V74.2836H650.435V71.4291C650.435 71.09 650.344 70.8293 650.162 70.6472C649.986 70.4588 649.741 70.3646 649.427 70.3646C649.113 70.3646 648.865 70.4588 648.683 70.6472C648.507 70.8293 648.419 71.09 648.419 71.4291V74.2836H646.808V69.0268H648.419V69.6863C648.582 69.4665 648.796 69.2938 649.06 69.1681C649.323 69.0363 649.622 68.9703 649.955 68.9703C650.35 68.9703 650.702 69.0551 651.01 69.2247C651.324 69.3942 651.569 69.636 651.745 69.9501C651.927 69.6612 652.175 69.4256 652.489 69.2435C652.803 69.0614 653.145 68.9703 653.516 68.9703ZM661.736 71.5704C661.736 71.7211 661.727 71.8782 661.708 72.0414H658.062C658.087 72.368 658.191 72.6192 658.373 72.7951C658.561 72.9647 658.79 73.0495 659.061 73.0495C659.463 73.0495 659.742 72.8799 659.899 72.5407H661.614C661.526 72.8862 661.365 73.1971 661.133 73.4734C660.907 73.7497 660.621 73.9664 660.276 74.1234C659.93 74.2804 659.544 74.3589 659.117 74.3589C658.602 74.3589 658.144 74.249 657.742 74.0292C657.34 73.8094 657.026 73.4954 656.8 73.0871C656.573 72.6789 656.46 72.2016 656.46 71.6552C656.46 71.1088 656.57 70.6315 656.79 70.2233C657.016 69.815 657.33 69.501 657.732 69.2812C658.134 69.0614 658.596 68.9515 659.117 68.9515C659.626 68.9515 660.078 69.0582 660.474 69.2718C660.869 69.4853 661.177 69.7899 661.397 70.1856C661.623 70.5812 661.736 71.0429 661.736 71.5704ZM660.087 71.1465C660.087 70.8701 659.993 70.6503 659.805 70.487C659.616 70.3237 659.381 70.2421 659.098 70.2421C658.828 70.2421 658.599 70.3206 658.411 70.4776C658.228 70.6346 658.115 70.8576 658.071 71.1465H660.087ZM666.193 73.04H668.303V74.2836H664.582V67.6703H666.193V73.04ZM671.465 74.3589C670.95 74.3589 670.485 74.249 670.07 74.0292C669.662 73.8094 669.339 73.4954 669.1 73.0871C668.868 72.6789 668.751 72.2016 668.751 71.6552C668.751 71.1151 668.871 70.6409 669.109 70.2327C669.348 69.8182 669.675 69.501 670.089 69.2812C670.504 69.0614 670.968 68.9515 671.483 68.9515C671.998 68.9515 672.463 69.0614 672.878 69.2812C673.292 69.501 673.619 69.8182 673.857 70.2327C674.096 70.6409 674.215 71.1151 674.215 71.6552C674.215 72.1953 674.093 72.6726 673.848 73.0871C673.609 73.4954 673.28 73.8094 672.859 74.0292C672.444 74.249 671.98 74.3589 671.465 74.3589ZM671.465 72.9647C671.772 72.9647 672.033 72.8516 672.247 72.6255C672.466 72.3994 672.576 72.076 672.576 71.6552C672.576 71.2344 672.47 70.911 672.256 70.6849C672.049 70.4588 671.791 70.3457 671.483 70.3457C671.169 70.3457 670.909 70.4588 670.702 70.6849C670.494 70.9047 670.391 71.2281 670.391 71.6552C670.391 72.076 670.491 72.3994 670.692 72.6255C670.899 72.8516 671.157 72.9647 671.465 72.9647ZM674.75 71.6458C674.75 71.1057 674.85 70.6315 675.051 70.2233C675.259 69.815 675.538 69.501 675.89 69.2812C676.241 69.0614 676.634 68.9515 677.067 68.9515C677.438 68.9515 677.761 69.0268 678.038 69.1776C678.32 69.3283 678.537 69.5261 678.688 69.7711V69.0268H680.299V74.2836H678.688V73.5393C678.531 73.7843 678.311 73.9821 678.028 74.1328C677.752 74.2836 677.428 74.3589 677.058 74.3589C676.631 74.3589 676.241 74.249 675.89 74.0292C675.538 73.8031 675.259 73.486 675.051 73.0777C674.85 72.6632 674.75 72.1859 674.75 71.6458ZM678.688 71.6552C678.688 71.2533 678.575 70.9361 678.349 70.7037C678.129 70.4713 677.859 70.3551 677.538 70.3551C677.218 70.3551 676.945 70.4713 676.719 70.7037C676.499 70.9298 676.389 71.2438 676.389 71.6458C676.389 72.0477 676.499 72.368 676.719 72.6067C676.945 72.8391 677.218 72.9553 677.538 72.9553C677.859 72.9553 678.129 72.8391 678.349 72.6067C678.575 72.3743 678.688 72.0571 678.688 71.6552ZM681.144 71.6458C681.144 71.1057 681.244 70.6315 681.445 70.2233C681.652 69.815 681.932 69.501 682.284 69.2812C682.635 69.0614 683.028 68.9515 683.461 68.9515C683.807 68.9515 684.121 69.0237 684.403 69.1681C684.692 69.3126 684.918 69.5073 685.082 69.7522V67.3123H686.693V74.2836H685.082V73.5299C684.931 73.7811 684.714 73.9821 684.432 74.1328C684.155 74.2836 683.832 74.3589 683.461 74.3589C683.028 74.3589 682.635 74.249 682.284 74.0292C681.932 73.8031 681.652 73.486 681.445 73.0777C681.244 72.6632 681.144 72.1859 681.144 71.6458ZM685.082 71.6552C685.082 71.2533 684.969 70.9361 684.742 70.7037C684.523 70.4713 684.253 70.3551 683.932 70.3551C683.612 70.3551 683.339 70.4713 683.113 70.7037C682.893 70.9298 682.783 71.2438 682.783 71.6458C682.783 72.0477 682.893 72.368 683.113 72.6067C683.339 72.8391 683.612 72.9553 683.932 72.9553C684.253 72.9553 684.523 72.8391 684.742 72.6067C684.969 72.3743 685.082 72.0571 685.082 71.6552ZM689.996 74.3589C689.538 74.3589 689.13 74.2804 688.772 74.1234C688.414 73.9664 688.131 73.7529 687.924 73.4828C687.717 73.2065 687.6 72.8987 687.575 72.5596H689.167C689.186 72.7417 689.271 72.8893 689.422 73.0024C689.573 73.1154 689.758 73.1719 689.978 73.1719C690.179 73.1719 690.332 73.1342 690.439 73.0589C690.552 72.9772 690.609 72.8736 690.609 72.748C690.609 72.5973 690.53 72.4874 690.373 72.4183C690.216 72.3429 689.962 72.2613 689.61 72.1733C689.233 72.0854 688.919 71.9943 688.668 71.9001C688.417 71.7997 688.2 71.6458 688.018 71.4385C687.836 71.225 687.745 70.9392 687.745 70.5812C687.745 70.2798 687.827 70.0066 687.99 69.7616C688.159 69.5104 688.404 69.3126 688.725 69.1681C689.051 69.0237 689.437 68.9515 689.883 68.9515C690.543 68.9515 691.061 69.1148 691.438 69.4413C691.821 69.7679 692.041 70.2013 692.097 70.7414H690.609C690.584 70.5593 690.502 70.4148 690.364 70.308C690.232 70.2013 690.056 70.1479 689.836 70.1479C689.648 70.1479 689.503 70.1856 689.403 70.2609C689.302 70.33 689.252 70.4274 689.252 70.553C689.252 70.7037 689.331 70.8168 689.488 70.8921C689.651 70.9675 689.902 71.0429 690.241 71.1182C690.631 71.2187 690.948 71.3192 691.193 71.4197C691.438 71.5139 691.651 71.6709 691.833 71.8907C692.022 72.1043 692.119 72.3932 692.126 72.7574C692.126 73.0652 692.038 73.3415 691.862 73.5864C691.692 73.8251 691.444 74.0135 691.117 74.1517C690.797 74.2898 690.424 74.3589 689.996 74.3589Z" fill="white"/>
<path d="M657.753 230.502C657.634 230.282 657.461 230.116 657.235 230.003C657.015 229.883 656.755 229.824 656.453 229.824C655.932 229.824 655.514 229.996 655.2 230.342C654.886 230.681 654.729 231.136 654.729 231.708C654.729 232.317 654.892 232.794 655.219 233.14C655.552 233.479 656.007 233.648 656.585 233.648C656.981 233.648 657.314 233.548 657.584 233.347C657.86 233.146 658.061 232.857 658.187 232.48H656.142V231.293H659.647V232.791C659.527 233.193 659.323 233.567 659.034 233.912C658.752 234.258 658.391 234.537 657.951 234.751C657.511 234.964 657.015 235.071 656.463 235.071C655.809 235.071 655.225 234.93 654.71 234.647C654.202 234.358 653.803 233.959 653.514 233.451C653.231 232.942 653.09 232.361 653.09 231.708C653.09 231.055 653.231 230.474 653.514 229.965C653.803 229.45 654.202 229.051 654.71 228.768C655.219 228.48 655.8 228.335 656.453 228.335C657.244 228.335 657.91 228.527 658.45 228.91C658.997 229.293 659.358 229.824 659.534 230.502H657.753ZM662.15 230.643C662.338 230.354 662.574 230.128 662.857 229.965C663.139 229.795 663.453 229.711 663.799 229.711V231.416H663.356C662.954 231.416 662.652 231.504 662.451 231.679C662.25 231.849 662.15 232.15 662.15 232.584V235.024H660.539V229.767H662.15V230.643ZM665.379 229.221C665.096 229.221 664.864 229.139 664.682 228.976C664.506 228.806 664.418 228.599 664.418 228.354C664.418 228.103 664.506 227.895 664.682 227.732C664.864 227.563 665.096 227.478 665.379 227.478C665.655 227.478 665.881 227.563 666.057 227.732C666.239 227.895 666.33 228.103 666.33 228.354C666.33 228.599 666.239 228.806 666.057 228.976C665.881 229.139 665.655 229.221 665.379 229.221ZM666.18 229.767V235.024H664.569V229.767H666.18ZM667.027 232.386C667.027 231.846 667.127 231.372 667.328 230.963C667.535 230.555 667.815 230.241 668.167 230.021C668.518 229.802 668.911 229.692 669.344 229.692C669.69 229.692 670.004 229.764 670.286 229.908C670.575 230.053 670.801 230.248 670.964 230.492V228.053H672.575V235.024H670.964V234.27C670.814 234.521 670.597 234.722 670.314 234.873C670.038 235.024 669.715 235.099 669.344 235.099C668.911 235.099 668.518 234.989 668.167 234.769C667.815 234.543 667.535 234.226 667.328 233.818C667.127 233.403 667.027 232.926 667.027 232.386ZM670.964 232.395C670.964 231.993 670.851 231.676 670.625 231.444C670.406 231.212 670.135 231.095 669.815 231.095C669.495 231.095 669.222 231.212 668.996 231.444C668.776 231.67 668.666 231.984 668.666 232.386C668.666 232.788 668.776 233.108 668.996 233.347C669.222 233.579 669.495 233.695 669.815 233.695C670.135 233.695 670.406 233.579 670.625 233.347C670.851 233.115 670.964 232.797 670.964 232.395Z" fill="white"/>
<path d="M70.4824 275.791C70.8655 275.873 71.1733 276.065 71.4056 276.366C71.638 276.661 71.7542 277 71.7542 277.384C71.7542 277.936 71.5595 278.376 71.1701 278.702C70.787 279.023 70.25 279.183 69.5592 279.183H66.4786V272.57H69.4555C70.1276 272.57 70.652 272.723 71.0288 273.031C71.4119 273.339 71.6035 273.757 71.6035 274.284C71.6035 274.674 71.4998 274.997 71.2926 275.254C71.0916 275.512 70.8215 275.691 70.4824 275.791ZM68.0895 275.245H69.1447C69.4084 275.245 69.6094 275.189 69.7476 275.075C69.892 274.956 69.9643 274.783 69.9643 274.557C69.9643 274.331 69.892 274.159 69.7476 274.039C69.6094 273.92 69.4084 273.86 69.1447 273.86H68.0895V275.245ZM69.2766 277.883C69.5466 277.883 69.7539 277.823 69.8983 277.704C70.0491 277.578 70.1244 277.399 70.1244 277.167C70.1244 276.934 70.0459 276.752 69.8889 276.62C69.7382 276.489 69.5278 276.423 69.2577 276.423H68.0895V277.883H69.2766ZM72.3682 276.545C72.3682 276.005 72.4687 275.531 72.6697 275.123C72.8769 274.714 73.1564 274.4 73.5081 274.181C73.8598 273.961 74.2524 273.851 74.6857 273.851C75.0563 273.851 75.3797 273.926 75.656 274.077C75.9387 274.228 76.1553 274.425 76.3061 274.67V273.926H77.917V279.183H76.3061V278.439C76.1491 278.684 75.9292 278.881 75.6466 279.032C75.3703 279.183 75.0468 279.258 74.6763 279.258C74.2492 279.258 73.8598 279.148 73.5081 278.929C73.1564 278.702 72.8769 278.385 72.6697 277.977C72.4687 277.563 72.3682 277.085 72.3682 276.545ZM76.3061 276.555C76.3061 276.153 76.193 275.835 75.9669 275.603C75.7471 275.371 75.4771 275.254 75.1568 275.254C74.8364 275.254 74.5632 275.371 74.3372 275.603C74.1173 275.829 74.0074 276.143 74.0074 276.545C74.0074 276.947 74.1173 277.267 74.3372 277.506C74.5632 277.738 74.8364 277.855 75.1568 277.855C75.4771 277.855 75.7471 277.738 75.9669 277.506C76.193 277.274 76.3061 276.956 76.3061 276.555ZM82.0123 277.817V279.183H81.1927C80.6086 279.183 80.1533 279.042 79.8267 278.759C79.5001 278.47 79.3368 278.002 79.3368 277.355V275.264H78.6962V273.926H79.3368V272.645H80.9477V273.926H82.0029V275.264H80.9477V277.374C80.9477 277.531 80.9854 277.644 81.0608 277.713C81.1362 277.782 81.2618 277.817 81.4376 277.817H82.0123ZM85.8394 277.817V279.183H85.0198C84.4357 279.183 83.9804 279.042 83.6538 278.759C83.3272 278.47 83.164 278.002 83.164 277.355V275.264H82.5234V273.926H83.164V272.645H84.7749V273.926H85.83V275.264H84.7749V277.374C84.7749 277.531 84.8126 277.644 84.8879 277.713C84.9633 277.782 85.0889 277.817 85.2648 277.817H85.8394ZM91.692 276.47C91.692 276.62 91.6826 276.777 91.6638 276.941H88.018C88.0431 277.267 88.1467 277.519 88.3288 277.694C88.5173 277.864 88.7465 277.949 89.0166 277.949C89.4185 277.949 89.698 277.779 89.855 277.44H91.5696C91.4816 277.785 91.3215 278.096 91.0891 278.373C90.863 278.649 90.5772 278.866 90.2318 279.023C89.8864 279.18 89.5001 279.258 89.0731 279.258C88.5581 279.258 88.0996 279.148 87.6977 278.929C87.2957 278.709 86.9817 278.395 86.7556 277.986C86.5295 277.578 86.4164 277.101 86.4164 276.555C86.4164 276.008 86.5264 275.531 86.7462 275.123C86.9723 274.714 87.2863 274.4 87.6882 274.181C88.0902 273.961 88.5518 273.851 89.0731 273.851C89.5818 273.851 90.034 273.958 90.4297 274.171C90.8253 274.385 91.1331 274.689 91.3529 275.085C91.579 275.481 91.692 275.942 91.692 276.47ZM90.0434 276.046C90.0434 275.769 89.9492 275.55 89.7608 275.386C89.5724 275.223 89.3369 275.141 89.0542 275.141C88.7842 275.141 88.5549 275.22 88.3665 275.377C88.1844 275.534 88.0713 275.757 88.0274 276.046H90.0434ZM94.1528 274.802C94.3412 274.513 94.5767 274.287 94.8594 274.124C95.142 273.954 95.456 273.87 95.8014 273.87V275.575H95.3587C94.9567 275.575 94.6552 275.663 94.4543 275.839C94.2533 276.008 94.1528 276.31 94.1528 276.743V279.183H92.5419V273.926H94.1528V274.802ZM101.941 273.926L98.644 281.679H96.9106L98.1164 279.004L95.9779 273.926H97.7773L98.9925 277.214L100.198 273.926H101.941Z" fill="white"/>
<path d="M496.005 228.41V235.024H494.394V231.058L492.915 235.024H491.615L490.126 231.048V235.024H488.515V228.41H490.418L492.274 232.989L494.111 228.41H496.005ZM502.119 232.311C502.119 232.461 502.109 232.618 502.09 232.782H498.445C498.47 233.108 498.573 233.359 498.755 233.535C498.944 233.705 499.173 233.79 499.443 233.79C499.845 233.79 500.125 233.62 500.282 233.281H501.996C501.908 233.626 501.748 233.937 501.516 234.214C501.29 234.49 501.004 234.707 500.658 234.864C500.313 235.021 499.927 235.099 499.5 235.099C498.985 235.099 498.526 234.989 498.124 234.769C497.722 234.55 497.408 234.236 497.182 233.827C496.956 233.419 496.843 232.942 496.843 232.395C496.843 231.849 496.953 231.372 497.173 230.963C497.399 230.555 497.713 230.241 498.115 230.021C498.517 229.802 498.978 229.692 499.5 229.692C500.008 229.692 500.461 229.798 500.856 230.012C501.252 230.226 501.56 230.53 501.779 230.926C502.006 231.321 502.119 231.783 502.119 232.311ZM500.47 231.887C500.47 231.61 500.376 231.391 500.187 231.227C499.999 231.064 499.763 230.982 499.481 230.982C499.211 230.982 498.982 231.061 498.793 231.218C498.611 231.375 498.498 231.598 498.454 231.887H500.47ZM505.898 233.658V235.024H505.079C504.495 235.024 504.039 234.882 503.713 234.6C503.386 234.311 503.223 233.843 503.223 233.196V231.105H502.582V229.767H503.223V228.486H504.834V229.767H505.889V231.105H504.834V233.215C504.834 233.372 504.871 233.485 504.947 233.554C505.022 233.623 505.148 233.658 505.324 233.658H505.898ZM511.751 232.311C511.751 232.461 511.741 232.618 511.723 232.782H508.077C508.102 233.108 508.206 233.359 508.388 233.535C508.576 233.705 508.805 233.79 509.075 233.79C509.477 233.79 509.757 233.62 509.914 233.281H511.628C511.541 233.626 511.38 233.937 511.148 234.214C510.922 234.49 510.636 234.707 510.291 234.864C509.945 235.021 509.559 235.099 509.132 235.099C508.617 235.099 508.158 234.989 507.757 234.769C507.355 234.55 507.041 234.236 506.814 233.827C506.588 233.419 506.475 232.942 506.475 232.395C506.475 231.849 506.585 231.372 506.805 230.963C507.031 230.555 507.345 230.241 507.747 230.021C508.149 229.802 508.611 229.692 509.132 229.692C509.641 229.692 510.093 229.798 510.489 230.012C510.884 230.226 511.192 230.53 511.412 230.926C511.638 231.321 511.751 231.783 511.751 232.311ZM510.102 231.887C510.102 231.61 510.008 231.391 509.82 231.227C509.631 231.064 509.396 230.982 509.113 230.982C508.843 230.982 508.614 231.061 508.425 231.218C508.243 231.375 508.13 231.598 508.086 231.887H510.102ZM514.212 230.643C514.4 230.354 514.636 230.128 514.918 229.965C515.201 229.795 515.515 229.711 515.86 229.711V231.416H515.418C515.016 231.416 514.714 231.504 514.513 231.679C514.312 231.849 514.212 232.15 514.212 232.584V235.024H512.601V229.767H514.212V230.643Z" fill="white"/>
<path d="M150.553 39.5526V130.227" stroke="white" stroke-width="1.17758"/>
<path d="M150.847 159.668V193.818" stroke="white" stroke-width="1.17758"/>
<path d="M394.234 40.1947H637.237" stroke="white" stroke-width="1.17758"/>
<path d="M636.433 37.7854V42.0688L639.538 40.0569L636.433 37.7854Z" fill="white"/>
<path d="M150.259 40.1707H351.04" stroke="white" stroke-width="1.17758"/>
<path d="M349.514 37.7854V42.0688L352.618 40.0569L349.514 37.7854Z" fill="white"/>
<path d="M105.896 130.445H151.217" stroke="white" stroke-width="1.17758"/>
<path d="M105.896 128.304V132.587L102.792 130.575L105.896 128.304Z" fill="white"/>
<path d="M105.791 159.807H149.379" stroke="white" stroke-width="1.17758"/>
<path d="M105.897 157.665V161.948L102.793 159.936L105.897 157.665Z" fill="white"/>
<path d="M149.097 157.665V161.948L152.201 159.936L149.097 157.665Z" fill="white"/>
<path d="M150.553 193.603H266.867" stroke="white" stroke-width="1.17758"/>
<path d="M266.584 191.462V195.745L269.688 193.733L266.584 191.462Z" fill="white"/>
<path d="M312.785 193.603H475.859" stroke="white" stroke-width="1.17758"/>
<path d="M312.891 191.461V195.745L309.787 193.733L312.891 191.461Z" fill="white"/>
<path d="M475.576 191.462V195.745L478.68 193.733L475.576 191.462Z" fill="white"/>
<path d="M528.888 193.85L636.433 193.603" stroke="white" stroke-width="1.17758"/>
<path d="M528.889 191.826V196.11L525.784 194.098L528.889 191.826Z" fill="white"/>
<path d="M636.435 191.462V195.745L639.539 193.733L636.435 191.462Z" fill="white"/>
<path d="M83.2177 171.15V222.375" stroke="white" stroke-width="1.17758"/>
<path d="M81.076 171.417H85.3595L83.347 168.313L81.076 171.417Z" fill="white"/>
<path d="M85.3599 222.057H81.0764L83.0889 225.161L85.3599 222.057Z" fill="white"/>
<path d="M162.39 100.712H164.501V101.955H160.779V95.3418H162.39V100.712ZM167.662 102.031C167.147 102.031 166.682 101.921 166.268 101.701C165.859 101.481 165.536 101.167 165.297 100.759C165.065 100.35 164.949 99.8732 164.949 99.3268C164.949 98.7867 165.068 98.3125 165.307 97.9042C165.545 97.4897 165.872 97.1726 166.286 96.9528C166.701 96.7329 167.166 96.623 167.681 96.623C168.196 96.623 168.66 96.7329 169.075 96.9528C169.489 97.1726 169.816 97.4897 170.055 97.9042C170.293 98.3125 170.413 98.7867 170.413 99.3268C170.413 99.8669 170.29 100.344 170.045 100.759C169.807 101.167 169.477 101.481 169.056 101.701C168.642 101.921 168.177 102.031 167.662 102.031ZM167.662 100.636C167.97 100.636 168.23 100.523 168.444 100.297C168.664 100.071 168.773 99.7476 168.773 99.3268C168.773 98.906 168.667 98.5825 168.453 98.3564C168.246 98.1303 167.988 98.0173 167.681 98.0173C167.367 98.0173 167.106 98.1303 166.899 98.3564C166.691 98.5763 166.588 98.8997 166.588 99.3268C166.588 99.7476 166.688 100.071 166.889 100.297C167.097 100.523 167.354 100.636 167.662 100.636ZM170.947 99.3173C170.947 98.7772 171.047 98.3031 171.248 97.8948C171.456 97.4866 171.735 97.1726 172.087 96.9528C172.439 96.7329 172.831 96.623 173.264 96.623C173.635 96.623 173.958 96.6984 174.235 96.8491C174.517 96.9999 174.734 97.1977 174.885 97.4426V96.6984H176.496V101.955H174.885V101.211C174.728 101.456 174.508 101.654 174.225 101.804C173.949 101.955 173.626 102.031 173.255 102.031C172.828 102.031 172.439 101.921 172.087 101.701C171.735 101.475 171.456 101.158 171.248 100.749C171.047 100.335 170.947 99.8575 170.947 99.3173ZM174.885 99.3268C174.885 98.9248 174.772 98.6077 174.546 98.3753C174.326 98.1429 174.056 98.0267 173.735 98.0267C173.415 98.0267 173.142 98.1429 172.916 98.3753C172.696 98.6014 172.586 98.9154 172.586 99.3173C172.586 99.7193 172.696 100.04 172.916 100.278C173.142 100.511 173.415 100.627 173.735 100.627C174.056 100.627 174.326 100.511 174.546 100.278C174.772 100.046 174.885 99.7287 174.885 99.3268ZM177.341 99.3173C177.341 98.7772 177.441 98.3031 177.642 97.8948C177.85 97.4866 178.129 97.1726 178.481 96.9528C178.832 96.7329 179.225 96.623 179.658 96.623C180.004 96.623 180.318 96.6953 180.6 96.8397C180.889 96.9842 181.115 97.1789 181.279 97.4238V94.9838H182.89V101.955H181.279V101.201C181.128 101.453 180.911 101.654 180.629 101.804C180.352 101.955 180.029 102.031 179.658 102.031C179.225 102.031 178.832 101.921 178.481 101.701C178.129 101.475 177.85 101.158 177.642 100.749C177.441 100.335 177.341 99.8575 177.341 99.3173ZM181.279 99.3268C181.279 98.9248 181.166 98.6077 180.94 98.3753C180.72 98.1429 180.45 98.0267 180.129 98.0267C179.809 98.0267 179.536 98.1429 179.31 98.3753C179.09 98.6014 178.98 98.9154 178.98 99.3173C178.98 99.7193 179.09 100.04 179.31 100.278C179.536 100.511 179.809 100.627 180.129 100.627C180.45 100.627 180.72 100.511 180.94 100.278C181.166 100.046 181.279 99.7287 181.279 99.3268Z" fill="white"/>
</svg>
