<svg width="17" height="17" viewBox="0 0 17 17" fill="none" xmlns="http://www.w3.org/2000/svg">
<path d="M8.5 16.5C10.6217 16.5 12.6566 15.6571 14.1569 14.1569C15.6571 12.6566 16.5 10.6217 16.5 8.5C16.5 6.37827 15.6571 4.34344 14.1569 2.84315C12.6566 1.34285 10.6217 0.5 8.5 0.5C6.37827 0.5 4.34344 1.34285 2.84315 2.84315C1.34285 4.34344 0.5 6.37827 0.5 8.5C0.5 10.6217 1.34285 12.6566 2.84315 14.1569C4.34344 15.6571 6.37827 16.5 8.5 16.5ZM9.43 7.088L8.43 11.793C8.36 12.133 8.459 12.326 8.734 12.326C8.928 12.326 9.221 12.256 9.42 12.08L9.332 12.496C9.045 12.842 8.412 13.094 7.867 13.094C7.164 13.094 6.865 12.672 7.059 11.775L7.797 8.307C7.861 8.014 7.803 7.908 7.51 7.837L7.059 7.756L7.141 7.375L9.43 7.088ZM8.5 6C8.23478 6 7.98043 5.89464 7.79289 5.70711C7.60536 5.51957 7.5 5.26522 7.5 5C7.5 4.73478 7.60536 4.48043 7.79289 4.29289C7.98043 4.10536 8.23478 4 8.5 4C8.76522 4 9.01957 4.10536 9.20711 4.29289C9.39464 4.48043 9.5 4.73478 9.5 5C9.5 5.26522 9.39464 5.51957 9.20711 5.70711C9.01957 5.89464 8.76522 6 8.5 6Z" fill="#808080"/>
</svg>
