<svg width="20" height="21" viewBox="0 0 20 21" fill="none" xmlns="http://www.w3.org/2000/svg">
<path d="M10.0002 6.93601C8.0322 6.93601 6.43619 8.53001 6.43619 10.5C6.43619 12.468 8.0302 14.064 10.0002 14.064C11.9682 14.064 13.5642 12.47 13.5642 10.5C13.5642 8.53201 11.9682 6.93601 10.0002 6.93601ZM17.9642 9.61001C17.5542 5.89401 14.6062 2.94601 10.8902 2.53601V0.700012H9.1082V2.53601C5.3922 2.94601 2.4442 5.89401 2.0342 9.61001H0.200195V11.392H2.0362C2.4462 15.108 5.3942 18.056 9.1102 18.466V20.3H10.8922V18.464C14.6082 18.054 17.5562 15.106 17.9662 11.39H19.8002V9.60801H17.9642V9.61001ZM10.0002 16.736C6.5562 16.736 3.7642 13.944 3.7642 10.5C3.7642 7.05601 6.5562 4.26401 10.0002 4.26401C13.4442 4.26401 16.2362 7.05601 16.2362 10.5C16.2362 13.944 13.4442 16.736 10.0002 16.736Z" fill="#006EAF"/>
</svg>
