<svg width="20" height="20" viewBox="0 0 20 20" fill="none" xmlns="http://www.w3.org/2000/svg">
<path id="Vector" d="M15.1818 0.183129C15.2398 0.124925 15.3088 0.0787463 15.3847 0.0472383C15.4607 0.0157302 15.5421 -0.000488281 15.6243 -0.000488281C15.7065 -0.000488281 15.7879 0.0157302 15.8638 0.0472383C15.9397 0.0787463 16.0087 0.124925 16.0668 0.183129L19.8168 3.93313C19.875 3.99119 19.9212 4.06016 19.9527 4.13609C19.9842 4.21202 20.0004 4.29342 20.0004 4.37563C20.0004 4.45784 19.9842 4.53924 19.9527 4.61517C19.9212 4.6911 19.875 4.76007 19.8168 4.81813L7.31677 17.3181C7.25679 17.3777 7.18535 17.4245 7.10677 17.4556L0.856769 19.9556C0.743189 20.0011 0.618764 20.0122 0.498919 19.9876C0.379073 19.9631 0.269078 19.9038 0.18257 19.8173C0.0960621 19.7308 0.0368452 19.6208 0.0122609 19.501C-0.0123234 19.3811 -0.00119402 19.2567 0.0442693 19.1431L2.54427 12.8931C2.57543 12.8146 2.62221 12.7431 2.68177 12.6831L15.1818 0.183129ZM14.008 3.12563L16.8743 5.99188L18.4905 4.37563L15.6243 1.50938L14.008 3.12563ZM15.9905 6.87563L13.1243 4.00938L4.99927 12.1344V12.5006H5.62427C5.79003 12.5006 5.949 12.5665 6.06621 12.6837C6.18342 12.8009 6.24927 12.9599 6.24927 13.1256V13.7506H6.87427C7.04003 13.7506 7.199 13.8165 7.31621 13.9337C7.43342 14.0509 7.49927 14.2099 7.49927 14.3756V15.0006H7.86552L15.9905 6.87563ZM3.78927 13.3444L3.65677 13.4769L1.74677 18.2531L6.52302 16.3431L6.65552 16.2106C6.53629 16.1661 6.43351 16.0862 6.36091 15.9817C6.28832 15.8771 6.24936 15.7529 6.24927 15.6256V15.0006H5.62427C5.45851 15.0006 5.29954 14.9348 5.18233 14.8176C5.06512 14.7004 4.99927 14.5414 4.99927 14.3756V13.7506H4.37427C4.24699 13.7505 4.12278 13.7116 4.01824 13.639C3.9137 13.5664 3.83382 13.4636 3.78927 13.3444Z" fill="#222222"/>
</svg>
