<svg width="35" height="46" viewBox="0 0 35 46" fill="none" xmlns="http://www.w3.org/2000/svg">
<path d="M25.6457 15.4255C25.7566 15.4254 25.8654 15.3953 25.9605 15.3383C26.0556 15.2813 26.1335 15.1995 26.1859 15.1018C26.2382 15.004 26.263 14.8939 26.2577 14.7831C26.2525 14.6726 26.2173 14.5655 26.1561 14.4733L25.6457 15.4255ZM25.6457 15.4255H25.373H23.9648L24.7115 16.6194L30.3487 25.634C30.3487 25.634 30.3488 25.6341 30.3488 25.6342C30.4067 25.7269 30.4388 25.8335 30.4417 25.9428C30.4445 26.0522 30.4181 26.1604 30.365 26.2561L31.0475 26.6343L30.365 26.2561C30.312 26.3518 30.2343 26.4316 30.14 26.4871C30.0457 26.5427 29.9383 26.572 29.8288 26.572H29.2966H28.0344L28.5986 27.701L33.1603 36.83L33.1607 36.8308C33.2075 36.9242 33.2297 37.0281 33.2251 37.1326C33.2204 37.237 33.1892 37.3385 33.1343 37.4275C33.0793 37.5164 33.0026 37.5899 32.9113 37.6408C32.82 37.6917 32.7172 37.7185 32.6127 37.7185H20.0729H19.2926V38.4987V44.685H15.2799V38.4987V37.7185H14.4996H1.95982C1.85528 37.7185 1.75247 37.6917 1.66117 37.6408C1.56987 37.5899 1.49311 37.5164 1.4382 37.4275C1.38327 37.3385 1.35201 37.237 1.34738 37.1326C1.34276 37.0281 1.36491 36.9242 1.41175 36.8308L1.41205 36.8301L5.97655 27.7012L6.54114 26.572H5.27866H4.74642C4.63698 26.572 4.52954 26.5427 4.43525 26.4871C4.34096 26.4316 4.26326 26.3518 4.21021 26.2561C4.15716 26.1604 4.1307 26.0522 4.13357 25.9428C4.13644 25.8334 4.16854 25.7268 4.22653 25.634C4.22654 25.634 4.22654 25.634 4.22654 25.634L9.86109 16.6193L10.6073 15.4255H9.19944H8.92676C8.81587 15.4254 8.70707 15.3953 8.61195 15.3383C8.51682 15.2813 8.43894 15.1995 8.3866 15.1018C8.33426 15.004 8.30942 14.8939 8.31472 14.7831C8.32001 14.6725 8.35518 14.5653 8.4165 14.4731C8.41656 14.473 8.41663 14.4729 8.41669 14.4728L16.7762 1.93357C16.7762 1.93355 16.7762 1.93353 16.7762 1.93352C16.8322 1.84958 16.908 1.78076 16.997 1.73315L16.6288 1.04521L16.997 1.73315C17.086 1.68554 17.1853 1.66063 17.2862 1.66063C17.3871 1.66063 17.4865 1.68554 17.5755 1.73315C17.6644 1.78076 17.7403 1.84958 17.7963 1.93352C17.7963 1.93353 17.7963 1.93355 17.7963 1.93357L26.1558 14.4728L25.6457 15.4255Z" stroke="black" stroke-width="1.56051"/>
</svg>
