<svg width="50" height="33" viewBox="0 0 50 33" fill="none" xmlns="http://www.w3.org/2000/svg">
<path fill-rule="evenodd" clip-rule="evenodd" d="M43.5053 11.6671C43.5053 12.6035 43.4212 13.5564 43.1531 14.4793C43.0582 14.806 43.2468 14.8678 43.3369 14.8966C46.993 16.0697 49.5224 19.4968 49.5224 23.3287C49.5224 28.2156 45.5131 32.1915 40.585 32.1915H9.41479C4.4869 32.1915 0.477783 28.2156 0.477783 23.3287C0.477783 18.4416 4.4869 14.4658 9.41501 14.4658C10.0033 14.4658 10.5932 14.5236 11.1685 14.638L11.1924 14.6428L11.2163 14.6476C11.373 14.6777 11.4322 14.5501 11.4515 14.4959C12.7496 10.8543 16.1365 8.41964 19.9331 8.41964C20.0552 8.41964 20.1735 8.42558 20.2825 8.4325C20.293 8.4332 20.3034 8.43358 20.3137 8.43395H20.3137C20.3342 8.4347 20.3544 8.43544 20.3739 8.43866C20.7056 8.49328 20.7876 8.31853 20.8114 8.24258C21.5317 5.94753 23.0018 3.88757 24.9513 2.44165C26.9685 0.945178 29.3699 0.154297 31.8958 0.154297C38.2973 0.154297 43.5053 5.31887 43.5053 11.6671ZM9.41479 30.5429H40.585C44.5964 30.5429 47.8598 27.3066 47.86 23.3287C47.86 20.1327 45.699 17.2829 42.6047 16.3981L42.5656 16.3873C42.3194 16.3191 41.8071 16.1773 41.5223 15.6701C41.3307 15.3289 41.3008 14.9265 41.4331 14.474C41.7049 13.545 41.8428 12.6006 41.8428 11.6671C41.8428 6.22801 37.3806 1.80288 31.8958 1.80288C27.5163 1.80288 23.6997 4.58745 22.3988 8.73211C22.3963 8.74229 22.3938 8.75651 22.3911 8.77233L22.387 8.7953C22.2254 9.66257 21.6548 10.1023 20.6915 10.1023L20.6621 10.1022C20.5208 10.1009 20.3889 10.0921 20.2616 10.0835C20.1446 10.0756 20.0341 10.0682 19.933 10.0682C16.7968 10.0682 13.9994 12.1227 12.9721 15.1805C12.7342 15.8881 12.1275 16.3105 11.3492 16.3105C11.1954 16.3105 11.0377 16.2944 10.8807 16.2623C10.4003 16.1641 9.90698 16.1144 9.41479 16.1144C5.40356 16.1144 2.14021 19.3507 2.14021 23.3287C2.14021 27.3067 5.40368 30.5429 9.41479 30.5429ZM19.9074 16.3681C20.435 16.3681 20.988 16.4519 21.4648 16.6045C21.8066 16.7138 21.9963 16.9633 21.9478 17.2399L21.942 17.2646L21.789 17.7802C21.6933 18.1026 21.4886 18.1508 21.3752 18.1508C21.2791 18.1508 21.1975 18.1172 21.1434 18.0949L21.1256 18.0878C20.7833 17.952 20.3733 17.8832 19.9073 17.8832C18.4324 17.8832 17.4793 18.9007 17.4793 20.4753C17.4793 22.0075 18.4363 23.0369 19.8608 23.0369C20.4756 23.0369 20.9043 22.901 21.1733 22.7988C21.2272 22.7782 21.3094 22.7509 21.4006 22.7509C21.6096 22.7509 21.7648 22.8894 21.8152 23.1214L21.9285 23.6246C21.9702 24.0782 21.6759 24.1879 21.5651 24.2291C21.2407 24.3499 20.5558 24.5522 19.6129 24.5522C17.2468 24.5522 15.6569 22.9387 15.6569 20.5369C15.6569 18.0824 17.4048 16.3681 19.9074 16.3681ZM35.3831 25.0339H34.1001C33.8725 25.0339 33.985 24.9195 34.041 24.863C35.0456 23.849 35.7899 22.9589 35.7899 21.8614C35.7899 20.9164 35.1958 19.9628 33.8681 19.9628C33.3483 19.9628 32.8475 20.1139 32.4198 20.3998C32.1536 20.5778 32.0533 20.8387 32.1626 21.0666L32.2699 21.312L32.2776 21.3281C32.3414 21.4515 32.4587 21.5251 32.5914 21.5251C32.7304 21.5251 32.8457 21.4477 32.9235 21.3955C33.1863 21.2189 33.4535 21.1295 33.7178 21.1295C34.2677 21.1295 34.535 21.3999 34.535 21.9536C34.5279 22.6772 33.9586 23.3532 32.5999 24.6891C32.5357 24.746 32.1609 25.0813 31.9938 25.3C31.9075 25.413 31.9096 25.5572 31.9114 25.6844V25.6844L31.9119 25.7353C31.9119 26.0408 32.1647 26.2006 32.4145 26.2006H35.3779C35.3968 26.2027 35.4241 26.2049 35.4564 26.2049C35.7791 26.2049 35.9236 25.9918 35.9236 25.7807V25.5121C35.9237 25.2015 35.653 25.0364 35.3831 25.0339ZM22.9466 20.5065C22.9466 18.0518 24.5672 16.3375 26.8871 16.3375C29.1434 16.3375 30.7191 18.0012 30.7191 20.3835C30.7191 23.2479 28.6685 24.5524 26.7632 24.5524C24.5161 24.5524 22.9466 22.8887 22.9466 20.5065ZM24.7691 20.4602C24.7691 21.9889 25.6339 23.0985 26.8253 23.0985C28.0167 23.0985 28.8813 21.976 28.8814 20.4295C28.8814 19.517 28.458 17.7911 26.8562 17.7911C25.4144 17.7911 24.7691 19.1317 24.7691 20.4602Z" fill="#222222"/>
</svg>
