<svg xmlns="http://www.w3.org/2000/svg" width="22" height="23.571" viewBox="0 0 22 23.571">
    <path data-name="Path 194" d="M14.6 7A6.877 6.877 0 0 0 8 13.563a6.872 6.872 0 0 0 1.889 4.677 3.735 3.735 0 0 1 1.41 2.707.823.823 0 0 0 .825.82h4.949a.823.823 0 0 0 .825-.82 3.653 3.653 0 0 1 1.394-2.691 6.439 6.439 0 0 0 1.908-4.693 6.685 6.685 0 0 0-2.016-4.783A6.345 6.345 0 0 0 14.6 7zm3.58 10.075a5.631 5.631 0 0 0-1.856 3.052h-3.449a5.737 5.737 0 0 0-1.815-3.044 5.244 5.244 0 0 1-1.41-3.52A5.174 5.174 0 0 1 14.6 8.64 4.657 4.657 0 0 1 18 9.953a5.041 5.041 0 0 1 1.542 3.61 4.851 4.851 0 0 1-1.394 3.512z" transform="translate(-3.598 -2.598)" style="fill:#ffa200"/>
    <path data-name="Path 195" d="M17.135 26h-4.4a.734.734 0 1 0 0 1.467h4.4a.734.734 0 0 0 0-1.467z" transform="translate(-3.934 -6.097)" style="fill:#ffa200"/>
    <path data-name="Path 196" d="M16.668 29h-2.934a.734.734 0 0 0 0 1.467h2.934a.734.734 0 0 0 0-1.467z" transform="translate(-4.201 -6.896)" style="fill:#ffa200"/>
    <path data-name="Path 197" d="M15.734 3.934a.734.734 0 0 0 .734-.734V1.734a.734.734 0 0 0-1.467 0V3.2a.734.734 0 0 0 .733.734z" transform="translate(-4.734 -1)" style="fill:#ffa200"/>
    <path data-name="Path 198" d="M4.2 14H2.734a.734.734 0 0 0 0 1.467H4.2A.734.734 0 0 0 4.2 14z" transform="translate(-2 -3.737)" style="fill:#ffa200"/>
    <path data-name="Path 199" d="M28.2 14h-1.466a.734.734 0 0 0 0 1.467H28.2a.734.734 0 0 0 0-1.467z" transform="translate(-6.934 -3.737)" style="fill:#ffa200"/>
    <path data-name="Path 200" d="M25.067 5.023a.734.734 0 0 0-1.034 0l-1.042 1.034A.737.737 0 0 0 24.033 7.1l1.034-1.042a.734.734 0 0 0 0-1.034z" transform="translate(-6.075 -2.015)" style="fill:#ffa200"/>
    <path data-name="Path 201" d="M8.112 7.112a.734.734 0 0 0 0-1.042L7.07 5.036A.734.734 0 0 0 6.036 6.07L7.07 7.112a.744.744 0 0 0 1.042 0z" transform="translate(-3.028 -2.028)" style="fill:#ffa200"/>
</svg>
