<svg xmlns="http://www.w3.org/2000/svg" width="17.978" height="17.978" viewBox="0 0 17.978 17.978">
    <path data-name="Path 245" d="M15.73 0H2.247A2.247 2.247 0 0 0 0 2.247V15.73a2.247 2.247 0 0 0 2.247 2.247H15.73a2.247 2.247 0 0 0 2.247-2.247V2.247A2.247 2.247 0 0 0 15.73 0zM1.124 4.334a1.053 1.053 0 0 1 1.124-.963H15.73a1.053 1.053 0 0 1 1.124.963v11.557a1.053 1.053 0 0 1-1.124.963H2.247a1.053 1.053 0 0 1-1.124-.963z" style="fill:#fff"/>
    <path data-name="Path 246" d="M6.994 7.247a1.124 1.124 0 1 0-1.123-1.123 1.124 1.124 0 0 0 1.123 1.123zm3.371 0a1.124 1.124 0 1 0-1.123-1.123 1.124 1.124 0 0 0 1.123 1.123zm3.371 0a1.124 1.124 0 1 0-1.124-1.124 1.124 1.124 0 0 0 1.124 1.124zM3.624 10.618A1.124 1.124 0 1 0 2.5 9.494a1.124 1.124 0 0 0 1.124 1.124zm3.371 0a1.124 1.124 0 1 0-1.124-1.124 1.124 1.124 0 0 0 1.123 1.124zm3.371 0a1.124 1.124 0 1 0-1.124-1.124 1.124 1.124 0 0 0 1.123 1.124zm3.371 0a1.124 1.124 0 1 0-1.124-1.124 1.124 1.124 0 0 0 1.123 1.124zM3.624 13.989A1.124 1.124 0 1 0 2.5 12.865a1.124 1.124 0 0 0 1.124 1.124zm3.371 0a1.124 1.124 0 1 0-1.124-1.124 1.124 1.124 0 0 0 1.123 1.124zm3.371 0a1.124 1.124 0 1 0-1.124-1.124 1.124 1.124 0 0 0 1.123 1.124z" transform="translate(.309 .618)" style="fill:#fff"/>
</svg>
