<svg data-name="cloud-arrow-up (1)" xmlns="http://www.w3.org/2000/svg" width="54.791" height="37.668" viewBox="0 0 54.791 37.668">
    <path data-name="Path 135" d="M12.85 5.5a1.712 1.712 0 0 1 2.424 0l6.849 6.849a1.714 1.714 0 1 1-2.423 2.426l-3.924-3.928v12.989a1.712 1.712 0 0 1-3.424 0V10.848l-3.926 3.927A1.714 1.714 0 1 1 6 12.351z" transform="translate(13.333 5.271)" style="fill-rule:evenodd;fill:#409eff"/>
    <path data-name="Path 136" d="M15.088 6.6A18.937 18.937 0 0 1 27.4 2a17.589 17.589 0 0 1 17.686 15.68 11.037 11.037 0 0 1-1.64 21.988h-30.5A12.783 12.783 0 0 1 0 27.06a12.7 12.7 0 0 1 10.075-12.3 14.4 14.4 0 0 1 5.013-8.16zm2.236 2.592c-2.592 2.236-3.948 4.931-3.948 7.041v1.534l-1.524.168a9.312 9.312 0 0 0-8.428 9.125 9.357 9.357 0 0 0 9.523 9.184h30.5a7.777 7.777 0 0 0 7.921-7.626 7.777 7.777 0 0 0-7.921-7.63h-1.714v-1.712A14.1 14.1 0 0 0 27.4 5.424a15.513 15.513 0 0 0-10.076 3.767z" transform="translate(0 -2)" style="fill:#409eff"/>
</svg>
