<svg xmlns="http://www.w3.org/2000/svg" width="29.933" height="23.342" viewBox="0 0 29.933 23.342">
    <g data-name="co2 gas icon 1">
        <g data-name="Group 2410">
            <path data-name="Path 247" d="M1017.916 1279.835v-.283a10.353 10.353 0 1 0-20.705 0v.283a6.52 6.52 0 0 0-2.709 1.629 6.486 6.486 0 0 0 4.585 11.078h16.948a6.506 6.506 0 0 0 6.484-6.151 5.5 5.5 0 0 0 .01-.341 6.5 6.5 0 0 0-4.613-6.215zm3.313 6.215a5.14 5.14 0 0 1-1.524 3.662 5.2 5.2 0 0 1-1.683 1.131 5.133 5.133 0 0 1-1.982.4h-16.949a5.189 5.189 0 0 1-1.062-10.267l.037-.012.049-.017a.349.349 0 0 0 .059-.023c.019-.01.037-.022.056-.03l.054-.037a.331.331 0 0 0 .049-.04.567.567 0 0 0 .042-.042l.04-.049c.012-.017.024-.032.035-.052s.021-.035.03-.054.017-.037.023-.056a.585.585 0 0 0 .019-.064.269.269 0 0 0 .014-.064c0-.019 0-.04.007-.061a.5.5 0 0 0 0-.054V1280.283a9.494 9.494 0 0 1-.028-.731 9.05 9.05 0 0 1 18.1 0c0 .24-.01.486-.028.727v.044a.5.5 0 0 0 0 .054.251.251 0 0 0 .007.061.372.372 0 0 0 .033.122.238.238 0 0 0 .023.056l.03.056c.011.019.021.032.035.054s.026.03.037.047l.047.044a.327.327 0 0 0 .047.037.417.417 0 0 0 .052.037c.019.01.037.021.058.03l.056.024.052.017.037.011a5.212 5.212 0 0 1 4.126 4.99v.09z" transform="translate(-992.6 -1269.2)" style="fill:#fff"/>
        </g>
        <g data-name="Group 2414">
            <g data-name="Group 2411">
                <path data-name="Path 248" d="M1804.374 2594.209a1.921 1.921 0 0 1-.537 1.042 1.3 1.3 0 0 1-.9.333 1.437 1.437 0 0 1-1.15-.522 2.72 2.72 0 0 1-.441-1.75 2.538 2.538 0 0 1 .448-1.676 1.474 1.474 0 0 1 1.169-.516 1.333 1.333 0 0 1 1.365 1.086l1.294-.311a2.542 2.542 0 0 0-.661-1.192 2.7 2.7 0 0 0-1.933-.7 2.859 2.859 0 0 0-2.2.9 3.541 3.541 0 0 0-.835 2.513 3.378 3.378 0 0 0 .83 2.412 3.052 3.052 0 0 0 3.843.366 2.837 2.837 0 0 0 .969-1.577z" transform="translate(-1792.567 -2577.753)" style="fill:#fff"/>
            </g>
            <g data-name="Group 2412">
                <path data-name="Path 249" d="M2496.126 2590.988a3.046 3.046 0 0 0-2.292-.888 3.56 3.56 0 0 0-1.4.257 2.542 2.542 0 0 0-.837.585 3.026 3.026 0 0 0-.6.888 4.107 4.107 0 0 0-.3 1.66 3.345 3.345 0 0 0 .855 2.43 3.406 3.406 0 0 0 4.578 0 3.973 3.973 0 0 0-.007-4.927zm-.995 4.13a1.745 1.745 0 0 1-2.573 0 2.419 2.419 0 0 1-.508-1.667 2.446 2.446 0 0 1 .5-1.674 1.813 1.813 0 0 1 2.6-.006 2.452 2.452 0 0 1 .489 1.663 2.488 2.488 0 0 1-.507 1.684z" transform="translate(-2476.768 -2577.852)" style="fill:#fff"/>
            </g>
            <g data-name="Group 2413">
                <path data-name="Path 250" d="M3210.52 2854.891c.08-.089.269-.271.564-.543a5.733 5.733 0 0 0 .616-.627 2.566 2.566 0 0 0 .376-.626 1.7 1.7 0 0 0 .119-.628 1.283 1.283 0 0 0-.413-.975 1.6 1.6 0 0 0-1.143-.392 1.777 1.777 0 0 0-1.1.337 1.537 1.537 0 0 0-.524 1.117l.935.092a.906.906 0 0 1 .2-.587.623.623 0 0 1 .469-.179.639.639 0 0 1 .466.169.653.653 0 0 1 .168.484 1.049 1.049 0 0 1-.195.577 6.484 6.484 0 0 1-.779.8 6.225 6.225 0 0 0-1.056 1.177 2.23 2.23 0 0 0-.322.937h3.293v-.871h-1.866a1.693 1.693 0 0 1 .192-.262z" transform="translate(-3188.21 -2836.396)" style="fill:#fff"/>
            </g>
        </g>
    </g>
</svg>
