<svg xmlns="http://www.w3.org/2000/svg" width="24" height="24" viewBox="0 0 24 24">
    <g data-name="Group 2374">
        <path data-name="Rectangle 196" style="fill:none" d="M0 0h24v24H0z"/>
        <path data-name="Path 1095" d="m10.425 8.842 7.155-7.149a.394.394 0 0 0 0-.553L16.557.111a.4.4 0 0 0-.553 0L8.845 7.265 1.695.111a.406.406 0 0 0-.553 0l-1.02 1.02a.394.394 0 0 0 0 .553l7.146 7.158-7.151 7.149a.394.394 0 0 0 0 .553l1.019 1.02a.4.4 0 0 0 .553 0l7.156-7.143L16 17.574a.4.4 0 0 0 .553 0l1.021-1.02a.394.394 0 0 0 0-.553z" transform="translate(2.997 3.002)" style="fill:#222"/>
    </g>
</svg>
