<svg xmlns="http://www.w3.org/2000/svg" width="24" height="24" viewBox="0 0 24 24">
    <g data-name="Group 2241">
        <path data-name="Subtraction 1" d="M10910-5302h-12a2 2 0 0 1-2-2v-10a2 2 0 0 1 2-2h12a2 2 0 0 1 2 2v10a2 2 0 0 1-2 2zm-10.048-4.6-.046.042c-.608.559-2.064 1.9-2.453 2.318a.611.611 0 0 0-.187.721 1.188 1.188 0 0 0 1.027.75.519.519 0 0 0 .068 0H10911v-3.829l-4.077-1.764-3.922 3.785-3.048-2.021zm-1.952-8.4a1 1 0 0 0-1 1v9l2.646-2.352a.505.505 0 0 1 .355-.146.5.5 0 0 1 .274.083l2.659 1.771 3.711-3.708a.5.5 0 0 1 .352-.146.5.5 0 0 1 .226.053l3.776 1.947v-6.5a1 1 0 0 0-1-1zm2.5 5a1.5 1.5 0 0 1-1.5-1.5 1.5 1.5 0 0 1 1.5-1.5 1.5 1.5 0 0 1 1.5 1.5 1.5 1.5 0 0 1-1.5 1.5z" transform="translate(-10892 5321)" style="fill:#777"/>
        <g data-name="Group 2239">
            <path data-name="Rectangle 3367" style="fill:none" d="M0 0h24v24H0z"/>
        </g>
    </g>
</svg>
