<svg xmlns="http://www.w3.org/2000/svg" width="22" height="22" viewBox="0 0 22 22">
    <g data-name="Group 2170">
        <g data-name="Ellipse 36" style="fill:#fff;stroke:#777">
            <circle cx="11" cy="11" r="11" style="stroke:none"/>
            <circle cx="11" cy="11" r="10.5" style="fill:none"/>
        </g>
        <path data-name="Path 1095" d="m6.474 5.49 4.442-4.439a.245.245 0 0 0 0-.343l-.635-.64a.245.245 0 0 0-.343 0L5.493 4.51 1.054.068a.252.252 0 0 0-.343 0L.077.7a.245.245 0 0 0 0 .343L4.514 5.49.074 9.929a.245.245 0 0 0 0 .343l.633.633a.245.245 0 0 0 .343 0L5.493 6.47l4.442 4.442a.245.245 0 0 0 .343 0l.634-.633a.245.245 0 0 0 0-.343z" transform="translate(5.431 5.491)" style="fill:#777"/>
    </g>
</svg>
