<svg xmlns="http://www.w3.org/2000/svg" width="42.246" height="56.328" viewBox="0 0 42.246 56.328">
    <g data-name="Group 2827">
        <path data-name="Path 386" d="M37.789 31.473a67.683 67.683 0 0 1-6.9 10.808 110.87 110.87 0 0 1-7.766 9.048 110.829 110.829 0 0 1-7.766-9.048 67.683 67.683 0 0 1-6.9-10.808 24.357 24.357 0 0 1-2.937-10.35 17.6 17.6 0 0 1 35.2 0 24.408 24.408 0 0 1-2.936 10.35zM23.123 56.328s21.123-20.017 21.123-35.2A21.123 21.123 0 1 0 2 21.123C2 36.31 23.123 56.328 23.123 56.328z" style="fill:red" transform="translate(-2)"/>
        <g data-name="Group 2824" transform="translate(-169 -249.919)">
            <circle data-name="Ellipse 383" cx="8.871" cy="8.871" r="8.871" transform="translate(181.774 262.774)" style="fill:#fff"/>
            <path data-name="Path 385" d="M10.623 21.247A10.623 10.623 0 0 1 3.111 3.111a10.623 10.623 0 1 1 15.024 15.024 10.553 10.553 0 0 1-7.512 3.112zm0-19.358a8.678 8.678 0 0 0-6.176 2.558A8.735 8.735 0 0 0 16.8 16.8a8.735 8.735 0 0 0-6.177-14.911z" style="fill:red" transform="translate(180 261)"/>
            <path data-name="Rectangle 4342" transform="rotate(-45.008 426.824 -82.092)" style="fill:red" d="M0 0h19.358v1.889H0z"/>
        </g>
    </g>
</svg>
