<svg xmlns="http://www.w3.org/2000/svg" width="24" height="24" viewBox="0 0 24 24">
    <g data-name="Group 2240">
        <path data-name="Rectangle 3367" style="fill:none" d="M0 0h24v24H0z"/>
        <path data-name="Path 166" d="M5.5 2.748A2.748 2.748 0 1 1 2.748 0 2.748 2.748 0 0 1 5.5 2.748zm-4.58 0A1.832 1.832 0 1 0 2.748.916 1.832 1.832 0 0 0 .916 2.748z" style="fill:#777" transform="translate(5 5)"/>
        <path data-name="Path 167" d="M8.244 6H8.7a1.832 1.832 0 0 1 1.816 1.592l2.849-1.266a.916.916 0 0 1 1.289.836V14a.916.916 0 0 1-1.288.836l-2.85-1.266A1.832 1.832 0 0 1 8.7 15.16H1.832A1.832 1.832 0 0 1 0 13.328v-5.5A1.832 1.832 0 0 1 1.832 6zm5.5 8V7.163l-3.21 1.425v3.985L13.74 14zM.916 7.832v5.5a.916.916 0 0 0 .916.916H8.7a.916.916 0 0 0 .916-.916v-5.5a.916.916 0 0 0-.916-.916H1.832a.916.916 0 0 0-.916.916z" transform="translate(5 4.496)" style="fill:#777"/>
        <path data-name="Path 168" d="M8.748 5.5A2.748 2.748 0 1 0 6 2.748 2.748 2.748 0 0 0 8.748 5.5zM6.916 2.748A1.832 1.832 0 1 1 8.748 4.58a1.832 1.832 0 0 1-1.832-1.832z" transform="translate(4.496 5)" style="fill:#777"/>
    </g>
</svg>
