<svg xmlns="http://www.w3.org/2000/svg" width="22.831" height="22.943" viewBox="0 0 22.831 22.943">
    <path data-name="Union 54" d="M.526 22.91a.566.566 0 0 1-.526-.6v-1.48a.566.566 0 0 1 .526-.6h7.826a.566.566 0 0 1 .525.6v1.48a.566.566 0 0 1-.525.6zm8.9-2.137v-2.36a7.638 7.638 0 1 0 6.121-13.942l.064 1.547-4.488-2.788L15.365.079l.087 2.13a9.779 9.779 0 1 1-6.023 18.565zm-8.9-1.235a.566.566 0 0 1-.526-.6v-1.475a.566.566 0 0 1 .526-.6h7.826a.566.566 0 0 1 .525.6v1.481a.566.566 0 0 1-.525.6zm14.2-3.341-1.947-2.586a6.024 6.024 0 0 0-.512-.621.646.646 0 0 0-.478-.193V12h.649a2.171 2.171 0 0 0 .985-.2 1.1 1.1 0 0 0 .555-.655H11.59l.329-.935H14a.94.94 0 0 0-.357-.55 1.321 1.321 0 0 0-.732-.22H11.59l.33-.94h4.829l-.33.935h-1.408a1.951 1.951 0 0 1 .253.769h1.485l-.33.935h-1.188a1.864 1.864 0 0 1-.66 1.04 3.075 3.075 0 0 1-1.089.556l2.629 3.465zm-14.2-.031a.566.566 0 0 1-.526-.6v-1.48a.566.566 0 0 1 .526-.6h7.826a.567.567 0 0 1 .525.6v1.48a.566.566 0 0 1-.525.6zm0-3.371A.566.566 0 0 1 0 12.2v-1.481a.566.566 0 0 1 .526-.6h7.826a.566.566 0 0 1 .525.6V12.2a.566.566 0 0 1-.525.6zm0-3.371A.566.566 0 0 1 0 8.828v-1.48a.566.566 0 0 1 .526-.6h7.826a.566.566 0 0 1 .525.6v1.48a.566.566 0 0 1-.525.6zM3.244 5.97v-1.6H1.466L4.439 0l2.972 4.368H5.632v1.6z" style="fill:#fff"/>
    <g data-name="Group 2622">
        <path data-name="Path 335" d="M.02-.136z" transform="translate(-.016 23.069)" style="fill:#fff"/>
    </g>
    <g data-name="Group 2623">
        <path data-name="Path 336" d="M.019-.108z" transform="translate(-.01 23.038)" style="fill:#fff"/>
    </g>
    <g data-name="Group 2624">
        <path data-name="Path 337" d="M.019-.107zm0 0z" transform="translate(-.006 23.038)" style="fill:#fff"/>
    </g>
    <g data-name="Group 2625">
        <path data-name="Path 338" d="M.018-.107zm0 0z" transform="translate(-.001 23.038)" style="fill:#fff"/>
    </g>
    <g data-name="Group 2626">
        <path data-name="Path 339" d="M0-.125z" transform="translate(.019 23.054)" style="fill:#fff"/>
    </g>
    <g data-name="Group 2627">
        <path data-name="Path 340" d="M.019-.107zm0 0z" transform="translate(.008 23.038)" style="fill:#fff"/>
    </g>
    <g data-name="Group 2628">
        <path data-name="Path 341" d="M.018-.139v.006zm0 0z" transform="translate(.013 23.069)" style="fill:#fff"/>
    </g>
    <g data-name="Group 2629">
        <path data-name="Path 342" d="M.018-.136zm0 0v-.005z" transform="translate(.021 23.069)" style="fill:#fff"/>
    </g>
    <g data-name="Group 2630">
        <path data-name="Path 343" d="M0-.109V-.1z" transform="translate(.042 23.038)" style="fill:#fff"/>
    </g>
    <g data-name="Group 2631">
        <path data-name="Path 344" d="M.017-.106v-.003zm0 0z" transform="translate(.034 23.038)" style="fill:#fff"/>
    </g>
    <g data-name="Group 2632">
        <path data-name="Path 345" d="M.018-.108zm0 0z" transform="translate(.04 23.038)" style="fill:#fff"/>
    </g>
    <g data-name="Group 2633">
        <path data-name="Path 346" d="M.017-.106v-.003zm0 0z" transform="translate(.045 23.038)" style="fill:#fff"/>
    </g>
    <g data-name="Group 2634">
        <path data-name="Path 347" d="M.019-.109z" transform="translate(.05 23.038)" style="fill:#fff"/>
    </g>
    <g data-name="Group 2635">
        <path data-name="Path 348" d="M.018-.108zm0 0z" transform="translate(.055 23.038)" style="fill:#fff"/>
    </g>
    <g data-name="Group 2636">
        <path data-name="Path 349" d="M.019-.108z" transform="translate(.06 23.038)" style="fill:#fff"/>
    </g>
    <g data-name="Group 2637">
        <path data-name="Path 350" d="M.02-.107z" transform="translate(.064 23.038)" style="fill:#fff"/>
    </g>
    <g data-name="Group 2638">
        <path data-name="Path 351" d="M.018-.107zm0 0z" transform="translate(.069 23.038)" style="fill:#fff"/>
    </g>
    <g data-name="Group 2639">
        <path data-name="Path 352" d="M.019-.108z" transform="translate(.074 23.038)" style="fill:#fff"/>
    </g>
    <g data-name="Group 2640">
        <path data-name="Path 353" d="M0-.125z" transform="translate(.093 23.054)" style="fill:#fff"/>
    </g>
    <g data-name="Group 2641">
        <path data-name="Path 354" d="M.019-.109z" transform="translate(.082 23.038)" style="fill:#fff"/>
    </g>
    <g data-name="Group 2642">
        <path data-name="Path 355" d="M0-.141z" transform="translate(0 23.077)" style="fill:#fff"/>
    </g>
    <g data-name="Group 2643">
        <path data-name="Path 356" d="M.019-.108z" transform="translate(-.012 23.046)" style="fill:#fff"/>
    </g>
    <g data-name="Group 2644">
        <path data-name="Path 357" d="M.018-.108zm0 0z" transform="translate(-.009 23.046)" style="fill:#fff"/>
    </g>
    <g data-name="Group 2645">
        <path data-name="Path 358" d="M.019-.108z" transform="translate(-.003 23.046)" style="fill:#fff"/>
    </g>
    <g data-name="Group 2646">
        <path data-name="Path 359" d="M0-.125z" transform="translate(.023 23.061)" style="fill:#fff"/>
    </g>
    <g data-name="Group 2647">
        <path data-name="Path 360" d="M.02-.137v-.004z" transform="translate(.011 23.077)" style="fill:#fff"/>
    </g>
    <g data-name="Group 2648">
        <path data-name="Path 361" d="M.019-.107zm0 0z" transform="translate(.016 23.046)" style="fill:#fff"/>
    </g>
    <g data-name="Group 2649">
        <path data-name="Path 362" d="M.016-.141v.006z" transform="translate(.024 23.077)" style="fill:#fff"/>
    </g>
    <g data-name="Group 2650">
        <path data-name="Path 363" d="M.018-.108zm0 0z" transform="translate(.031 23.046)" style="fill:#fff"/>
    </g>
    <g data-name="Group 2651">
        <path data-name="Path 364" d="M.016-.107z" transform="translate(.036 23.046)" style="fill:#fff"/>
    </g>
    <g data-name="Group 2652">
        <path data-name="Path 365" d="M.02-.107z" transform="translate(.041 23.046)" style="fill:#fff"/>
    </g>
    <g data-name="Group 2653">
        <path data-name="Path 366" d="M.016-.141zm0 0z" transform="translate(.049 23.077)" style="fill:#fff"/>
    </g>
    <g data-name="Group 2654">
        <path data-name="Path 367" d="M.019-.108z" transform="translate(.055 23.046)" style="fill:#fff"/>
    </g>
    <g data-name="Group 2655">
        <path data-name="Path 368" d="M.018-.108zm0 0z" transform="translate(.059 23.046)" style="fill:#fff"/>
    </g>
    <g data-name="Group 2656">
        <path data-name="Path 369" d="M0-.139zm0 0z" transform="translate(.079 23.077)" style="fill:#fff"/>
    </g>
    <g data-name="Group 2657">
        <path data-name="Path 370" d="M.019-.107zm0 0z" transform="translate(.067 23.046)" style="fill:#fff"/>
    </g>
    <g data-name="Group 2658">
        <path data-name="Path 371" d="M.019-.109z" transform="translate(.072 23.046)" style="fill:#fff"/>
    </g>
    <g data-name="Group 2659">
        <path data-name="Path 372" d="M0-.125z" transform="translate(.092 23.061)" style="fill:#fff"/>
    </g>
</svg>
