<svg xmlns="http://www.w3.org/2000/svg" width="24.881" height="24.214" viewBox="0 0 24.881 24.214">
    <path data-name="Path 378" d="m463.569 213.206-1.518-.218 4.456-14.809 1.551.1z" transform="translate(-443.262 -188.992)" style="fill:#fff"/>
    <path data-name="Path 379" d="m204.827 195.95-4.571 15.15h15.679l4.574-15.148zm12.728 4.541h-5.5l.909-3.026h5.5l-.915 3.026zm-12.97 1.515h5.437l-.912 3.035h-5.44zm7.018 0h5.5l-.915 3.035h-5.492l.912-3.035zm-.215-4.541-.909 3.026h-5.434l.912-3.026zm-8.175 9.09h5.44l-.912 3.029h-5.446l.915-3.029zm6.113 3.029.912-3.029h5.492l-.915 3.029z" transform="translate(-195.627 -186.884)" style="fill:#fff"/>
    <path data-name="Path 380" d="M180.146 116.866a4.509 4.509 0 0 0 1.7 3.532l1.075-.924a3.142 3.142 0 1 1 3.971-4.831l.975-.975a4.524 4.524 0 0 0-7.721 3.2z" transform="translate(-176.605 -107.8)" style="fill:#fff"/>
    <path data-name="Path 381" d="M249.82 28.336h1.515v3.017h-1.515z" transform="translate(-242.51 -28.336)" style="fill:#fff"/>
    <path data-name="Path 382" d="m115.06 95.056.816-1.276 2.542 1.625-.816 1.276z" transform="translate(-115.039 -90.24)" style="fill:#fff"/>
    <path data-name="Path 383" d="m114.68 245.482 2.548-1.615.811 1.279-2.548 1.615z" transform="translate(-114.68 -232.209)" style="fill:#fff"/>
</svg>
