<svg data-name="Group 2259" xmlns="http://www.w3.org/2000/svg" width="24" height="24" viewBox="0 0 24 24">
    <path data-name="Rectangle 427" style="fill:none" d="M0 0h24v24H0z"/>
    <g data-name="arrow-counterclockwise (2)">
        <path data-name="Path 172" d="M9.121 3.187a5.935 5.935 0 1 0 5.4 3.459.594.594 0 0 1 1.078-.5A7.123 7.123 0 1 1 9.121 2z" transform="translate(2.878 3.896)" style="fill-rule:evenodd;fill:#999"/>
        <path data-name="Path 173" d="M5.14 5.248V.581a.3.3 0 0 1 .487-.228l2.8 2.334a.3.3 0 0 1 0 .456l-2.8 2.334a.3.3 0 0 1-.487-.228z" transform="translate(6.859 3.575)" style="fill:#999"/>
    </g>
</svg>
