<svg xmlns="http://www.w3.org/2000/svg" width="24" height="24" viewBox="0 0 24 24">
    <g data-name="Group 2265">
        <path data-name="Rectangle 3443" transform="rotate(180 12 12)" style="fill:none" d="M0 0h24v24H0z"/>
        <path data-name="Path 1179" d="M222.773 154.7a.375.375 0 0 0-.374.374v7.081a.374.374 0 0 0 .749 0v-7.081a.374.374 0 0 0-.374-.374zm0 0" transform="translate(-208.07 -144.907)" style="fill:#222"/>
        <path data-name="Path 1180" d="M104.773 154.7a.375.375 0 0 0-.374.374v7.081a.374.374 0 0 0 .749 0v-7.081a.374.374 0 0 0-.374-.374zm0 0" transform="translate(-94.491 -144.907)" style="fill:#222"/>
        <path data-name="Path 1181" d="M1.062 4.761v9.231a2.067 2.067 0 0 0 .55 1.425A1.845 1.845 0 0 0 2.951 16h7.088a1.845 1.845 0 0 0 1.339-.582 2.067 2.067 0 0 0 .55-1.425V4.761a1.431 1.431 0 0 0-.364-2.814H9.642v-.468A1.472 1.472 0 0 0 8.158 0H4.831a1.472 1.472 0 0 0-1.486 1.479v.468H1.429a1.431 1.431 0 0 0-.364 2.814zm8.977 10.486H2.951a1.187 1.187 0 0 1-1.139-1.255v-9.2h9.366v9.2a1.187 1.187 0 0 1-1.139 1.255zM4.1 1.479a.722.722 0 0 1 .732-.727h3.326a.722.722 0 0 1 .734.727v.468H4.1zM1.429 2.7h10.133a.674.674 0 0 1 0 1.349H1.429a.674.674 0 0 1 0-1.349zm0 0" transform="translate(5.998 4)" style="fill:#222"/>
        <path data-name="Path 1182" d="M163.773 154.7a.375.375 0 0 0-.374.374v7.081a.374.374 0 0 0 .749 0v-7.081a.374.374 0 0 0-.374-.374zm0 0" transform="translate(-151.281 -144.907)" style="fill:#222"/>
    </g>
</svg>
