<svg xmlns="http://www.w3.org/2000/svg" width="17.72" height="23.626" viewBox="0 0 17.72 23.626">
    <path d="M11.474.329a.738.738 0 0 0-1.229 0L5.816 6.974a.738.738 0 0 0 .614 1.147h.145L3.589 12.9a.738.738 0 0 0 .626 1.13H4.5l-2.422 4.836a.738.738 0 0 0 .66 1.069h6.645v3.692h2.953v-3.692h6.645a.738.738 0 0 0 .66-1.069l-2.417-4.838h.282a.738.738 0 0 0 .626-1.13l-2.987-4.777h.145a.738.738 0 0 0 .61-1.147L11.474.329zm-2.922 6.7a.738.738 0 0 0-.645-.381h-.1l3.053-4.579 3.051 4.576h-.1a.738.738 0 0 0-.626 1.13l2.986 4.777h-.145a.738.738 0 0 0-.66 1.069l2.417 4.838H3.933l2.419-4.838a.738.738 0 0 0-.66-1.069h-.145l2.986-4.778a.738.738 0 0 0 .019-.749z" transform="translate(-2)" style="fill:#fff"/>
</svg>
