<svg xmlns="http://www.w3.org/2000/svg" width="20.168" height="18.718" viewBox="0 0 20.168 18.718">
    <path data-name="Union 31" d="M11395.891-16089.284a1.9 1.9 0 0 1-1.888-1.908v-11.445a1.9 1.9 0 0 1 1.8-1.9l13.494-3.4a1.9 1.9 0 0 1 1.625.348 1.917 1.917 0 0 1 .724 1.5v1.553h.635a1.9 1.9 0 0 1 1.888 1.9v11.445a1.9 1.9 0 0 1-1.888 1.908zm-.631-13.354v11.445a.633.633 0 0 0 .631.635h16.393a.629.629 0 0 0 .627-.635v-11.445a.631.631 0 0 0-.627-.634h-16.393a.634.634 0 0 0-.631.634zm14.347-4.07-8.594 2.167h9.379v-1.553a.638.638 0 0 0-.247-.5.606.606 0 0 0-.381-.134.615.615 0 0 0-.158.02zm-5.506 13.041v-.7a2.824 2.824 0 0 1-.889-.149 2.022 2.022 0 0 1-.7-.412 1.821 1.821 0 0 1-.445-.651 2.291 2.291 0 0 1-.149-.894h1.026a1.43 1.43 0 0 0 .264.938 1.113 1.113 0 0 0 .889.359v-2.179a7.016 7.016 0 0 1-.731-.238 2.633 2.633 0 0 1-.659-.36 1.7 1.7 0 0 1-.473-.554 1.76 1.76 0 0 1-.178-.829 1.692 1.692 0 0 1 .166-.76 1.6 1.6 0 0 1 .448-.546 2.008 2.008 0 0 1 .655-.339 2.535 2.535 0 0 1 .771-.118v-.7h.389v.7a2.62 2.62 0 0 1 .764.109 1.82 1.82 0 0 1 .627.323 1.5 1.5 0 0 1 .42.55 1.735 1.735 0 0 1 .162.772h-1.027a1.081 1.081 0 0 0-.238-.7.9.9 0 0 0-.707-.242v1.9c.271.073.533.157.792.255a2.543 2.543 0 0 1 .684.368 1.72 1.72 0 0 1 .477.558 1.682 1.682 0 0 1 .178.816 2.126 2.126 0 0 1-.165.881 1.765 1.765 0 0 1-.453.619 2.04 2.04 0 0 1-.675.38 3.057 3.057 0 0 1-.837.146v.7zm.389-1.512a1.406 1.406 0 0 0 .8-.283.952.952 0 0 0 .312-.788.859.859 0 0 0-.1-.425.852.852 0 0 0-.251-.287 1.335 1.335 0 0 0-.355-.186 5.01 5.01 0 0 0-.4-.129zm-1.141-4.907a.793.793 0 0 0-.263.679.712.712 0 0 0 .089.368.971.971 0 0 0 .23.263 1.256 1.256 0 0 0 .323.174c.122.044.247.081.372.113v-1.8a1.2 1.2 0 0 0-.751.203z" transform="translate(-11394.003 16108.002)" style="fill:#fff"/>
</svg>
