<svg xmlns="http://www.w3.org/2000/svg" width="18.901" height="20.894" viewBox="0 0 18.901 20.894">
    <g data-name="Group 2660">
        <path data-name="Path 373" d="M13.022 10.064h4.716a1.167 1.167 0 0 1 1.162 1.163v4.767a1.167 1.167 0 0 1-1.163 1.163h-4.715a3.558 3.558 0 0 1-3.547-3.547 3.557 3.557 0 0 1 3.547-3.547zM1.867 4.463h3.009a4.351 4.351 0 0 1-.009-.257 4.207 4.207 0 0 1 8.414 0c0 .085 0 .17-.007.255h1.107a2.026 2.026 0 0 1 2.056 2.015v.337a2.058 2.058 0 0 1 .927 1.716v.741h-1.305v-.497a.968.968 0 0 0-.966-.966H3.081V6.731a.261.261 0 0 1 .26-.26h2.19a4.179 4.179 0 0 1-.367-.716H2.158a.68.68 0 0 0-.678.678v12.35a.68.68 0 0 0 .678.678H15.37a.68.68 0 0 0 .678-.678v-.777h1.34v1.284a1.837 1.837 0 0 1-1.887 1.6H1.862A1.87 1.87 0 0 1 0 19.03V6.33a1.872 1.872 0 0 1 1.867-1.867zm11.121 1.29a4.179 4.179 0 0 1-.367.716h2.686a1.905 1.905 0 0 1 .221.012v-.049a.68.68 0 0 0-.678-.678h-1.862zm.213 5.611h4.184v4.5H13.2a2.255 2.255 0 0 1-2.248-2.248 2.253 2.253 0 0 1 2.248-2.252zm1.029 1.5a.767.767 0 1 1-.767.767.767.767 0 0 1 .767-.767z" style="fill:#fff;fill-rule:evenodd"/>
        <path data-name="Intersection 5" d="M1.939 4.646.73 3.04a3.942 3.942 0 0 0-.325-.4.417.417 0 0 0-.305-.118v-.51h.413a1.373 1.373 0 0 0 .626-.13.7.7 0 0 0 .354-.417H-.026L.185.87h1.323A.6.6 0 0 0 1.28.52.849.849 0 0 0 .815.38h-.841l.211-.595h3.072l-.21.595h-.9a1.237 1.237 0 0 1 .161.49h.945l-.21.595h-.752a1.192 1.192 0 0 1-.42.662 1.956 1.956 0 0 1-.693.354l1.643 2.165z" transform="translate(7.239 1.741)" style="fill:#409eff"/>
    </g>
</svg>
