<svg width="24" height="24" viewBox="0 0 24 24" fill="none" xmlns="http://www.w3.org/2000/svg">
<path fill-rule="evenodd" clip-rule="evenodd" d="M12 4.5C13.6209 4.50062 15.1981 5.02639 16.4951 5.99856C17.7922 6.97072 18.7394 8.33696 19.1949 9.89262C19.6504 11.4483 19.5896 13.1096 19.0216 14.6278C18.4537 16.1461 17.4091 17.4394 16.0445 18.3142C14.6798 19.1889 13.0684 19.598 11.4518 19.4801C9.83508 19.3623 8.3001 18.7238 7.07672 17.6604C5.85334 16.597 5.00742 15.1658 4.66566 13.5813C4.32389 11.9968 4.50468 10.3442 5.18095 8.871C5.25456 8.69189 5.25604 8.49126 5.18508 8.31108C5.11412 8.13091 4.97623 7.98516 4.80026 7.90435C4.62428 7.82353 4.42387 7.81391 4.24097 7.8775C4.05806 7.94109 3.90684 8.07295 3.81895 8.2455C3.00747 10.0134 2.7906 11.9966 3.20085 13.8981C3.61109 15.7996 4.62635 17.5169 6.09456 18.793C7.56277 20.069 9.40489 20.835 11.345 20.9762C13.2851 21.1175 15.2187 20.6263 16.8562 19.5764C18.4938 18.5264 19.7471 16.9742 20.4284 15.1522C21.1097 13.3301 21.1823 11.3364 20.6354 9.46967C20.0885 7.6029 18.9515 5.96357 17.3947 4.79723C15.8379 3.63089 13.9452 3.00033 12 3V4.5Z" fill="black"/>
<path d="M12 6.69889V0.800885C12 0.72963 11.9797 0.659857 11.9414 0.599737C11.9032 0.539617 11.8486 0.491638 11.7841 0.461419C11.7195 0.4312 11.6477 0.419992 11.5771 0.429106C11.5064 0.438221 11.4398 0.467282 11.385 0.512885L7.84504 3.46188C7.80283 3.49708 7.76888 3.54112 7.74558 3.59089C7.72228 3.64065 7.71021 3.69493 7.71021 3.74989C7.71021 3.80484 7.72228 3.85912 7.74558 3.90888C7.76888 3.95865 7.80283 4.00269 7.84504 4.03788L11.385 6.98689C11.4398 7.03249 11.5064 7.06155 11.5771 7.07066C11.6477 7.07978 11.7195 7.06857 11.7841 7.03835C11.8486 7.00813 11.9032 6.96015 11.9414 6.90003C11.9797 6.83991 12 6.77014 12 6.69889Z" fill="black"/>
</svg>
