<svg width="24" height="24" viewBox="0 0 24 24" fill="none" xmlns="http://www.w3.org/2000/svg">
<path fill-rule="evenodd" clip-rule="evenodd" d="M12.0001 4.5C10.3791 4.50062 8.80195 5.02639 7.50487 5.99856C6.20778 6.97072 5.26057 8.33696 4.8051 9.89262C4.34964 11.4483 4.41044 13.1096 4.97839 14.6278C5.54634 16.1461 6.59088 17.4394 7.95555 18.3142C9.32022 19.1889 10.9316 19.598 12.5482 19.4801C14.1649 19.3623 15.6999 18.7238 16.9233 17.6604C18.1467 16.597 18.9926 15.1658 19.3344 13.5813C19.6761 11.9968 19.4953 10.3442 18.8191 8.871C18.7454 8.69189 18.744 8.49126 18.8149 8.31108C18.8859 8.13091 19.0238 7.98516 19.1998 7.90435C19.3757 7.82353 19.5761 7.81391 19.759 7.8775C19.9419 7.94109 20.0932 8.07295 20.1811 8.2455C20.9925 10.0134 21.2094 11.9966 20.7992 13.8981C20.3889 15.7996 19.3737 17.5169 17.9054 18.793C16.4372 20.069 14.5951 20.835 12.655 20.9762C10.7149 21.1175 8.78129 20.6263 7.14376 19.5764C5.50623 18.5264 4.25295 16.9742 3.57165 15.1522C2.89035 13.3301 2.81771 11.3364 3.36461 9.46967C3.91151 7.6029 5.0485 5.96357 6.60528 4.79723C8.16206 3.63089 10.0548 3.00033 12.0001 3V4.5Z" fill="#999999"/>
<path d="M12 6.69889V0.800885C12 0.72963 12.0204 0.659857 12.0586 0.599737C12.0969 0.539617 12.1514 0.491638 12.216 0.461419C12.2805 0.4312 12.3523 0.419992 12.423 0.429106C12.4936 0.438221 12.5602 0.467282 12.615 0.512885L16.155 3.46188C16.335 3.61189 16.335 3.88788 16.155 4.03788L12.615 6.98689C12.5602 7.03249 12.4936 7.06155 12.423 7.07066C12.3523 7.07978 12.2805 7.06857 12.216 7.03835C12.1514 7.00813 12.0969 6.96015 12.0586 6.90003C12.0204 6.83991 12 6.77014 12 6.69889Z" fill="#999999"/>
</svg>
