<svg width="20" height="20" viewBox="0 0 20 20" fill="none" xmlns="http://www.w3.org/2000/svg">
<path d="M2.5 1.24997C2.16848 1.24997 1.85054 1.38167 1.61612 1.61609C1.3817 1.85051 1.25 2.16845 1.25 2.49997C1.25 2.8315 1.3817 3.14944 1.61612 3.38386C1.85054 3.61828 2.16848 3.74997 2.5 3.74997C2.83152 3.74997 3.14946 3.61828 3.38388 3.38386C3.61831 3.14944 3.75 2.8315 3.75 2.49997C3.75 2.16845 3.61831 1.85051 3.38388 1.61609C3.14946 1.38167 2.83152 1.24997 2.5 1.24997ZM1.2223e-06 2.49997C-0.000600597 1.89106 0.221053 1.30286 0.62336 0.84577C1.02567 0.388684 1.58097 0.0941406 2.18503 0.0174243C2.78909 -0.0592919 3.40039 0.0870935 3.90418 0.429105C4.40797 0.771117 4.76962 1.28524 4.92125 1.87497H15.0788C15.1891 1.44831 15.4102 1.05839 15.7198 0.744723C16.0294 0.43106 16.4163 0.204802 16.8415 0.0888757C17.2667 -0.0270502 17.715 -0.0285237 18.1409 0.0846047C18.5668 0.197733 18.9553 0.421443 19.2669 0.733064C19.5785 1.04469 19.8022 1.43314 19.9154 1.85908C20.0285 2.28501 20.027 2.73328 19.9111 3.15846C19.7952 3.58363 19.5689 3.97061 19.2553 4.28018C18.9416 4.58975 18.5517 4.8109 18.125 4.92122V15.0787C18.5517 15.1891 18.9416 15.4102 19.2553 15.7198C19.5689 16.0293 19.7952 16.4163 19.9111 16.8415C20.027 17.2667 20.0285 17.7149 19.9154 18.1409C19.8022 18.5668 19.5785 18.9553 19.2669 19.2669C18.9553 19.5785 18.5668 19.8022 18.1409 19.9153C17.715 20.0285 17.2667 20.027 16.8415 19.9111C16.4163 19.7951 16.0294 19.5689 15.7198 19.2552C15.4102 18.9416 15.1891 18.5516 15.0788 18.125H4.92125C4.81093 18.5516 4.58977 18.9416 4.28021 19.2552C3.97064 19.5689 3.58366 19.7951 3.15848 19.9111C2.7333 20.027 2.28504 20.0285 1.8591 19.9153C1.43317 19.8022 1.04471 19.5785 0.733091 19.2669C0.421469 18.9553 0.19776 18.5668 0.0846314 18.1409C-0.028497 17.7149 -0.0270236 17.2667 0.0889024 16.8415C0.204828 16.4163 0.431087 16.0293 0.74475 15.7198C1.05841 15.4102 1.44833 15.1891 1.875 15.0787V4.92122C1.33826 4.78264 0.862795 4.46958 0.523383 4.03129C0.183971 3.593 -0.000139668 3.05432 1.2223e-06 2.49997ZM3.125 4.92122V15.0787C4.00375 15.3037 4.695 15.9962 4.92125 16.875H15.0788C15.1908 16.4426 15.4165 16.0481 15.7323 15.7323C16.0481 15.4164 16.4426 15.1908 16.875 15.0787V4.92122C16.4426 4.80914 16.0481 4.5835 15.7323 4.26768C15.4165 3.95185 15.1908 3.55733 15.0788 3.12497H4.92125C4.80917 3.55733 4.58353 3.95185 4.26771 4.26768C3.95188 4.5835 3.55736 4.80914 3.125 4.92122ZM17.5 1.24997C17.1685 1.24997 16.8505 1.38167 16.6161 1.61609C16.3817 1.85051 16.25 2.16845 16.25 2.49997C16.25 2.8315 16.3817 3.14944 16.6161 3.38386C16.8505 3.61828 17.1685 3.74997 17.5 3.74997C17.8315 3.74997 18.1495 3.61828 18.3839 3.38386C18.6183 3.14944 18.75 2.8315 18.75 2.49997C18.75 2.16845 18.6183 1.85051 18.3839 1.61609C18.1495 1.38167 17.8315 1.24997 17.5 1.24997ZM2.5 16.25C2.16848 16.25 1.85054 16.3817 1.61612 16.6161C1.3817 16.8505 1.25 17.1685 1.25 17.5C1.25 17.8315 1.3817 18.1494 1.61612 18.3839C1.85054 18.6183 2.16848 18.75 2.5 18.75C2.83152 18.75 3.14946 18.6183 3.38388 18.3839C3.61831 18.1494 3.75 17.8315 3.75 17.5C3.75 17.1685 3.61831 16.8505 3.38388 16.6161C3.14946 16.3817 2.83152 16.25 2.5 16.25ZM17.5 16.25C17.1685 16.25 16.8505 16.3817 16.6161 16.6161C16.3817 16.8505 16.25 17.1685 16.25 17.5C16.25 17.8315 16.3817 18.1494 16.6161 18.3839C16.8505 18.6183 17.1685 18.75 17.5 18.75C17.8315 18.75 18.1495 18.6183 18.3839 18.3839C18.6183 18.1494 18.75 17.8315 18.75 17.5C18.75 17.1685 18.6183 16.8505 18.3839 16.6161C18.1495 16.3817 17.8315 16.25 17.5 16.25Z" fill="#222222"/>
</svg>
