<svg width="25" height="24" viewBox="0 0 25 24" fill="none" xmlns="http://www.w3.org/2000/svg">
<g id="X">
<path id="Vector" d="M5.79372 5.29372C5.88659 5.20062 5.99692 5.12675 6.11839 5.07635C6.23985 5.02594 6.37006 5 6.50157 5C6.63307 5 6.76329 5.02594 6.88475 5.07635C7.00622 5.12675 7.11654 5.20062 7.20941 5.29372L12.5003 10.5866L17.7911 5.29372C17.8841 5.20077 17.9944 5.12703 18.1159 5.07672C18.2373 5.02642 18.3675 5.00052 18.499 5.00052C18.6304 5.00052 18.7606 5.02642 18.882 5.07672C19.0035 5.12703 19.1138 5.20077 19.2068 5.29372C19.2998 5.38668 19.3735 5.49703 19.4238 5.61849C19.4741 5.73994 19.5 5.87011 19.5 6.00157C19.5 6.13303 19.4741 6.2632 19.4238 6.38465C19.3735 6.50611 19.2998 6.61646 19.2068 6.70941L13.914 12.0003L19.2068 17.2911C19.2998 17.3841 19.3735 17.4944 19.4238 17.6159C19.4741 17.7373 19.5 17.8675 19.5 17.999C19.5 18.1304 19.4741 18.2606 19.4238 18.382C19.3735 18.5035 19.2998 18.6138 19.2068 18.7068C19.1138 18.7998 19.0035 18.8735 18.882 18.9238C18.7606 18.9741 18.6304 19 18.499 19C18.3675 19 18.2373 18.9741 18.1159 18.9238C17.9944 18.8735 17.8841 18.7998 17.7911 18.7068L12.5003 13.414L7.20941 18.7068C7.11646 18.7998 7.00611 18.8735 6.88465 18.9238C6.7632 18.9741 6.63303 19 6.50157 19C6.37011 19 6.23994 18.9741 6.11849 18.9238C5.99703 18.8735 5.88668 18.7998 5.79372 18.7068C5.70077 18.6138 5.62703 18.5035 5.57672 18.382C5.52642 18.2606 5.50052 18.1304 5.50052 17.999C5.50052 17.8675 5.52642 17.7373 5.57672 17.6159C5.62703 17.4944 5.70077 17.3841 5.79372 17.2911L11.0866 12.0003L5.79372 6.70941C5.70062 6.61654 5.62675 6.50622 5.57635 6.38475C5.52594 6.26329 5.5 6.13307 5.5 6.00157C5.5 5.87006 5.52594 5.73985 5.57635 5.61839C5.62675 5.49692 5.70062 5.38659 5.79372 5.29372Z" fill="#999999"/>
</g>
</svg>
