<svg width="16" height="16" viewBox="0 0 16 16" fill="none" xmlns="http://www.w3.org/2000/svg">
<path d="M9.42515 8.00215L15.8961 1.53415C15.9616 1.46741 15.9983 1.37764 15.9983 1.28415C15.9983 1.19065 15.9616 1.10089 15.8961 1.03415L14.9721 0.102149C14.9054 0.0366769 14.8156 0 14.7221 0C14.6287 0 14.5389 0.0366769 14.4721 0.102149L7.99615 6.57315L1.52915 0.102149C1.46124 0.0389581 1.37191 0.00382917 1.27915 0.00382917C1.18638 0.00382917 1.09706 0.0389581 1.02915 0.102149L0.107149 1.02515C0.0416769 1.09189 0.005 1.18165 0.005 1.27515C0.005 1.36864 0.0416769 1.45841 0.107149 1.52515L6.57015 8.00215L0.102149 14.4661C0.0366769 14.5329 0 14.6227 0 14.7161C0 14.8096 0.0366769 14.8994 0.102149 14.9661L1.02415 15.8891C1.09089 15.9546 1.18065 15.9913 1.27415 15.9913C1.36764 15.9913 1.45741 15.9546 1.52415 15.8891L7.99615 9.42715L14.4661 15.8971C14.5329 15.9626 14.6227 15.9993 14.7161 15.9993C14.8096 15.9993 14.8994 15.9626 14.9661 15.8971L15.8891 14.9741C15.9546 14.9074 15.9913 14.8176 15.9913 14.7241C15.9913 14.6307 15.9546 14.5409 15.8891 14.4741L9.42515 8.00215Z" fill="#222222"/>
</svg>
