<svg width="16" height="17" viewBox="0 0 16 17" fill="none" xmlns="http://www.w3.org/2000/svg">
<g clip-path="url(#clip0_21016_1838)">
<path d="M12.1458 0.645917C12.1923 0.599354 12.2474 0.562411 12.3082 0.537205C12.3689 0.511998 12.434 0.499023 12.4998 0.499023C12.5656 0.499023 12.6307 0.511998 12.6914 0.537205C12.7522 0.562411 12.8074 0.599354 12.8538 0.645917L15.8538 3.64592C15.9004 3.69236 15.9373 3.74754 15.9625 3.80828C15.9877 3.86903 16.0007 3.93415 16.0007 3.99992C16.0007 4.06568 15.9877 4.13081 15.9625 4.19155C15.9373 4.2523 15.9004 4.30747 15.8538 4.35392L5.85381 14.3539C5.80582 14.4016 5.74867 14.439 5.68581 14.4639L0.685806 16.4639C0.594942 16.5003 0.495402 16.5092 0.399526 16.4895C0.303649 16.4699 0.215653 16.4225 0.146447 16.3533C0.0772403 16.2841 0.0298668 16.1961 0.0101994 16.1002C-0.0094681 16.0043 -0.000564594 15.9048 0.0358061 15.8139L2.03581 10.8139C2.06073 10.7511 2.09816 10.6939 2.14581 10.6459L12.1458 0.645917ZM11.2068 2.99992L13.4998 5.29292L14.7928 3.99992L12.4998 1.70692L11.2068 2.99992ZM12.7928 5.99992L10.4998 3.70692L3.99981 10.2069V10.4999H4.49981C4.63241 10.4999 4.75959 10.5526 4.85336 10.6464C4.94713 10.7401 4.99981 10.8673 4.99981 10.9999V11.4999H5.49981C5.63241 11.4999 5.75959 11.5526 5.85336 11.6464C5.94713 11.7401 5.99981 11.8673 5.99981 11.9999V12.4999H6.29281L12.7928 5.99992ZM3.03181 11.1749L2.92581 11.2809L1.39781 15.1019L5.21881 13.5739L5.32481 13.4679C5.22942 13.4323 5.1472 13.3684 5.08912 13.2847C5.03104 13.2011 4.99988 13.1017 4.99981 12.9999V12.4999H4.49981C4.3672 12.4999 4.24002 12.4472 4.14625 12.3535C4.05248 12.2597 3.99981 12.1325 3.99981 11.9999V11.4999H3.49981C3.39799 11.4998 3.29861 11.4687 3.21498 11.4106C3.13135 11.3525 3.06744 11.2703 3.03181 11.1749Z" fill="#777777"/>
</g>
<defs>
<clipPath id="clip0_21016_1838">
<rect width="16" height="16" fill="white" transform="translate(0 0.5)"/>
</clipPath>
</defs>
</svg>
