<?xml version="1.0" standalone="no"?>
<!DOCTYPE svg PUBLIC "-//W3C//DTD SVG 20010904//EN"
 "http://www.w3.org/TR/2001/REC-SVG-20010904/DTD/svg10.dtd">
<svg version="1.0" xmlns="http://www.w3.org/2000/svg"
 width="512.000000pt" height="512.000000pt" viewBox="0 0 512.000000 512.000000"
 preserveAspectRatio="xMidYMid meet">

<g transform="translate(0.000000,512.000000) scale(0.100000,-0.100000)"
fill="#000000" stroke="none">
<path d="M2425 5114 c-297 -43 -481 -109 -687 -246 -128 -85 -314 -272 -401
-404 -156 -236 -233 -473 -244 -754 -4 -124 -2 -160 16 -250 85 -410 374
-1008 887 -1830 206 -331 547 -835 564 -835 8 0 94 119 192 265 683 1012 1100
1793 1241 2320 29 107 31 127 31 290 0 143 -4 193 -22 272 -44 199 -113 363
-224 529 -75 114 -269 312 -379 386 -167 114 -385 204 -574 238 -88 16 -340
28 -400 19z m241 -514 c225 -28 418 -121 570 -274 313 -315 372 -796 144
-1177 -63 -105 -223 -263 -325 -323 -316 -184 -692 -182 -1001 5 -120 73 -253
211 -325 337 -158 277 -169 610 -29 898 80 165 187 287 340 386 190 122 411
175 626 148z"/>
<path d="M1720 1669 c-478 -65 -923 -193 -1184 -341 -173 -97 -295 -212 -349
-325 -27 -58 -31 -79 -31 -143 1 -107 41 -188 143 -290 434 -433 1754 -668
2981 -530 607 69 1112 220 1415 423 96 64 198 174 236 253 68 143 37 285 -93
421 -200 209 -579 372 -1108 477 -96 19 -398 66 -424 66 -2 0 -30 -42 -62 -92
-32 -51 -99 -156 -149 -233 -50 -77 -94 -145 -98 -151 -4 -8 31 -18 107 -33
246 -46 421 -115 507 -201 110 -110 60 -219 -145 -316 -358 -170 -1096 -206
-1591 -77 -456 118 -557 326 -234 481 92 45 213 83 342 107 45 9 96 19 114 23
l32 7 -117 182 c-64 100 -134 209 -155 242 -24 39 -43 61 -55 60 -9 -1 -46 -5
-82 -10z"/>
</g>
</svg>
