<svg width="20" height="20" viewBox="0 0 20 20" fill="none" xmlns="http://www.w3.org/2000/svg">
<path d="M10.0002 6.43601C8.0322 6.43601 6.43619 8.03001 6.43619 10C6.43619 11.968 8.0302 13.564 10.0002 13.564C11.9682 13.564 13.5642 11.97 13.5642 10C13.5642 8.03201 11.9682 6.43601 10.0002 6.43601ZM17.9642 9.11001C17.5542 5.39401 14.6062 2.44601 10.8902 2.03601V0.200012H9.1082V2.03601C5.3922 2.44601 2.4442 5.39401 2.0342 9.11001H0.200195V10.892H2.0362C2.4462 14.608 5.3942 17.556 9.1102 17.966V19.8H10.8922V17.964C14.6082 17.554 17.5562 14.606 17.9662 10.89H19.8002V9.10801H17.9642V9.11001ZM10.0002 16.236C6.5562 16.236 3.7642 13.444 3.7642 10C3.7642 6.55601 6.5562 3.76401 10.0002 3.76401C13.4442 3.76401 16.2362 6.55601 16.2362 10C16.2362 13.444 13.4442 16.236 10.0002 16.236Z" fill="#409EFF"/>
</svg>
