<svg width="8" height="14" viewBox="0 0 8 14" fill="none" xmlns="http://www.w3.org/2000/svg">
<path fill-rule="evenodd" clip-rule="evenodd" d="M0.645917 13.354C0.599354 13.3076 0.562411 13.2524 0.537204 13.1917C0.511998 13.1309 0.499023 13.0658 0.499023 13C0.499023 12.9343 0.511998 12.8691 0.537204 12.8084C0.562411 12.7476 0.599354 12.6925 0.645917 12.646L6.29292 7.00002L0.645916 1.35402C0.599428 1.30754 0.562552 1.25235 0.537393 1.19161C0.512234 1.13087 0.499285 1.06577 0.499285 1.00002C0.499285 0.934278 0.512234 0.869179 0.537393 0.808439C0.562552 0.7477 0.599428 0.692511 0.645916 0.646023C0.692404 0.599535 0.747593 0.562658 0.808333 0.537499C0.869072 0.512341 0.934173 0.499392 0.999916 0.499392C1.06566 0.499392 1.13076 0.512341 1.1915 0.537499C1.25224 0.562658 1.30743 0.599535 1.35392 0.646023L7.35392 6.64602C7.40048 6.69247 7.43742 6.74764 7.46263 6.80839C7.48784 6.86913 7.50081 6.93425 7.50081 7.00002C7.50081 7.06579 7.48784 7.13091 7.46263 7.19166C7.43742 7.2524 7.40048 7.30758 7.35392 7.35402L1.35392 13.354C1.30747 13.4006 1.2523 13.4375 1.19155 13.4627C1.13081 13.4879 1.06568 13.5009 0.999917 13.5009C0.93415 13.5009 0.869028 13.4879 0.808283 13.4627C0.747538 13.4375 0.692363 13.4006 0.645917 13.354Z" fill="black"/>
</svg>
