<svg width="52" height="52" viewBox="0 0 52 52" fill="none" xmlns="http://www.w3.org/2000/svg">
<rect width="52" height="52" rx="8" fill="white"/>
<g clip-path="url(#clip0_32072_4388)">
<path d="M31.1823 16.1824C31.2403 16.1242 31.3093 16.078 31.3852 16.0465C31.4611 16.015 31.5425 15.9988 31.6248 15.9988C31.707 15.9988 31.7884 16.015 31.8643 16.0465C31.9402 16.078 32.0092 16.1242 32.0673 16.1824L35.8173 19.9324C35.8755 19.9905 35.9216 20.0594 35.9531 20.1354C35.9847 20.2113 36.0009 20.2927 36.0009 20.3749C36.0009 20.4571 35.9847 20.5385 35.9531 20.6144C35.9216 20.6904 35.8755 20.7593 35.8173 20.8174L23.3173 33.3174C23.2573 33.377 23.1858 33.4237 23.1073 33.4549L16.8573 35.9549C16.7437 36.0004 16.6193 36.0115 16.4994 35.9869C16.3796 35.9623 16.2696 35.9031 16.1831 35.8166C16.0966 35.7301 16.0373 35.6201 16.0127 35.5002C15.9882 35.3804 15.9993 35.256 16.0448 35.1424L18.5448 28.8924C18.5759 28.8138 18.6227 28.7424 18.6823 28.6824L31.1823 16.1824ZM30.0085 19.1249L32.8748 21.9911L34.491 20.3749L31.6248 17.5086L30.0085 19.1249ZM31.991 22.8749L29.1248 20.0086L20.9998 28.1336V28.4999H21.6248C21.7905 28.4999 21.9495 28.5657 22.0667 28.683C22.1839 28.8002 22.2498 28.9591 22.2498 29.1249V29.7499H22.8748C23.0405 29.7499 23.1995 29.8157 23.3167 29.933C23.4339 30.0502 23.4998 30.2091 23.4998 30.3749V30.9999H23.866L31.991 22.8749ZM19.7898 29.3436L19.6573 29.4761L17.7473 34.2524L22.5235 32.3424L22.656 32.2099C22.5368 32.1653 22.434 32.0855 22.3614 31.9809C22.2888 31.8764 22.2499 31.7522 22.2498 31.6249V30.9999H21.6248C21.459 30.9999 21.3 30.934 21.1828 30.8168C21.0656 30.6996 20.9998 30.5407 20.9998 30.3749V29.7499H20.3748C20.2475 29.7498 20.1233 29.7108 20.0187 29.6383C19.9142 29.5657 19.8343 29.4629 19.7898 29.3436Z" fill="#409EFF"/>
</g>
<defs>
<clipPath id="clip0_32072_4388">
<rect width="20" height="20" fill="white" transform="translate(16 16)"/>
</clipPath>
</defs>
</svg>
