<svg width="20" height="20" viewBox="0 0 20 20" fill="none" xmlns="http://www.w3.org/2000/svg">
<g id="Pencil" clip-path="url(#clip0_12775_129207)">
<path id="Vector" d="M15.1823 0.182397C15.2403 0.124192 15.3093 0.0780139 15.3852 0.0465059C15.4611 0.0149978 15.5425 -0.0012207 15.6248 -0.0012207C15.707 -0.0012207 15.7884 0.0149978 15.8643 0.0465059C15.9402 0.0780139 16.0092 0.124192 16.0673 0.182397L19.8173 3.9324C19.8755 3.99045 19.9216 4.05942 19.9531 4.13535C19.9847 4.21129 20.0009 4.29269 20.0009 4.3749C20.0009 4.45711 19.9847 4.53851 19.9531 4.61444C19.9216 4.69037 19.8755 4.75934 19.8173 4.8174L7.31726 17.3174C7.25728 17.377 7.18583 17.4237 7.10726 17.4549L0.857258 19.9549C0.743678 20.0004 0.619252 20.0115 0.499407 19.9869C0.379562 19.9623 0.269567 19.9031 0.183058 19.8166C0.0965504 19.7301 0.0373335 19.6201 0.0127492 19.5002C-0.0118351 19.3804 -0.000705742 19.256 0.0447576 19.1424L2.54476 12.8924C2.57592 12.8138 2.62269 12.7424 2.68226 12.6824L15.1823 0.182397ZM14.0085 3.1249L16.8748 5.99115L18.491 4.3749L15.6248 1.50865L14.0085 3.1249ZM15.991 6.8749L13.1248 4.00865L4.99976 12.1336V12.4999H5.62476C5.79052 12.4999 5.94949 12.5657 6.0667 12.683C6.18391 12.8002 6.24976 12.9591 6.24976 13.1249V13.7499H6.87476C7.04052 13.7499 7.19949 13.8157 7.3167 13.933C7.43391 14.0502 7.49976 14.2091 7.49976 14.3749V14.9999H7.86601L15.991 6.8749ZM3.78976 13.3436L3.65726 13.4761L1.74726 18.2524L6.52351 16.3424L6.65601 16.2099C6.53678 16.1653 6.434 16.0855 6.3614 15.9809C6.2888 15.8764 6.24985 15.7522 6.24976 15.6249V14.9999H5.62476C5.459 14.9999 5.30003 14.934 5.18282 14.8168C5.06561 14.6996 4.99976 14.5407 4.99976 14.3749V13.7499H4.37476C4.24748 13.7498 4.12327 13.7108 4.01873 13.6383C3.91419 13.5657 3.8343 13.4629 3.78976 13.3436Z" fill="#777777"/>
</g>
<defs>
<clipPath id="clip0_12775_129207">
<rect width="20" height="20" fill="white"/>
</clipPath>
</defs>
</svg>
