<svg width="7" height="14" viewBox="0 0 7 14" fill="none" xmlns="http://www.w3.org/2000/svg">
<path fill-rule="evenodd" clip-rule="evenodd" d="M6.85408 0.645978C6.90065 0.692424 6.93759 0.7476 6.9628 0.808345C6.988 0.86909 7.00098 0.934211 7.00098 0.999978C7.00098 1.06575 6.988 1.13087 6.9628 1.19161C6.93759 1.25236 6.90065 1.30753 6.85408 1.35398L1.20708 6.99998L6.85408 12.646C6.90057 12.6925 6.93745 12.7477 6.96261 12.8084C6.98776 12.8691 7.00071 12.9342 7.00071 13C7.00071 13.0657 6.98776 13.1308 6.96261 13.1916C6.93745 13.2523 6.90057 13.3075 6.85408 13.354C6.80759 13.4005 6.75241 13.4373 6.69167 13.4625C6.63093 13.4877 6.56583 13.5006 6.50008 13.5006C6.43434 13.5006 6.36924 13.4877 6.3085 13.4625C6.24776 13.4373 6.19257 13.4005 6.14608 13.354L0.146083 7.35398C0.0995199 7.30753 0.0625774 7.25236 0.0373709 7.19161C0.0121643 7.13087 -0.000810433 7.06574 -0.00081043 6.99998C-0.000810428 6.93421 0.0121643 6.86909 0.0373709 6.80834C0.0625775 6.7476 0.0995199 6.69242 0.146083 6.64598L6.14608 0.645978C6.19253 0.599415 6.2477 0.562472 6.30845 0.537266C6.36919 0.512059 6.43432 0.499084 6.50008 0.499084C6.56585 0.499084 6.63097 0.512059 6.69172 0.537266C6.75246 0.562472 6.80764 0.599415 6.85408 0.645978Z" fill="black"/>
</svg>
