<svg width="25" height="24" viewBox="0 0 25 24" fill="none" xmlns="http://www.w3.org/2000/svg">
<g id="Trash">
<path id="Vector" d="M8.75 8.25C8.94891 8.25 9.13968 8.32902 9.28033 8.46967C9.42098 8.61032 9.5 8.80109 9.5 9V18C9.5 18.1989 9.42098 18.3897 9.28033 18.5303C9.13968 18.671 8.94891 18.75 8.75 18.75C8.55109 18.75 8.36032 18.671 8.21967 18.5303C8.07902 18.3897 8 18.1989 8 18V9C8 8.80109 8.07902 8.61032 8.21967 8.46967C8.36032 8.32902 8.55109 8.25 8.75 8.25ZM12.5 8.25C12.6989 8.25 12.8897 8.32902 13.0303 8.46967C13.171 8.61032 13.25 8.80109 13.25 9V18C13.25 18.1989 13.171 18.3897 13.0303 18.5303C12.8897 18.671 12.6989 18.75 12.5 18.75C12.3011 18.75 12.1103 18.671 11.9697 18.5303C11.829 18.3897 11.75 18.1989 11.75 18V9C11.75 8.80109 11.829 8.61032 11.9697 8.46967C12.1103 8.32902 12.3011 8.25 12.5 8.25ZM17 9C17 8.80109 16.921 8.61032 16.7803 8.46967C16.6397 8.32902 16.4489 8.25 16.25 8.25C16.0511 8.25 15.8603 8.32902 15.7197 8.46967C15.579 8.61032 15.5 8.80109 15.5 9V18C15.5 18.1989 15.579 18.3897 15.7197 18.5303C15.8603 18.671 16.0511 18.75 16.25 18.75C16.4489 18.75 16.6397 18.671 16.7803 18.5303C16.921 18.3897 17 18.1989 17 18V9Z" fill="#FF0000"/>
<path id="Vector_2" fill-rule="evenodd" clip-rule="evenodd" d="M22.25 4.5C22.25 4.89782 22.092 5.27936 21.8107 5.56066C21.5294 5.84196 21.1478 6 20.75 6H20V19.5C20 20.2956 19.6839 21.0587 19.1213 21.6213C18.5587 22.1839 17.7956 22.5 17 22.5H8C7.20435 22.5 6.44129 22.1839 5.87868 21.6213C5.31607 21.0587 5 20.2956 5 19.5V6H4.25C3.85218 6 3.47064 5.84196 3.18934 5.56066C2.90804 5.27936 2.75 4.89782 2.75 4.5V3C2.75 2.60218 2.90804 2.22064 3.18934 1.93934C3.47064 1.65804 3.85218 1.5 4.25 1.5H9.5C9.5 1.10218 9.65804 0.720644 9.93934 0.43934C10.2206 0.158035 10.6022 0 11 0L14 0C14.3978 0 14.7794 0.158035 15.0607 0.43934C15.342 0.720644 15.5 1.10218 15.5 1.5H20.75C21.1478 1.5 21.5294 1.65804 21.8107 1.93934C22.092 2.22064 22.25 2.60218 22.25 3V4.5ZM6.677 6L6.5 6.0885V19.5C6.5 19.8978 6.65804 20.2794 6.93934 20.5607C7.22064 20.842 7.60218 21 8 21H17C17.3978 21 17.7794 20.842 18.0607 20.5607C18.342 20.2794 18.5 19.8978 18.5 19.5V6.0885L18.323 6H6.677ZM4.25 4.5V3H20.75V4.5H4.25Z" fill="#FF0000"/>
</g>
</svg>
