<svg width="24" height="24" viewBox="0 0 24 24" fill="none" xmlns="http://www.w3.org/2000/svg">
<path fill-rule="evenodd" clip-rule="evenodd" d="M12.0001 4.5C13.621 4.50062 15.1982 5.02639 16.4953 5.99856C17.7923 6.97072 18.7396 8.33696 19.195 9.89262C19.6505 11.4483 19.5897 13.1096 19.0217 14.6278C18.4538 16.1461 17.4092 17.4394 16.0446 18.3142C14.6799 19.1889 13.0686 19.598 11.4519 19.4801C9.8352 19.3623 8.30022 18.7238 7.07684 17.6604C5.85346 16.597 5.00754 15.1658 4.66578 13.5813C4.32401 11.9968 4.5048 10.3442 5.18107 8.871C5.25468 8.69189 5.25616 8.49126 5.1852 8.31108C5.11424 8.13091 4.97635 7.98516 4.80038 7.90435C4.6244 7.82353 4.42399 7.81391 4.24109 7.8775C4.05818 7.94109 3.90696 8.07295 3.81907 8.2455C3.00759 10.0134 2.79072 11.9966 3.20097 13.8981C3.61121 15.7996 4.62648 17.5169 6.09469 18.793C7.56289 20.069 9.40501 20.835 11.3451 20.9762C13.2852 21.1175 15.2188 20.6263 16.8564 19.5764C18.4939 18.5264 19.7472 16.9742 20.4285 15.1522C21.1098 13.3301 21.1824 11.3364 20.6355 9.46967C20.0886 7.6029 18.9516 5.96357 17.3948 4.79723C15.8381 3.63089 13.9453 3.00033 12.0001 3V4.5Z" fill="#999999"/>
<path d="M11.9998 6.69901V0.801007C11.9998 0.729752 11.9794 0.659979 11.9412 0.599859C11.9029 0.539739 11.8484 0.49176 11.7838 0.461541C11.7193 0.431322 11.6475 0.420114 11.5768 0.429228C11.5062 0.438343 11.4395 0.467404 11.3848 0.513007L7.84479 3.46201C7.80259 3.4972 7.76864 3.54124 7.74534 3.59101C7.72204 3.64078 7.70996 3.69506 7.70996 3.75001C7.70996 3.80496 7.72204 3.85924 7.74534 3.90901C7.76864 3.95877 7.80259 4.00281 7.84479 4.03801L11.3848 6.98701C11.4395 7.03261 11.5062 7.06167 11.5768 7.07079C11.6475 7.0799 11.7193 7.06869 11.7838 7.03847C11.8484 7.00825 11.9029 6.96028 11.9412 6.90016C11.9794 6.84004 11.9998 6.77026 11.9998 6.69901Z" fill="#999999"/>
</svg>
