<svg width="20" height="21" viewBox="0 0 20 21" fill="none" xmlns="http://www.w3.org/2000/svg">
<g id="Upload">
<path id="Vector" d="M0.625 12.875C0.79076 12.875 0.949732 12.9408 1.06694 13.0581C1.18415 13.1753 1.25 13.3342 1.25 13.5V16.625C1.25 16.9565 1.3817 17.2745 1.61612 17.5089C1.85054 17.7433 2.16848 17.875 2.5 17.875H17.5C17.8315 17.875 18.1495 17.7433 18.3839 17.5089C18.6183 17.2745 18.75 16.9565 18.75 16.625V13.5C18.75 13.3342 18.8158 13.1753 18.9331 13.0581C19.0503 12.9408 19.2092 12.875 19.375 12.875C19.5408 12.875 19.6997 12.9408 19.8169 13.0581C19.9342 13.1753 20 13.3342 20 13.5V16.625C20 17.288 19.7366 17.9239 19.2678 18.3928C18.7989 18.8616 18.163 19.125 17.5 19.125H2.5C1.83696 19.125 1.20107 18.8616 0.732233 18.3928C0.263392 17.9239 0 17.288 0 16.625V13.5C0 13.3342 0.065848 13.1753 0.183058 13.0581C0.300269 12.9408 0.45924 12.875 0.625 12.875Z" fill="#777777"/>
<path id="Vector_2" d="M9.55829 1.93252C9.61635 1.87431 9.68532 1.82814 9.76125 1.79663C9.83718 1.76512 9.91858 1.7489 10.0008 1.7489C10.083 1.7489 10.1644 1.76512 10.2403 1.79663C10.3163 1.82814 10.3852 1.87431 10.4433 1.93252L14.1933 5.68252C14.3106 5.79988 14.3766 5.95905 14.3766 6.12502C14.3766 6.29099 14.3106 6.45016 14.1933 6.56752C14.0759 6.68488 13.9168 6.75081 13.7508 6.75081C13.5848 6.75081 13.4256 6.68488 13.3083 6.56752L10.6258 3.88377V14.875C10.6258 15.0408 10.5599 15.1997 10.4427 15.317C10.3255 15.4342 10.1666 15.5 10.0008 15.5C9.83503 15.5 9.67606 15.4342 9.55885 15.317C9.44164 15.1997 9.37579 15.0408 9.37579 14.875V3.88377L6.69329 6.56752C6.63518 6.62563 6.56619 6.67172 6.49027 6.70317C6.41435 6.73462 6.33297 6.75081 6.25079 6.75081C6.16861 6.75081 6.08723 6.73462 6.01131 6.70317C5.93539 6.67172 5.8664 6.62563 5.80829 6.56752C5.75018 6.50941 5.70408 6.44042 5.67264 6.3645C5.64119 6.28857 5.625 6.2072 5.625 6.12502C5.625 6.04284 5.64119 5.96146 5.67264 5.88554C5.70408 5.80961 5.75018 5.74063 5.80829 5.68252L9.55829 1.93252Z" fill="#777777"/>
</g>
</svg>
