<svg xmlns="http://www.w3.org/2000/svg" width="64" height="64" viewBox="0 0 64 64">
    <g data-name="Group 2762" transform="translate(-1480 -1424)">
        <circle data-name="Ellipse 319" cx="32" cy="32" r="32" transform="translate(1480 1424)" style="fill:#fff"/>
        <path data-name="Path 374" d="M120.067 307.947a3.381 3.381 0 0 0-2.638-.24l-8.394 2.638a2.383 2.383 0 0 0-.911-.624l-6.331-2.542a8.86 8.86 0 0 0-5.564-.336L91.864 308v-.671a.984.984 0 0 0-1.007-1.007h-5.852A1.013 1.013 0 0 0 84 307.324v12.9a.984.984 0 0 0 1.007 1.007h5.8a1.013 1.013 0 0 0 1.007-1.007v-.816l13.334 2.3a5.886 5.886 0 0 0 1.3.1 7.463 7.463 0 0 0 4.317-1.391l9.593-6.811a3.306 3.306 0 0 0 1.3-3.6 3.579 3.579 0 0 0-1.583-2.063zM89.8 319.219h-3.787v-10.888H89.8zm29.4-7.243-9.593 6.811a5.366 5.366 0 0 1-4.077.911l-13.67-2.35v-7.242l4.892-1.3a6.534 6.534 0 0 1 4.269.288l6.331 2.542c.192.048.288.192.384.384a.983.983 0 0 1 0 .528.715.715 0 0 1-.719.432l-7.483-1.247a1.017 1.017 0 0 0-.288 2.014l7.434 1.2c.144 0 .288.048.432.048a2.692 2.692 0 0 0 2.494-1.679 2.063 2.063 0 0 0 .192-1.055l8.2-2.59a1.226 1.226 0 0 1 1.007.1 1.315 1.315 0 0 1 .624.815 1.206 1.206 0 0 1-.432 1.391z" transform="translate(1405.219 1150.726)" style="fill:#0db02b;stroke:#0db02b;stroke-width:.5px"/>
        <path data-name="Path 376" d="M274.168 93.618a10.459 10.459 0 0 0 10.024-7.578h-2.158a8.379 8.379 0 1 1-7.866-11.223 8.31 8.31 0 0 1 7.866 5.564h2.158a10.412 10.412 0 1 0-10.024 13.238z" transform="translate(1240.853 1364.24)" style="fill:#0db02b;stroke:#0db02b;stroke-width:.5px"/>
        <path data-name="Path 377" d="m473.363 145.47-3.5-3.5a1.018 1.018 0 0 0-1.439 1.439l1.775 1.775h-8.873a1.013 1.013 0 0 0-1.007 1.007.984.984 0 0 0 1.007 1.007h8.874l-1.775 1.775a1.043 1.043 0 0 0 0 1.439 1.043 1.043 0 0 0 1.439 0l3.5-3.5a1.043 1.043 0 0 0 0-1.439z" transform="translate(1061.131 1301.261)" style="fill:#0db02b;stroke:#0db02b;stroke-width:.5px"/>
        <text data-name="₹" transform="translate(1511 1453)" style="font-size:15px;font-family:HelveticaNeue-Medium,Helvetica Neue;font-weight:500;fill:#0db02b;stroke:#0db02b;stroke-width:.5px"><tspan x="0" y="0">₹</tspan></text>
    </g>
</svg>
