<svg xmlns="http://www.w3.org/2000/svg" width="64" height="64" viewBox="0 0 64 64">
    <g data-name="Group 2718" transform="translate(-1480 -1424)">
        <circle data-name="Ellipse 319" cx="32" cy="32" r="32" transform="translate(1480 1424)" style="fill:#fff"/>
        <path data-name="Union 54" d="M-6093.153 4496.193a.944.944 0 0 1-.878-.994v-2.469a.944.944 0 0 1 .878-.994h13.05a.944.944 0 0 1 .875.994v2.469a.944.944 0 0 1-.875.994zm14.847-3.563v-3.935a12.677 12.677 0 0 0 6.044 1.522 12.691 12.691 0 0 0 9.006-3.729 12.7 12.7 0 0 0 3.73-9 12.7 12.7 0 0 0-3.73-9.006 12.742 12.742 0 0 0-4.85-3.036l.107 2.58-7.483-4.648 7.074-5.255.145 3.554a16.288 16.288 0 0 1 7.529 4.281 16.252 16.252 0 0 1 4.776 11.53 16.245 16.245 0 0 1-4.776 11.527 16.244 16.244 0 0 1-11.528 4.776 16.261 16.261 0 0 1-6.044-1.161zm-14.847-2.06a.943.943 0 0 1-.878-.993v-2.468a.944.944 0 0 1 .878-.994h13.05a.943.943 0 0 1 .875.994v2.468a.942.942 0 0 1-.875.993zm22.863-5.583-3.716-4.934a11.43 11.43 0 0 0-.978-1.187 1.239 1.239 0 0 0-.913-.367v-1.534h1.239a4.117 4.117 0 0 0 1.88-.388 2.094 2.094 0 0 0 1.06-1.25h-4.556l.63-1.785h3.969a1.786 1.786 0 0 0-.682-1.049 2.522 2.522 0 0 0-1.4-.421h-2.52l.63-1.785h9.219l-.63 1.785h-2.689a3.723 3.723 0 0 1 .483 1.47h2.835l-.63 1.785h-2.268a3.571 3.571 0 0 1-1.26 1.985 5.857 5.857 0 0 1-2.079 1.06l5.018 6.615zm-22.863-.039a.944.944 0 0 1-.878-.994v-2.468a.944.944 0 0 1 .878-.994h13.05a.944.944 0 0 1 .875.994v2.468a.944.944 0 0 1-.875.994zm0-5.624a.943.943 0 0 1-.878-.994v-2.468a.944.944 0 0 1 .878-.994h13.05a.944.944 0 0 1 .875.994v2.468a.943.943 0 0 1-.875.994zm0-5.622a.944.944 0 0 1-.878-.994v-2.468a.944.944 0 0 1 .878-.994h13.05a.944.944 0 0 1 .875.994v2.468a.943.943 0 0 1-.875.994zm4.531-5.761v-2.672h-2.964l4.957-7.283 4.957 7.283h-2.965v2.672z" transform="translate(7588.031 -3020.986)" style="fill:#0db02b"/>
        <g data-name="Group 2622">
            <path data-name="Path 335" d="M.023-.132H.017h.006z" transform="translate(1493.985 1475.377)" style="fill:#0db02b"/>
        </g>
        <g data-name="Group 2623">
            <path data-name="Path 336" d="M.021-.107v-.002z" transform="translate(1493.994 1475.347)" style="fill:#0db02b"/>
        </g>
        <g data-name="Group 2624">
            <path data-name="Path 337" d="M.022-.105H.016v-.003h.005a.006.006 0 0 1 .001.003zm0 0z" transform="translate(1494.001 1475.347)" style="fill:#0db02b"/>
        </g>
        <g data-name="Group 2625">
            <path data-name="Path 338" d="M.019-.105zm0 0H.016h.005z" transform="translate(1494.009 1475.347)" style="fill:#0db02b"/>
        </g>
        <g data-name="Group 2626">
            <path data-name="Path 339" d="M0-.125v.003z" transform="translate(1494.033 1475.362)" style="fill:#0db02b"/>
        </g>
        <g data-name="Group 2627">
            <path data-name="Path 340" d="M.022-.105H.016v-.003h.005a.006.006 0 0 1 .001.003zm0 0z" transform="translate(1494.024 1475.347)" style="fill:#0db02b"/>
        </g>
        <g data-name="Group 2628">
            <path data-name="Path 341" d="M.02-.137v.01H.016v-.01zm0 .005z" transform="translate(1494.032 1475.377)" style="fill:#0db02b"/>
        </g>
        <g data-name="Group 2629">
            <path data-name="Path 342" d="M.019-.132zm0-.005H.016v-.01z" transform="translate(1494.046 1475.377)" style="fill:#0db02b"/>
        </g>
        <g data-name="Group 2630">
            <path data-name="Path 343" d="M0-.109V-.1v-.009.009z" transform="translate(1494.07 1475.347)" style="fill:#0db02b"/>
        </g>
        <g data-name="Group 2631">
            <path data-name="Path 344" d="M.018-.1v-.01h.004zm0 0z" transform="translate(1494.068 1475.347)" style="fill:#0db02b"/>
        </g>
        <g data-name="Group 2632">
            <path data-name="Path 345" d="M.019-.107zm0 0H.016v-.001z" transform="translate(1494.077 1475.347)" style="fill:#0db02b"/>
        </g>
        <g data-name="Group 2633">
            <path data-name="Path 346" d="M.018-.1v-.01h.004zm0 0z" transform="translate(1494.086 1475.347)" style="fill:#0db02b"/>
        </g>
        <g data-name="Group 2634">
            <path data-name="Path 347" d="M.021-.108H.016h.005z" transform="translate(1494.095 1475.347)" style="fill:#0db02b"/>
        </g>
        <g data-name="Group 2635">
            <path data-name="Path 348" d="M.019-.107zm0 0H.016v-.001z" transform="translate(1494.102 1475.347)" style="fill:#0db02b"/>
        </g>
        <g data-name="Group 2636">
            <path data-name="Path 349" d="M.021-.107v-.002z" transform="translate(1494.111 1475.347)" style="fill:#0db02b"/>
        </g>
        <g data-name="Group 2637">
            <path data-name="Path 350" d="M.023-.106v-.003H.022z" transform="translate(1494.117 1475.347)" style="fill:#0db02b"/>
        </g>
        <g data-name="Group 2638">
            <path data-name="Path 351" d="M.019-.105zm0 0H.016h.005z" transform="translate(1494.126 1475.347)" style="fill:#0db02b"/>
        </g>
        <g data-name="Group 2639">
            <path data-name="Path 352" d="M.021-.107v-.002z" transform="translate(1494.135 1475.347)" style="fill:#0db02b"/>
        </g>
        <g data-name="Group 2640">
            <path data-name="Path 353" d="M0-.125v.003z" transform="translate(1494.156 1475.362)" style="fill:#0db02b"/>
        </g>
        <g data-name="Group 2641">
            <path data-name="Path 354" d="M.021-.108H.016h.005z" transform="translate(1494.147 1475.347)" style="fill:#0db02b"/>
        </g>
        <g data-name="Group 2642">
            <path data-name="Path 355" d="M.005-.141H0v.005z" transform="translate(1494 1475.39)" style="fill:#0db02b"/>
        </g>
        <g data-name="Group 2643">
            <path data-name="Path 356" d="M.021-.107v-.002z" transform="translate(1493.99 1475.36)" style="fill:#0db02b"/>
        </g>
        <g data-name="Group 2644">
            <path data-name="Path 357" d="M.019-.107zm0 0H.016v-.001z" transform="translate(1493.997 1475.36)" style="fill:#0db02b"/>
        </g>
        <g data-name="Group 2645">
            <path data-name="Path 358" d="M.022-.107V-.1v-.009z" transform="translate(1494.005 1475.36)" style="fill:#0db02b"/>
        </g>
        <g data-name="Group 2646">
            <path data-name="Path 359" d="M0-.125v.003z" transform="translate(1494.038 1475.375)" style="fill:#0db02b"/>
        </g>
        <g data-name="Group 2647">
            <path data-name="Path 360" d="M.023-.135v-.01z" transform="translate(1494.029 1475.39)" style="fill:#0db02b"/>
        </g>
        <g data-name="Group 2648">
            <path data-name="Path 361" d="M.022-.105H.016v-.003h.005a.006.006 0 0 1 .001.003zm0 0z" transform="translate(1494.038 1475.36)" style="fill:#0db02b"/>
        </g>
        <g data-name="Group 2649">
            <path data-name="Path 362" d="M.016-.141v.006-.006.01-.006.006z" transform="translate(1494.051 1475.39)" style="fill:#0db02b"/>
        </g>
        <g data-name="Group 2650">
            <path data-name="Path 363" d="M.019-.107zm0 0H.016v-.001z" transform="translate(1494.062 1475.36)" style="fill:#0db02b"/>
        </g>
        <g data-name="Group 2651">
            <path data-name="Path 364" d="M.016-.105v-.004.009z" transform="translate(1494.071 1475.36)" style="fill:#0db02b"/>
        </g>
        <g data-name="Group 2652">
            <path data-name="Path 365" d="M.023-.106v-.003H.022z" transform="translate(1494.08 1475.36)" style="fill:#0db02b"/>
        </g>
        <g data-name="Group 2653">
            <path data-name="Path 366" d="M.016-.141h.006zm0 0z" transform="translate(1494.093 1475.39)" style="fill:#0db02b"/>
        </g>
        <g data-name="Group 2654">
            <path data-name="Path 367" d="M.021-.107v-.002z" transform="translate(1494.102 1475.36)" style="fill:#0db02b"/>
        </g>
        <g data-name="Group 2655">
            <path data-name="Path 368" d="M.019-.107zm0 0H.016v-.001z" transform="translate(1494.109 1475.36)" style="fill:#0db02b"/>
        </g>
        <g data-name="Group 2656">
            <path data-name="Path 369" d="M0-.138v.01zm0 0z" transform="translate(1494.132 1475.39)" style="fill:#0db02b"/>
        </g>
        <g data-name="Group 2657">
            <path data-name="Path 370" d="M.022-.105H.016v-.003h.005a.006.006 0 0 1 .001.003zm0 0z" transform="translate(1494.122 1475.36)" style="fill:#0db02b"/>
        </g>
        <g data-name="Group 2658">
            <path data-name="Path 371" d="M.021-.108H.016h.005z" transform="translate(1494.13 1475.36)" style="fill:#0db02b"/>
        </g>
        <g data-name="Group 2659">
            <path data-name="Path 372" d="M0-.125v.003z" transform="translate(1494.153 1475.375)" style="fill:#0db02b"/>
        </g>
    </g>
</svg>
