<svg xmlns="http://www.w3.org/2000/svg" width="64" height="64" viewBox="0 0 64 64">
    <g data-name="Group 2853" transform="translate(-1105 -1423.982)">
        <circle data-name="Ellipse 320" cx="32" cy="32" r="32" transform="translate(1105 1423.982)" style="fill:#fff"/>
        <g data-name="Group 2850">
            <path data-name="cloud (2)" d="M12.392 5.774A15.553 15.553 0 0 1 22.5 2a14.446 14.446 0 0 1 14.529 12.878 9.064 9.064 0 0 1-1.347 18.059H10.634A10.5 10.5 0 0 1 0 22.582a10.426 10.426 0 0 1 8.274-10.105 11.828 11.828 0 0 1 4.118-6.703zM14.228 7.9c-2.129 1.837-3.243 4.05-3.243 5.782v1.26l-1.252.138a7.648 7.648 0 0 0-6.922 7.5 7.685 7.685 0 0 0 7.822 7.543h25.049a6.387 6.387 0 0 0 6.505-6.263 6.388 6.388 0 0 0-6.505-6.26h-1.406v-1.411A11.577 11.577 0 0 0 22.5 4.812a12.741 12.741 0 0 0-8.272 3.094z" transform="translate(1114.999 1438.982)" style="fill:#0db02b"/>
            <path data-name="lightning-charge-fill (1)" d="M10.814.065a.475.475 0 0 1 .216.551l-1.711 5.56h3.157a.475.475 0 0 1 .346.8l-7.6 8.076a.475.475 0 0 1-.8-.466l1.71-5.56H2.975a.475.475 0 0 1-.346-.8L10.23.149a.475.475 0 0 1 .584-.086z" transform="translate(1128.701 1451.279)" style="fill:#0db02b"/>
        </g>
    </g>
</svg>
