<svg xmlns="http://www.w3.org/2000/svg" width="88" height="88" viewBox="0 0 88 88">
    <g data-name="Group 2775" transform="translate(-392 -1424)">
        <circle data-name="Ellipse 316" cx="44" cy="44" r="44" transform="translate(392 1424)" style="fill:#0db02b"/>
        <path d="M23.066.731a1.642 1.642 0 0 0-2.732 0l-9.85 14.775a1.642 1.642 0 0 0 1.366 2.551h.322L5.533 28.679a1.642 1.642 0 0 0 1.392 2.512h.627L2.174 41.947a1.642 1.642 0 0 0 1.468 2.377h14.775v8.208h6.567v-8.208h14.775a1.642 1.642 0 0 0 1.468-2.377l-5.376-10.756h.627a1.642 1.642 0 0 0 1.392-2.512l-6.642-10.621h.322a1.642 1.642 0 0 0 1.366-2.551L23.066.731zm-6.5 14.89a1.642 1.642 0 0 0-1.435-.847h-.217L21.7 4.6l6.783 10.175h-.217a1.642 1.642 0 0 0-1.392 2.512l6.639 10.622h-.322a1.642 1.642 0 0 0-1.468 2.377L37.1 41.041H6.3l5.378-10.756a1.642 1.642 0 0 0-1.468-2.377h-.323l6.639-10.622a1.642 1.642 0 0 0 .043-1.665z" transform="translate(414.3 1441.734)" style="fill:#fff"/>
    </g>
</svg>
