<svg xmlns="http://www.w3.org/2000/svg" width="64" height="64" viewBox="0 0 64 64">
    <g data-name="Group 2786" transform="translate(-392 -1424)">
        <circle data-name="Ellipse 316" cx="32" cy="32" r="32" transform="translate(392 1424)" style="fill:#0db02b"/>
        <g data-name="Group 2618">
            <path data-name="Rectangle 2409" transform="translate(400 1434)" style="fill:none" d="M0 0h48v48H0z"/>
            <g data-name="Group 5">
                <path data-name="Path 47" d="m107.875 253.826-2.286 24.783H141.9l-2.438-24.783z" transform="translate(301.007 1186.952)" style="stroke-linecap:round;stroke:#fff;stroke-width:2.5px;fill:none"/>
                <path data-name="Path 48" d="m111.578 253.969-.185 13.882-.144 10.8" transform="translate(308.474 1187.109)" style="stroke:#fff;stroke-width:2.5px;fill:none"/>
                <path data-name="Path 49" d="m111.25 253.969.185 13.882.144 10.8" transform="translate(318.976 1187.109)" style="stroke:#fff;stroke-width:2.5px;fill:none"/>
                <path data-name="Path 50" d="m0 0 .185 18.848.144 14.66" transform="rotate(-90 932.666 525.118)" style="stroke:#fff;stroke-width:2.5px;fill:none"/>
                <path data-name="Path 51" d="m0 0 .185 18.848.144 14.66" transform="rotate(-90 928.71 521.163)" style="stroke:#fff;stroke-width:2.5px;fill:none"/>
                <path data-name="Rectangle 856" transform="translate(420.249 1470.549)" style="fill:#fff" d="M0 0h8.402v4.201H0z"/>
                <path data-name="Rectangle 857" transform="translate(422.874 1466.348)" style="fill:#fff" d="M0 0h3.151v6.301H0z"/>
            </g>
        </g>
    </g>
</svg>
