<svg xmlns="http://www.w3.org/2000/svg" width="64" height="64" viewBox="0 0 64 64">
    <g data-name="Group 2776" transform="translate(-752 -1424)">
        <circle data-name="Ellipse 317" cx="32" cy="32" r="32" transform="translate(752 1424)" style="fill:#0db02b"/>
        <g data-name="Group 2799">
            <path data-name="Path 447" d="M435.166 407.93a.66.66 0 0 1-.659-.659V405.9a.659.659 0 1 1 1.319 0v1.374a.66.66 0 0 1-.66.656z" transform="translate(358.49 1060.395)" style="fill:#fff"/>
            <path data-name="Path 448" d="M435.166 293.49a.66.66 0 0 1-.659-.659v-1.374a.659.659 0 0 1 1.319 0v1.374a.66.66 0 0 1-.66.659z" transform="translate(358.49 1165.635)" style="fill:#fff"/>
            <path data-name="Path 449" d="M404.607 317.023H403.2a2.5 2.5 0 0 1-2.529-2.463.659.659 0 1 1 1.319 0 1.18 1.18 0 0 0 1.21 1.144h1.411a1.336 1.336 0 0 0 1.369-1.3 1.257 1.257 0 0 0-.393-.909 1.4 1.4 0 0 0-.976-.388H403.2a2.655 2.655 0 0 1-2.688-2.616 2.564 2.564 0 0 1 .8-1.858 2.708 2.708 0 0 1 1.892-.758h1.411a2.5 2.5 0 0 1 2.529 2.463.659.659 0 0 1-1.319 0 1.18 1.18 0 0 0-1.21-1.144H403.2a1.4 1.4 0 0 0-.976.388 1.257 1.257 0 0 0-.393.909 1.335 1.335 0 0 0 1.369 1.3h1.411a2.71 2.71 0 0 1 1.892.758 2.566 2.566 0 0 1 .8 1.858 2.655 2.655 0 0 1-2.688 2.616z" transform="translate(389.754 1149.929)" style="fill:#fff"/>
            <path data-name="Path 450" d="M160.67 107.1h-22.2a2.456 2.456 0 0 1-2.453-2.453V76.421a2.456 2.456 0 0 1 2.453-2.453h20.409a2.456 2.456 0 0 1 2.453 2.453v11.836a.66.66 0 0 1-.659.659 8.436 8.436 0 0 0-4.035 1.026c-.1.053-.184.1-.267.152a8.443 8.443 0 0 0-1.08.763l-.019.015a8.432 8.432 0 0 0 5.4 14.9.659.659 0 1 1 0 1.318zm-22.2-31.81a1.135 1.135 0 0 0-1.134 1.134v28.222a1.135 1.135 0 0 0 1.134 1.134h17.3a9.8 9.8 0 0 1-1.989-1.537 9.751 9.751 0 0 1 .657-14.389l.011-.009h.005a9.819 9.819 0 0 1 1.244-.878c.1-.058.2-.116.311-.177a9.75 9.75 0 0 1 4.007-1.165v-11.2a1.135 1.135 0 0 0-1.134-1.134zm16.01 14.532zm0 0z" transform="translate(632.986 1365.032)" style="fill:#fff"/>
            <path data-name="Path 451" d="M206.083 130.074h-15.3a.66.66 0 0 1-.659-.659v-5.627a.66.66 0 0 1 .659-.659h15.3a.66.66 0 0 1 .659.659v5.627a.66.66 0 0 1-.659.659zm-14.637-1.319h13.977v-4.308h-13.977z" transform="translate(583.223 1319.825)" style="fill:#fff"/>
            <path data-name="Path 452" d="M193.809 239.436h-3.029a.659.659 0 0 1-.659-.659v-2.746a.66.66 0 0 1 .659-.659h3.029a.66.66 0 0 1 .659.659v2.746a.66.66 0 0 1-.659.659zm-2.369-1.319h1.71v-1.427h-1.71z" transform="translate(583.228 1216.605)" style="fill:#fff"/>
            <path data-name="Path 453" d="M270.109 239.436h-3.029a.659.659 0 0 1-.659-.659v-2.746a.66.66 0 0 1 .659-.659h3.029a.66.66 0 0 1 .659.659v2.746a.66.66 0 0 1-.659.659zm-2.369-1.319h1.71v-1.427h-1.71z" transform="translate(513.062 1216.605)" style="fill:#fff"/>
            <path data-name="Path 454" d="M331.186 263a9.75 9.75 0 0 1-6.237-17.244l.009-.007.008-.007a9.817 9.817 0 0 1 1.243-.877c.1-.061.2-.119.311-.177a9.753 9.753 0 0 1 4.667-1.187h.145a9.742 9.742 0 0 1 9.605 9.748 9.867 9.867 0 0 1-.146 1.692 9.752 9.752 0 0 1-9.6 8.058zm-5.4-16.227a8.433 8.433 0 1 0 5.52-1.952h-.123a8.434 8.434 0 0 0-4.035 1.026c-.093.051-.18.1-.268.153a8.483 8.483 0 0 0-1.079.762l-.008.006-.007.006z" transform="translate(462.47 1209.124)" style="fill:#fff"/>
            <path data-name="Path 455" d="M344.96 239.436h-1.576a.659.659 0 0 1-.659-.659v-2.746a.66.66 0 0 1 .659-.659h3.028a.66.66 0 0 1 .659.659v1.76a.659.659 0 0 1-.344.579c-.1.053-.184.1-.266.152a8.44 8.44 0 0 0-1.08.763.66.66 0 0 1-.421.152zm-.916-1.319h.683a9.889 9.889 0 0 1 1.027-.709v-.718h-1.709z" transform="translate(442.893 1216.605)" style="fill:#fff"/>
            <path data-name="Path 456" d="M193.809 315.836h-3.029a.66.66 0 0 1-.659-.659v-2.746a.66.66 0 0 1 .659-.659h3.029a.66.66 0 0 1 .659.659v2.746a.66.66 0 0 1-.659.659zm-2.369-1.319h1.71v-1.427h-1.71z" transform="translate(583.228 1146.347)" style="fill:#fff"/>
            <path data-name="Path 457" d="M270.109 315.836h-3.029a.66.66 0 0 1-.659-.659v-2.746a.66.66 0 0 1 .659-.659h3.029a.66.66 0 0 1 .659.659v2.746a.66.66 0 0 1-.659.659zm-2.369-1.319h1.71v-1.427h-1.71z" transform="translate(513.062 1146.347)" style="fill:#fff"/>
            <path data-name="Path 458" d="M193.809 392.236h-3.029a.66.66 0 0 1-.659-.659v-2.746a.66.66 0 0 1 .659-.659h3.029a.66.66 0 0 1 .659.659v2.746a.66.66 0 0 1-.659.659zm-2.369-1.319h1.71v-1.427h-1.71z" transform="translate(583.228 1076.089)" style="fill:#fff"/>
            <path data-name="Path 459" d="M270.109 392.236h-3.029a.66.66 0 0 1-.659-.659v-2.746a.66.66 0 0 1 .659-.659h3.029a.66.66 0 0 1 .659.659v2.746a.66.66 0 0 1-.659.659zm-2.369-1.319h1.71v-1.427h-1.71z" transform="translate(513.062 1076.089)" style="fill:#fff"/>
        </g>
    </g>
</svg>
