<svg xmlns="http://www.w3.org/2000/svg" width="904" height="525" viewBox="0 0 904 525">
    <g data-name="Group 2814" transform="translate(0 -194.557)">
        <rect data-name="Rectangle 1805" width="904" height="525" rx="4" transform="translate(0 194.557)" style="fill:#f1f1f1"/>
        <path data-name="Rectangle 1774" transform="translate(97 662.557)" style="fill:#999" d="M0 0h781v1H0z"/>
        <path data-name="Rectangle 1777" transform="translate(137 505.557)" style="fill:#0db02b" d="M0 0h29v157H0z"/>
        <text transform="translate(151 698.557)" style="font-size:20px;font-family:CeraPro-Medium,Cera Pro;font-weight:500"><tspan x="-14.87" y="0">Jan</tspan></text>
        <text data-name="119" transform="rotate(-90 337.279 178.278)" style="fill:#fff;font-size:20px;font-family:CeraPro-Medium,Cera Pro;font-weight:500"><tspan x="-26.72" y="0">119</tspan></text>
        <path data-name="Rectangle 1783" transform="translate(332 350.557)" style="fill:#0db02b" d="M0 0h29v312H0z"/>
        <text data-name="257" transform="rotate(-90 356.779 3.778)" style="fill:#fff;font-size:20px;font-family:CeraPro-Medium,Cera Pro;font-weight:500"><tspan x="-32.68" y="0">257</tspan></text>
        <text transform="translate(346 698.557)" style="font-size:20px;font-family:CeraPro-Medium,Cera Pro;font-weight:500"><tspan x="-16.68" y="0">Apr</tspan></text>
        <path data-name="Rectangle 1779" transform="translate(202 461.557)" style="fill:#0db02b" d="M0 0h29v201H0z"/>
        <text data-name="148" transform="rotate(-90 347.779 124.778)" style="fill:#fff;font-size:20px;font-family:CeraPro-Medium,Cera Pro;font-weight:500"><tspan x="-30.7" y="0">148</tspan></text>
        <text transform="translate(215 698.557)" style="font-size:20px;font-family:CeraPro-Medium,Cera Pro;font-weight:500"><tspan x="-17.04" y="0">Feb</tspan></text>
        <path data-name="Rectangle 1782" transform="translate(397 258.557)" style="fill:#0db02b" d="M0 0h29v404H0z"/>
        <text data-name="296" transform="rotate(-90 344.279 -74.722)" style="fill:#fff;font-size:20px;font-family:CeraPro-Medium,Cera Pro;font-weight:500"><tspan x="-33.68" y="0">296</tspan></text>
        <text transform="translate(412 698.557)" style="font-size:20px;font-family:CeraPro-Medium,Cera Pro;font-weight:500"><tspan x="-18.73" y="0">May</tspan></text>
        <path data-name="Rectangle 1780" transform="translate(266 367.557)" style="fill:#0db02b" d="M0 0h29v295H0z"/>
        <text data-name="217" transform="rotate(-90 332.779 44.778)" style="fill:#fff;font-size:20px;font-family:CeraPro-Medium,Cera Pro;font-weight:500"><tspan x="-29.5" y="0">217</tspan></text>
        <text transform="translate(281 698.557)" style="font-size:20px;font-family:CeraPro-Medium,Cera Pro;font-weight:500"><tspan x="-16.99" y="0">Mar</tspan></text>
        <text data-name="300.00 250.00 200.00 150.00 100.00 50.00 0.00" transform="translate(89 256.557)" style="font-size:20px;font-family:CeraPro-Medium,Cera Pro;font-weight:500"><tspan x="-66.06" y="0">300.00</tspan><tspan x="-65.32" y="67">250.00</tspan><tspan x="-66.64" y="134">200.00</tspan><tspan x="-61.68" y="201">150.00</tspan><tspan x="-63" y="268">100.00</tspan><tspan x="-53.88" y="335">50.00</tspan><tspan x="-42.7" y="402">0.00</tspan></text>
        <path data-name="Rectangle 1778" transform="rotate(90 -66.279 183.279)" style="fill:#999" d="M0 0h414v2H0z"/>
        <path data-name="Rectangle 1781" transform="translate(463 258.557)" style="fill:#0db02b" d="M0 0h29v404H0z"/>
        <text transform="translate(477 698.557)" style="font-size:20px;font-family:CeraPro-Medium,Cera Pro;font-weight:500"><tspan x="-15.21" y="0">Jun</tspan></text>
        <text data-name="296" transform="rotate(-90 376.779 -107.222)" style="fill:#fff;font-size:20px;font-family:CeraPro-Medium,Cera Pro;font-weight:500"><tspan x="-33.68" y="0">296</tspan></text>
        <path data-name="Rectangle 1786" transform="translate(526 268.557)" style="fill:#0db02b" d="M0 0h29v394H0z"/>
        <text transform="translate(540 698.557)" style="font-size:20px;font-family:CeraPro-Medium,Cera Pro;font-weight:500"><tspan x="-12.03" y="0">Jul</tspan></text>
        <text data-name="291" transform="rotate(-90 413.279 -134.722)" style="fill:#fff;font-size:20px;font-family:CeraPro-Medium,Cera Pro;font-weight:500"><tspan x="-30.36" y="0">291</tspan></text>
        <path data-name="Rectangle 1785" transform="translate(589 284.557)" style="fill:#0db02b" d="M0 0h29v378H0z"/>
        <text transform="translate(604 698.557)" style="font-size:20px;font-family:CeraPro-Medium,Cera Pro;font-weight:500"><tspan x="-18.51" y="0">Aug</tspan></text>
        <text data-name="272" transform="rotate(-90 452.779 -158.222)" style="fill:#fff;font-size:20px;font-family:CeraPro-Medium,Cera Pro;font-weight:500"><tspan x="-32.74" y="0">272</tspan></text>
        <path data-name="Rectangle 1784" transform="translate(655 359.557)" style="fill:#0db02b" d="M0 0h29v303H0z"/>
        <text transform="translate(669 698.557)" style="font-size:20px;font-family:CeraPro-Medium,Cera Pro;font-weight:500"><tspan x="-17.6" y="0">Sep</tspan></text>
        <text data-name="232" transform="rotate(-90 523.279 -152.722)" style="fill:#fff;font-size:20px;font-family:CeraPro-Medium,Cera Pro;font-weight:500"><tspan x="-33.54" y="0">232</tspan></text>
        <path data-name="Rectangle 1789" transform="translate(719 397.557)" style="fill:#0db02b" d="M0 0h29v265H0z"/>
        <text transform="translate(733 698.557)" style="font-size:20px;font-family:CeraPro-Medium,Cera Pro;font-weight:500"><tspan x="-17.3" y="0">Oct</tspan></text>
        <text data-name="189" transform="rotate(-90 574.279 -166.722)" style="fill:#fff;font-size:20px;font-family:CeraPro-Medium,Cera Pro;font-weight:500"><tspan x="-30.58" y="0">189</tspan></text>
        <path data-name="Rectangle 1788" transform="translate(784 497.557)" style="fill:#0db02b" d="M0 0h29v165H0z"/>
        <text transform="translate(798 698.557)" style="font-size:20px;font-family:CeraPro-Medium,Cera Pro;font-weight:500"><tspan x="-18.44" y="0">Nov</tspan></text>
        <text data-name="135" transform="rotate(-90 656.279 -148.722)" style="fill:#fff;font-size:20px;font-family:CeraPro-Medium,Cera Pro;font-weight:500"><tspan x="-29.84" y="0">135</tspan></text>
        <path data-name="Rectangle 1787" transform="translate(849 531.557)" style="fill:#0db02b" d="M0 0h29v131H0z"/>
        <text transform="translate(863 698.557)" style="font-size:20px;font-family:CeraPro-Medium,Cera Pro;font-weight:500"><tspan x="-18.14" y="0">Dec</tspan></text>
        <text data-name="98" transform="rotate(-90 705.779 -165.222)" style="fill:#fff;font-size:20px;font-family:CeraPro-Medium,Cera Pro;font-weight:500"><tspan x="-22.78" y="0">98</tspan></text>
        <path data-name="Rectangle 1791" transform="translate(97 593.557)" style="fill:#999" d="M0 0h20v1H0z"/>
        <path data-name="Rectangle 1792" transform="translate(97 524.557)" style="fill:#999" d="M0 0h20v2H0z"/>
        <path data-name="Rectangle 1793" transform="translate(97 455.557)" style="fill:#999" d="M0 0h20v1H0z"/>
        <path data-name="Rectangle 1794" transform="translate(97 386.557)" style="fill:#999" d="M0 0h20v1H0z"/>
        <path data-name="Rectangle 1795" transform="translate(97 318.557)" style="fill:#999" d="M0 0h20v1H0z"/>
        <path data-name="Rectangle 1798" transform="translate(97 249.557)" style="fill:#999" d="M0 0h20v1H0z"/>
        <text data-name="₹" transform="translate(89 225.557)" style="font-size:20px;font-family:CeraPro-Medium,Cera Pro;font-weight:500"><tspan x="-10.5" y="0">₹</tspan></text>
    </g>
</svg>
