<svg xmlns="http://www.w3.org/2000/svg" width="64" height="64" viewBox="0 0 64 64">
    <g data-name="Group 2854" transform="translate(-1105 -1424)">
        <circle data-name="Ellipse 320" cx="32" cy="32" r="32" transform="translate(1105 1424)" style="fill:#fff"/>
        <path data-name="brightness-high (2)" d="M22 30.18a8.231 8.231 0 1 1 8.25-8.231A8.24 8.24 0 0 1 22 30.18zm0 2.744a10.975 10.975 0 1 0-11-10.975 10.987 10.987 0 0 0 11 10.975zM22 0a1.373 1.373 0 0 1 1.375 1.372v5.487a1.375 1.375 0 0 1-2.75 0V1.372A1.373 1.373 0 0 1 22 0zm0 35.667a1.373 1.373 0 0 1 1.375 1.372v5.487a1.375 1.375 0 0 1-2.75 0v-5.487A1.373 1.373 0 0 1 22 35.667zm22-13.718a1.373 1.373 0 0 1-1.375 1.372h-5.5a1.372 1.372 0 1 1 0-2.744h5.5A1.373 1.373 0 0 1 44 21.949zm-35.75 0a1.373 1.373 0 0 1-1.375 1.372h-5.5a1.372 1.372 0 1 1 0-2.744h5.5a1.373 1.373 0 0 1 1.375 1.372zM37.557 6.428a1.37 1.37 0 0 1 0 1.94l-3.889 3.882a1.374 1.374 0 1 1-1.944-1.943l3.889-3.88a1.377 1.377 0 0 1 1.944 0zM12.276 31.651a1.37 1.37 0 0 1 0 1.94L8.388 37.47a1.373 1.373 0 1 1-1.944-1.94l3.889-3.879a1.377 1.377 0 0 1 1.943 0zm25.281 5.819a1.377 1.377 0 0 1-1.944 0l-3.889-3.88a1.373 1.373 0 1 1 1.944-1.94l3.888 3.88a1.37 1.37 0 0 1 0 1.94zM12.276 12.25a1.377 1.377 0 0 1-1.944 0L6.443 8.368a1.373 1.373 0 1 1 1.944-1.94l3.888 3.88a1.37 1.37 0 0 1 0 1.943z" transform="translate(1115 1434)" style="fill:#0db02b"/>
    </g>
</svg>
