<svg xmlns="http://www.w3.org/2000/svg" width="88" height="88" viewBox="0 0 88 88">
    <g data-name="Group 2791" transform="translate(-1480 -1424)">
        <circle data-name="Ellipse 319" cx="44" cy="44" r="44" transform="translate(1480 1424)" style="fill:#0db02b"/>
        <g data-name="co2 gas icon 1">
            <g data-name="Group 2410">
                <path data-name="Path 247" d="M1043.116 1290.421v-.564a20.658 20.658 0 0 0-41.316 0v.564a13.008 13.008 0 0 0-5.406 3.251 12.941 12.941 0 0 0 9.15 22.1h33.818a12.981 12.981 0 0 0 12.939-12.273c.014-.224.02-.453.02-.681a12.971 12.971 0 0 0-9.205-12.397zm6.61 12.4a10.256 10.256 0 0 1-3.042 7.308 10.387 10.387 0 0 1-3.358 2.257 10.242 10.242 0 0 1-3.955.788h-33.82a10.355 10.355 0 0 1-2.119-20.487l.074-.023c.033-.01.065-.023.1-.033a.738.738 0 0 0 .117-.047c.037-.02.074-.043.112-.061s.07-.047.107-.074a.643.643 0 0 0 .1-.08c.033-.027.057-.057.084-.084s.051-.061.08-.1.047-.065.07-.1.043-.07.06-.107.033-.074.047-.111a1.165 1.165 0 0 0 .037-.127.532.532 0 0 0 .027-.127c0-.037.01-.08.014-.121a.95.95 0 0 0 0-.107v-.077c-.037-.49-.056-.979-.056-1.459a18.058 18.058 0 0 1 36.116 0c0 .48-.02.969-.057 1.451v.088a.992.992 0 0 0 0 .107.5.5 0 0 0 .014.121 1 1 0 0 0 .023.127.957.957 0 0 0 .043.117.473.473 0 0 0 .047.111c.02.037.037.074.06.111s.043.064.07.107.051.061.074.094.061.057.094.088a.706.706 0 0 0 .094.075.83.83 0 0 0 .1.074 1.3 1.3 0 0 0 .117.06c.037.02.071.028.111.047s.07.024.1.034l.074.023a10.4 10.4 0 0 1 8.233 9.958v.18z" transform="translate(501.15 175.425)" style="fill:#fff;stroke:#fff;stroke-width:.5px"/>
            </g>
            <g data-name="Group 2414">
                <g data-name="Group 2411">
                    <path data-name="Path 248" d="M1808.727 2598.4a3.837 3.837 0 0 1-1.073 2.079 2.605 2.605 0 0 1-1.791.665 2.866 2.866 0 0 1-2.294-1.043 5.424 5.424 0 0 1-.881-3.492 5.063 5.063 0 0 1 .894-3.343 2.942 2.942 0 0 1 2.333-1.03 2.662 2.662 0 0 1 2.724 2.167l2.582-.62a5.069 5.069 0 0 0-1.32-2.378 5.389 5.389 0 0 0-3.857-1.4 5.7 5.7 0 0 0-4.38 1.788 7.063 7.063 0 0 0-1.664 5.007 6.739 6.739 0 0 0 1.656 4.812 6.088 6.088 0 0 0 7.668.73 5.661 5.661 0 0 0 1.934-3.146z" transform="translate(-291.417 -1120.936)" style="fill:#fff;stroke:#fff;stroke-width:.5px"/>
                </g>
                <g data-name="Group 2412">
                    <path data-name="Path 249" d="M2501.528 2591.873a6.078 6.078 0 0 0-4.574-1.772 7.1 7.1 0 0 0-2.787.512 5.081 5.081 0 0 0-1.67 1.168 6.048 6.048 0 0 0-1.2 1.772 8.2 8.2 0 0 0-.594 3.312 6.673 6.673 0 0 0 1.707 4.848 6.795 6.795 0 0 0 9.135-.009 7.929 7.929 0 0 0-.013-9.831zm-1.985 8.24a3.482 3.482 0 0 1-5.135-.009 4.83 4.83 0 0 1-1.014-3.328 4.884 4.884 0 0 1 .988-3.34 3.618 3.618 0 0 1 5.19-.013 4.895 4.895 0 0 1 .975 3.318 4.964 4.964 0 0 1-1.004 3.372z" transform="translate(-969.149 -1121.034)" style="fill:#fff;stroke:#fff;stroke-width:.5px"/>
                </g>
                <g data-name="Group 2413">
                    <path data-name="Path 250" d="M3212.132 2858.664c.159-.178.537-.54 1.125-1.083a11.447 11.447 0 0 0 1.229-1.251 5.126 5.126 0 0 0 .751-1.25 3.384 3.384 0 0 0 .237-1.254 2.559 2.559 0 0 0-.823-1.944 3.192 3.192 0 0 0-2.281-.782 3.548 3.548 0 0 0-2.2.671 3.071 3.071 0 0 0-1.047 2.23l1.866.184a1.81 1.81 0 0 1 .4-1.172 1.244 1.244 0 0 1 .937-.358 1.274 1.274 0 0 1 .929.336 1.3 1.3 0 0 1 .336.966 2.093 2.093 0 0 1-.389 1.151 12.975 12.975 0 0 1-1.555 1.6 12.406 12.406 0 0 0-2.107 2.348 4.441 4.441 0 0 0-.642 1.87h6.571v-1.737h-3.724a3.361 3.361 0 0 1 .387-.525z" transform="translate(-1673.866 -1377.134)" style="fill:#fff;stroke:#fff;stroke-width:.5px"/>
                </g>
            </g>
        </g>
    </g>
</svg>
