<svg xmlns="http://www.w3.org/2000/svg" width="64" height="64" viewBox="0 0 64 64">
    <g data-name="Group 2719" transform="translate(-1105 -1424)">
        <circle data-name="Ellipse 320" cx="32" cy="32" r="32" transform="translate(1105 1424)" style="fill:#fff"/>
        <g data-name="Group 2661">
            <path data-name="Path 373" d="M22.449 17.349h8.131a2.012 2.012 0 0 1 2 2v8.219a2.012 2.012 0 0 1-2 2h-8.131a6.133 6.133 0 0 1-6.114-6.114 6.131 6.131 0 0 1 6.114-6.114zM3.218 7.694h5.188a7.201 7.201 0 0 1-.015-.443 7.253 7.253 0 0 1 14.506 0c0 .147-.006.293-.012.44h1.908a3.492 3.492 0 0 1 3.544 3.473v.58a3.548 3.548 0 0 1 1.6 2.957v1.278h-2.253v-.853a1.669 1.669 0 0 0-1.665-1.665H5.311V11.6a.45.45 0 0 1 .448-.448h3.776a7.2 7.2 0 0 1-.635-1.23H3.72a1.173 1.173 0 0 0-1.17 1.169v21.291a1.173 1.173 0 0 0 1.17 1.17H26.5a1.173 1.173 0 0 0 1.169-1.169v-1.34h2.31v2.213h-.009c-.009 1.53-1.641 2.764-3.253 2.764H3.21A3.224 3.224 0 0 1 0 32.807v-21.9a3.227 3.227 0 0 1 3.218-3.213zM22.39 9.919a7.2 7.2 0 0 1-.633 1.234h4.631a3.284 3.284 0 0 1 .381.021v-.085a1.173 1.173 0 0 0-1.169-1.17h-3.21zm.366 9.673h7.214v7.75h-7.213a3.887 3.887 0 0 1-3.875-3.875 3.885 3.885 0 0 1 3.875-3.875zm1.773 2.591a1.322 1.322 0 1 1-1.321 1.317 1.322 1.322 0 0 1 1.322-1.322z" style="fill:#0db02b;fill-rule:evenodd" transform="translate(1121 1437)"/>
            <path data-name="Intersection 5" d="m-5435.691 4469.01-1.149-1.524a8.142 8.142 0 0 0-.7-.848.887.887 0 0 0-.652-.262v-1.1h.884a2.965 2.965 0 0 0 1.343-.277 1.5 1.5 0 0 0 .756-.893h-3.254l.451-1.275h2.835a1.28 1.28 0 0 0-.489-.749 1.789 1.789 0 0 0-1-.3h-1.8l.451-1.275h6.584l-.45 1.275h-1.919a2.648 2.648 0 0 1 .344 1.049h2.025l-.45 1.275h-1.62a2.55 2.55 0 0 1-.9 1.418 4.181 4.181 0 0 1-1.485.757l2.067 2.725z" transform="translate(6572 -3021)" style="fill:#fff"/>
        </g>
    </g>
</svg>
