<svg xmlns="http://www.w3.org/2000/svg" width="64" height="64" viewBox="0 0 64 64">
    <g data-name="Group 2758" transform="translate(-1480 -1424)">
        <circle data-name="Ellipse 319" cx="32" cy="32" r="32" transform="translate(1480 1424)" style="fill:#fff"/>
        <path data-name="Path 378" d="m464.714 224.547-2.663-.383 7.819-25.985 2.721.17z" transform="translate(1060.918 1252.941)" style="fill:#0db02b"/>
        <path data-name="Path 379" d="m208.276 195.95-8.02 26.579h27.511l8.025-26.579zm22.333 7.967h-9.647l1.595-5.31h9.652l-1.6 5.31zm-22.758 2.657h9.54l-1.6 5.326h-9.545zm12.315 0h9.642l-1.6 5.326h-9.636l1.6-5.326zm-.377-7.967-1.595 5.31h-9.535l1.6-5.31zm-14.345 15.95h9.545l-1.6 5.315h-9.556l1.6-5.315zm10.726 5.315 1.6-5.315h9.636l-1.6 5.315z" transform="translate(1297.866 1254.958)" style="fill:#0db02b"/>
        <path data-name="Path 380" d="M180.146 120.279a7.912 7.912 0 0 0 2.981 6.2l1.887-1.621a5.513 5.513 0 1 1 6.968-8.477l1.711-1.711a7.937 7.937 0 0 0-13.548 5.613z" transform="translate(1316.067 1330.629)" style="fill:#0db02b"/>
        <path data-name="Path 381" d="M249.82 28.336h2.658v5.294h-2.658z" transform="translate(1253.006 1406.664)" style="fill:#0db02b"/>
        <path data-name="Path 382" d="m115.06 96.019 1.432-2.239 4.46 2.852-1.432 2.239z" transform="translate(1374.976 1347.431)" style="fill:#0db02b"/>
        <path data-name="Path 383" d="m114.68 246.7 4.471-2.834 1.423 2.244-4.471 2.834z" transform="translate(1375.32 1211.589)" style="fill:#0db02b"/>
    </g>
</svg>
