<svg xmlns="http://www.w3.org/2000/svg" width="192.001" height="145.937" viewBox="0 0 192.001 145.937">
    <path data-name="Intersection 7" d="M162.116 145.938a25.177 25.177 0 1 0-46.52 0H95.85a44.319 44.319 0 0 1 18.371-46.343 44.089 44.089 0 0 1 68.694 36.67 44.482 44.482 0 0 1-1.054 9.672zm-161.561 0A135.922 135.922 0 0 1 0 133.674a135.2 135.2 0 0 1 2.705-26.94 133.055 133.055 0 0 1 182.317-96.228Q188.551 12 192 13.711v71.544a75.884 75.884 0 0 0-58.818-27.965c-41.963 0-76.1 34.267-76.1 76.384a76.941 76.941 0 0 0 .98 12.263z" transform="rotate(180 96 72.969)" style="fill:#0db02b;opacity:.2"/>
</svg>
