<svg xmlns="http://www.w3.org/2000/svg" width="286.001" height="405.001" viewBox="0 0 286.001 405.001">
    <path data-name="Intersection 6" d="M997.253 6452q-6.033-5.257-11.686-10.913a231.291 231.291 0 0 1-49.439-73.378 229.8 229.8 0 0 1-13.442-43.333 233.28 233.28 0 0 1 0-93.048 229.643 229.643 0 0 1 34.714-82.548 231.358 231.358 0 0 1 101.5-83.639 229.39 229.39 0 0 1 43.3-13.452 232.738 232.738 0 0 1 92.984 0q4.425.906 8.818 1.989v104.439a130.958 130.958 0 0 0-55.309-12.18c-72.688 0-131.823 59.177-131.823 131.913s59.135 131.916 131.823 131.916a130.95 130.95 0 0 0 55.309-12.18V6452zm131.558-99.3a76.384 76.384 0 1 1 72.377-133.7q1.427.965 2.813 2v122.664q-1.385 1.031-2.813 2a76.408 76.408 0 0 1-72.377 7.042zm-13.9-70.371a43.611 43.611 0 1 0 43.609-43.64 43.674 43.674 0 0 0-43.613 43.636z" transform="translate(-918 -6046.999)" style="fill:#0db02b;opacity:.2"/>
</svg>
