<svg xmlns="http://www.w3.org/2000/svg" width="280" height="216" viewBox="0 0 280 216">
    <defs>
        <clipPath id="zdx2e5hhua">
            <path data-name="Rectangle 4155" transform="translate(0 4080)" style="fill:none" d="M0 0h280v216H0z"/>
        </clipPath>
    </defs>
    <g data-name="Mask Group 82" transform="translate(0 -4080)" style="clip-path:url(#zdx2e5hhua)">
        <g data-name="Group 2613" style="opacity:.4">
            <path data-name="Subtraction 3" d="M194.5 389a195.941 195.941 0 0 1-39.2-3.952 193.43 193.43 0 0 1-69.549-29.266 195.078 195.078 0 0 1-70.469-85.574A193.526 193.526 0 0 1 3.952 233.7a196.393 196.393 0 0 1 0-78.4 193.425 193.425 0 0 1 29.266-69.547 195.066 195.066 0 0 1 85.575-70.469A193.533 193.533 0 0 1 155.3 3.952a196.386 196.386 0 0 1 78.4 0 193.431 193.431 0 0 1 69.548 29.266 195.075 195.075 0 0 1 70.468 85.574 193.567 193.567 0 0 1 11.333 36.51 196.4 196.4 0 0 1 0 78.4 193.412 193.412 0 0 1-29.266 69.548 195.063 195.063 0 0 1-85.574 70.469 193.463 193.463 0 0 1-36.509 11.329A195.94 195.94 0 0 1 194.5 389zm0-305.641A111.142 111.142 0 1 0 305.644 194.5 111.268 111.268 0 0 0 194.5 83.359z" transform="translate(-112.001 3899)" style="fill:#0db02b;opacity:.2"/>
            <path data-name="Exclusion 3" d="M64.345 128.691A64.043 64.043 0 0 1 28.369 117.7 64.536 64.536 0 0 1 5.057 89.392a64.261 64.261 0 0 1 5.933-61.023A64.532 64.532 0 0 1 39.3 5.057a64.262 64.262 0 0 1 61.022 5.932A64.534 64.534 0 0 1 123.634 39.3a64.26 64.26 0 0 1-5.933 61.023 64.529 64.529 0 0 1-28.31 23.313 63.946 63.946 0 0 1-25.046 5.055zm0-101.114a36.769 36.769 0 1 0 36.769 36.768 36.81 36.81 0 0 0-36.769-36.768z" transform="translate(26.44 4032.924)" style="fill:#0db02b;opacity:.2"/>
        </g>
    </g>
</svg>
