<svg width="21" height="20" viewBox="0 0 21 20" fill="none" xmlns="http://www.w3.org/2000/svg">
<g clip-path="url(#clip0_38183_14966)">
<path d="M20.5 10C20.5 12.6522 19.4464 15.1957 17.5711 17.0711C15.6957 18.9464 13.1522 20 10.5 20C7.84784 20 5.3043 18.9464 3.42893 17.0711C1.55357 15.1957 0.5 12.6522 0.5 10C0.5 7.34784 1.55357 4.8043 3.42893 2.92893C5.3043 1.05357 7.84784 0 10.5 0C13.1522 0 15.6957 1.05357 17.5711 2.92893C19.4464 4.8043 20.5 7.34784 20.5 10ZM11.125 5.625C11.125 5.45924 11.0592 5.30027 10.9419 5.18306C10.8247 5.06585 10.6658 5 10.5 5C10.3342 5 10.1753 5.06585 10.0581 5.18306C9.94085 5.30027 9.875 5.45924 9.875 5.625V9.375H6.125C5.95924 9.375 5.80027 9.44085 5.68306 9.55806C5.56585 9.67527 5.5 9.83424 5.5 10C5.5 10.1658 5.56585 10.3247 5.68306 10.4419C5.80027 10.5592 5.95924 10.625 6.125 10.625H9.875V14.375C9.875 14.5408 9.94085 14.6997 10.0581 14.8169C10.1753 14.9342 10.3342 15 10.5 15C10.6658 15 10.8247 14.9342 10.9419 14.8169C11.0592 14.6997 11.125 14.5408 11.125 14.375V10.625H14.875C15.0408 10.625 15.1997 10.5592 15.3169 10.4419C15.4342 10.3247 15.5 10.1658 15.5 10C15.5 9.83424 15.4342 9.67527 15.3169 9.55806C15.1997 9.44085 15.0408 9.375 14.875 9.375H11.125V5.625Z" fill="#cccccc"/>
</g>
<defs>
<clipPath id="clip0_38183_14966">
<rect width="20" height="20" fill="white" transform="translate(0.5)"/>
</clipPath>
</defs>
</svg>
