<svg width="111" height="102" viewBox="0 0 111 102" fill="none" xmlns="http://www.w3.org/2000/svg">
<path fill-rule="evenodd" clip-rule="evenodd" d="M10.6752 101.306V53.6817C8.87219 54.4439 6.85651 54.5383 4.99015 53.948C3.75929 53.5355 2.67315 52.7775 1.86137 51.7645C1.04011 50.7484 0.523138 49.5206 0.370214 48.223C0.262193 47.0263 0.396324 45.8201 0.764603 44.6764C1.13288 43.5327 1.72776 42.4748 2.51376 41.566C2.60562 41.4542 2.70818 41.3517 2.81998 41.2598L53.9188 1.31801C54.2417 1.01445 54.6635 0.837836 55.1063 0.820709C55.5492 0.803583 55.9833 0.9471 56.3287 1.22481L107.547 41.0335L107.774 41.2332C108.794 42.2236 109.547 43.4557 109.963 44.8149C110.38 46.1742 110.447 47.6167 110.157 49.0085C109.882 50.1648 109.325 51.2348 108.535 52.1225C107.745 53.0102 106.747 53.6878 105.63 54.0944C104.641 54.4368 103.592 54.5778 102.548 54.5092C101.503 54.4406 100.482 54.1638 99.5457 53.695V101.079H94.5929V51.6047C94.5929 50.6994 59.4574 22.9265 55.5831 19.9043C51.4691 23.033 15.6413 50.5263 15.6413 51.7379V101.319L10.6752 101.306Z" fill="#006EAF"/>
<path d="M37.2567 47.7301C41.8339 43.1171 48.0359 40.5182 54.5073 40.5C60.9704 40.5358 67.1591 43.1415 71.7274 47.7517C76.296 52.3624 78.8746 58.6052 78.901 65.1227C78.901 65.123 78.901 65.1234 78.901 65.1237L78.901 91.3851H30.0811V65.1223C30.0988 58.5963 32.679 52.3435 37.2567 47.7301Z" fill="#D5D920" stroke="white"/>
<path d="M84.834 97.3193H25.834V101.68H84.834V97.3193Z" fill="#006EAF"/>
</svg>
