<svg width="110" height="86" viewBox="0 0 110 86" fill="none" xmlns="http://www.w3.org/2000/svg">
<path fill-rule="evenodd" clip-rule="evenodd" d="M6.11211 32.9235H103.852V80.657C103.847 81.9229 103.342 83.1356 102.447 84.0308C101.552 84.926 100.339 85.431 99.0734 85.4357H10.8908C9.62488 85.431 8.41213 84.926 7.51697 84.0308C6.62181 83.1356 6.11682 81.9229 6.11211 80.657V32.9235ZM87.0103 8.61823H98.6438C98.8812 8.61823 99.1088 8.71251 99.2766 8.88034C99.4444 9.04816 99.5387 9.27578 99.5387 9.51312V16.5917H110V27.7778H0V16.5917H10.7387V9.51312C10.7387 9.27578 10.833 9.04816 11.0008 8.88034C11.1686 8.71251 11.3962 8.61823 11.6336 8.61823H23.2672C23.5045 8.61823 23.7321 8.71251 23.9 8.88034C24.0678 9.04816 24.1621 9.27578 24.1621 9.51312V16.5917H35.9746V3.63369C35.977 2.82034 36.3011 2.04097 36.8763 1.46585C37.4514 0.890718 38.2307 0.56657 39.0441 0.564209L72.4862 0.564209C73.2995 0.56657 74.0789 0.890718 74.654 1.46585C75.2291 2.04097 75.5533 2.82034 75.5556 3.63369V16.5917H86.1154V9.51312C86.1154 9.27578 86.2096 9.04816 86.3775 8.88034C86.5453 8.71251 86.7729 8.61823 87.0103 8.61823ZM63.3314 46.6332L51.3667 46.7406L46.9907 61.9537L52.9239 62.0074L46.6596 77.847L63.2688 57.5956H55.9754L63.3314 46.6332ZM94.0083 43.1163V47.2417H82.1868V43.1163H94.0083ZM19.8039 39.2682H23.9294V43.1163H27.7416V47.2417H23.8936V51.0898H19.8039V47.2417H15.9559V43.1163H19.8039V39.2682Z" fill="#006EAF"/>
<rect x="42.9551" y="5.93359" width="26.8467" height="9.8438" fill="#D5D920"/>
</svg>

