<svg width="111" height="117" viewBox="0 0 111 117" fill="none" xmlns="http://www.w3.org/2000/svg">
<path fill-rule="evenodd" clip-rule="evenodd" d="M0.332031 0.14136L0.332046 111.739L58.3509 111.739V111.02L97.457 116.274L110.331 20.452L60.5142 13.7588L58.3509 29.8603L58.3508 0.141357L0.332031 0.14136ZM58.3509 94.7817V87.3182L61.6545 62.7298L65.9342 30.8759C69.9931 31.4213 73.7418 28.5606 74.2793 24.5077L93.9781 27.1473C93.4327 31.2062 96.2934 34.9549 100.346 35.4925L91.7928 99.2079C87.7339 98.6626 83.9852 101.523 83.4476 105.576L63.7489 102.937C64.2494 99.2116 61.8812 95.7479 58.3509 94.7817ZM9.16342 18.8901L9.16342 93.0864C13.8905 93.0864 17.7393 96.9352 17.7393 101.662L40.6801 101.654C40.6721 96.9352 44.5209 93.0864 49.248 93.0864L49.24 18.8821C44.5209 18.8901 40.6721 15.0413 40.6721 10.3142L17.7313 10.3222C17.7393 15.0413 13.8905 18.8901 9.16342 18.8901Z" fill="#006EAF"/>
<path d="M29.1743 41.1248C19.7281 41.1328 12.0944 48.7665 12.0944 58.2047C12.0864 67.6509 19.7201 75.2846 29.1743 75.2846C38.6205 75.2766 46.2542 67.6429 46.2542 58.2047C46.2462 48.7585 38.6125 41.1248 29.1743 41.1248Z" fill="#D5D920"/>
<path d="M81.5595 49.5398C73.4477 48.4569 66.0125 54.1308 64.9237 62.2348C63.8271 70.3447 69.501 77.7799 77.6187 78.8705C85.7305 79.9534 93.1656 74.2796 94.2545 66.1755C95.3374 58.0637 89.6635 50.6286 81.5595 49.5398Z" fill="#D5D920"/>
</svg>
