<svg width="110" height="114" viewBox="0 0 110 114" fill="none" xmlns="http://www.w3.org/2000/svg">
<path d="M10.3813 11.2551H19.8852V23.9358C19.8852 27.4621 21.5253 30.5773 24.17 32.745C26.4058 34.5763 29.3803 35.7151 32.5593 35.7151C35.7383 35.7151 38.7128 34.5763 40.9486 32.745C43.5955 30.5773 45.2356 27.4621 45.2356 23.9358V11.2551H64.4237V23.9358C64.4237 27.4621 66.0637 30.5773 68.7107 32.745C70.9443 34.5763 73.9188 35.7151 77.0978 35.7151C80.2768 35.7151 83.2535 34.5763 85.4893 32.745C88.134 30.5773 89.7741 27.4621 89.7741 23.9358V11.2551H99.6957C105.355 11.2551 110 15.9005 110 21.5593V41.0881V45.4894V103.221C110 106.057 108.839 108.633 106.973 110.5C105.1 112.364 102.523 113.527 99.6957 113.527H10.3813C7.55629 113.527 4.9819 112.366 3.11102 110.5C1.23793 108.622 0.0771484 106.048 0.0771484 103.223V45.4894V41.0881V21.5593C0.0771484 15.9005 4.72028 11.2551 10.3813 11.2551ZM72.1227 4.96534C72.1227 2.71632 74.3475 0.887207 77.0978 0.887207C79.8503 0.887207 82.0751 2.71632 82.0751 4.96534V23.9358C82.0751 26.187 79.8503 28.0139 77.0978 28.0139C74.3475 28.0139 72.1227 26.187 72.1227 23.9358V4.96534ZM27.5842 4.96534C27.5842 2.71632 29.809 0.887207 32.5593 0.887207C35.3096 0.887207 37.5366 2.71632 37.5366 4.96534V23.9358C37.5366 26.187 35.3096 28.0139 32.5593 28.0139C29.809 28.0139 27.5842 26.187 27.5842 23.9358V4.96534ZM13.6812 108.024H96.3936C100.852 108.024 104.499 104.366 104.499 99.921V41.0881H5.57768V99.9232C5.57768 104.377 9.22492 108.024 13.6812 108.024Z" fill="#006EAF"/>
<path d="M41.6915 91.3957C44.2637 92.086 47.6054 92.7324 50.2281 92.9149V98.3758H58.6834V92.8753C63.5024 92.3477 67.4464 91.2506 68.6028 86.1656C68.893 84.8839 69.0403 83.4175 69.0403 81.7753V79.0074C69.0403 75.0766 67.4794 71.5173 63.9377 69.4991C63.0935 69.0177 62.1415 68.6549 61.0885 68.4153C60.0464 68.1801 58.9098 68.0591 57.6853 68.0591C56.4739 68.0591 54.2029 68.213 53.0949 67.9228C51.4021 67.4744 51.3471 63.6952 52.73 63.0401C52.9586 62.9323 53.229 62.8488 53.528 62.7938C56.8938 62.1827 63.6233 62.818 67.1716 63.1302V55.0487C64.5686 54.4177 61.3061 53.7472 58.6834 53.5384V48.5347H50.2281V53.7032C44.2945 54.6947 41.0342 58.2167 41.0342 64.1283V66.894C41.0342 68.9935 41.3024 70.805 41.8366 72.3263C42.384 73.8894 43.2172 75.147 44.3297 76.0967C45.4201 77.0222 46.7568 77.7148 48.3418 78.1742C51.4461 79.0734 55.3065 78.3853 57.151 78.9591C58.6834 79.4186 58.9406 83.0922 56.6146 83.6198C53.5148 84.3211 45.1057 83.6044 41.6915 83.3274V91.3957Z" fill="#D5D920"/>
</svg>
