<svg width="126" height="172" viewBox="0 0 126 172" fill="none" xmlns="http://www.w3.org/2000/svg">
<path d="M0 8.27686C0 3.85858 3.58172 0.276855 8 0.276855H126V171.277H8C3.58172 171.277 0 167.695 0 163.277V8.27686Z" fill="#0BCE07"/>
<path fill-rule="evenodd" clip-rule="evenodd" d="M96.2036 77.6922C96.2036 79.3724 96.0528 81.0821 95.5718 82.738C95.4014 83.3243 95.7398 83.4351 95.9015 83.4868C102.462 85.5917 107 91.7409 107 98.6164C107 107.385 99.8063 114.519 90.9639 114.519H35.0355C26.1935 114.519 19 107.385 19 98.6164C19 89.8476 26.1935 82.7138 35.0359 82.7138C36.0915 82.7138 37.15 82.8175 38.1823 83.0228L38.2124 83.0288L38.2251 83.0314C38.2394 83.0343 38.2536 83.0372 38.268 83.04C38.5492 83.094 38.6554 82.865 38.69 82.7678C41.0192 76.2337 47.0963 71.8653 53.9084 71.8653C54.1275 71.8653 54.3397 71.8759 54.5354 71.8884C54.5541 71.8896 54.5728 71.8903 54.5913 71.891C54.6281 71.8923 54.6643 71.8936 54.6993 71.8994C55.2944 71.9974 55.4416 71.6839 55.4843 71.5476C56.7767 67.4296 59.4146 63.7335 62.9125 61.1391C66.5319 58.454 70.8408 57.0349 75.373 57.0349C86.859 57.0349 96.2036 66.3016 96.2036 77.6922ZM35.0355 111.561H90.9639C98.1613 111.561 104.017 105.754 104.017 98.6164C104.017 92.8819 100.14 87.7685 94.5877 86.181L94.5177 86.1615C94.0758 86.0392 93.1567 85.7848 92.6456 84.8747C92.3018 84.2624 92.2481 83.5405 92.4855 82.7286C92.9733 81.0616 93.2207 79.3671 93.2207 77.6922C93.2207 67.9329 85.2143 59.9929 75.373 59.9929C67.5149 59.9929 60.6668 64.9893 58.3326 72.4259C58.3281 72.4442 58.3237 72.4697 58.3187 72.4981L58.3113 72.5393C58.0214 74.0955 56.9977 74.8845 55.2692 74.8845L55.2165 74.8843C54.9629 74.8819 54.7263 74.8661 54.4978 74.8507C54.2878 74.8365 54.0896 74.8233 53.9082 74.8233C48.2809 74.8233 43.2617 78.5096 41.4183 83.9962C40.9915 85.2658 39.903 86.0238 38.5064 86.0238C38.2304 86.0238 37.9474 85.9948 37.6658 85.9373C36.8038 85.7611 35.9187 85.6718 35.0355 85.6718C27.8383 85.6718 21.9829 91.4788 21.9829 98.6164C21.9829 105.754 27.8385 111.561 35.0355 111.561ZM53.861 86.1272C54.8076 86.1272 55.7999 86.2777 56.6554 86.5514C57.2686 86.7476 57.6091 87.1952 57.522 87.6916L57.5116 87.7358L57.237 88.661C57.0654 89.2394 56.6981 89.326 56.4947 89.326C56.3223 89.326 56.1757 89.2657 56.0787 89.2256L56.0468 89.2128C55.4326 88.9693 54.697 88.8458 53.8608 88.8458C51.2144 88.8458 49.5042 90.6715 49.5042 93.4968C49.5042 96.246 51.2213 98.093 53.7773 98.093C54.8805 98.093 55.6497 97.8491 56.1324 97.6657C56.229 97.6288 56.3766 97.5799 56.5402 97.5799C56.9153 97.5799 57.1937 97.8284 57.2841 98.2447L57.4874 99.1475C57.5621 99.9613 57.0342 100.158 56.8353 100.232C56.2533 100.449 55.0243 100.812 53.3326 100.812C49.087 100.812 46.2344 97.9167 46.2344 93.6073C46.2344 89.2032 49.3706 86.1272 53.861 86.1272ZM81.6287 101.676H79.3265C78.9183 101.676 79.1202 101.471 79.2206 101.37C81.0231 99.5503 82.3586 97.9533 82.3586 95.9839C82.3586 94.2883 81.2925 92.5774 78.9104 92.5774C77.9777 92.5774 77.0791 92.8485 76.3117 93.3614C75.8339 93.6808 75.654 94.1489 75.8501 94.5578L76.0427 94.9982L76.0565 95.0271C76.171 95.2485 76.3815 95.3805 76.6196 95.3805C76.8689 95.3805 77.0758 95.2417 77.2155 95.1479C77.687 94.8312 78.1665 94.6707 78.6407 94.6707C79.6273 94.6707 80.1069 95.1559 80.1069 96.1494C80.0942 97.4476 79.0727 98.6606 76.6347 101.058C76.5196 101.16 75.8472 101.761 75.5473 102.154C75.3924 102.357 75.3961 102.615 75.3994 102.843V102.844L75.4003 102.935C75.4003 103.483 75.854 103.77 76.3022 103.77H81.6193C81.6532 103.773 81.7023 103.777 81.7602 103.777C82.3392 103.777 82.5984 103.395 82.5984 103.016V102.534C82.5986 101.977 82.1129 101.681 81.6287 101.676ZM59.3125 93.5528C59.3125 89.1485 62.2202 86.0725 66.3829 86.0725C70.4313 86.0725 73.2586 89.0576 73.2586 93.3321C73.2586 98.4716 69.5792 100.812 66.1606 100.812C62.1285 100.812 59.3125 97.8271 59.3125 93.5528ZM62.5825 93.4698C62.5825 96.2126 64.1342 98.2036 66.2719 98.2036C68.4097 98.2036 69.961 96.1896 69.9612 93.4147C69.9612 91.7774 69.2015 88.6807 66.3274 88.6807C63.7405 88.6807 62.5825 91.086 62.5825 93.4698Z" fill="white"/>
</svg>
