<svg width="39" height="97" viewBox="0 0 39 97" fill="none" xmlns="http://www.w3.org/2000/svg">
<rect x="0.666016" y="0.0690918" width="21" height="96" rx="10.5" fill="#D5D920"/>
<rect x="0.666016" y="16.0691" width="21" height="80" rx="10.5" fill="#3299D6"/>
<path d="M36.4174 80.1369C36.6184 80.2538 36.7123 80.4939 36.6439 80.7162L34.843 86.5691H38.166C38.3655 86.5691 38.5459 86.6877 38.625 86.8708C38.7041 87.0539 38.6668 87.2665 38.5301 87.4118L30.5301 95.9118C30.3707 96.0811 30.1157 96.1182 29.9146 96.0013C29.7136 95.8844 29.6197 95.6443 29.6881 95.4221L31.489 89.5691H28.166C27.9665 89.5691 27.7862 89.4505 27.707 89.2674C27.6279 89.0843 27.6652 88.8717 27.8019 88.7264L35.8019 80.2264C35.9613 80.0571 36.2164 80.02 36.4174 80.1369Z" fill="#3299D6"/>
</svg>
