<svg width="40" height="40" viewBox="0 0 40 40" fill="none" xmlns="http://www.w3.org/2000/svg">
<rect width="40" height="40" rx="20" fill="#EBF7FF"/>
<path fill-rule="evenodd" clip-rule="evenodd" d="M12 20C12 15.5817 15.5817 12 20 12C24.4183 12 28 15.5817 28 20C28 24.4183 24.4183 28 20 28C15.5817 28 12 24.4183 12 20ZM20 10C14.4771 10 10 14.4771 10 20C10 25.5228 14.4772 30 20 30C25.5228 30 30 25.5228 30 20C30 14.4771 25.5228 10 20 10ZM21 14C21 13.4477 20.5523 13 20 13C19.4477 13 19 13.4477 19 14V20C19 20.2652 19.1054 20.5196 19.2929 20.7071L22.2929 23.7071C22.6834 24.0976 23.3166 24.0976 23.7071 23.7071C24.0976 23.3166 24.0976 22.6834 23.7071 22.2929L21 19.5858V14Z" fill="#006EAF"/>
</svg>
