<svg xmlns="http://www.w3.org/2000/svg" width="24" height="24" viewBox="0 0 24 24" fill="none">
  <path d="M13.4251 12.002L19.8961 5.53403C19.9616 5.46728 19.9983 5.37752 19.9983 5.28403C19.9983 5.19053 19.9616 5.10077 19.8961 5.03403L18.9721 4.10203C18.9054 4.03655 18.8156 3.99988 18.7221 3.99988C18.6287 3.99988 18.5389 4.03655 18.4721 4.10203L11.9961 10.573L5.52915 4.10203C5.46124 4.03884 5.37191 4.00371 5.27915 4.00371C5.18638 4.00371 5.09706 4.03884 5.02915 4.10203L4.10715 5.02503C4.04168 5.09177 4.005 5.18153 4.005 5.27503C4.005 5.36852 4.04168 5.45828 4.10715 5.52503L10.5701 12.002L4.10215 18.466C4.03668 18.5328 4 18.6225 4 18.716C4 18.8095 4.03668 18.8993 4.10215 18.966L5.02415 19.889C5.09089 19.9545 5.18065 19.9912 5.27415 19.9912C5.36764 19.9912 5.45741 19.9545 5.52415 19.889L11.9961 13.427L18.4661 19.897C18.5329 19.9625 18.6227 19.9992 18.7161 19.9992C18.8096 19.9992 18.8994 19.9625 18.9661 19.897L19.8891 18.974C19.9546 18.9073 19.9913 18.8175 19.9913 18.724C19.9913 18.6305 19.9546 18.5408 19.8891 18.474L13.4251 12.002Z" fill="#222222"/>
</svg>