<svg width="127" height="172" viewBox="0 0 127 172" fill="none" xmlns="http://www.w3.org/2000/svg">
<path d="M0.333984 8.27686C0.333984 3.85858 3.91571 0.276855 8.33398 0.276855H126.334V171.277H8.33398C3.91571 171.277 0.333984 167.695 0.333984 163.277V8.27686Z" fill="#0BCE07"/>
<path d="M87.6911 91.4785C87.6901 91.4652 87.6903 91.4519 87.6891 91.4388C87.6839 91.3829 87.6754 91.3282 87.6641 91.2744C87.6629 91.2692 87.6614 91.2642 87.66 91.259C87.6492 91.2104 87.6357 91.1628 87.6201 91.1161C87.6159 91.1036 87.6111 91.0912 87.6064 91.0787C87.592 91.0392 87.576 91.0004 87.5582 90.9627C87.5521 90.9494 87.5457 90.9361 87.5392 90.923C87.5193 90.884 87.4979 90.846 87.4748 90.8092C87.4688 90.7996 87.4634 90.7896 87.457 90.7801C87.427 90.7346 87.3946 90.6909 87.3599 90.6492C87.3533 90.6413 87.3458 90.634 87.3391 90.6263C87.31 90.5929 87.2795 90.5609 87.2475 90.5305C87.2421 90.5253 87.2377 90.5195 87.2321 90.5143L71.6227 76.0758C71.3555 75.8287 71.0049 75.6914 70.6409 75.6914H56.1155C55.7515 75.6914 55.4009 75.8287 55.1337 76.0758L39.5245 90.5143C39.17 90.8422 39.0027 91.3255 39.0785 91.8024L42.9807 116.387C43.0921 117.089 43.6976 117.606 44.4085 117.606H82.3479C83.0588 117.606 83.6643 117.089 83.7757 116.387L87.678 91.8024C87.6795 91.7929 87.6793 91.7837 87.6806 91.7742C87.6859 91.7364 87.6893 91.6983 87.6916 91.6595C87.6928 91.6406 87.6941 91.6217 87.6945 91.6029C87.6947 91.5938 87.6959 91.5847 87.6959 91.5757C87.6961 91.5429 87.6932 91.5107 87.6911 91.4785ZM82.558 90.1299H57.5612V79.0648C57.5612 78.842 57.3357 78.6814 57.0107 78.5829H70.075L82.558 90.1299ZM42.0554 92.1123L54.6697 80.4441V114.715H45.643L42.0554 92.1123ZM81.1136 114.714H57.5612V93.0214H84.5568L81.1136 114.714Z" fill="white"/>
<path d="M97.9873 95.5669C97.1919 95.5146 96.5007 96.1136 96.4459 96.9103C95.4115 111.973 84.6227 128.186 63.3797 128.186C54.0646 128.186 45.9758 124.996 39.9879 118.962C33.7112 112.636 30.1532 103.585 30.2265 94.1288C30.3447 78.8537 39.7834 64.3246 43.1279 59.6517L48.461 67.1914C49.1339 68.1393 49.9896 67.9022 50.236 67.8066C50.6213 67.6576 50.9244 67.3505 51.0688 66.9634C51.0786 66.9372 51.1036 66.8639 51.1428 66.7467C52.2965 63.2902 56.4705 51.8302 63.3797 44.0472C70.2896 51.8309 74.4633 63.2908 75.6168 66.7473C75.6557 66.8639 75.6806 66.9368 75.6904 66.963C75.8367 67.3553 76.1455 67.6649 76.5376 67.812C77.5817 68.2039 78.1391 67.4168 78.5077 66.8961L83.6315 59.6515C86.7738 64.0405 95.2914 77.1215 96.4097 91.3393C96.4721 92.135 97.1626 92.7301 97.9642 92.6673C98.7603 92.6046 99.3548 91.9085 99.2921 91.1126C98.5384 81.5276 94.6193 72.571 91.4644 66.7452C88.0561 60.4521 84.8621 56.4525 84.7278 56.2854C84.4434 55.9317 84.0089 55.7304 83.5563 55.7458C83.1027 55.7597 82.6821 55.9858 82.4201 56.3563C81.06 58.2802 78.9368 61.2833 77.4791 63.344C75.4892 57.9997 71.0885 47.7872 64.4172 40.9147C64.1448 40.6346 63.7706 40.4763 63.3797 40.4763C62.9888 40.4763 62.6146 40.6346 62.3424 40.9151C55.6715 47.7872 51.2704 58.0003 49.2804 63.3444C47.8227 61.2839 45.6994 58.2806 44.3394 56.3567C44.0776 55.9862 43.6568 55.7603 43.2032 55.7462C42.7502 55.7318 42.3159 55.9321 42.0318 56.2858C41.883 56.471 38.3447 60.9018 34.7448 67.7773C31.4082 74.1496 27.4142 83.8901 27.3352 94.1067C27.2561 104.328 31.1198 114.13 37.9355 120.999C44.4782 127.592 53.2767 131.077 63.3797 131.077C73.7383 131.077 82.6956 127.428 89.2834 120.525C95.1474 114.38 98.7156 106.064 99.3305 97.1082C99.3854 96.3115 98.7838 95.6214 97.9873 95.5669Z" fill="white"/>
<path d="M71.434 103.229C70.6369 103.229 69.9883 103.878 69.9883 104.675C69.9883 105.472 70.6369 106.121 71.434 106.121C72.2311 106.121 72.8798 105.472 72.8798 104.675C72.8798 103.878 72.2313 103.229 71.434 103.229Z" fill="white"/>
<path d="M76.3891 108.157C75.592 108.157 74.9434 108.806 74.9434 109.603C74.9434 110.4 75.592 111.049 76.3891 111.049C77.1862 111.049 77.8349 110.4 77.8349 109.603C77.8349 108.806 77.1864 108.157 76.3891 108.157Z" fill="white"/>
</svg>
