<svg width="36" height="36" viewBox="0 0 36 36" fill="none" xmlns="http://www.w3.org/2000/svg">
<g clip-path="url(#clip0_2949_25373)">
<path d="M6.75 10.125C6.75 9.82663 6.86853 9.54048 7.07951 9.32951C7.29048 9.11853 7.57663 9 7.875 9H21.375C21.6734 9 21.9595 9.11853 22.1705 9.32951C22.3815 9.54048 22.5 9.82663 22.5 10.125C22.5 10.4234 22.3815 10.7095 22.1705 10.9205C21.9595 11.1315 21.6734 11.25 21.375 11.25H7.875C7.57663 11.25 7.29048 11.1315 7.07951 10.9205C6.86853 10.7095 6.75 10.4234 6.75 10.125ZM6.75 14.625C6.75 14.3266 6.86853 14.0405 7.07951 13.8295C7.29048 13.6185 7.57663 13.5 7.875 13.5H21.375C21.6734 13.5 21.9595 13.6185 22.1705 13.8295C22.3815 14.0405 22.5 14.3266 22.5 14.625C22.5 14.9234 22.3815 15.2095 22.1705 15.4205C21.9595 15.6315 21.6734 15.75 21.375 15.75H7.875C7.57663 15.75 7.29048 15.6315 7.07951 15.4205C6.86853 15.2095 6.75 14.9234 6.75 14.625ZM6.75 19.125C6.75 18.8266 6.86853 18.5405 7.07951 18.3295C7.29048 18.1185 7.57663 18 7.875 18H21.375C21.6734 18 21.9595 18.1185 22.1705 18.3295C22.3815 18.5405 22.5 18.8266 22.5 19.125C22.5 19.4234 22.3815 19.7095 22.1705 19.9205C21.9595 20.1315 21.6734 20.25 21.375 20.25H7.875C7.57663 20.25 7.29048 20.1315 7.07951 19.9205C6.86853 19.7095 6.75 19.4234 6.75 19.125ZM6.75 23.625C6.75 23.3266 6.86853 23.0405 7.07951 22.8295C7.29048 22.6185 7.57663 22.5 7.875 22.5H21.375C21.6734 22.5 21.9595 22.6185 22.1705 22.8295C22.3815 23.0405 22.5 23.3266 22.5 23.625C22.5 23.9234 22.3815 24.2095 22.1705 24.4205C21.9595 24.6315 21.6734 24.75 21.375 24.75H7.875C7.57663 24.75 7.29048 24.6315 7.07951 24.4205C6.86853 24.2095 6.75 23.9234 6.75 23.625ZM6.75 28.125C6.75 27.8266 6.86853 27.5405 7.07951 27.3295C7.29048 27.1185 7.57663 27 7.875 27H21.375C21.6734 27 21.9595 27.1185 22.1705 27.3295C22.3815 27.5405 22.5 27.8266 22.5 28.125C22.5 28.4234 22.3815 28.7095 22.1705 28.9205C21.9595 29.1315 21.6734 29.25 21.375 29.25H7.875C7.57663 29.25 7.29048 29.1315 7.07951 28.9205C6.86853 28.7095 6.75 28.4234 6.75 28.125ZM25.875 9C25.5766 9 25.2905 9.11853 25.0795 9.32951C24.8685 9.54048 24.75 9.82663 24.75 10.125C24.75 10.4234 24.8685 10.7095 25.0795 10.9205C25.2905 11.1315 25.5766 11.25 25.875 11.25H28.125C28.4234 11.25 28.7095 11.1315 28.9205 10.9205C29.1315 10.7095 29.25 10.4234 29.25 10.125C29.25 9.82663 29.1315 9.54048 28.9205 9.32951C28.7095 9.11853 28.4234 9 28.125 9H25.875ZM25.875 13.5C25.5766 13.5 25.2905 13.6185 25.0795 13.8295C24.8685 14.0405 24.75 14.3266 24.75 14.625C24.75 14.9234 24.8685 15.2095 25.0795 15.4205C25.2905 15.6315 25.5766 15.75 25.875 15.75H28.125C28.4234 15.75 28.7095 15.6315 28.9205 15.4205C29.1315 15.2095 29.25 14.9234 29.25 14.625C29.25 14.3266 29.1315 14.0405 28.9205 13.8295C28.7095 13.6185 28.4234 13.5 28.125 13.5H25.875ZM25.875 18C25.5766 18 25.2905 18.1185 25.0795 18.3295C24.8685 18.5405 24.75 18.8266 24.75 19.125C24.75 19.4234 24.8685 19.7095 25.0795 19.9205C25.2905 20.1315 25.5766 20.25 25.875 20.25H28.125C28.4234 20.25 28.7095 20.1315 28.9205 19.9205C29.1315 19.7095 29.25 19.4234 29.25 19.125C29.25 18.8266 29.1315 18.5405 28.9205 18.3295C28.7095 18.1185 28.4234 18 28.125 18H25.875ZM25.875 22.5C25.5766 22.5 25.2905 22.6185 25.0795 22.8295C24.8685 23.0405 24.75 23.3266 24.75 23.625C24.75 23.9234 24.8685 24.2095 25.0795 24.4205C25.2905 24.6315 25.5766 24.75 25.875 24.75H28.125C28.4234 24.75 28.7095 24.6315 28.9205 24.4205C29.1315 24.2095 29.25 23.9234 29.25 23.625C29.25 23.3266 29.1315 23.0405 28.9205 22.8295C28.7095 22.6185 28.4234 22.5 28.125 22.5H25.875ZM25.875 27C25.5766 27 25.2905 27.1185 25.0795 27.3295C24.8685 27.5405 24.75 27.8266 24.75 28.125C24.75 28.4234 24.8685 28.7095 25.0795 28.9205C25.2905 29.1315 25.5766 29.25 25.875 29.25H28.125C28.4234 29.25 28.7095 29.1315 28.9205 28.9205C29.1315 28.7095 29.25 28.4234 29.25 28.125C29.25 27.8266 29.1315 27.5405 28.9205 27.3295C28.7095 27.1185 28.4234 27 28.125 27H25.875Z" fill="#006EAF"/>
<path d="M5.2965 1.4535C5.17045 1.32735 5.01621 1.23297 4.84651 1.17815C4.6768 1.12333 4.4965 1.10964 4.32047 1.13821C4.14444 1.16678 3.97772 1.23679 3.83406 1.34247C3.69041 1.44814 3.57394 1.58645 3.49425 1.746L2.36925 3.996C2.29084 4.15244 2.25001 4.32501 2.25 4.5V33.75H1.125C0.826631 33.75 0.540483 33.8685 0.329505 34.0795C0.118526 34.2905 0 34.5766 0 34.875C0 35.1734 0.118526 35.4595 0.329505 35.6705C0.540483 35.8815 0.826631 36 1.125 36H34.875C35.1734 36 35.4595 35.8815 35.6705 35.6705C35.8815 35.4595 36 35.1734 36 34.875C36 34.5766 35.8815 34.2905 35.6705 34.0795C35.4595 33.8685 35.1734 33.75 34.875 33.75H33.75V4.5C33.75 4.32501 33.7092 4.15244 33.6307 3.996L32.5057 1.746C32.426 1.58686 32.3096 1.44893 32.1661 1.34353C32.0226 1.23814 31.8562 1.1683 31.6805 1.13975C31.5048 1.11119 31.3248 1.12475 31.1554 1.17929C30.9859 1.23383 30.8318 1.32781 30.7058 1.4535L29.25 2.90925L27.7965 1.4535C27.692 1.34873 27.5679 1.26561 27.4312 1.20889C27.2945 1.15218 27.148 1.12299 27 1.12299C26.852 1.12299 26.7055 1.15218 26.5688 1.20889C26.4321 1.26561 26.308 1.34873 26.2035 1.4535L24.75 2.90925L23.2965 1.4535C23.192 1.34873 23.0679 1.26561 22.9312 1.20889C22.7945 1.15218 22.648 1.12299 22.5 1.12299C22.352 1.12299 22.2055 1.15218 22.0688 1.20889C21.9321 1.26561 21.808 1.34873 21.7035 1.4535L20.25 2.90925L18.7965 1.4535C18.692 1.34873 18.5679 1.26561 18.4312 1.20889C18.2945 1.15218 18.148 1.12299 18 1.12299C17.852 1.12299 17.7055 1.15218 17.5688 1.20889C17.4321 1.26561 17.308 1.34873 17.2035 1.4535L15.75 2.90925L14.2965 1.4535C14.192 1.34873 14.0679 1.26561 13.9312 1.20889C13.7945 1.15218 13.648 1.12299 13.5 1.12299C13.352 1.12299 13.2055 1.15218 13.0688 1.20889C12.9321 1.26561 12.808 1.34873 12.7035 1.4535L11.25 2.90925L9.7965 1.4535C9.692 1.34873 9.56785 1.26561 9.43118 1.20889C9.2945 1.15218 9.14798 1.12299 9 1.12299C8.85202 1.12299 8.7055 1.15218 8.56882 1.20889C8.43215 1.26561 8.308 1.34873 8.2035 1.4535L6.75 2.90925L5.2965 1.4535ZM4.80825 4.149L5.95575 5.2965C6.16672 5.5074 6.45282 5.62588 6.75112 5.62588C7.04943 5.62588 7.33553 5.5074 7.5465 5.2965L9 3.84075L10.4535 5.2965C10.558 5.40126 10.6821 5.48439 10.8188 5.5411C10.9555 5.59781 11.102 5.62701 11.25 5.62701C11.398 5.62701 11.5445 5.59781 11.6812 5.5411C11.8179 5.48439 11.942 5.40126 12.0465 5.2965L13.5 3.84075L14.9535 5.2965C15.058 5.40126 15.1821 5.48439 15.3188 5.5411C15.4555 5.59781 15.602 5.62701 15.75 5.62701C15.898 5.62701 16.0445 5.59781 16.1812 5.5411C16.3179 5.48439 16.442 5.40126 16.5465 5.2965L18 3.84075L19.4535 5.2965C19.558 5.40126 19.6821 5.48439 19.8188 5.5411C19.9555 5.59781 20.102 5.62701 20.25 5.62701C20.398 5.62701 20.5445 5.59781 20.6812 5.5411C20.8179 5.48439 20.942 5.40126 21.0465 5.2965L22.5 3.84075L23.9535 5.2965C24.058 5.40126 24.1821 5.48439 24.3188 5.5411C24.4555 5.59781 24.602 5.62701 24.75 5.62701C24.898 5.62701 25.0445 5.59781 25.1812 5.5411C25.3179 5.48439 25.442 5.40126 25.5465 5.2965L27 3.84075L28.4535 5.2965C28.558 5.40126 28.6821 5.48439 28.8188 5.5411C28.9555 5.59781 29.102 5.62701 29.25 5.62701C29.398 5.62701 29.5445 5.59781 29.6812 5.5411C29.8179 5.48439 29.942 5.40126 30.0465 5.2965L31.1917 4.149L31.5 4.7655V33.75H4.5V4.7655L4.80825 4.149Z" fill="#006EAF"/>
</g>
<defs>
<clipPath id="clip0_2949_25373">
<rect width="36" height="36" fill="white"/>
</clipPath>
</defs>
</svg>
