<svg width="97" height="99" viewBox="0 0 97 99" fill="none" xmlns="http://www.w3.org/2000/svg">
<rect y="0.5" width="97" height="98" rx="48.5" fill="#219653"/>
<path fill-rule="evenodd" clip-rule="evenodd" d="M25.0728 32H71.9272C73.0228 32.0036 74.0725 32.4331 74.8472 33.1947C75.6219 33.9563 76.0588 34.9881 76.0625 36.0652V58.1385C76.0596 59.1989 75.6363 60.2164 74.8825 60.9749C74.1287 61.7334 73.1038 62.1731 72.0254 62.2006V65.7262C72.0258 65.8933 71.9927 66.0589 71.9279 66.2134C71.8631 66.3679 71.768 66.5084 71.6479 66.6267C71.5278 66.745 71.3852 66.8389 71.2282 66.903C71.0711 66.967 70.9028 67 70.7328 67H63.9747L59.8924 62.2021H37.0874L33.0051 67H26.2579C25.9175 66.9976 25.5918 66.8633 25.3515 66.6262C25.1112 66.3891 24.9758 66.0685 24.9746 65.7339V62.2083C23.8979 62.1808 22.8743 61.7423 22.1208 60.9858C21.3672 60.2293 20.9428 59.2141 20.9375 58.1553V36.0652C20.9412 34.9881 21.3781 33.9563 22.1528 33.1947C22.9275 32.4331 23.9772 32.0036 25.0728 32ZM38.09 43.2237H59.4043C59.6892 43.2264 59.9617 43.3386 60.1637 43.5362C60.3656 43.7339 60.4809 44.0013 60.4849 44.2813V49.9254C60.4809 50.2054 60.3656 50.4728 60.1637 50.6705C59.9617 50.8681 59.6892 50.9803 59.4043 50.9831H38.09C37.805 50.9818 37.5321 50.87 37.3306 50.6719C37.129 50.4738 37.0153 50.2055 37.0141 49.9254V44.2859C37.0153 44.0058 37.129 43.7375 37.3306 43.5394C37.5321 43.3413 37.805 43.2295 38.09 43.2283V43.2237Z" stroke="white" stroke-width="4"/>
</svg>
