<svg width="40" height="40" viewBox="0 0 40 40" fill="none" xmlns="http://www.w3.org/2000/svg">
<rect width="40" height="40" rx="20" fill="#EBF7FF"/>
<g clip-path="url(#clip0_1171_5981)">
<path d="M20 30C20 30 27.5 22.8925 27.5 17.5C27.5 15.5109 26.7098 13.6032 25.3033 12.1967C23.8968 10.7902 21.9891 10 20 10C18.0109 10 16.1032 10.7902 14.6967 12.1967C13.2902 13.6032 12.5 15.5109 12.5 17.5C12.5 22.8925 20 30 20 30ZM20 21.25C19.0054 21.25 18.0516 20.8549 17.3483 20.1517C16.6451 19.4484 16.25 18.4946 16.25 17.5C16.25 16.5054 16.6451 15.5516 17.3483 14.8483C18.0516 14.1451 19.0054 13.75 20 13.75C20.9946 13.75 21.9484 14.1451 22.6517 14.8483C23.3549 15.5516 23.75 16.5054 23.75 17.5C23.75 18.4946 23.3549 19.4484 22.6517 20.1517C21.9484 20.8549 20.9946 21.25 20 21.25Z" fill="#006EAF"/>
</g>
<defs>
<clipPath id="clip0_1171_5981">
<rect width="20" height="20" fill="white" transform="translate(10 10)"/>
</clipPath>
</defs>
</svg>
