<svg width="40" height="40" viewBox="0 0 40 40" fill="none" xmlns="http://www.w3.org/2000/svg">
<rect width="40" height="40" rx="20" fill="#EBF7FF"/>
<path d="M25.8906 10.8203L24.7188 13.4102H22.0352C22.168 13.5664 22.2969 13.7695 22.4219 14.0195C22.5469 14.2617 22.6289 14.5078 22.668 14.7578H25.8906L24.7188 17.3477H22.668C22.5742 17.9102 22.3789 18.4219 22.082 18.8828C21.793 19.3359 21.4297 19.7305 20.9922 20.0664C20.5547 20.4023 20.0586 20.6758 19.5039 20.8867C18.9492 21.0898 18.3633 21.2188 17.7461 21.2734L24.1211 28H19.9727L14.0898 21.4609V18.8711H15.8242C16.043 18.8711 16.3203 18.8555 16.6562 18.8242C16.9922 18.793 17.3242 18.7266 17.6523 18.625C17.9883 18.5156 18.293 18.3633 18.5664 18.168C18.8398 17.9648 19.0273 17.6914 19.1289 17.3477H13.5039L14.6758 14.7578H19.1172C19.0234 14.4453 18.8516 14.1992 18.6016 14.0195C18.3516 13.8398 18.0508 13.707 17.6992 13.6211C17.3555 13.5273 16.9688 13.4688 16.5391 13.4453C16.1094 13.4219 15.6641 13.4102 15.2031 13.4102H13.5039L14.6758 10.8203H25.8906Z" fill="#006EAF"/>
</svg>
