<svg width="14" height="14" viewBox="0 0 14 14" fill="none" xmlns="http://www.w3.org/2000/svg">
<g clip-path="url(#clip0_1483_5434)">
<path d="M10.6277 0.1278C10.6684 0.0870568 10.7167 0.0547318 10.7698 0.0326762C10.823 0.0106205 10.88 -0.000732422 10.9375 -0.000732422C10.995 -0.000732422 11.052 0.0106205 11.1052 0.0326762C11.1583 0.0547318 11.2066 0.0870568 11.2472 0.1278L13.8722 2.7528C13.913 2.79344 13.9453 2.84172 13.9674 2.89487C13.9894 2.94802 14.0008 3.005 14.0008 3.06255C14.0008 3.1201 13.9894 3.17708 13.9674 3.23023C13.9453 3.28338 13.913 3.33166 13.8722 3.3723L5.12225 12.1223C5.08026 12.164 5.03025 12.1967 4.97525 12.2185L0.600248 13.9685C0.520742 14.0004 0.433645 14.0082 0.349753 13.991C0.265861 13.9737 0.188864 13.9323 0.128309 13.8717C0.0677531 13.8112 0.0263013 13.7342 0.00909228 13.6503C-0.00811674 13.5664 -0.000326173 13.4793 0.0314982 13.3998L1.7815 9.0248C1.80331 8.9698 1.83605 8.91979 1.87775 8.8778L10.6277 0.1278ZM9.80612 2.18755L11.8125 4.19392L12.9439 3.06255L10.9375 1.05617L9.80612 2.18755ZM11.1939 4.81255L9.1875 2.80617L3.5 8.49367V8.75005H3.9375C4.05353 8.75005 4.16481 8.79614 4.24686 8.87819C4.3289 8.96024 4.375 9.07152 4.375 9.18755V9.62505H4.8125C4.92853 9.62505 5.03981 9.67114 5.12186 9.75319C5.2039 9.83524 5.25 9.94652 5.25 10.0625V10.5H5.50637L11.1939 4.81255ZM2.653 9.34067L2.56025 9.43342L1.22325 12.7768L4.56662 11.4398L4.65937 11.347C4.57592 11.3159 4.50397 11.2599 4.45315 11.1868C4.40233 11.1136 4.37506 11.0266 4.375 10.9375V10.5H3.9375C3.82147 10.5 3.71019 10.454 3.62814 10.3719C3.54609 10.2899 3.5 10.1786 3.5 10.0625V9.62505H3.0625C2.97341 9.62498 2.88646 9.59772 2.81328 9.5469C2.7401 9.49608 2.68418 9.42413 2.653 9.34067Z" fill="#777777"/>
</g>
<defs>
<clipPath id="clip0_1483_5434">
<rect width="14" height="14" fill="white"/>
</clipPath>
</defs>
</svg>
