<svg width="24" height="24" viewBox="0 0 24 24" fill="none" xmlns="http://www.w3.org/2000/svg">
<path d="M5.48171 1.99195C5.39316 1.87805 5.28138 1.78428 5.15381 1.71689C5.02624 1.6495 4.88579 1.61003 4.74178 1.60109C4.59778 1.59215 4.45353 1.61395 4.3186 1.66505C4.18367 1.71615 4.06116 1.79537 3.95921 1.89745L2.40821 3.44995C1.68371 4.17595 1.41671 5.20345 1.73321 6.10495C3.04682 9.83634 5.18365 13.2241 7.98521 16.017C10.7781 18.8185 14.1658 20.9553 17.8972 22.269C18.7987 22.5855 19.8262 22.3185 20.5522 21.594L22.1032 20.043C22.2053 19.941 22.2845 19.8185 22.3356 19.6836C22.3867 19.5486 22.4085 19.4044 22.3996 19.2604C22.3906 19.1164 22.3512 18.9759 22.2838 18.8484C22.2164 18.7208 22.1226 18.609 22.0087 18.5205L18.5482 15.8295C18.4265 15.7351 18.285 15.6696 18.1343 15.6379C17.9836 15.6062 17.8276 15.6091 17.6782 15.6465L14.3932 16.467C13.9547 16.5765 13.4953 16.5707 13.0598 16.4501C12.6242 16.3294 12.2273 16.098 11.9077 15.7785L8.22371 12.093C7.90386 11.7735 7.6722 11.3767 7.55128 10.9411C7.43036 10.5055 7.4243 10.0461 7.53371 9.60745L8.35571 6.32245C8.39307 6.17305 8.39601 6.01711 8.36431 5.8664C8.33261 5.71569 8.26709 5.57415 8.17271 5.45245L5.48171 1.99195ZM2.82671 0.766454C3.0892 0.503878 3.40455 0.30015 3.75182 0.168796C4.09908 0.0374423 4.47032 -0.0185307 4.84088 0.00459377C5.21144 0.0277182 5.57284 0.129411 5.90108 0.302919C6.22932 0.476428 6.5169 0.717781 6.74471 1.01095L9.43571 4.46995C9.92921 5.10445 10.1032 5.93095 9.90821 6.71095L9.08771 9.99595C9.04529 10.1661 9.04758 10.3443 9.09436 10.5133C9.14114 10.6823 9.23083 10.8363 9.35471 10.9605L13.0402 14.646C13.1645 14.7701 13.3187 14.8599 13.488 14.9067C13.6573 14.9535 13.8358 14.9557 14.0062 14.913L17.2897 14.0925C17.6746 13.9962 18.0764 13.9887 18.4646 14.0706C18.8529 14.1525 19.2174 14.3215 19.5307 14.565L22.9897 17.256C24.2332 18.2235 24.3472 20.061 23.2342 21.1725L21.6832 22.7235C20.5732 23.8335 18.9142 24.321 17.3677 23.7765C13.4095 22.3837 9.81561 20.1177 6.85271 17.1465C3.88164 14.184 1.61562 10.5906 0.222706 6.63295C-0.320294 5.08795 0.167206 3.42745 1.27721 2.31745L2.82821 0.766454H2.82671Z" fill="#006EAF"/>
</svg>
