<svg width="110" height="108" viewBox="0 0 110 108" fill="none" xmlns="http://www.w3.org/2000/svg">
<g clip-path="url(#clip0_39442_1781)">
<path fill-rule="evenodd" clip-rule="evenodd" d="M69.0904 31.4571L69.3142 31.5109C69.6365 31.6183 69.9408 31.6809 70.2183 31.6988C70.5227 31.7167 70.8092 31.6988 71.0777 31.6451C71.8476 31.493 72.9934 30.7768 74.2288 30.0069C75.6073 29.1476 77.0844 28.2345 78.651 27.7063C79.7073 27.3483 83.3954 27.1066 86.9045 27.0349C90.8971 26.9454 94.8627 27.2856 95.2655 28.0913C95.5788 28.7089 95.7758 29.5056 95.7042 30.3919C95.6505 31.0991 95.4267 31.86 94.9701 32.6298C93.9228 34.3933 92.0339 35.7003 90.2436 36.9267C88.4263 38.171 86.7613 39.3168 87.0388 40.1762C87.0567 40.2478 87.2358 40.4 87.5043 40.6149C87.8982 40.9282 88.4711 41.2952 89.0709 41.6622C91.4789 43.1303 93.3588 44.6879 94.9522 46.5231C96.5277 48.3403 97.8347 50.4171 99.1148 52.9684C99.4908 53.7114 99.8489 54.4723 100.189 55.26C100.556 56.1015 100.905 56.9519 101.236 57.8113L101.308 58.0888C101.505 59.2615 101.765 60.1567 102.114 60.7027C102.284 60.9713 102.445 61.1056 102.597 61.1056L102.642 61.0966H104.522C104.826 61.0966 105.068 61.0787 105.283 61.0698C107.073 60.9445 108.076 60.8818 109.123 63.5673C109.848 65.4293 110.09 68.0253 109.982 70.6124C109.866 73.3964 109.356 76.2342 108.613 78.1767C108.344 79.4568 107.762 80.4773 106.858 81.2293C105.954 81.9723 104.772 82.4199 103.295 82.5362L103.179 82.5452H101.084C100.171 82.5452 99.3744 82.5094 98.7836 82.4915C98.2196 82.4736 98.1033 82.393 98.0317 82.4288C97.9242 82.4825 98.0585 82.4915 97.9063 82.6884C97.5304 83.2076 96.9306 84.0312 95.6684 85.3382C94.7642 86.2692 93.7169 87.2986 92.7143 88.2475C91.7833 89.1248 90.8523 89.9573 90.0824 90.6018L89.608 90.9957C88.7397 91.7119 88.3189 92.061 88.301 92.1684C88.2652 92.3743 88.5248 93.0009 89.0351 94.2273C89.2499 94.7465 89.3842 95.0598 89.429 95.1762C89.9392 96.4295 90.4495 97.6469 90.915 98.7122C91.6938 100.512 92.5531 102.409 92.8306 103.036L92.8575 103.099C93.4931 104.71 93.3499 105.936 92.4636 106.814C91.7117 107.557 90.5211 107.843 88.9097 107.718H81.3634C80.307 107.789 79.3044 107.566 78.3645 107.028C77.4693 106.518 76.6547 105.748 75.9206 104.719L75.849 104.602C75.5715 104.119 75.2851 103.484 74.9807 102.803C74.2377 101.156 73.3246 99.1061 72.5816 99.4015C67.4612 101.398 62.4571 102.588 57.0413 102.767C51.6881 102.946 45.9589 102.141 39.3435 100.136C37.4457 99.867 37.0608 100.673 36.4521 101.944C36.282 102.302 36.1029 102.687 35.8523 103.161C35.7001 103.475 35.6464 103.6 35.5837 103.716C34.7065 105.587 33.865 107.395 31.2421 107.924L30.9556 107.95L21.2071 107.879H21.1086C20.5089 107.834 19.9807 107.7 19.5152 107.449C18.9781 107.172 18.5663 106.769 18.2709 106.232C17.4026 104.647 17.9845 103.448 18.5753 102.239H18.5663C18.6648 102.033 18.7722 101.818 18.7991 101.765L18.808 101.756L22.2366 94.2542L22.2992 94.1289C22.6573 93.5112 22.7916 93.0009 22.711 92.6071C22.6304 92.2221 22.344 91.8461 21.8695 91.4791C21.1892 90.9957 20.5268 90.4944 19.8912 89.9842C19.2288 89.456 18.6021 88.91 17.9934 88.3549C15.9792 86.5109 14.1173 84.3445 12.5238 81.9633C10.9931 79.6806 9.70401 77.192 8.77303 74.596C8.04793 72.5639 7.53767 70.4781 7.28702 68.3834C7.23331 67.9 7.18855 67.4077 7.1617 66.9243C4.0017 65.4025 1.7727 62.6901 0.698481 59.1093C-0.38469 55.4659 -0.250412 50.9363 1.36092 45.8875L4.10017 46.7648C2.66788 51.2317 2.5336 55.1795 3.45564 58.2858C4.14493 60.5774 5.42504 62.4126 7.20646 63.639C7.24226 63.2093 7.29597 62.7706 7.35864 62.3409C8.03898 57.6502 9.8562 53.2817 12.4522 49.4056C25.0295 30.6783 48.6623 28.1987 69.0904 31.4571Z" fill="#006EAF"/>
<path fill-rule="evenodd" clip-rule="evenodd" d="M84.6932 55.9669C85.9823 55.9669 87.146 56.4861 87.9875 57.3276C88.829 58.1691 89.3482 59.3328 89.3482 60.6218C89.3482 61.9109 88.829 63.0746 87.9875 63.9161C87.146 64.7576 85.9823 65.2768 84.6932 65.2768C83.4131 65.2768 82.2494 64.7576 81.4079 63.9161C80.5306 63.0478 80.0472 61.8662 80.0472 60.6308C80.0472 59.3417 80.5664 58.178 81.4079 57.3365C82.2762 56.4593 83.4489 55.9669 84.6932 55.9669ZM36.604 44.2311C35.315 44.6697 33.9185 43.9894 33.4798 42.7093C33.0412 41.4202 33.7215 40.0237 35.0017 39.5851C40.516 37.6783 46.1019 36.7921 51.7326 36.819C57.3544 36.8548 63.0119 37.7947 68.6784 39.5582C69.9764 39.961 70.7105 41.3396 70.3076 42.6376C69.9048 43.9357 68.5262 44.6697 67.2282 44.2669C61.9914 42.6466 56.8172 41.7693 51.7058 41.7425C46.6211 41.7066 41.5723 42.5123 36.604 44.2311Z" fill="#D5D920"/>
<path fill-rule="evenodd" clip-rule="evenodd" d="M51.8765 0.197266C62.6903 0.197266 71.4541 8.9611 71.4541 19.7749C71.4541 30.5887 62.6903 39.3525 51.8765 39.3525C41.0627 39.3525 32.2988 30.5887 32.2988 19.7749C32.2988 8.9611 41.0627 0.197266 51.8765 0.197266ZM51.8765 5.51465C59.7541 5.51465 66.1367 11.8973 66.1367 19.7749C66.1367 27.6525 59.7541 34.0352 51.8765 34.0352C43.9989 34.0352 37.6162 27.6525 37.6162 19.7749C37.6162 11.8973 44.0078 5.51465 51.8765 5.51465Z" fill="#D5D920"/>
<path fill-rule="evenodd" clip-rule="evenodd" d="M51.8765 5.51465C59.7541 5.51465 66.1367 11.8973 66.1367 19.7749C66.1367 27.6525 59.7541 34.0352 51.8765 34.0352C43.9989 34.0352 37.6162 27.6525 37.6162 19.7749C37.6162 11.8973 44.0078 5.51465 51.8765 5.51465Z" fill="#FFED33"/>
</g>
<defs>
<clipPath id="clip0_39442_1781">
<rect width="110" height="107.744" fill="white" transform="translate(0 0.197266)"/>
</clipPath>
</defs>
</svg>
