<svg width="24" height="24" viewBox="0 0 24 24" fill="none" xmlns="http://www.w3.org/2000/svg">
<path fill-rule="evenodd" clip-rule="evenodd" d="M13.2 0V2.4828C15.3118 2.75202 17.2744 3.71488 18.7798 5.22024C20.2851 6.72559 21.248 8.6882 21.5172 10.8H24V13.2H21.5172C21.2482 15.3119 20.2854 17.2746 18.78 18.78C17.2746 20.2854 15.3119 21.2482 13.2 21.5172V24H10.8V21.5172C8.6882 21.248 6.72559 20.2851 5.22024 18.7798C3.71488 17.2744 2.75202 15.3118 2.4828 13.2H0V10.8H2.4828C2.75242 8.68836 3.71541 6.72596 5.22068 5.22068C6.72596 3.71541 8.68836 2.75242 10.8 2.4828V0H13.2ZM4.8 12C4.8 15.9708 8.0292 19.2 12 19.2C15.9708 19.2 19.2 15.9708 19.2 12C19.2 8.0292 15.9708 4.8 12 4.8C8.0292 4.8 4.8 8.0292 4.8 12ZM16.9999 12C16.9999 14.7614 14.7613 17 11.9999 17C9.23844 17 6.99986 14.7614 6.99986 12C6.99986 9.23854 9.23844 6.99997 11.9999 6.99997C14.7613 6.99997 16.9999 9.23854 16.9999 12Z" fill="#444444"/>
</svg>
