<svg width="127" height="172" viewBox="0 0 127 172" fill="none" xmlns="http://www.w3.org/2000/svg">
<path d="M0.666016 8.27686C0.666016 3.85858 4.24774 0.276855 8.66602 0.276855H126.666V171.277H8.66602C4.24774 171.277 0.666016 167.695 0.666016 163.277V8.27686Z" fill="#0BCE07"/>
<path d="M80.1359 70.562C79.9936 70.6473 79.831 70.6923 79.6652 70.6924H79.1434H75.985L77.6596 73.3703L88.4488 90.6233C88.4488 90.6234 88.4489 90.6235 88.4489 90.6235C88.4489 90.6236 88.449 90.6236 88.449 90.6237C88.5356 90.7623 88.5835 90.9216 88.5878 91.0851C88.5921 91.2487 88.5525 91.4104 88.4732 91.5535C88.3939 91.6966 88.2777 91.8159 88.1367 91.899C87.9957 91.982 87.8351 92.0258 87.6714 92.0258H86.6528H83.822L85.0873 94.5581L93.818 112.03L93.8189 112.032C93.8889 112.172 93.922 112.327 93.9151 112.483C93.9082 112.639 93.8615 112.791 93.7793 112.924L95.2684 113.843L93.7793 112.924C93.6972 113.057 93.5824 113.167 93.4459 113.243C93.3094 113.319 93.1557 113.359 92.9994 113.359H68.9994H67.2494V115.109V126.693H60.0827V115.109V113.359H58.3327H34.3327C34.1763 113.359 34.0226 113.319 33.8861 113.243C33.7496 113.167 33.6348 113.057 33.5527 112.924L32.0636 113.843L33.5527 112.924C33.4706 112.791 33.4238 112.639 33.4169 112.483C33.41 112.327 33.4431 112.172 33.5132 112.032L33.5138 112.03L42.2499 94.5584L43.5162 92.0258H40.6846H39.6659C39.5023 92.0258 39.3417 91.982 39.2007 91.899C39.0597 91.8159 38.9435 91.6966 38.8642 91.5535C38.7849 91.4104 38.7453 91.2487 38.7496 91.0851C38.7539 90.9215 38.8019 90.7621 38.8886 90.6233C38.8886 90.6233 38.8886 90.6233 38.8886 90.6233L49.6726 73.37L51.3462 70.6924H48.1886H47.6669C47.5011 70.6923 47.3384 70.6473 47.1962 70.5621L46.2966 72.0632L47.1961 70.562C47.0539 70.4768 46.9375 70.3546 46.8592 70.2084C46.7809 70.0622 46.7438 69.8976 46.7517 69.732C46.7596 69.5667 46.8121 69.4066 46.9037 69.2687C46.9038 69.2685 46.904 69.2682 46.9042 69.2679L62.9033 45.2692C62.9871 45.1437 63.1005 45.0407 63.2335 44.9695C63.3666 44.8983 63.5151 44.8611 63.666 44.8611C63.8169 44.8611 63.9655 44.8983 64.0985 44.9695C64.2315 45.0407 64.3449 45.1436 64.4286 45.2691C64.4286 45.2691 64.4287 45.2692 64.4287 45.2692L80.4278 69.2679C80.4281 69.2683 80.4283 69.2687 80.4286 69.269C80.52 69.4068 80.5724 69.5668 80.5803 69.732C80.5882 69.8976 80.5511 70.0622 80.4728 70.2084C80.3946 70.3546 80.2781 70.4768 80.1359 70.562Z" stroke="white" stroke-width="3.5"/>
</svg>
