<svg width="111" height="112" viewBox="0 0 111 112" fill="none" xmlns="http://www.w3.org/2000/svg">
<path d="M2.87475 111.321C2.15929 111.272 1.49163 110.942 1.01687 110.405C0.542115 109.868 0.29867 109.166 0.338333 108.45V101.316C0.29867 100.6 0.542115 99.8968 1.01687 99.3593C1.49163 98.8218 2.15929 98.4928 2.87475 98.4438H40.5768C41.2907 98.495 41.9561 98.8249 42.429 99.3621C42.902 99.8994 43.1445 100.601 43.1048 101.316V108.45C43.1445 109.164 42.902 109.865 42.429 110.402C41.9561 110.939 41.2907 111.269 40.5768 111.321H2.87475ZM45.7681 101.027V89.658C51.1321 92.5541 57.1339 94.0654 63.2296 94.0551C68.0626 94.0628 72.85 93.1151 77.3154 91.2662C81.7807 89.4173 85.8369 86.7037 89.2498 83.2817C92.669 79.8702 95.3808 75.8178 97.2301 71.3558C99.0793 66.8937 100.03 62.11 100.026 57.2799C100.032 52.4469 99.0822 47.6608 97.2329 43.1956C95.3835 38.7304 92.6711 34.6747 89.2498 31.2612C85.3044 27.313 80.5127 24.3132 75.2374 22.4895L75.5464 29.9436L53.9276 16.5152L74.3642 1.33342L74.7832 11.6004C83.0172 13.6845 90.5344 17.9591 96.536 23.9693C100.917 28.3387 104.391 33.5304 106.759 39.2471C109.127 44.9638 110.342 51.0922 110.334 57.2799C110.342 63.4664 109.127 69.5946 106.759 75.3099C104.391 81.0252 100.917 86.2158 96.536 90.5834C92.1681 94.9652 86.9769 98.44 81.2611 100.808C75.5452 103.176 69.4166 104.39 63.2296 104.381C57.2486 104.385 51.3221 103.246 45.7681 101.027ZM2.87475 95.0751C2.15954 95.0268 1.4917 94.6994 1.01687 94.1623C0.542045 93.6253 0.298695 92.9229 0.338333 92.2071V85.0761C0.29867 84.3601 0.542115 83.657 1.01687 83.1195C1.49163 82.582 2.15929 82.2544 2.87475 82.2054H40.5768C41.291 82.2558 41.9574 82.5849 42.4305 83.1223C42.9035 83.6597 43.1453 84.3613 43.1048 85.0761V92.2071C43.1452 92.9217 42.9022 93.6226 42.429 94.1595C41.9559 94.6965 41.2907 95.0253 40.5768 95.0751H2.87475ZM2.87475 78.8338C2.15929 78.7848 1.49163 78.4558 1.01687 77.9183C0.542115 77.3808 0.29867 76.6777 0.338333 75.9616V68.8306C0.29867 68.1146 0.542115 67.4129 1.01687 66.8754C1.49163 66.3379 2.15929 66.0089 2.87475 65.9599H40.5768C41.2907 66.0111 41.9561 66.341 42.429 66.8782C42.902 67.4155 43.1445 68.116 43.1048 68.8306V75.9616C43.1445 76.6763 42.902 77.3782 42.429 77.9155C41.9561 78.4527 41.2907 78.7826 40.5768 78.8338H2.87475ZM2.87475 62.5855C2.15901 62.5372 1.49037 62.2076 1.01546 61.67C0.540554 61.1323 0.297908 60.4296 0.338333 59.7133V52.5823C0.29867 51.8663 0.542115 51.1646 1.01687 50.6271C1.49163 50.0896 2.15929 49.7606 2.87475 49.7116H40.5768C41.2907 49.7628 41.9561 50.0927 42.429 50.6299C42.902 51.1672 43.1445 51.8677 43.1048 52.5823V59.7133C43.1453 60.4282 42.9035 61.1297 42.4305 61.6671C41.9574 62.2046 41.291 62.535 40.5768 62.5855H2.87475ZM2.87475 46.3428C2.15929 46.2938 1.49163 45.9648 1.01687 45.4273C0.542115 44.8898 0.29867 44.1867 0.338333 43.4707V36.3411C0.29867 35.625 0.542115 34.9219 1.01687 34.3844C1.49163 33.847 2.15929 33.5179 2.87475 33.4689H40.5768C41.2907 33.5201 41.9561 33.85 42.429 34.3873C42.902 34.9245 43.1445 35.6264 43.1048 36.3411V43.4707C43.1453 44.1855 42.9035 44.8871 42.4305 45.4245C41.9574 45.9619 41.291 46.2924 40.5768 46.3428H2.87475ZM15.9645 29.6981V21.9788H7.40165L21.723 0.937012L36.0443 21.9788H27.4772V29.6981H15.9645Z" fill="#006EAF"/>
<path d="M58.192 64.6917L68.9273 78.9453H76.5605L62.0629 59.8347C64.2502 59.2272 66.2932 58.1855 68.0696 56.7721C69.8956 55.3262 71.1779 53.3054 71.7092 51.0377H78.2618L80.0816 45.8802H71.8912C71.7286 44.3825 71.2534 42.9349 70.496 41.6326H78.2647L80.0844 36.4766H53.4506L51.6309 41.6326H58.9114C60.3502 41.6298 61.7573 42.0542 62.9559 42.8501C63.9566 43.5896 64.6567 44.6655 64.9266 45.8802H53.4591L51.6393 51.0377H64.8025C64.5611 51.8146 64.1648 52.5346 63.6386 53.1551C63.1124 53.7756 62.4669 54.2839 61.7399 54.649C60.043 55.4455 58.1808 55.8287 56.3073 55.7691H52.7284V60.2015C53.2172 60.1887 53.7037 60.2759 54.1574 60.4583C54.6111 60.6406 55.0224 60.9148 55.3664 61.2624C56.3841 62.3407 57.3282 63.4865 58.192 64.6917Z" fill="#D5D920"/>
<path d="M0.394609 111.431H0.381836V111.425H0.39248C0.393748 111.427 0.394483 111.429 0.394609 111.431Z" fill="#219653"/>
<path d="M0.461992 111.431H0.449219V111.425H0.459863C0.461131 111.427 0.461866 111.429 0.461992 111.431Z" fill="#219653"/>
<path d="M0.509492 111.425V111.446H0.500977V111.425H0.509492Z" fill="#219653"/>
<path d="M0.507363 111.404H0.500977V111.382L0.507363 111.404Z" fill="#219653"/>
<path d="M0.59668 111.446V111.425H0.605195L0.59668 111.446Z" fill="#219653"/>
<path d="M0.603943 111.427H0.59668V111.425L0.603943 111.427Z" fill="#219653"/>
<path d="M0.643555 111.446V111.425H0.65207L0.643555 111.446Z" fill="#219653"/>
<path d="M0.679138 111.427H0.671875V111.425L0.679138 111.427Z" fill="#219653"/>
<path d="M0.745585 111.432V111.425H0.743164L0.745585 111.432Z" fill="#219653"/>
<path d="M0.346582 111.425H0.335938V111.435L0.346582 111.425Z" fill="#219653"/>
<path d="M0.389099 111.459H0.381836V111.457L0.389099 111.459Z" fill="#219653"/>
<path d="M0.513749 111.463H0.500977V111.457H0.511621C0.512888 111.459 0.513624 111.461 0.513749 111.463Z" fill="#219653"/>
<path d="M0.565857 111.459H0.558594V111.457L0.565857 111.459Z" fill="#219653"/>
<path d="M0.641093 111.461V111.454H0.638672L0.641093 111.461Z" fill="#219653"/>
<path d="M0.723083 111.459H0.71582V111.457L0.723083 111.459Z" fill="#219653"/>
<path d="M0.755937 111.463H0.743164V111.457H0.753808C0.755076 111.459 0.755811 111.461 0.755937 111.463Z" fill="#219653"/>
</svg>
