<svg width="40" height="40" viewBox="0 0 40 40" fill="none" xmlns="http://www.w3.org/2000/svg">
<rect width="40" height="40" rx="20" fill="#EBF7FF"/>
<g clip-path="url(#clip0_1171_6021)">
<path d="M24.0635 10.0851C24.1859 10.156 24.2805 10.2663 24.3321 10.398C24.3836 10.5297 24.389 10.6749 24.3473 10.8101L22.096 18.1251H26.2498C26.3718 18.125 26.4912 18.1607 26.5933 18.2278C26.6953 18.2948 26.7754 18.3902 26.8238 18.5023C26.8722 18.6144 26.8867 18.7382 26.8656 18.8584C26.8444 18.9786 26.7885 19.09 26.7048 19.1788L16.7048 29.8038C16.608 29.9067 16.4792 29.9738 16.3395 29.9941C16.1997 30.0145 16.0572 29.9869 15.9351 29.9158C15.813 29.8448 15.7186 29.7345 15.6672 29.6029C15.6159 29.4714 15.6106 29.3263 15.6523 29.1913L17.9035 21.8751H13.7498C13.6277 21.8751 13.5083 21.8394 13.4063 21.7724C13.3043 21.7053 13.2241 21.6099 13.1757 21.4978C13.1273 21.3858 13.1128 21.262 13.134 21.1417C13.1551 21.0215 13.211 20.9101 13.2948 20.8213L23.2948 10.1963C23.3914 10.0936 23.52 10.0265 23.6595 10.0061C23.7991 9.98567 23.9415 10.0131 24.0635 10.0838V10.0851Z" fill="#006EAF"/>
</g>
<defs>
<clipPath id="clip0_1171_6021">
<rect width="20" height="20" fill="white" transform="translate(10 10)"/>
</clipPath>
</defs>
</svg>
