<svg width="118" height="128" viewBox="0 0 118 128" fill="none" xmlns="http://www.w3.org/2000/svg">
<path fill-rule="evenodd" clip-rule="evenodd" d="M55.4764 47.9981L52.9277 36.3199C61.3404 37.8929 73.6458 51.4229 81.4611 62.1354C75.8958 65.6697 72.5009 70.7571 72.5009 76.7904C72.4992 77.6476 72.5691 78.5034 72.71 79.349C68.8523 77.9955 64.7914 77.312 60.7032 77.328C55.3397 77.2604 50.0369 78.4683 45.2318 80.8524C39.1389 84.0482 35.3556 89.1456 35.3556 95.358C35.3486 97.0554 35.6419 98.7407 36.2218 100.336C36.1123 100.655 36.0028 100.983 35.9132 101.332C35.5514 102.577 35.3637 103.867 35.3556 105.165C35.352 106.81 35.6315 108.443 36.182 109.993L35.963 110.67C35.5729 111.962 35.3684 113.303 35.3556 114.652C35.3464 117.534 36.1993 120.353 37.8048 122.747H37.0581C25.2306 122.139 6.94168 122.159 2.21265 110.023C-5.54294 90.3901 8.58439 67.0536 21.4673 52.7669C23.1262 50.927 24.8809 49.1757 26.7239 47.5202C31.4131 43.3985 36.4707 38.5599 42.494 36.4692L36.6698 47.3211L45.1323 36.1008H49.5925L55.4764 47.9981ZM42.1256 20.6195C40.3137 15.2732 38.6809 9.86721 37.307 4.39149C42.4442 -1.24351 62.2962 -0.496825 68.0008 4.30189L62.6944 16.8562C65.5418 13.1128 66.4975 11.5796 68.19 9.49884C68.8914 9.96993 69.557 10.4924 70.1812 11.0619C71.6845 12.4259 73.0285 13.9292 73.2974 16.0398C73.3814 16.794 73.2973 17.5575 73.0512 18.2753C72.805 18.9931 72.4029 19.6475 71.8737 20.1914L59.7972 34.3088C58.2427 34.0604 56.7134 33.6739 55.2275 33.1539C55.9145 31.5311 56.7508 29.749 57.4377 28.176L53.0173 32.9448C49.059 31.9504 44.8724 32.4613 41.2694 34.3785L28.974 19.5742C28.3117 18.8484 27.9335 17.9081 27.9087 16.9259C27.9087 13.3617 33.2351 10.2854 36.0227 9.12052L42.1256 20.6195Z" fill="#006EAF"/>
<path fill-rule="evenodd" clip-rule="evenodd" d="M117.211 97.5479C117.723 98.4009 118 99.3139 118 100.257C118 105.267 110.231 109.327 100.656 109.327C91.0811 109.327 83.3125 105.267 83.3125 100.257C83.3125 99.3139 83.5895 98.4009 84.1014 97.5479C86.3055 101.23 92.8817 103.909 100.656 103.909C108.431 103.909 115.007 101.236 117.211 97.5479ZM77.8986 111.057C78.4105 111.916 78.6875 112.823 78.6875 113.767C78.6875 118.776 70.9189 122.837 61.3438 122.837C51.7686 122.837 44 118.776 44 113.767C44 112.823 44.277 111.91 44.7889 111.057C46.993 114.74 53.5752 117.419 61.3438 117.419C69.1183 117.419 75.6945 114.746 77.8986 111.057ZM61.3438 88.7838C69.2147 88.7838 75.5981 91.2827 75.5981 94.3582C75.5981 97.4398 69.2147 99.9327 61.3438 99.9327C53.4728 99.9327 47.0894 97.4458 47.0894 94.3643C47.0894 91.2827 53.4728 88.7838 61.3438 88.7838ZM61.3438 86.9397C70.9189 86.9397 78.6875 91.0004 78.6875 96.0101C78.6875 101.02 70.9189 105.081 61.3438 105.081C51.7686 105.075 44 101.014 44 96.0101C44 91.0004 51.7686 86.9397 61.3438 86.9397ZM77.9588 102.053C78.4285 102.876 78.6875 103.753 78.6875 104.654C78.6875 109.664 70.9189 113.725 61.3438 113.725C51.7686 113.725 44 109.664 44 104.66C44 103.753 44.2529 102.882 44.7287 102.059C46.8726 105.795 53.4969 108.523 61.3438 108.523C69.1906 108.517 75.821 105.795 77.9588 102.053ZM100.656 75.2803C108.527 75.2803 114.911 77.7792 114.911 80.8547C114.911 83.9363 108.527 86.4291 100.656 86.4291C92.7853 86.4291 86.4019 83.9302 86.4019 80.8547C86.4019 77.7732 92.7853 75.2803 100.656 75.2803ZM100.656 73.4302C110.231 73.4302 118 77.4909 118 82.5006C118 87.5104 110.231 91.571 100.656 91.571C91.0811 91.571 83.3125 87.5104 83.3125 82.5006C83.3125 77.4909 91.0811 73.4302 100.656 73.4302ZM117.271 88.5436C117.741 89.3665 118 90.2435 118 91.1446C118 96.1543 110.231 100.215 100.656 100.215C91.0811 100.215 83.3125 96.1543 83.3125 91.1446C83.3125 90.2375 83.5654 89.3665 84.0412 88.5436C86.179 92.2799 92.8094 95.007 100.656 95.007C108.503 95.013 115.133 92.2859 117.271 88.5436ZM117.103 116.031C117.681 116.938 118 117.905 118 118.914C118 123.924 110.231 127.985 100.656 127.985C91.0811 127.985 83.3125 123.924 83.3125 118.914C83.3125 117.905 83.6256 116.938 84.2098 116.031C86.5163 119.623 93.0081 122.218 100.656 122.218C108.304 122.218 114.802 119.629 117.103 116.031ZM117.187 106.702C117.717 107.573 118 108.493 118 109.454C118 114.463 110.231 118.524 100.656 118.524C91.0811 118.524 83.3125 114.463 83.3125 109.454C83.3125 108.493 83.6016 107.567 84.1255 106.702C86.3537 110.367 92.9118 113.016 100.656 113.016C108.401 113.016 114.953 110.367 117.187 106.702Z" fill="#006EAF"/>
<path d="M75.4111 94.1232C75.4111 91.0477 69.0277 88.5488 61.1567 88.5488C53.2858 88.5488 46.9023 91.0477 46.9023 94.1292C46.9023 97.2108 53.2858 99.6977 61.1567 99.6977C69.0277 99.6977 75.4111 97.2048 75.4111 94.1232Z" fill="#D5D920"/>
<path d="M114.735 81.0644C114.735 77.9889 108.352 75.49 100.481 75.49C92.61 75.49 86.2266 77.9829 86.2266 81.0644C86.2266 84.1399 92.61 86.6388 100.481 86.6388C108.352 86.6388 114.735 84.1459 114.735 81.0644Z" fill="#D5D920"/>
</svg>
