<svg width="111" height="122" viewBox="0 0 111 122" fill="none" xmlns="http://www.w3.org/2000/svg">
<path fill-rule="evenodd" clip-rule="evenodd" d="M19.0924 41.4186C17.7192 41.4186 16.583 40.2824 16.583 38.919C16.583 37.5458 17.7192 36.4096 19.0924 36.4096H25.5043C26.8776 36.4096 28.0138 37.5458 28.0138 38.9092C28.0138 40.2824 26.8776 41.4186 25.5043 41.4186H19.0924ZM23.0048 22.8844C21.7995 22.1829 21.4043 20.6812 22.0662 19.4759C22.7677 18.2706 24.2694 17.8754 25.4747 18.5373L31.0567 21.7482C32.262 22.4497 32.6572 23.9514 31.9953 25.1567C31.2938 26.362 29.7921 26.7572 28.5868 26.0953L23.0048 22.8844ZM55.6373 17.0356C61.812 17.0356 67.4237 19.545 71.4645 23.5858C75.5052 27.6266 78.0147 33.2382 78.0147 39.413C78.0147 41.2704 77.7874 43.0784 77.3626 44.8073H33.9119C33.4871 43.0784 33.2599 41.2704 33.2599 39.413C33.2599 33.2382 35.7693 27.6266 39.8101 23.5858C43.9101 19.545 49.4921 17.0356 55.6373 17.0356ZM86.3333 19.4364C87.5386 18.7349 89.07 19.14 89.7714 20.3354C90.4433 21.5407 90.0382 23.0721 88.8329 23.7439L83.2509 26.9548C82.0456 27.6562 80.5142 27.2512 79.8424 26.0557C79.1409 24.8504 79.546 23.3191 80.7414 22.6473L86.3333 19.4364ZM92.2414 37.447C93.6146 37.447 94.7508 38.5831 94.7508 39.9564C94.7508 41.3297 93.6146 42.4658 92.2414 42.4658H85.8295C84.4562 42.4658 83.32 41.3297 83.32 39.9564C83.32 38.5831 84.4562 37.447 85.8295 37.447H92.2414ZM35.6902 8.78611C34.9888 7.5808 35.3939 6.04945 36.5597 5.37763C37.765 4.67618 39.2963 5.08124 39.9681 6.27668L43.179 11.8488C43.8805 13.0541 43.4754 14.5855 42.28 15.2573C41.0747 15.9587 39.5433 15.5537 38.8715 14.3582L35.6902 8.78611ZM53.691 2.87808C53.691 1.50481 54.7975 0.368652 56.2004 0.368652C57.5737 0.368652 58.7098 1.50481 58.7098 2.87808V9.28997C58.7098 10.6632 57.5737 11.7895 56.2004 11.7895C54.8271 11.7895 53.691 10.6534 53.691 9.28997V2.87808ZM72.2351 6.78054C72.9365 5.57523 74.4382 5.18004 75.6435 5.84198C76.8489 6.54343 77.2539 8.04514 76.5821 9.25046L73.3712 14.8325C72.6698 16.0378 71.1681 16.433 69.9627 15.771C68.7574 15.0696 68.3622 13.5679 69.0242 12.3625L72.2351 6.78054Z" fill="#D5D920"/>
<path d="M107.407 95.905H59.7176V113.659H74.4087V121.77H36.9154V113.659H51.6065V95.905H3.9174C3.64077 95.905 3.34438 95.8655 3.03811 95.7766C2.45521 95.6185 1.90195 95.3024 1.49688 94.8776C0.993021 94.3441 0.666992 93.6624 0.666992 92.8819C0.666992 92.6546 0.706511 92.4175 0.775668 92.1607L13.066 47.5343C13.2537 46.8625 13.5698 46.2005 14.0638 45.7065C14.6171 45.1533 15.3284 44.8174 16.2176 44.8174H40.1362H65.7442H95.1065C95.9167 44.8174 96.5786 45.1039 97.1022 45.5781C97.1516 45.6275 97.2109 45.667 97.2603 45.7164C97.7543 46.2104 98.0704 46.8723 98.2582 47.5442L110.558 92.1804C110.627 92.4373 110.667 92.6744 110.667 92.8918C110.667 93.6722 110.341 94.3539 109.827 94.8776C109.422 95.3024 108.859 95.6185 108.286 95.7766C107.98 95.8655 107.683 95.905 107.407 95.905Z" fill="#3299D6"/>
<path d="M45.3827 70.5142L44.543 76.6889H64.5196L63.8972 70.5142H45.3827Z" fill="#006EAF"/>
<path d="M26.5419 70.5142L25.1094 76.6889H40.6797L41.5195 70.5142H26.5419Z" fill="#006EAF"/>
<path d="M67.75 70.5142L68.3625 76.6889H84.9307L83.8044 70.5142H67.75Z" fill="#006EAF"/>
<path d="M46.746 60.4766L45.9062 66.6513H63.5217L62.9091 60.4766H46.746Z" fill="#006EAF"/>
<path d="M28.8632 60.4766L27.4307 66.6513H42.0427L42.8824 60.4766H28.8632Z" fill="#006EAF"/>
<path d="M66.752 60.4766L67.3645 66.6513H83.0929L81.9666 60.4766H66.752Z" fill="#006EAF"/>
<path d="M48.3563 48.6504C48.3563 48.7195 48.3464 48.7887 48.3365 48.8579L47.2695 56.6331H62.5237L61.7333 48.6504H48.3563Z" fill="#006EAF"/>
<path d="M31.6103 48.6504L29.7529 56.6331H43.4165L44.5032 48.6504H31.6103Z" fill="#006EAF"/>
<path d="M14.5283 56.6331H25.8208L27.6781 48.6504H16.7315L14.5283 56.6331Z" fill="#006EAF"/>
<path d="M11.7715 66.6513H23.4887L24.9213 60.4766H13.4708L11.7715 66.6513Z" fill="#006EAF"/>
<path d="M9.00586 76.6889H21.1776L22.6101 70.5142H10.7052L9.00586 76.6889Z" fill="#006EAF"/>
<path d="M17.6003 92.0618L20.2776 80.5322H7.94785L4.7666 92.0618H17.6003Z" fill="#006EAF"/>
<path d="M38.5756 92.0618L40.1563 80.5322H24.2106L21.5332 92.0618H38.5756Z" fill="#006EAF"/>
<path d="M66.0311 92.0618L64.885 80.5322H44.0192L42.4385 92.0618H66.0311Z" fill="#006EAF"/>
<path d="M87.7367 92.0618L85.6225 80.5322H68.748L69.8842 92.0618H87.7367Z" fill="#006EAF"/>
<path d="M103.386 80.5322H89.5244L91.6288 92.0618H106.557L103.386 80.5322Z" fill="#006EAF"/>
<path d="M100.619 70.5142H87.6865L88.8128 76.6889H102.318L100.619 70.5142Z" fill="#006EAF"/>
<path d="M97.8534 60.4766H85.8496L86.9759 66.6513H99.5527L97.8534 60.4766Z" fill="#006EAF"/>
<path d="M83.6855 48.6504L85.1477 56.6331H96.7958L94.6026 48.6504H83.6855Z" fill="#006EAF"/>
<path d="M65.5859 48.6504L66.3763 56.6331H81.2649L79.8028 48.6504H65.5859Z" fill="#006EAF"/>
</svg>

