<svg width="20" height="20" viewBox="0 0 20 20" fill="none" xmlns="http://www.w3.org/2000/svg">
<path d="M0.625 12.375C0.79076 12.375 0.949732 12.4408 1.06694 12.5581C1.18415 12.6753 1.25 12.8342 1.25 13V16.125C1.25 16.4565 1.3817 16.7745 1.61612 17.0089C1.85054 17.2433 2.16848 17.375 2.5 17.375H17.5C17.8315 17.375 18.1495 17.2433 18.3839 17.0089C18.6183 16.7745 18.75 16.4565 18.75 16.125V13C18.75 12.8342 18.8158 12.6753 18.9331 12.5581C19.0503 12.4408 19.2092 12.375 19.375 12.375C19.5408 12.375 19.6997 12.4408 19.8169 12.5581C19.9342 12.6753 20 12.8342 20 13V16.125C20 16.788 19.7366 17.4239 19.2678 17.8928C18.7989 18.3616 18.163 18.625 17.5 18.625H2.5C1.83696 18.625 1.20107 18.3616 0.732233 17.8928C0.263392 17.4239 0 16.788 0 16.125V13C0 12.8342 0.065848 12.6753 0.183058 12.5581C0.300269 12.4408 0.45924 12.375 0.625 12.375Z" fill="#777777"/>
<path d="M9.55829 1.43252C9.61635 1.37431 9.68532 1.32814 9.76125 1.29663C9.83718 1.26512 9.91858 1.2489 10.0008 1.2489C10.083 1.2489 10.1644 1.26512 10.2403 1.29663C10.3163 1.32814 10.3852 1.37431 10.4433 1.43252L14.1933 5.18252C14.3106 5.29988 14.3766 5.45905 14.3766 5.62502C14.3766 5.79099 14.3106 5.95016 14.1933 6.06752C14.0759 6.18488 13.9168 6.25081 13.7508 6.25081C13.5848 6.25081 13.4256 6.18488 13.3083 6.06752L10.6258 3.38377V14.375C10.6258 14.5408 10.5599 14.6997 10.4427 14.817C10.3255 14.9342 10.1666 15 10.0008 15C9.83503 15 9.67606 14.9342 9.55885 14.817C9.44164 14.6997 9.37579 14.5408 9.37579 14.375V3.38377L6.69329 6.06752C6.63518 6.12563 6.56619 6.17172 6.49027 6.20317C6.41435 6.23462 6.33297 6.25081 6.25079 6.25081C6.16861 6.25081 6.08723 6.23462 6.01131 6.20317C5.93539 6.17172 5.8664 6.12563 5.80829 6.06752C5.75018 6.00941 5.70408 5.94042 5.67264 5.8645C5.64119 5.78857 5.625 5.7072 5.625 5.62502C5.625 5.54284 5.64119 5.46146 5.67264 5.38554C5.70408 5.30961 5.75018 5.24063 5.80829 5.18252L9.55829 1.43252Z" fill="#777777"/>
</svg>
