<svg width="137" height="101" viewBox="0 0 137 101" fill="none" xmlns="http://www.w3.org/2000/svg">
<path fill-rule="evenodd" clip-rule="evenodd" d="M135.216 44.4009C136.157 45.9685 136.666 47.6466 136.666 49.3798C136.666 58.5869 122.389 66.0498 104.791 66.0498C87.1934 66.0498 72.916 58.5869 72.916 49.3798C72.916 47.6466 73.4251 45.9685 74.3659 44.4009C78.4167 51.1683 90.5026 56.092 104.791 56.092C119.079 56.092 131.165 51.1793 135.216 44.4009ZM62.9661 69.2292C63.9069 70.8079 64.416 72.4749 64.416 74.2082C64.416 83.4153 50.1387 90.8781 32.541 90.8781C14.9434 90.8781 0.666016 83.4153 0.666016 74.2082C0.666016 72.4749 1.17513 70.7969 2.11589 69.2292C6.16667 75.9966 18.2637 80.9203 32.541 80.9203C46.8294 80.9203 58.9154 76.0076 62.9661 69.2292ZM32.541 28.2939C47.0065 28.2939 58.7383 32.8865 58.7383 38.5388C58.7383 44.2022 47.0065 48.7837 32.541 48.7837C18.0755 48.7837 6.34375 44.2132 6.34375 38.5499C6.34375 32.8865 18.0755 28.2939 32.541 28.2939ZM32.541 24.9048C50.1387 24.9048 64.416 32.3676 64.416 41.5747C64.416 50.7819 50.1387 58.2447 32.541 58.2447C14.9434 58.2337 0.666016 50.7708 0.666016 41.5747C0.666016 32.3676 14.9434 24.9048 32.541 24.9048ZM63.0768 52.6807C63.9401 54.1931 64.416 55.8049 64.416 57.4609C64.416 66.668 50.1387 74.1309 32.541 74.1309C14.9434 74.1309 0.666016 66.668 0.666016 57.4719C0.666016 55.8049 1.13086 54.2042 2.00521 52.6917C5.94531 59.5584 18.1198 64.5705 32.541 64.5705C46.9622 64.5594 59.1478 59.5584 63.0768 52.6807ZM104.791 3.47665C119.257 3.47665 130.988 8.06918 130.988 13.7215C130.988 19.3849 119.257 23.9664 104.791 23.9664C90.3255 23.9664 78.5938 19.3738 78.5938 13.7215C78.5938 8.05814 90.3255 3.47665 104.791 3.47665ZM104.791 0.076416C122.389 0.076416 136.666 7.53928 136.666 16.7464C136.666 25.9535 122.389 33.4164 104.791 33.4164C87.1934 33.4164 72.916 25.9535 72.916 16.7464C72.916 7.53928 87.1934 0.076416 104.791 0.076416ZM135.327 27.8524C136.19 29.3648 136.666 30.9766 136.666 32.6326C136.666 41.8397 122.389 49.3025 104.791 49.3025C87.1934 49.3025 72.916 41.8397 72.916 32.6326C72.916 30.9656 73.3809 29.3648 74.2552 27.8524C78.1842 34.7191 90.3698 39.7311 104.791 39.7311C119.212 39.7421 131.398 34.7301 135.327 27.8524ZM135.017 78.3701C136.079 80.0371 136.666 81.8145 136.666 83.6692C136.666 92.8763 122.389 100.339 104.791 100.339C87.1934 100.339 72.916 92.8763 72.916 83.6692C72.916 81.8145 73.4915 80.0371 74.5651 78.3701C78.804 84.9719 90.735 89.7411 104.791 89.7411C118.847 89.7411 130.789 84.9829 135.017 78.3701ZM135.172 61.2254C136.146 62.8262 136.666 64.5153 136.666 66.2816C136.666 75.4888 122.389 82.9516 104.791 82.9516C87.1934 82.9516 72.916 75.4888 72.916 66.2816C72.916 64.5153 73.4473 62.8152 74.4102 61.2254C78.5052 67.9597 90.558 72.8282 104.791 72.8282C119.024 72.8282 131.066 67.9597 135.172 61.2254Z" fill="#006EAF"/>
<path d="M58.3945 38.1069C58.3945 32.4546 46.6628 27.8621 32.1973 27.8621C17.7318 27.8621 6 32.4546 6 38.118C6 43.7813 17.7318 48.3518 32.1973 48.3518C46.6628 48.3518 58.3945 43.7703 58.3945 38.1069Z" fill="#D5D920"/>
<path d="M130.666 14.1069C130.666 8.45459 118.934 3.86206 104.469 3.86206C90.0033 3.86206 78.2715 8.44355 78.2715 14.1069C78.2715 19.7593 90.0033 24.3518 104.469 24.3518C118.934 24.3518 130.666 19.7703 130.666 14.1069Z" fill="#D5D920"/>
</svg>
