<svg width="760" height="194" viewBox="0 0 760 194" fill="none" xmlns="http://www.w3.org/2000/svg">
<path fill-rule="evenodd" clip-rule="evenodd" d="M193.637 96.8186C193.637 150.29 150.29 193.637 96.8186 193.637C43.3472 193.637 0 150.29 0 96.8186C0 43.3472 43.3472 0 96.8186 0C150.29 0 193.637 43.3472 193.637 96.8186ZM97.8847 26.1084L21.757 141.42H34.504C36.6661 141.422 38.7932 140.884 40.6908 139.858C42.5884 138.832 44.1969 137.35 45.368 135.547L97.7713 54.7291L150.176 135.547C151.347 137.35 152.956 138.832 154.853 139.858C156.751 140.884 158.878 141.422 161.04 141.42H174.056L97.8847 26.1084Z" fill="black"/>
<path d="M304.05 50.0411L241.503 144.981H251.976C253.752 144.982 255.5 144.539 257.059 143.694C258.618 142.849 259.94 141.629 260.902 140.145L303.957 73.6053L347.014 140.145C347.976 141.629 349.298 142.849 350.857 143.694C352.416 144.539 354.164 144.982 355.94 144.981H366.634L304.05 50.0411Z" fill="black"/>
<path d="M697.416 50.0411L634.868 144.981H645.342C647.117 144.982 648.865 144.539 650.425 143.694C651.984 142.849 653.305 141.629 654.266 140.145L697.323 73.6053L740.38 140.145C741.342 141.629 742.663 142.849 744.223 143.694C745.782 144.539 747.53 144.982 749.305 144.981H760L697.416 50.0411Z" fill="black"/>
<path fill-rule="evenodd" clip-rule="evenodd" d="M467.229 140.001L445.352 109.785H403.459V144.431H388.692V51.1581H451.077C472.617 51.1581 485.882 63.6517 485.882 80.5759C485.882 94.62 476.294 104.487 461.166 108.166L487.221 144.431H475.852C474.164 144.427 472.501 144.022 471.002 143.252C469.502 142.481 468.209 141.367 467.229 140.001ZM403.481 63.3625V97.8005H448.051C462.678 97.8005 470.742 91.9475 470.742 80.5759C470.742 69.2044 462.678 63.3625 448.051 63.3625H403.481Z" fill="black"/>
<path d="M612.945 144.483L564.175 87.9846L611.049 51.1974H592.429L523.829 103.855V51.1974H509.19V144.471H523.829V119.901L553.713 96.8567L591.906 140.816C592.904 141.972 594.144 142.898 595.539 143.531C596.933 144.164 598.449 144.489 599.982 144.483H612.945Z" fill="black"/>
</svg>
