<svg xmlns="http://www.w3.org/2000/svg" width="24" height="24" viewBox="0 0 24 24">
    <g data-name="Group 2133">
        <path data-name="Rectangle 526" style="fill:none" d="M0 0h24v24H0z"/>
        <path data-name="Path 137" d="M16.373 12.64a27.182 27.182 0 0 1-2.773 4.34 44.525 44.525 0 0 1-3.119 3.634 44.509 44.509 0 0 1-3.117-3.634 27.181 27.181 0 0 1-2.771-4.34 9.782 9.782 0 0 1-1.179-4.157 7.069 7.069 0 0 1 14.138 0 9.8 9.8 0 0 1-1.179 4.157zm-5.89 9.982s8.483-8.039 8.483-14.138A8.483 8.483 0 1 0 2 8.483c0 6.099 8.483 14.138 8.483 14.138z" transform="translate(1.229 1.237)" style="fill:#222"/>
        <path data-name="Path 138" d="M9.242 10.069a2.828 2.828 0 1 1 2.828-2.828 2.828 2.828 0 0 1-2.828 2.828zm0 1.414A4.242 4.242 0 1 0 5 7.242a4.242 4.242 0 0 0 4.242 4.241z" transform="translate(2.471 2.479)" style="fill:#222"/>
    </g>
</svg>
